<?xml version="1.0" encoding="utf-8"?>
<!-- Generator: Adobe Illustrator 16.0.0, SVG Export Plug-In . SVG Version: 6.00 Build 0)  -->
<!DOCTYPE svg PUBLIC "-//W3C//DTD SVG 1.1//EN" "http://www.w3.org/Graphics/SVG/1.1/DTD/svg11.dtd">
<svg version="1.1" id="Layer_1" xmlns="http://www.w3.org/2000/svg" xmlns:xlink="http://www.w3.org/1999/xlink" x="0px" y="0px"
	 width="1280px" height="274px" viewBox="0 0 1280 274" enable-background="new 0 0 1280 274" xml:space="preserve">
<g>
	<path d="M39.5,27.75c18.33,0,36.67,0,55,0c0,5.92,0,11.83,0,17.75c-5.73-0.01-11.45,0.04-17.18-0.05
		c-0.17,65.01-0.02,130.03-0.07,195.05c-6.35-0.02-12.7,0.04-19.04-0.04c0.1-64.98,0-129.97,0.05-194.95
		c-6.25-0.02-12.51,0-18.76-0.01C39.5,39.58,39.5,33.67,39.5,27.75z"/>
	<path d="M132.5,63.5c6.07-0.02,12.13,0.04,18.2-0.04c0.12,53.01,0.01,106.03,0.05,159.04c6.83,0,13.67,0,20.5,0
		c0.04-53.02-0.08-106.03,0.06-159.05c6.16,0.11,12.31,0,18.47,0.08c-0.07,50.81-0.02,101.62-0.03,152.43
		c-0.07,3.66,0.32,7.41-0.59,11c-1.74,7.72-9.26,13.57-17.15,13.54c-7.33,0-14.67,0.03-22-0.02c-9.58-0.18-17.71-9.07-17.46-18.58
		C132.43,169.1,132.53,116.3,132.5,63.5z"/>
	<g>
		<path d="M236,63.5c12.62,0.07,25.26-0.14,37.88,0.1c8.94,0.12,18.51,6.89,18.6,16.43c0.03,19.34,0.03,38.69,0,58.03
			c-0.07,8.37-5.66,17.09-14.27,18.64c5.96,27.93,11.82,55.87,17.8,83.79c-5.72,0.02-11.44,0.01-17.16,0.01
			c-6.33-27.59-12.75-55.15-19.07-82.74c-2.09-0.01-4.19-0.01-6.28-0.02c-0.01,27.59,0.01,55.18-0.01,82.76c-5.83,0-11.66,0-17.49,0
			C236,181.5,236,122.5,236,63.5z M254.24,81.01c0.02,19.25,0,38.49,0.01,57.74c6.74,0.01,13.48-0.03,20.23,0.03
			c0.05-19.26,0.01-38.52,0.02-57.78C267.74,81.01,260.99,80.99,254.24,81.01z"/>
	</g>
	<g>
		<path d="M342.21,63.54c13.23-0.03,26.46-0.14,39.68,0.04c8.38-0.02,16.29,6.92,16.59,15.43c0.05,18.67,0,37.35,0.02,56.03
			c0.05,5.19-3.66,9.29-7.3,12.53c3.52,2.93,6.93,6.74,7.26,11.54c0.54,7.61,0.19,15.25,0.29,22.88
			c-0.09,11.65,0.22,23.31-0.25,34.96c-0.16,4.95,0.76,10.25-1.71,14.81c-2.67,5.51-8.81,8.69-14.79,8.74
			c-13.24,0.03-26.47-0.05-39.71,0.03C342.17,181.53,342.33,122.53,342.21,63.54z M360.5,81c0,19.25-0.01,38.51,0.01,57.76
			c6.75-0.02,13.49,0,20.24-0.01c0.01-19.25-0.02-38.49,0.02-57.73C374.01,80.98,367.26,81.01,360.5,81z M360.52,157.23
			c-0.05,21.92-0.01,43.85-0.02,65.77c6.75-0.01,13.51,0.02,20.26-0.01c-0.03-21.92,0-43.83-0.01-65.74
			C374.01,157.24,367.26,157.27,360.52,157.23z"/>
	</g>
	<g>
		<path d="M457.41,64.49c5.38-1.55,11.05-0.84,16.58-0.99c6.09,0.12,12.67-0.75,18.24,2.32c5.54,2.94,10.46,8.54,10.28,15.13
			c-0.02,45.37-0.01,90.74,0,136.11c-0.07,3.95,0.46,8.14-1.36,11.81c-2.82,5.9-8.43,10.94-15.12,11.59c-6,0.14-12-0.03-17.99,0.05
			c-3.51-0.03-7.16,0.32-10.48-1.04c-7.02-2.76-12.8-9.68-12.57-17.47c0.01-45.32,0.02-90.65,0-135.98
			c0.04-3.65-0.36-7.5,1.17-10.93C448.24,70.23,452.41,66.26,457.41,64.49z M464.25,81.25c-0.01,46.91,0.01,93.83-0.01,140.74
			c6.5,0.02,13.01,0.02,19.52,0c-0.02-46.92,0-93.83-0.01-140.74C477.25,81.25,470.75,81.25,464.25,81.25z"/>
	</g>
</g>
<g>
	<path d="M554.24,46.97c-0.39-9.08,6.92-17.74,15.85-19.12c7.29-0.28,14.59,0.01,21.89-0.12c10.51-1.11,20.34,8.81,19.78,19.21
		c-0.01,10.43-0.04,20.86,0.01,31.28c-6.26,0.06-12.51,0.02-18.77,0.03c-0.03-10.6,0.06-21.19-0.05-31.79
		c-6.97,0.07-13.94,0.05-20.91,0.01c-0.09,58.84-0.01,117.69-0.04,176.53c7.18-0.03,14.36,0.06,21.55-0.06
		c-0.11-28.48-0.02-56.96-0.05-85.44c-3.17,0-6.34,0-9.5,0c0-5.67,0-11.33,0-17c9.23-0.02,18.47,0.04,27.71-0.03
		c0.05,39.94,0.1,79.88-0.03,119.81c-12.89-0.08-25.78-0.01-38.67-0.02c-7.5,0.02-14.94-4.75-17.71-11.77
		c-1.48-3.67-0.98-7.69-1.05-11.54C554.25,160.29,554.27,103.63,554.24,46.97z"/>
	<g>
		<path d="M660.24,63.51c12.25,0.01,24.51-0.06,36.76,0.03c7.55-0.09,15.27,4.02,18.49,11c1.32,2.63,0.979,5.64,1.03,8.48
			c-0.05,18.66,0,37.32-0.03,55.98c-0.41,7.91-6.01,15.97-14.16,17.34c6.05,27.94,11.92,55.92,17.81,83.9
			c-5.72,0.01-11.43,0.01-17.14,0.01c-6.36-27.69-12.78-55.35-19.15-83.03c-2.04,0.02-4.07,0.03-6.1,0.04
			c-0.02,27.75,0.03,55.5-0.03,83.25c-5.83-0.03-11.66,0.01-17.479-0.03C660.27,181.49,660.25,122.5,660.24,63.51z M678,80.75
			c0,19.17,0,38.33,0,57.5c6.83,0.01,13.66-0.01,20.49,0.01c0.03-19.17,0.01-38.34,0.01-57.51C691.66,80.75,684.83,80.75,678,80.75z
			"/>
	</g>
	<g>
		<path d="M764.01,79.93c0.04-8.04,6.73-15.76,14.91-16.14c8.03-0.11,16.06,0.01,24.09-0.06c4.1-0.07,8.36,0.98,11.58,3.63
			c3.72,3,5.67,7.83,5.66,12.57c-0.01,53.44,0,106.88,0,160.32c-5.75,0-11.5,0-17.25,0c-0.01-28,0.01-56.01-0.01-84.01
			c-7.16,0.01-14.32,0.02-21.47-0.01c-0.05,28.01,0.01,56.02-0.04,84.03c-5.83-0.02-11.65-0.01-17.48-0.01
			C764.01,186.81,763.98,133.37,764.01,79.93z M782,81.75c0.03,18.93-0.06,37.86,0.04,56.79c6.82-0.08,13.64-0.03,20.46-0.04
			c-0.01-18.92,0.02-37.84-0.02-56.76C795.65,81.76,788.83,81.74,782,81.75z"/>
	</g>
	<path d="M864.25,78.95c0.06-7.76,6.85-15.07,14.71-15.19c9.85-0.04,19.69,0.01,29.54-0.01c0,5.25,0,10.5,0,15.75
		c-8.82-0.02-17.64,0.04-26.45-0.04c-0.11,19.77-0.03,39.53-0.04,59.3c7.24-0.02,14.49-0.01,21.74-0.01
		c0,5.83-0.02,11.66,0.01,17.49c-7.25,0.02-14.5,0.01-21.75,0c-0.03,28,0,56.01-0.01,84.01c-5.92,0-11.84,0-17.75,0
		C864.26,186.48,864.25,132.71,864.25,78.95z"/>
	<path d="M952.5,63.75c6.16,0,12.33,0,18.5,0c0.11,16.35-0.23,32.72,0.16,49.06c3.14,5.24,6.8,10.17,10.08,15.34
		c3.22-5.06,6.99-9.79,9.89-15.05c0.28-16.43,0.06-32.89,0.1-49.33c6.18-0.03,12.36-0.04,18.54,0c-0.06,11.75-0.01,23.5-0.02,35.25
		c-0.07,5.46,0.52,11.1-1.5,16.32c-4.1,10.93-10.27,20.92-16.4,30.79c6.97,11.2,14.53,22.54,17.73,35.48
		c0.37,19.62,0.1,39.28,0.13,58.91c-5.74-0.04-11.47-0.01-17.21-0.02c-0.06-19.72,0.12-39.44-0.08-59.15
		c-2.9-5.97-7.27-11.19-10.75-16.86c-3.58,5.48-7.34,10.83-10.94,16.29c-0.01,19.92,0.09,39.84-0.04,59.76
		c-6.07-0.09-12.13-0.02-18.19-0.04c-0.01-18.5,0.02-37-0.01-55.5c-0.08-5.02,2.32-9.61,4.31-14.08
		c4.31-8.66,9.35-16.95,14.74-24.98c-7.22-11.07-15.25-22.13-18.82-35.02C952.2,95.22,952.65,79.47,952.5,63.75z"/>
</g>
<g>
	<path d="M1190.67,124.85c-9.602,0-19.183,0-28.764,0c0,18.431,0,36.884,0,55.314c9.581,0,19.162,0,28.764,0
		C1190.67,161.733,1190.67,143.281,1190.67,124.85z"/>
	<path d="M1229.49,182.45c6.87-20.07,6.53-42.46-0.7-62.37c-6.25-16.98-17.43-32.15-31.98-42.92
		c-20.07-15.18-46.43-21.55-71.23-17.43c-31.24,4.74-59.07,26.66-71.26,55.78c-12.34,28.56-9.19,63.21,8.32,88.97
		c16.81,25.5,46.78,41.82,77.39,41.54c20.45,0.4,40.86-6.5,57.149-18.81C1212.08,215.96,1223.6,200.19,1229.49,182.45z
		 M1084.621,111.994l37.435-0.021c2.301,2.301,4.339,4.204,6.662,6.526c0,5.067,0,10.134,0,15.201c-3.695,0-7.39,0-11.063,0
		c-0.022-2.943-0.022-5.907,0-8.85c-8.851,0-17.701,0-26.551,0c0,18.431,0,36.884,0,55.314c8.85,0,17.701,0,26.551,0
		c-0.022-2.943-0.022-5.907,0-8.85c3.673,0,7.368,0,11.063,0c0,5.067,0,10.134,0,15.201c-2.323,2.323-4.322,4.182-6.623,6.505
		h-37.474l-6.35-6.239l-0.044-68.48L1084.621,111.994z M1141.993,124.85v-12.877h55.138l6.416,6.305v68.436l-6.394,6.306h-55.298
		c-0.021-4.425,0.116-8.43,0.138-12.855c1.66,0,4.979,0,6.638,0c0-18.431,0-36.883,0-55.314H1141.993z"/>
</g>
</svg>
