<?xml version="1.0" encoding="utf-8"?>
<!-- Generator: Adobe Illustrator 16.0.2, SVG Export Plug-In . SVG Version: 6.00 Build 0)  -->
<!DOCTYPE svg PUBLIC "-//W3C//DTD SVG 1.1//EN" "http://www.w3.org/Graphics/SVG/1.1/DTD/svg11.dtd">
<svg version="1.1"
	 id="Ebene_1" sodipodi:docname="namco_lr.svg" inkscape:version="0.91 r13725" xmlns:cc="http://creativecommons.org/ns#" xmlns:inkscape="http://www.inkscape.org/namespaces/inkscape" xmlns:sodipodi="http://sodipodi.sourceforge.net/DTD/sodipodi-0.dtd" xmlns:rdf="http://www.w3.org/1999/02/22-rdf-syntax-ns#" xmlns:dc="http://purl.org/dc/elements/1.1/" xmlns:svg="http://www.w3.org/2000/svg"
	 xmlns="http://www.w3.org/2000/svg" xmlns:xlink="http://www.w3.org/1999/xlink" x="0px" y="0px" width="225.068px"
	 height="28.736px" viewBox="0 0 225.068 28.736" enable-background="new 0 0 225.068 28.736" xml:space="preserve">
<g>
	<path fill-rule="evenodd" clip-rule="evenodd" d="M177.094,17.85c-3.185,0-6.245,0-9.331,0c0.039-0.119,0.044-0.215,0.078-0.226
		c1.786-0.591,1.786-0.59,1.786-2.497c0-1.468,0.001-2.936,0-4.404c0-1.394-0.001-1.392-1.345-1.702
		c-0.176-0.041-0.393,0.016-0.512-0.195c0.046-0.404,0.375-0.271,0.588-0.271c4.085,0.003,8.171-0.023,12.255,0.058
		c1.304,0.026,2.657,0.147,3.696,1.171c1.196,1.18,0.944,2.563-0.617,3.275c-0.909,0.415-1.878,0.569-2.96,0.638
		c0.767,0.685,1.438,1.348,2.175,1.927c0.751,0.59,1.607,1.016,2.48,1.421c0.908,0.422,1.89,0.62,2.822,0.962
		c-0.004,0.104-0.009,0.208-0.014,0.312c-0.988,0-1.979,0.042-2.967-0.009c-1.902-0.096-3.784-0.287-5.572-1.061
		c-1.607-0.695-2.767-1.852-3.688-3.283c-0.198-0.309-0.327-0.767-0.127-1.074c0.179-0.273,0.603-0.091,0.898-0.023
		c0.96,0.218,1.8-0.076,2.649-0.483c0.587-0.282,0.858-0.687,0.84-1.323c-0.018-0.634-0.226-1.102-0.849-1.41
		c-1.199-0.593-2.432-0.646-3.706-0.403c-0.57,0.109-0.812,0.41-0.796,1.047c0.048,1.882,0.081,3.769-0.009,5.647
		c-0.048,0.992,0.418,1.32,1.238,1.512C176.396,17.521,176.744,17.459,177.094,17.85z"/>
	<path fill-rule="evenodd" clip-rule="evenodd" d="M25.244,9.704c0.805-1.159,2.107-1.308,3.313-1.471
		c3.845-0.52,7.696-0.127,11.543,0.093c0.882,0.051,1.064,0.718,1.26,1.347c0.104,0.333,0.698,0.633,0.307,0.958
		c-0.329,0.274-0.752-0.136-1.097-0.329c-1.245-0.696-2.633-0.844-4.001-1.065c-1.667-0.27-3.34-0.465-5.034-0.306
		c-0.032,0.003-0.063,0.002-0.096,0.001c-0.504-0.016-1.045,0.234-1.112,0.618c-0.058,0.332,0.417,0.717,0.854,0.891
		c0.643,0.256,1.282,0.507,1.96,0.667c1.782,0.423,3.52,0.97,5.17,1.789c0.594,0.294,1.081,0.703,1.527,1.152
		c0.904,0.909,0.634,1.859-0.399,2.602c-1.154,0.829-2.572,1.024-3.967,1.114c-2.83,0.182-5.661-0.354-8.495-0.013
		c-0.421,0.051-0.859-0.125-1.095-0.439c-0.604-0.807-1.526-1.318-2.01-2.23c-0.073-0.138-0.406-0.176-0.211-0.406
		c0.102-0.12,0.316-0.182,0.527-0.092c0.837,0.356,1.673,0.718,2.523,1.042c2.023,0.77,4.063,1.452,6.285,1.032
		c0.767-0.145,1.871-0.236,1.937-0.984c0.065-0.74-1.059-0.979-1.745-1.231c-1.949-0.719-3.968-1.258-5.849-2.147
		c-0.749-0.354-1.731-0.435-2.092-1.396C25.03,10.501,25.033,10.103,25.244,9.704z"/>
	<path fill-rule="evenodd" clip-rule="evenodd" d="M60.654,11.629c-1.689-1.033-3.131-1.885-4.823-2.207
		C54.127,9.099,52.42,8.968,50.7,9.109c-1.352,0.111-1.368,0.183-1.381,1.5c-0.021,2.248-0.268,2.153,2.25,1.72
		c1.018-0.175,1.998-0.518,2.916-1.045c0.625-0.359,1.053-0.042,1.06,0.678c0.005,0.606,0.004,1.212,0,1.818
		c-0.005,0.874-0.377,1.107-1.16,0.699c-1.276-0.668-2.638-1.02-4.061-1.199c-0.717-0.09-1.096,0.088-1.011,0.89
		c0.043,0.41,0.007,0.829,0.007,1.243c0,1.265,0.157,1.493,1.45,1.538c3.065,0.107,6.07-0.114,8.756-1.86
		c0.269-0.176,0.583-0.701,0.927-0.365c0.252,0.247,0.04,0.671-0.235,0.997c-0.188,0.225-0.127,0.657-0.313,0.886
		c-0.541,0.665-1.093,1.209-2.131,1.194c-4.626-0.066-9.253-0.026-13.879-0.036c-0.26-0.001-0.701,0.16-0.75-0.152
		c-0.07-0.447,0.424-0.358,0.701-0.408c0.479-0.087,0.7-0.294,0.693-0.822c-0.025-2.201-0.035-4.404,0.004-6.604
		c0.012-0.679-0.357-0.781-0.867-0.861c-0.228-0.035-0.593-0.017-0.562-0.364c0.027-0.3,0.354-0.195,0.553-0.195
		c4.85-0.007,9.7,0.001,14.55-0.013c0.801-0.002,1.274,0.564,1.638,1.064C60.246,9.951,60.34,10.706,60.654,11.629z"/>
	<path fill-rule="evenodd" clip-rule="evenodd" d="M204.176,14.03c0-1.273-0.075-2.365,0.023-3.44
		c0.079-0.863-0.323-1.265-1.015-1.547c-0.2-0.081-0.406-0.148-0.604-0.305c1.696-0.292,3.391-0.193,5.12-0.14
		c-0.046,0.19-0.055,0.298-0.073,0.3c-1.285,0.111-1.399,0.932-1.364,2.006c0.07,2.136,0.021,4.275,0.021,6.414
		c-0.001,1.165-0.139,1.271-1.187,0.786c-2.383-1.101-4.754-2.226-7.132-3.335c-1.329-0.62-2.664-1.228-4.133-1.904
		c0,1.337,0.008,2.533-0.004,3.729c-0.004,0.486,0.31,0.648,0.693,0.774c0.309,0.101,0.712,0.001,0.942,0.481
		c-1.965,0-3.874,0-5.85,0c0.195-0.361,0.449-0.28,0.646-0.33c1.162-0.287,1.581-0.692,1.474-1.877
		c-0.063-0.696-0.08-1.411,0.001-2.104c0.249-2.139-0.688-3.554-2.567-4.447c-0.138-0.065-0.244-0.193-0.417-0.334
		c0.654-0.389,1.304-0.172,1.92-0.044c3.011,0.623,5.816,1.836,8.612,3.063C200.882,12.479,202.456,13.235,204.176,14.03z"/>
	<path fill-rule="evenodd" clip-rule="evenodd" d="M67.585,14.146c0.399,2.009,1.341,2.987,3.51,3.219
		c1.337,0.143,2.722,0.106,3.69-1.127c0.502-0.64,0.432-1.185-0.264-1.567c-0.523-0.288-1.064-0.563-1.692-0.561
		c-0.208,0.001-0.396-0.087-0.411-0.311c-0.019-0.282,0.231-0.266,0.409-0.267c2.218-0.006,4.436-0.004,6.744,0.099
		c-1.703,0.804-1.246,2.275-1.244,3.565c0.001,0.697-0.146,1.006-0.905,0.783c-0.902-0.265-1.811-0.197-2.739-0.045
		c-3.46,0.567-6.845,0.326-10.017-1.281c-1.284-0.65-2.417-1.476-2.926-3.003c-0.269-0.807,0.051-1.33,0.388-1.855
		c1.175-1.833,3.075-2.533,5.063-3.026c2.379-0.59,4.793-0.61,7.213-0.303c0.739,0.094,1.471,0.093,2.166-0.163
		c0.869-0.32,1.412-0.033,1.772,0.771c0.172,0.383,0.347,0.772,0.581,1.118c0.201,0.296,0.3,0.659,0.102,0.868
		c-0.232,0.244-0.542,0.016-0.814-0.172c-0.533-0.367-1.079-0.739-1.669-0.997c-2.484-1.082-5.01-1.264-7.523-0.115
		c-0.916,0.418-1.317,1.262-1.434,2.241C67.337,12.727,67.304,13.437,67.585,14.146z"/>
	<path fill-rule="evenodd" clip-rule="evenodd" d="M147.999,8.733c0.146-0.083,0.22-0.164,0.295-0.165
		c2.646-0.012,5.294-0.017,7.941-0.018c0.175,0,0.428-0.056,0.448,0.213c0.021,0.279-0.25,0.218-0.415,0.268
		c-1.455,0.438-1.455,0.437-1.455,1.932c0,1.021,0.035,2.042-0.007,3.062c-0.079,1.897,0.663,2.389,2.067,2.855
		c1.275,0.424,2.589,0.35,3.934-0.009c1.405-0.375,1.838-1.481,1.966-2.802c0.107-1.106-0.052-2.237,0.043-3.346
		c0.092-1.066-0.469-1.441-1.345-1.669c-0.251-0.065-0.586,0.063-0.832-0.385c2.104,0,4.13,0,6.212,0
		c-0.082,0.15-0.099,0.234-0.141,0.25c-1.967,0.721-1.968,0.72-1.968,2.805c0,0.893,0,1.787,0,2.679
		c0,1.829-0.318,2.303-2.036,3.004c-2.433,0.992-4.97,0.899-7.509,0.674c-1.228-0.109-2.421-0.407-3.539-0.956
		c-1.061-0.522-1.824-1.189-1.719-2.553c0.095-1.236,0.02-2.486,0.02-3.73c0-1.334-0.087-1.442-1.418-1.783
		c-0.123-0.032-0.249-0.057-0.366-0.105C148.127,8.934,148.099,8.861,147.999,8.733z"/>
	<path fill-rule="evenodd" clip-rule="evenodd" d="M128.837,17.616c-2.13,0.183-4.228,0.198-6.353-0.093
		c0.399-0.129,0.796-0.27,1.199-0.385c0.615-0.175,0.648-0.596,0.337-1.008c-0.977-1.292-1.997-2.552-3.005-3.82
		c-0.273-0.343-0.534-0.447-0.898-0.051c-1.267,1.375-2.561,2.726-3.85,4.08c-0.33,0.349-0.29,0.578,0.167,0.758
		c0.29,0.115,0.559,0.285,0.852,0.438c-0.169,0.314-0.47,0.235-0.728,0.236c-2.169,0.006-4.337,0.008-6.505-0.004
		c-0.224-0.001-0.577,0.151-0.64-0.206c-0.06-0.342,0.304-0.341,0.523-0.428c1.037-0.409,1.712-1.302,2.406-2.062
		c1.301-1.424,2.618-2.833,3.933-4.245c0.703-0.754,1.358-1.553,2.085-2.282c0.983-0.987,1.517-0.856,2.326,0.261
		c0.951,1.312,2.059,2.509,3.019,3.815c0.891,1.212,1.934,2.297,2.782,3.549C127.014,16.945,127.963,17.25,128.837,17.616z"/>
	<path fill-rule="evenodd" clip-rule="evenodd" d="M99.625,17.684c-2.041,0-4.083,0-6.124,0c-0.011-0.054-0.022-0.108-0.033-0.163
		c0.453-0.16,0.901-0.338,1.36-0.477c0.486-0.146,0.515-0.482,0.246-0.775c-1.143-1.244-1.996-2.718-3.171-3.938
		c-0.338-0.352-0.427-0.474-0.819-0.047c-1.29,1.406-2.65,2.748-3.972,4.126c-0.223,0.232-0.297,0.487,0.124,0.647
		c0.313,0.119,0.607,0.289,0.888,0.427c-0.05,0.429-0.341,0.283-0.523,0.284c-2.17,0.011-4.341,0.012-6.511-0.001
		c-0.221-0.001-0.567,0.168-0.644-0.194c-0.075-0.35,0.265-0.37,0.498-0.447c0.928-0.305,1.476-1.117,2.046-1.777
		c2-2.318,4.271-4.381,6.221-6.745c0.902-1.093,1.773-0.931,2.529,0.319c0.405,0.67,0.958,1.249,1.445,1.849
		c1.407,1.732,2.785,3.485,4.125,5.27C97.906,16.836,98.832,17.106,99.625,17.684z"/>
	<path fill-rule="evenodd" clip-rule="evenodd" d="M126.902,10.085c0.951-1.671,2.492-1.565,4.053-1.551
		c4.274,0.038,8.55,0.078,12.821-0.025c1.373-0.033,2.105,0.735,3.094,1.551c-0.586,0.109-0.979,0.039-1.415-0.087
		c-1.75-0.504-3.552-0.668-5.368-0.729c-0.608-0.021-0.822,0.173-0.807,0.817c0.045,1.913,0.059,3.829-0.002,5.74
		c-0.032,1.02,0.528,1.37,1.356,1.582c0.271,0.07,0.785-0.1,0.725,0.367c-0.054,0.413-0.535,0.204-0.815,0.206
		c-2.551,0.018-5.103,0.016-7.654,0c-0.241-0.001-0.665,0.151-0.68-0.259c-0.011-0.309,0.381-0.238,0.613-0.295
		c1.378-0.342,1.46-0.444,1.46-1.831c0-1.882-0.02-3.764,0.012-5.646c0.01-0.54-0.134-0.707-0.685-0.687
		c-1.883,0.065-3.744,0.243-5.564,0.751C127.656,10.099,127.271,10.246,126.902,10.085z"/>
	<path fill-rule="evenodd" clip-rule="evenodd" fill="#610101" d="M105.89,14.519c0.553,0.639,1.02,1.333,1.364,2.107
		c-0.248,0.29-0.604,0.348-0.944,0.391c-1.451,0.181-2.909,0.104-4.364,0.062c-0.229-0.007-0.428-0.108-0.599-0.261
		c-0.571-0.627-1.319-1.138-1.378-2.101c0.131-0.196,0.325-0.337,0.544-0.355C102.311,14.204,104.112,13.972,105.89,14.519z"/>
	<path fill-rule="evenodd" clip-rule="evenodd" fill="#410101" d="M101.347,16.817c1.97-0.029,3.945,0.107,5.907-0.191
		c0.159,0.24,0.466,0.399,0.415,0.755c0.275,0.579,0.231,1.168,0.045,1.759c-0.375,0.313-0.831,0.256-1.268,0.266
		c-1.261,0.027-2.525-0.061-3.783,0.113C102.189,18.635,101.612,17.802,101.347,16.817z"/>
	<path fill-rule="evenodd" clip-rule="evenodd" fill="#5C5C5C" d="M40.637,16.638c0.015-0.304,0.476-0.394,0.362-0.758
		c0.647-0.406,0.97-0.309,1.133,0.35c0.086,0.348,0.06,0.682-0.178,0.974c-0.032,0.047-0.044,0.099-0.037,0.155
		c0.047,1.281-1.018,1.486-1.857,1.813c-2.037,0.794-4.194,0.665-6.315,0.581c-1.655-0.065-3.308-0.018-4.961-0.066
		c-0.948-0.028-1.66-0.517-1.951-1.321c1.275-0.12,2.55-0.405,3.83-0.036c-0.573,0.491-1.27,0.135-1.884,0.341
		c0.648,0.031,1.321,0.236,1.879-0.343c1.784,0.011,3.567,0.021,5.35,0.03c0.057,0.197-0.11,0.275-0.274,0.465
		c1.608,0.178,3.059-0.184,4.455-0.786C40.802,17.771,40.795,17.204,40.637,16.638z"/>
	<path fill-rule="evenodd" clip-rule="evenodd" fill="#130202" d="M105.928,21.918c-2.158,1.756-4.771,2.431-7.389,3.085
		c-0.211,0.054-0.559,0.152-0.65-0.188c-0.082-0.306,0.273-0.303,0.437-0.398c1.485-0.867,2.858-1.87,3.978-3.192
		c1.128-0.231,2.263-0.097,3.391-0.015C106.147,21.242,106.298,21.533,105.928,21.918z"/>
	<path fill-rule="evenodd" clip-rule="evenodd" fill="#EB0404" d="M98.613,6.455c0.811-1.121,2.088-1.5,3.271-1.994
		c1.322-0.552,2.743-0.76,4.158-0.949c0.275-0.037,0.688-0.165,0.771,0.15c0.117,0.442-0.41,0.388-0.646,0.49
		c-1.35,0.583-2.595,1.29-3.47,2.52C101.312,7.042,99.93,7.362,98.613,6.455z"/>
	<path fill-rule="evenodd" clip-rule="evenodd" fill="#260101" d="M105.928,21.918c0.148-0.434-0.046-0.505-0.448-0.515
		c-1.06-0.025-2.135,0.166-3.176-0.18c0.167-0.559,0.456-1.091,0.359-1.705c0.086-0.51,0.487-0.398,0.814-0.4
		c1.383-0.006,2.766-0.001,4.148-0.001c0.129,0.118,0.144,0.25,0.047,0.396C107.188,20.384,106.958,21.441,105.928,21.918z"/>
	<path fill-rule="evenodd" clip-rule="evenodd" fill="#D8D8D8" d="M110.341,20.658c-0.46,1.87-1.629,3.146-3.252,4.137
		c-1.806,1.102-3.787,1.692-5.782,2.274c-0.092,0.027-0.185,0.067-0.277,0.069c-0.784,0.02-1.859,0.231-2.079-0.644
		c-0.18-0.717,0.802-1.048,1.484-1.301c0.355-0.131,0.675-0.369,1.081-0.337c0.121,0.486-0.317,0.545-0.569,0.744
		c-0.207,0.164-0.638,0.228-0.484,0.575c0.129,0.292,0.511,0.156,0.785,0.119c0.692-0.093,1.353-0.303,2.019-0.515
		c1.465-0.465,2.83-1.121,4.135-1.922c0.283-0.174,0.506-0.38,0.58-0.714c0.073-0.247,0.165-0.482,0.414-0.607
		c0.31,0.091,0.111-0.126,0.126-0.216c0.049-0.187,0.188-0.29,0.341-0.382c0.464-0.272,0.387-0.741,0.445-1.171
		c0.108-0.807-0.223-1.625,0.077-2.424c0.188,0.006,0.377,0.012,0.566,0.018c0.212,0.503,0.744,0.261,1.085,0.468
		c0.098,0.233,0.083,0.459-0.041,0.678C110.459,19.711,110.622,20.311,110.341,20.658z"/>
	<path fill-rule="evenodd" clip-rule="evenodd" fill="#780101" d="M105.89,14.519c-1.974,0.076-3.958-0.188-5.921,0.198
		c-0.534-0.476-1.008-0.99-1.164-1.721c0.128-0.159,0.306-0.25,0.497-0.257c1.779-0.057,3.557-0.16,5.334,0.035
		C105.423,13.09,105.374,14.007,105.89,14.519z"/>
	<path fill-rule="evenodd" clip-rule="evenodd" fill="#E1E1E1" d="M207.259,9.906c0.773-0.332,1.541-0.29,2.273,0.095
		c0.591,0.311,0.629,0.816,0.039,1.138c-0.524,0.286-0.584,0.671-0.58,1.176c0.012,2.129,0.005,4.258,0.004,6.387
		c0,1.195-0.561,1.761-1.79,1.749c-0.922-0.009-1.703-0.429-2.439-0.941c0.11-0.139,0.263-0.188,0.433-0.202
		c0.563-0.009,0.994,0.404,1.532,0.483c0.972,0.143,1.232-0.08,1.236-1.108c0.01-2.066,0.002-4.133,0.004-6.199
		c0.001-0.522,0.047-1.017,0.527-1.356c0.659-0.466,0.287-0.684-0.217-0.867c-0.298-0.108-0.64-0.045-0.917-0.234
		C207.329,9.985,207.294,9.946,207.259,9.906z"/>
	<path fill-rule="evenodd" clip-rule="evenodd" fill="#A80202" d="M98.243,11.883c-0.445-0.375-0.871-0.762-0.912-1.4
		c-0.047-0.458,0.165-0.768,0.61-0.787c1.626-0.071,3.255-0.189,4.88,0.033c0.385,0.575,0.769,1.149,1.152,1.723
		c-0.391,0.378-0.89,0.275-1.355,0.291C101.16,11.792,99.696,11.642,98.243,11.883z"/>
	<path fill-rule="evenodd" clip-rule="evenodd" fill="#8F0202" d="M98.243,11.883c0.096-0.567,0.544-0.424,0.897-0.427
		c1.611-0.01,3.222-0.004,4.833-0.004c0.08,0.511,0.644,0.78,0.662,1.321c-0.684,0.371-1.424,0.186-2.139,0.204
		c-1.23,0.03-2.461,0.015-3.692,0.019C98.692,12.587,98.203,12.369,98.243,11.883z"/>
	<path fill-rule="evenodd" clip-rule="evenodd" fill="#D50505" d="M98.613,6.455c1.342,0.436,2.725,0.095,4.083,0.217
		c-0.099,0.76-0.162,1.521-0.062,2.287c-1.513-0.423-3.063-0.239-4.6-0.291c-0.32-0.011-0.64-0.032-0.887-0.28
		C97.527,7.66,97.712,6.787,98.613,6.455z"/>
	<path fill-rule="evenodd" clip-rule="evenodd" fill="#7F7F7F" d="M152.487,18.136c0.436,0.423,1.103-0.043,1.533,0.4
		c0.826,0.467,1.725,0.698,2.658,0.823c2.256,0.298,4.493,0.276,6.699-0.338c0.861-0.369,1.636-0.883,2.385-1.438
		c0.388-0.262,0.225-0.658,0.243-1.011c0.137-1.48,0.051-2.963,0.095-4.444c0.01-0.364-0.114-0.78,0.356-0.979
		c0.192-0.031,0.361,0.005,0.492,0.162c0.423,1.366,0.135,2.768,0.196,4.151c0.027,0.589,0.125,1.215-0.282,1.744
		c-0.024,0.047-0.038,0.097-0.042,0.148c-0.281,1.394-1.516,1.705-2.56,2.166c-1.011,0.447-2.119,0.675-3.22,0.722
		c-2.153,0.093-4.312,0.09-6.407-0.552c-0.82-0.252-1.645-0.506-2.313-1.074C152.047,18.383,151.825,18.086,152.487,18.136z"/>
	<path fill-rule="evenodd" clip-rule="evenodd" fill="#C1C1C1" d="M141.326,18.576c0.733-0.5,1.292-0.038,1.778,0.403
		c0.374,0.339,0.284,0.769-0.212,0.973c-0.254,0.104-0.556,0.125-0.836,0.125c-2.419,0.009-4.837,0.007-7.255,0.002
		c-0.253-0.001-0.513-0.01-0.756-0.071c-0.282-0.072-0.523-0.215-0.53-0.579c-0.006-0.299,0.142-0.454,0.383-0.595
		c0.614-0.357,1.272-0.348,1.943-0.273c-0.087,0.469,0.055,0.694,0.584,0.685c1.337-0.024,2.675-0.024,4.011,0.001
		C140.949,19.256,141.192,19.015,141.326,18.576z"/>
	<path fill-rule="evenodd" clip-rule="evenodd" fill="#AFAFAF" d="M45.415,18.374c0.25-0.002,0.501-0.003,0.751-0.005
		c-0.126,0.52-0.15,0.882,0.608,0.875C51.11,19.2,55.446,19.271,59.78,19.2c0.182-0.057,0.344-0.154,0.498-0.264
		c0.07-0.054,0.145-0.102,0.22-0.147c0.259-0.146,0.508-0.309,0.726-0.516c0.589-0.811,0.563-0.938-0.297-1.445
		c-0.004-0.066-0.008-0.132-0.012-0.197c0.244-0.215,0.509-0.367,0.851-0.38c0.795-0.029,1.18,0.438,0.98,1.209
		c-0.31,1.197-1.663,2.326-2.907,2.417c-0.952,0.068-1.903,0.116-2.858,0.101c-3.722-0.06-7.446,0.108-11.167-0.097
		c-0.127-0.007,0.032-0.004-0.096,0c-0.514,0.018-1.013-0.086-1.134-0.646C44.453,18.631,45.056,18.588,45.415,18.374z"/>
	<path fill-rule="evenodd" clip-rule="evenodd" fill="#BF0202" d="M97.148,8.388c1.258,0,2.515,0.02,3.772-0.009
		c0.657-0.015,1.279-0.019,1.714,0.58c0.063,0.257,0.125,0.514,0.187,0.771c-1.469,0.391-2.966,0.135-4.449,0.171
		c-0.503,0.013-0.837,0.129-1.041,0.583C96.949,9.813,97.168,9.09,97.148,8.388z"/>
	<path fill-rule="evenodd" clip-rule="evenodd" fill="#D2D2D2" d="M26.832,18.365c0.702,0.815,1.565,1.154,2.665,1.134
		c2.538-0.048,5.079,0.019,7.618,0.003c1.346-0.008,2.614-0.352,3.818-0.983c0.515-0.271,0.838-0.618,0.983-1.16
		c0.325,1.158,0.179,1.334-0.977,1.777c-2.587,0.991-5.238,1.071-7.954,0.79c-1.229-0.128-2.486-0.086-3.725-0.019
		c-1.427,0.077-2.465-0.526-3.336-1.591C26.273,18.047,26.55,18.231,26.832,18.365z"/>
	<path fill-rule="evenodd" clip-rule="evenodd" fill="#787878" d="M50.378,11.862c-0.542-1.468-0.215-2.006,1.247-1.981
		c1.399,0.024,2.802-0.085,4.197,0.183c1.111,0.213,2.088,0.666,2.99,1.333c0.464,0.344,1.007,0.526,1.584,0.601
		c0.193,0.024,0.537-0.059,0.419,0.313c-0.073,0.229-0.35,0.251-0.573,0.184c-0.115-0.035-0.203-0.151-0.312-0.215
		c-1.417-0.827-3.042-1.135-4.579-1.532c-1.219-0.314-2.622,0.123-3.811,0.796c-0.248,0.14-0.472,0.334-0.787,0.281
		c-0.412-0.843,0.526-0.816,0.789-1.244c-0.551-0.105-0.901,0.062-0.958,0.669C50.563,11.468,50.549,11.692,50.378,11.862z"/>
	<path fill-rule="evenodd" clip-rule="evenodd" fill="#E0E0E0" d="M45.415,18.374c-0.136,0.354-0.779,0.44-0.645,0.837
		c0.175,0.517,0.74,0.466,1.226,0.506c4.129,0.332,8.263,0.089,12.395,0.13c1.545,0.016,3.041-0.232,3.891-1.827
		c0.229-0.432,0.568-0.851,0.225-1.288c-0.326-0.416-0.838-0.382-1.314-0.168c-0.085,0.039-0.185,0.046-0.278,0.067
		c0.278-0.813,1.025-0.715,1.5-0.507c0.609,0.267,1.321,0.475,1.755,1.072c0.007,0.316,0.718,0.293,0.374,0.777
		c-0.284-0.002-0.442-0.218-0.65-0.36c-0.499-0.344-0.878-0.38-1.163,0.321c-0.573,1.408-1.711,2.116-3.197,2.126
		c-4.684,0.031-9.369,0.011-14.053,0.011c-0.032,0-0.063-0.001-0.095,0c-0.608,0.004-1.287-0.113-1.28-0.807
		C44.111,18.577,44.699,18.268,45.415,18.374z"/>
	<path fill-rule="evenodd" clip-rule="evenodd" fill="#808080" d="M155.776,10.699c-0.115-0.535,0.226-0.678,0.645-0.714
		c0.186-0.016,0.377,0.055,0.566,0.076c0.461,0.051,1.123-0.096,1.259,0.406c0.095,0.35-0.459,0.694-0.851,0.895
		c-0.364,0.186-0.349,0.496-0.35,0.815c-0.003,0.957,0.025,1.916-0.022,2.87c-0.016,0.313,0.293,0.909-0.307,0.904
		c-0.493-0.003-0.951-0.378-0.973-0.973c-0.032-0.86-0.015-1.722-0.01-2.583c0.002-0.382,0.024-0.763,0.037-1.145
		c0.259-0.16,0.797,0.173,0.736-0.494C156.315,10.662,156.012,10.947,155.776,10.699z"/>
	<path fill-rule="evenodd" clip-rule="evenodd" fill="#B0B0B0" d="M82.752,18.37c0.326,0,0.651,0,0.977,0.001
		c-0.144,0.466-0.027,0.701,0.516,0.69c1.141-0.022,2.283,0.001,3.425-0.012c0.475-0.006,0.849-0.101,0.626-0.717
		c0.401-0.22,0.894-0.364,0.813-0.982c0.873-1.217,1.996-2.195,3.058-3.232c0.69,0.271,0.736,0.643,0.192,1.131
		c-0.28,0.253-0.534,0.533-0.8,0.801c-0.708,0.442-1.138,1.161-1.717,1.731l0.001-0.001c-0.26,0.344-0.263,0.692-0.032,1.055
		c0.32,0.501,0.105,0.812-0.41,0.876c-2.307,0.286-4.62,0.224-6.931,0.038c-0.321-0.026-0.633-0.188-0.637-0.587
		C81.831,18.555,82.351,18.523,82.752,18.37z"/>
	<path fill-rule="evenodd" clip-rule="evenodd" fill="#C9C9C9" d="M64.542,17.974c0.145-0.389-0.602-0.348-0.374-0.776
		c0.414,0.268,0.97,0.205,1.34,0.575c1.789,1.107,3.782,1.521,5.829,1.867c2.623,0.442,5.181-0.379,7.776-0.218
		c0.818,0.051,0.572-0.807,0.987-1.091c0.419-0.042,0.573,0.168,0.557,0.564c-0.015,0.382,0.034,0.767-0.398,0.991
		c-0.326,0.17-0.663,0.213-1.016,0.196c-1.561-0.071-3.101,0.257-4.642,0.303C71.059,20.492,67.56,20.168,64.542,17.974z"/>
	<path fill-rule="evenodd" clip-rule="evenodd" fill="#787878" d="M140.979,16.786c-0.551,0.021-0.781-0.206-0.771-0.793
		c0.031-1.688,0.011-3.377,0.005-5.065c-0.001-0.441,0.017-0.868,0.616-0.851c1.294,0.038,2.607-0.099,3.859,0.377
		c-0.348,0.189-0.52,0.413-0.576,0.749c-0.45,0.116-0.875-0.005-1.314-0.088c-0.979-0.185-1.509,0.268-1.525,1.261
		c-0.019,1.081,0.001,2.162-0.01,3.242C141.26,16.026,141.304,16.453,140.979,16.786z"/>
	<path fill-rule="evenodd" clip-rule="evenodd" fill="#D3D3D3" d="M152.487,18.136c-0.357,0.083-0.196,0.175-0.021,0.314
		c1.009,0.801,2.223,1.153,3.435,1.345c2.592,0.409,5.202,0.528,7.762-0.278c1.27-0.399,2.395-1.019,3.158-2.162
		c0.17,0.828-0.277,1.306-0.938,1.671c-2.738,1.515-5.706,1.62-8.71,1.349c-1.765-0.16-3.502-0.51-5.026-1.521
		c-0.444-0.295-0.849-0.622-1.336-1.215C151.549,17.769,152.035,17.886,152.487,18.136z"/>
	<path fill-rule="evenodd" clip-rule="evenodd" fill="#232323" d="M102.829,24.445c1.512-0.697,3.098-1.266,4.32-2.466
		c0.451-0.442,0.916-0.882,1.109-1.516c0.711-0.158,0.55,0.359,0.456,0.674c-0.234,0.784-0.494,1.567-1.189,2.108
		c-0.245,0.19-0.497,0.396-0.628,0.699c-0.16,0.254-0.396,0.406-0.674,0.502c-1.084,0.223-2.019,0.85-3.08,1.137
		c-0.706-0.007-0.654-0.413-0.471-0.89C102.724,24.61,102.776,24.527,102.829,24.445z"/>
	<path fill-rule="evenodd" clip-rule="evenodd" fill="#DCDCDC" d="M81.411,11.644c0.004,0.06,0.006,0.12,0.004,0.181
		c0.223,0.324,0.233,0.646-0.007,0.966c-1.239,0.632-2.358,0.193-3.387-0.475c-2.032-1.317-4.196-1.008-6.348-0.557
		c-1.07,0.224-1.197,1.275-1.357,2.156c-0.101,0.555-0.01,1.143-0.024,1.716c-0.008,0.302,0.142,0.74-0.236,0.843
		c-0.409,0.111-0.58-0.288-0.71-0.624c-0.236-1.548-0.084-2.979,1.199-4.083c0.243-0.21,0.483-0.437,0.786-0.529
		c2.197-0.666,4.364-0.758,6.448,0.409l-0.013-0.013c0.363,0.264,0.815,0.324,1.206,0.541c1.179,0.654,1.489,0.552,2.046-0.584
		C81.159,11.528,81.292,11.535,81.411,11.644z"/>
	<path fill-rule="evenodd" clip-rule="evenodd" fill="#5E5E5E" d="M205.161,18.862c0.653,0.096,1.273,0.072,1.74-0.492
		c0.253-0.334,0.177-0.726,0.178-1.098c0.007-1.925-0.001-3.85,0.007-5.774c0.001-0.342-0.065-0.698,0.13-1.018
		c0.605-0.292,1.119-0.388,1.148,0.541c-0.27,0.377-0.335,0.797-0.332,1.257c0.015,2.072,0.014,4.145,0.004,6.216
		c-0.006,1.359-0.645,1.752-1.913,1.182c-0.318-0.143-0.643-0.281-0.932-0.484C205.111,19.089,205.101,18.979,205.161,18.862z"/>
	<path fill-rule="evenodd" clip-rule="evenodd" fill="#C8C8C8" d="M110.904,19.501c0.002-0.256,0.004-0.513,0.007-0.769
		c-0.067-0.043-0.088-0.084-0.063-0.123c0.023-0.038,0.047-0.058,0.07-0.058c0.36-0.239,0.757-0.23,1.161-0.175
		c-0.375,0.616-0.234,0.887,0.519,0.964c1.522,0.156,3.044,0.126,4.563,0.036c0.817-0.049,0.873-0.241,0.641-1.23
		c0.213-0.28,0.194-0.607,0.189-0.932c1.045-0.396,1.695-1.253,2.395-2.051c0.306-0.35,0.518-0.809,1.07-0.841
		c0.66,0.266,0.354,0.575,0.05,0.903c-0.808,0.867-1.578,1.771-2.423,2.601c-0.41,0.402-0.256,0.627,0.063,0.909
		c0.298,0.648-0.049,0.949-0.615,1.116c-0.274,0.081-0.557,0.126-0.848,0.125c-1.819-0.006-3.64,0.01-5.458-0.012
		C111.749,19.96,111.218,20.01,110.904,19.501z"/>
	<path fill-rule="evenodd" clip-rule="evenodd" fill="#D3D3D3" d="M166.863,17.206c0.005-1.977,0.01-3.953,0.015-5.93
		c0.071-0.254,0.403-0.318,0.441-0.619c-0.362-0.432-0.988-0.166-1.39-0.5c0.461-0.929,1.271-0.265,1.906-0.393
		c0.433-0.087,0.856,0.266,0.952,0.645c0.074,0.294-0.131,0.763-0.562,0.833c-0.625,0.102-0.617,0.529-0.616,0.991
		c0.003,1.333-0.018,2.667,0.009,4C167.63,16.798,167.475,17.161,166.863,17.206z"/>
	<path fill-rule="evenodd" clip-rule="evenodd" fill="#2F2F2F" d="M92.168,14.118c-0.825,1.262-1.865,2.319-3.058,3.232
		c-1.265-0.568-0.749-1.164-0.067-1.834c0.537-0.527,1.069-1.061,1.559-1.644C91.396,12.928,91.45,12.973,92.168,14.118z"/>
	<path fill-rule="evenodd" clip-rule="evenodd" fill="#949494" d="M140.979,16.786c0.004-1.453,0.007-2.906,0.013-4.359
		c0.005-1.054,0.741-1.712,1.754-1.489c0.504,0.111,0.998,0.119,1.501,0.128c0.6-0.308,1.154,0.088,1.733,0.113
		c0.408,0.018,0.848,0.129,0.939-0.47c0.248-0.037,0.507-0.136,0.74-0.095c0.426,0.073,0.649,0.362,0.623,0.821
		c-0.027,0.46-0.309,0.597-0.708,0.577c-0.284-0.014-0.577-0.022-0.847-0.099c-1.294-0.368-2.63-0.446-3.953-0.605
		c-0.925-0.111-1.215,0.163-1.22,1.069c-0.008,1.242,0.001,2.484-0.005,3.726C141.548,16.477,141.629,16.942,140.979,16.786z"/>
	<path fill-rule="evenodd" clip-rule="evenodd" fill="#5E5E5E" d="M33.319,10.497c-0.657-0.01-1.162-0.343-1.806-0.812
		c1.781-0.196,3.379-0.063,4.976,0.14c1.44,0.183,2.873,0.389,4.097,1.267c-0.02,0.333-0.255,0.314-0.475,0.269
		C37.87,10.895,35.591,10.725,33.319,10.497z"/>
	<path fill-rule="evenodd" clip-rule="evenodd" fill="#C8C8C8" d="M128.914,18.378c0.521-0.172,1.716,0.233,1.829,0.686
		c0.14,0.558-0.399,0.729-0.739,0.78c-1.759,0.27-3.533,0.329-5.293,0c-0.345-0.064-0.832-0.179-0.896-0.596
		c-0.067-0.436,0.473-0.427,0.717-0.646c0.399-0.36,0.881-0.286,1.355-0.229c-0.042,0.691,0.303,0.941,0.964,0.887
		c0.377-0.03,0.767-0.051,1.138,0.006C128.717,19.376,128.965,19.048,128.914,18.378z"/>
	<path fill-rule="evenodd" clip-rule="evenodd" fill="#5A5A5A" d="M163.593,19.114c-0.413,0.531-1.054,0.386-1.586,0.477
		c-1.832,0.311-3.675,0.373-5.501-0.092c0.782-0.517,1.644-0.148,2.328-0.239c-0.403-0.085-0.954-0.039-1.498-0.088
		c-0.315-0.028-0.722,0.065-0.833-0.407c1.171,0,2.345-0.046,3.514,0.01c1.692,0.08,3.106-0.639,4.509-1.434
		c0.401,0.505-0.008,0.718-0.343,0.963C163.901,18.51,163.397,18.56,163.593,19.114z"/>
	<path fill-rule="evenodd" clip-rule="evenodd" fill="#9A9A9A" d="M205.161,18.862c0.008,0.081,0.016,0.161,0.023,0.242
		c-0.105,0.123-0.242,0.163-0.398,0.155c-1.916-0.678-3.705-1.637-5.537-2.503c-0.655-0.31-1.333-0.566-1.979-0.904
		c-0.749-0.391-1.064-0.201-1.263,0.634c-0.044,0.187-0.065,0.378-0.234,0.504c-0.198-0.02-0.425,0.072-0.572-0.147
		c-0.455-1.338-0.209-1.883,0.973-2.146C199.21,15.998,202.193,17.412,205.161,18.862z"/>
	<path fill-rule="evenodd" clip-rule="evenodd" fill="#202020" d="M40.637,16.638c0.545,0.537,0.534,1.077-0.116,1.491
		c-1.013,0.646-2.192,0.8-3.352,0.96c-0.469,0.065-0.954,0.028-1.431,0.014c-0.205-0.006-0.526,0.104-0.576-0.175
		c-0.063-0.354,0.289-0.327,0.522-0.395c0.115-0.034,0.216-0.115,0.323-0.176c1.315-0.27,2.636-0.517,3.869-1.089
		C40.195,17.12,40.493,16.981,40.637,16.638z"/>
	<path fill-rule="evenodd" clip-rule="evenodd" fill="#3B3B3B" d="M163.593,19.114c-0.175-0.026-0.436,0.058-0.479-0.173
		c-0.055-0.292,0.235-0.405,0.428-0.555c0.382-0.298,1.115-0.265,0.983-1.046c1.657-1.036,1.394-2.691,1.382-4.271
		c-0.006-0.854,0.017-1.708,0.026-2.563c0.673-0.108,0.782,0.171,0.495,0.721c-0.396,0.638-0.094,1.333-0.139,1.998
		c-0.08,1.188-0.021,2.386-0.021,3.58c-0.31,0.242-0.05,0.725-0.4,0.95C165.174,18.316,164.466,18.854,163.593,19.114z"/>
	<path fill-rule="evenodd" clip-rule="evenodd" fill="#D2D2D2" d="M184.064,18.751c1.671,0.037,3.352-0.203,5.012,0.168
		c0.394,0.293,1.234,0.271,1.019,1c-0.178,0.599-0.844,0.669-1.446,0.633c-1.007-0.061-2.021,0.104-3.025-0.093
		c-2.738-0.135-5.194-0.998-7.319-2.771c-0.59-0.493-1.354-0.639-2.085-0.823c0.163-0.313,0.495-0.314,0.771-0.422
		c0.533,0.61,1.405,0.734,1.937,1.35c1.078,0.299,1.959,1.046,3.037,1.346c0.088,0.028,0.173,0.063,0.257,0.101
		c2.16,0.71,4.362,0.913,6.776,0.664c-0.528-0.702-1.108-0.729-1.707-0.709c-0.212,0-0.423-0.006-0.635,0.015
		c-0.561,0.004-1.12,0.015-1.677-0.015C184.625,19.175,184.203,19.237,184.064,18.751z"/>
	<path fill-rule="evenodd" clip-rule="evenodd" fill="#1D1D1D" d="M141.326,18.576c0.459,0.771,0.14,0.977-0.642,0.961
		c-1.491-0.029-2.984,0.006-4.477-0.021c-0.312-0.005-0.778,0.179-0.912-0.259c-0.112-0.367,0.434-0.399,0.546-0.696
		C137.669,18.566,139.498,18.571,141.326,18.576z"/>
	<path fill-rule="evenodd" clip-rule="evenodd" fill="#BFBFBF" d="M105.347,5.503c0.621-0.554,2.639-0.835,3.297-0.429
		c0.604,0.372,0.363,0.669-0.106,0.97c-1.005,0.643-2.167,1.046-2.998,1.955c-0.365,0.767-0.675,1.526-0.417,2.421
		c0.081,0.282,0.168,0.852-0.521,0.633c-0.11-0.424-0.633-0.646-0.566-1.156c-0.224-1.103,0.544-1.774,1.104-2.535
		c0.042-0.081,0.094-0.155,0.149-0.226c0.645-0.571,1.498-0.818,2.223-1.43c-0.387-0.227-0.746-0.116-1.095-0.065
		C106.045,5.692,105.666,5.843,105.347,5.503z"/>
	<path fill-rule="evenodd" clip-rule="evenodd" fill="#E1E1E1" d="M104.601,11.053c0.443-0.026,0.451-0.397,0.334-0.618
		c-0.535-1.015-0.021-1.73,0.604-2.436c-0.062,0.438-0.107,0.879-0.188,1.313c-0.346,1.848,0.932,3.06,1.746,4.446
		c0.539,0.917,1.141,1.799,1.729,2.687c0.147,0.223,0.232,0.409-0.076,0.519c-0.232,0.084-0.388-0.002-0.52-0.26
		C107.21,14.7,105.812,12.937,104.601,11.053z"/>
	<path fill-rule="evenodd" clip-rule="evenodd" fill="#797979" d="M80.1,18.331c-0.046,1.314-0.111,1.414-1.458,1.354
		s-2.66,0.222-3.99,0.292c-3.157,0.166-6.21-0.248-9.01-1.852c-0.127-0.072-0.309-0.153-0.133-0.354
		c0.57,0.198,1.202,0.202,1.725,0.549c0.88,0.479,1.891,0.513,2.821,0.825c2.333,0.466,4.667,0.298,7,0.021
		c0.252-0.029,0.516-0.125,0.752-0.044c0.961,0.33,1.496-0.133,1.865-0.945C79.815,18.229,79.958,18.279,80.1,18.331z"/>
	<path fill-rule="evenodd" clip-rule="evenodd" fill="#1C1C1C" d="M88.297,18.333c0.242,0.131,0.597,0.205,0.498,0.579
		c-0.085,0.323-0.419,0.372-0.699,0.376c-1.393,0.019-2.786,0.024-4.178,0.013c-0.255-0.003-0.628,0.134-0.728-0.251
		c-0.106-0.412,0.303-0.494,0.538-0.679C85.252,18.358,86.774,18.346,88.297,18.333z"/>
	<path fill-rule="evenodd" clip-rule="evenodd" fill="#8D8D8D" d="M33.319,10.497c2.254-0.105,4.462,0.252,6.666,0.658
		c0.214,0.04,0.422,0.167,0.602-0.063c0.39,0.063,0.78,0.126,1.17,0.189c0.22,0.386,0.381,0.226,0.529-0.057
		c0.372-0.165,0.428-0.563,0.633-0.966c0.524,0.614,0.43,1.264,0.313,1.849c-0.095,0.478-0.569,0.303-0.879,0.208
		c-0.941-0.29-1.845-0.71-2.829-0.852c-1.795-0.259-3.593-0.499-5.39-0.747C33.854,10.678,33.557,10.697,33.319,10.497z"/>
	<path fill-rule="evenodd" clip-rule="evenodd" fill="#808080" d="M106.132,24.298c0.189-0.129,0.379-0.259,0.568-0.388
		c0.492-0.287,0.782-0.966,1.518-0.779c0.011,0.396-0.205,0.632-0.523,0.833c-1.968,1.239-4.088,2.104-6.356,2.605
		c-0.123,0.027-0.256,0.051-0.378,0.034c-0.321-0.042-0.764,0.189-0.924-0.251c-0.174-0.479,0.246-0.647,0.577-0.843
		c0.32-0.188,0.729-0.259,0.903-0.652c0.438-0.137,0.876-0.274,1.313-0.412c0.008,0.07,0.015,0.141,0.021,0.211
		c-0.2,0.462-0.746,0.546-1.101,1.007c0.564,0.088,1.028-0.131,1.502-0.144C104.227,25.147,105.201,24.775,106.132,24.298z"/>
	<path fill-rule="evenodd" clip-rule="evenodd" fill="#868686" d="M26.872,13.027c0.708-0.107,1.275,0.292,1.871,0.518
		c1.532,0.582,3.164,0.886,4.624,1.663c0.204,0.108,0.563,0.153,0.437,0.494c-0.091,0.245-0.398,0.193-0.597,0.133
		c-2.177-0.669-4.352-1.348-6.294-2.586C26.878,13.228,26.889,13.135,26.872,13.027z"/>
	<path fill-rule="evenodd" clip-rule="evenodd" fill="#D2D2D2" d="M191.754,18.729c0.43-0.313,0.909-0.194,1.379-0.161
		c-0.251,0.612-0.128,0.951,0.615,0.888c0.342-0.029,0.688,0.002,1.032-0.007c0.948-0.023,0.953-0.033,0.614-0.898
		c0.334-0.348,0.758-0.155,1.145-0.192c0.15,0.265,0.426,0.37,0.661,0.531c0.603,0.41,0.568,0.747-0.1,1.082
		c-0.2,0.101-0.406,0.19-0.635,0.191c-1.466,0.008-2.932,0.014-4.396-0.004c-0.396-0.005-0.764-0.121-0.873-0.585
		C191.084,19.098,191.361,18.874,191.754,18.729z"/>
	<path fill-rule="evenodd" clip-rule="evenodd" fill="#E4E4E4" d="M191.754,18.729c-0.25,0.249-0.512,0.506-0.349,0.9
		c0.158,0.382,0.518,0.438,0.873,0.439c1.332,0.007,2.663,0.009,3.995-0.003c0.183-0.002,0.377-0.061,0.543-0.141
		c0.246-0.118,0.598-0.159,0.642-0.494c0.043-0.325-0.289-0.377-0.498-0.49c-0.243-0.132-0.405-0.299-0.421-0.583
		c0.172,0.082,0.353,0.148,0.514,0.248c0.352,0.22,0.941,0.262,0.818,0.881c-0.123,0.62-0.699,0.756-1.175,0.754
		c-1.804-0.011-3.612,0.17-5.414-0.1c-0.509-0.076-0.975,0.201-1.462,0.313c-1.393,0.32-2.797,0.322-4.197,0.006
		c1.012-0.001,2.022,0,3.033-0.006c0.281-0.001,0.565,0.034,0.825-0.137c0.443-0.293,0.849-0.567,0.107-0.991
		c-0.188-0.106-0.343-0.27-0.513-0.406C190.003,19.34,190.868,18.885,191.754,18.729z"/>
	<path fill-rule="evenodd" clip-rule="evenodd" fill="#262626" d="M117.983,17.06c-0.291-0.114-0.584-0.228-0.928-0.362
		c0.931-1.019,1.841-2.011,2.748-3.006c0.563-0.618,0.975-0.505,1.262,0.25c0.091,0.219-0.052,0.367-0.179,0.498
		c-0.657,0.683-1.327,1.354-1.918,2.098C118.726,16.844,118.374,17.002,117.983,17.06z"/>
	<path fill-rule="evenodd" clip-rule="evenodd" fill="#B5B5B5" d="M99.593,18.366c0.302-0.055,0.629-0.314,0.903-0.059
		c0.318,0.299,0.986,0.364,0.83,1.02c-0.149,0.627-0.699,0.55-1.164,0.554c-1.307,0.011-2.614,0.005-3.922,0
		c-0.521-0.002-1.23-0.105-1.243-0.595c-0.012-0.462,0.613-0.835,1.183-0.924c0.247-0.039,0.506-0.001,0.76,0.002
		c0.101,0.318-0.327,0.455-0.258,0.808c0.858,0.169,1.735,0.086,2.604,0.069C100.1,19.226,99.542,18.678,99.593,18.366z"/>
	<path fill-rule="evenodd" clip-rule="evenodd" fill="#1D1D1D" d="M171.662,18.57c1.521-0.003,3.04-0.007,4.561-0.01
		c0.26,0.135,0.542,0.276,0.46,0.633c-0.072,0.315-0.351,0.473-0.641,0.498c-1.399,0.122-2.803,0.12-4.202,0.002
		c-0.321-0.027-0.616-0.21-0.688-0.574C171.073,18.721,171.387,18.656,171.662,18.57z"/>
	<path fill-rule="evenodd" clip-rule="evenodd" fill="#848484" d="M117.801,18.146c0.289,0.283,0.685,0.533,0.564,1.016
		c-0.142,0.564-0.705,0.41-1.047,0.432c-1.842,0.115-3.688,0.166-5.526-0.097c-0.189-0.027-0.396-0.033-0.459-0.264
		c-0.069-0.254,0.049-0.422,0.271-0.544c0.165-0.091,0.316-0.208,0.475-0.313c0.317-0.001,0.635-0.002,0.953-0.003
		c0.053,0.168-0.03,0.407,0.232,0.467c1.229,0.279,2.458,0.295,3.675-0.06c0.217-0.063,0.333-0.287,0.484-0.448
		C117.487,18.146,117.667,18.192,117.801,18.146z"/>
	<path fill-rule="evenodd" clip-rule="evenodd" fill="#656565" d="M68.614,14.697c-0.119-0.368-0.072-0.758-0.305-1.131
		c-0.152-0.245-0.333-0.787,0.24-0.996c0.102,0.046,0.234,0.187,0.31,0.029c0.374-0.775,0.897-1.397,1.919-1.702
		c-0.619-0.208-1.084,0.19-1.446-0.215c-0.017-0.069,0-0.127,0.052-0.176c1.419-0.556,2.902-0.627,4.4-0.567
		c0.317,0.013,0.583,0.169,0.593,0.505c0.013,0.4-0.327,0.408-0.616,0.426c-0.382,0.024-0.767-0.014-1.146,0.035
		c-0.86,0.288-1.744,0.491-2.394,1.24c-0.385,0.444-0.611,0.938-0.834,1.453c-0.167,0.243-0.143,0.544-0.244,0.805
		C69.053,14.633,68.964,14.912,68.614,14.697z"/>
	<path fill-rule="evenodd" clip-rule="evenodd" fill="#D9D9D9" d="M195.773,16.99c0.005-1.676,0.413-1.882,1.936-1.14
		c2.329,1.136,4.691,2.2,7.041,3.295c0.129,0.129,0.508-0.037,0.417,0.353c-0.134,0.004-0.268,0.007-0.401,0.011
		c-1.905-0.823-3.783-1.701-5.649-2.611c-0.582-0.283-1.201-0.511-1.774-0.83c-0.529-0.294-0.834-0.226-0.806,0.468
		C196.56,17.121,196.376,17.424,195.773,16.99z"/>
	<path fill-rule="evenodd" clip-rule="evenodd" fill="#A4A4A4" d="M177.004,18.529c0.627,0.093,1.475,0.191,1.448,0.9
		c-0.028,0.756-0.895,0.623-1.478,0.627c-1.938,0.015-3.878,0.007-5.816,0.007c-0.096,0-0.196,0.018-0.285-0.007
		c-0.481-0.129-1.264,0.075-1.313-0.6c-0.057-0.786,0.707-0.813,1.307-0.876c-0.244,0.76,0.242,0.972,0.822,0.979
		c1.854,0.022,3.718,0.201,5.557-0.182C177.387,19.009,176.814,18.882,177.004,18.529z"/>
	<path fill-rule="evenodd" clip-rule="evenodd" fill="#727272" d="M50.723,16.405c-0.406-0.017-0.512-0.263-0.504-0.626
		c0.011-0.59,0.001-1.181,0.001-1.771c0-0.028,0.018-0.081,0.03-0.082c0.04-0.003,0.082,0.013,0.123,0.021
		c0.113,0.112,0.164,0.253,0.209,0.404c0.056,0.183-0.097,0.47,0.233,0.525c0.056,0.01,0.112-0.046,0.15-0.097
		c0.194-0.255-0.043-0.388-0.158-0.555c-0.055-0.079-0.077-0.165-0.056-0.261c1.444,0.12,2.712,0.786,4.03,1.297
		c0.346,0.272,0.907,0.132,1.151,0.599c-0.078,0.171-0.247,0.147-0.389,0.183c-0.725,0.198-1.317-0.275-1.977-0.407
		c-0.921-0.184-1.802-0.408-2.415,0.602C51.073,16.368,50.861,16.331,50.723,16.405z"/>
	<path fill-rule="evenodd" clip-rule="evenodd" fill="#2C2C2C" d="M183.32,14.906c-0.423-0.039-0.443-0.506-0.8-0.73
		c1.128-0.565,2.54-0.623,3.15-1.931c0.787-0.031,1.085,0.342,0.842,1.052C186.118,14.444,184.553,15.233,183.32,14.906z"/>
	<path fill-rule="evenodd" clip-rule="evenodd" fill="#B9B9B9" d="M133.112,11.047c0.082,0.418-0.108,0.582-0.515,0.592
		c-0.991,0.023-1.948,0.269-2.907,0.488c-0.291,0.067-0.566,0.102-0.835-0.044c-0.268-0.146-0.635-0.183-0.68-0.586
		c-0.041-0.375,0.294-0.442,0.501-0.623c1.244-1.089,2.758-0.938,4.237-0.92c0.179,0.002,0.216,0.203,0.195,0.375
		c-0.512,0.37-1.101,0.197-1.656,0.225c-0.635,0.03-1.244,0.094-1.83,0.615c0.535,0.248,0.946,0.011,1.358-0.023
		C131.69,11.087,132.388,10.754,133.112,11.047z"/>
	<path fill-rule="evenodd" clip-rule="evenodd" fill="#787878" d="M60.153,19.316c-0.256,0.277-0.596,0.186-0.903,0.186
		c-4.182,0.007-8.363,0.004-12.544,0.003c-0.032,0-0.064-0.001-0.096-0.001c-0.384,0-0.898,0.064-1.051-0.287
		c-0.179-0.412,0.395-0.56,0.607-0.848c0.193,0.002,0.386,0.004,0.578,0.006c0.165,0.525,0.604,0.458,1.01,0.471
		c1.224,0.038,2.452-0.093,3.674,0.093c1.325,0.168,2.657,0.015,3.983,0.093c1.228-0.032,2.455,0.007,3.683,0.012
		C59.464,19.044,59.86,18.992,60.153,19.316z"/>
	<path fill-rule="evenodd" clip-rule="evenodd" fill="#717171" d="M55.367,19.3c-1.345-0.062-2.699,0.17-4.037-0.129
		c-0.043-0.377-0.698-0.3-0.587-0.792c2.371,0.187,4.742-0.009,7.113,0c0.045,0.1,0.024,0.184-0.063,0.251
		C57.036,19.038,56.1,18.801,55.367,19.3z"/>
	<path fill-rule="evenodd" clip-rule="evenodd" fill="#525252" d="M79.672,18.178c-0.025,1.01-0.445,1.45-1.383,1.278
		c-0.967-0.178-1.886,0.077-2.826,0.14c-1.864,0.125-3.728,0.252-5.557-0.282c0.277-0.319,0.723-0.265,1.049-0.475
		c0.127-0.008,0.265-0.039,0.381-0.002c1.695,0.537,3.321,0.223,4.924-0.386c0.567,0.719,2.289,0.659,2.857-0.099
		c-0.011-0.06-0.007-0.118,0.013-0.176c0.179-0.171,0.367-0.138,0.558-0.024L79.672,18.178z"/>
	<path fill-rule="evenodd" clip-rule="evenodd" fill="#EDEDED" d="M99.062,16.535c-1.234-1.11-2.221-2.438-3.255-3.723
		c-0.69-0.856-1.35-1.736-2.029-2.602c-0.129-0.165-0.433-0.317-0.191-0.532c0.247-0.218,0.486,0.035,0.624,0.229
		c0.844,1.186,1.836,2.266,2.653,3.459C97.589,14.427,98.745,15.173,99.062,16.535z"/>
	<path fill-rule="evenodd" clip-rule="evenodd" fill="#DBDBDB" d="M186.04,11.494c-0.008-0.243-0.151-0.562,0.125-0.69
		c0.283-0.13,0.424,0.206,0.607,0.36c1.92,1.606,0.762,3.159-0.919,4.014c-0.668,0.339-1.392,0.895-2.145,0.107
		c0.631-0.356,1.376-0.435,1.984-0.875C186.965,13.488,187.073,12.723,186.04,11.494z"/>
	<path fill-rule="evenodd" clip-rule="evenodd" fill="#C9C9C9" d="M82.752,18.37c-0.219,0.313-0.908,0.288-0.725,0.86
		c0.17,0.531,0.707,0.464,1.144,0.457c1.974-0.035,3.95,0.115,5.921-0.082c0.574-0.058,0.976-0.135,0.458-0.849
		c-0.194-0.268-0.352-0.817,0.293-0.977c0.028,0.279-0.04,0.562,0.09,0.841c0.447,0.967,0.314,1.154-0.752,1.274
		c-2.184,0.245-4.362,0.241-6.546,0.004c-0.504-0.055-1.128-0.201-1.101-0.65C81.566,18.723,82.012,18.202,82.752,18.37z"/>
	<path fill-rule="evenodd" clip-rule="evenodd" fill="#1C1C1C" d="M117.424,18.333c0.08,0.551-0.113,0.765-0.712,0.828
		c-1.181,0.124-2.35,0.114-3.522-0.023c-0.23-0.027-0.574,0.114-0.64-0.236c-0.06-0.316,0.324-0.344,0.482-0.527
		C114.496,18.36,115.96,18.347,117.424,18.333z"/>
	<path fill-rule="evenodd" clip-rule="evenodd" fill="#343434" d="M128.914,18.378c0.598,1.022,0.575,1.061-0.691,1.077
		c-0.604,0.008-1.207,0.003-1.811-0.005c-0.316-0.005-0.687,0.018-0.87-0.273c-0.233-0.372,0.313-0.494,0.345-0.804
		C126.896,18.375,127.904,18.376,128.914,18.378z"/>
	<path fill-rule="evenodd" clip-rule="evenodd" fill="#808080" d="M72.409,10.884c0.44-0.388,0.975-0.121,1.458-0.208
		c0.152-0.028,0.345-0.01,0.349-0.225c0.003-0.183-0.156-0.291-0.312-0.297c-0.601-0.023-1.208-0.07-1.805-0.016
		c-0.909,0.083-1.811,0.241-2.716,0.368c0.623-0.693,1.498-0.596,2.286-0.667c1.905-0.171,3.805-0.207,5.352,1.228
		C75.484,10.986,73.943,11.015,72.409,10.884z"/>
	<path fill-rule="evenodd" clip-rule="evenodd" fill="#535353" d="M133.112,11.047c-1.002,0.178-2.003,0.358-3.006,0.532
		c-0.326,0.056-0.744,0.067-0.842-0.253c-0.1-0.325,0.29-0.513,0.563-0.663c1.045-0.573,2.176-0.333,3.281-0.335
		C133.11,10.568,133.111,10.808,133.112,11.047z"/>
	<path fill-rule="evenodd" clip-rule="evenodd" fill="#373737" d="M195.395,18.55c0.153,0.11,0.302,0.227,0.46,0.33
		c0.477,0.312,0.36,0.599-0.104,0.694c-0.938,0.191-1.958,0.283-2.826-0.01c-0.855-0.288,0.014-0.673,0.208-0.997
		C193.887,18.562,194.641,18.556,195.395,18.55z"/>
	<path fill-rule="evenodd" clip-rule="evenodd" fill="#1D1D1D" d="M50.743,18.379c-0.016,0.421,0.938,0.122,0.587,0.791
		c-1.448-0.017-2.896-0.03-4.344-0.056c-0.207-0.004-0.474,0.054-0.566-0.219c-0.094-0.279,0.208-0.352,0.325-0.521
		C48.077,18.376,49.41,18.378,50.743,18.379z"/>
	<path fill-rule="evenodd" clip-rule="evenodd" fill="#979797" d="M177.004,18.529c0.075,0.101,0.144,0.207,0.229,0.3
		c0.212,0.232,0.816,0.194,0.632,0.666c-0.147,0.379-0.628,0.187-0.956,0.19c-1.88,0.018-3.76,0.019-5.64-0.001
		c-0.314-0.003-0.776,0.205-0.911-0.259c-0.111-0.383,0.251-0.613,0.51-0.845c0.265-0.004,0.53-0.008,0.795-0.011
		c-0.604,0.482-0.414,0.838,0.243,0.868c1.355,0.063,2.717,0.06,4.073,0.003c0.737-0.03,0.765-0.418,0.244-0.881
		C176.483,18.55,176.743,18.54,177.004,18.529z"/>
	<path fill-rule="evenodd" clip-rule="evenodd" fill="#A9A9A9" d="M72.409,10.884c1.54,0.007,3.084-0.131,4.612,0.183
		c0.35,0.065,0.694,0.138,0.758,0.579c-1.842-0.559-3.709-0.833-5.616-0.393c-1.634,0.378-2.6,1.647-2.64,3.328
		c-0.01,0.422,0.193,0.891-0.178,1.268c-0.114-0.131-0.228-0.262-0.341-0.393c0.286-0.604-0.054-1.314,0.329-1.901
		C69.609,11.802,70.895,11.211,72.409,10.884z"/>
	<path fill-rule="evenodd" clip-rule="evenodd" fill="#7B7B7B" d="M186.04,11.494c0.925,0.341,1.327,1.915,0.565,2.555
		c-0.816,0.686-1.716,1.334-2.896,1.236c-0.083-0.174-0.398-0.11-0.389-0.379c1.18-0.01,2.145-0.403,2.803-1.449
		c0.409-0.648,0.38-1.062-0.452-1.212C185.7,11.949,186.133,11.851,186.04,11.494z"/>
	<path fill-rule="evenodd" clip-rule="evenodd" fill="#323232" d="M156.503,18.765c1.009,0.369,2.132-0.015,3.139,0.734
		c-1.046,0-2.091,0-3.136,0c-0.88,0.125-1.597-0.388-2.386-0.617c-0.147-0.043-0.267-0.173-0.1-0.346
		C154.848,18.612,155.675,18.688,156.503,18.765z"/>
	<path fill-rule="evenodd" clip-rule="evenodd" fill="#E1E1E1" d="M207.286,10.498c-0.01,2.306-0.014,4.612-0.038,6.918
		c-0.004,0.342,0.191,0.792-0.347,0.954c-0.006-2.537-0.016-5.074-0.013-7.61c0-0.324-0.128-0.733,0.37-0.854l0.053,0.052
		c0.082,0.098,0.11,0.21,0.097,0.336C207.382,10.371,207.341,10.438,207.286,10.498z"/>
	<path fill-rule="evenodd" clip-rule="evenodd" fill="#313131" d="M69.331,10.682c0.599,0.08,1.167-0.351,1.954-0.037
		c-0.99,0.793-2.281,1.231-2.392,2.692c-0.398-0.255-0.22-0.56-0.344-0.767C68.545,11.831,68.535,11.089,69.331,10.682z"/>
	<path fill-rule="evenodd" clip-rule="evenodd" fill="#4B4B4B" d="M99.593,18.366c0.231,0.227,0.702,0.315,0.554,0.773
		c-0.144,0.444-0.571,0.315-0.898,0.322c-0.76,0.015-1.521,0.012-2.28-0.012c-0.264-0.008-0.64,0.037-0.72-0.261
		c-0.04-0.15,0.245-0.396,0.4-0.586c0.078-0.095,0.193-0.16,0.292-0.239c0.189,0.005,0.378,0.009,0.567,0.014
		c0.442,0.311,0.883,0.964,1.332,0.006C99.09,18.378,99.341,18.372,99.593,18.366z"/>
	<path fill-rule="evenodd" clip-rule="evenodd" fill="#323232" d="M57.833,18.524c0.006-0.049,0.014-0.098,0.023-0.146
		c0.782-0.06,1.607,0.027,2.213-0.641c0.334-0.151,0.707-0.265,0.907,0.14c0.233,0.47-0.228,0.729-0.441,1.058l0.004-0.001
		c-0.896,0.479-1.863,0.205-2.798,0.268c-0.173,0.011-0.316-0.065-0.337-0.252C57.369,18.641,57.7,18.678,57.833,18.524z"/>
	<path fill-rule="evenodd" clip-rule="evenodd" fill="#2F2F2F" d="M184.064,18.751c0.884,0.309,1.809,0.072,2.705,0.209
		c0.245,0.103,0.354,0.285,0.243,0.531c-0.135,0.303-0.419,0.414-0.717,0.355c-0.664-0.131-1.339-0.039-2.003-0.128
		c-0.476-0.184-1.002-0.116-1.48-0.296c-0.348-0.131-0.729-0.205-0.852-0.638c0.282-0.228,0.554-0.153,0.826-0.081
		C183.213,18.72,183.639,18.735,184.064,18.751z"/>
	<path fill-rule="evenodd" clip-rule="evenodd" fill="#585858" d="M117.983,17.06c1.175-0.895,1.989-2.145,3.082-3.118
		c0.19,0.065,0.378,0.134,0.39,0.382c-0.78,0.851-1.565,1.696-2.337,2.555c-0.315,0.35-0.641,0.596-1.128,0.337
		C117.97,17.164,117.968,17.112,117.983,17.06z"/>
	<path fill-rule="evenodd" clip-rule="evenodd" fill="#5E5E5E" d="M146.92,10.709c0.115,0.17,0.423,0.214,0.354,0.502
		c-0.071,0.3-0.332,0.226-0.54,0.239c-0.856,0.055-1.665-0.209-2.486-0.385c-0.267-0.355-0.748-0.046-1.099-0.374
		c0.494-0.38,1.06-0.088,1.541-0.238C145.431,10.562,146.159,10.78,146.92,10.709z"/>
	<path fill-rule="evenodd" clip-rule="evenodd" fill="#484848" d="M108.218,23.131c-0.597,0.082-0.879,0.778-1.518,0.779
		c-0.025-0.473,0.392-0.656,0.668-0.843c0.779-0.526,0.805-1.437,1.204-2.149c0.117-0.21-0.028-0.426-0.313-0.454
		c-0.056-0.391,0.494-0.539,0.382-0.952c0.408-0.18,0.532,0.116,0.566,0.397c0.097,0.789,0.22,1.596-0.414,2.256
		c-0.158,0.123-0.183,0.274-0.09,0.448l-0.028,0.053C108.293,22.596,108.297,22.904,108.218,23.131z"/>
	<path fill-rule="evenodd" clip-rule="evenodd" fill="#7E7E7E" d="M108.793,22.165c0.123-0.672,0.286-1.338,0.227-2.031
		c-0.024-0.276,0.039-0.591-0.379-0.622c0.127-0.466-0.362-1.323,0.743-1.166c0.285,0.984,0.256,1.99,0.142,2.986
		C109.482,21.711,109.495,22.296,108.793,22.165z"/>
	<path fill-rule="evenodd" clip-rule="evenodd" fill="#DEDEDE" d="M110.904,19.501c0.441,0.264,0.929,0.372,1.435,0.375
		c1.739,0.007,3.481,0.053,5.219-0.022c0.68-0.028,1.637,0.065,1.587-1.117c0.319,0.849,0.104,1.297-0.782,1.313
		c-2.252,0.043-4.521,0.161-6.75-0.072c-0.839-0.088-0.813,0.56-1.271,0.681C110.462,20.239,109.972,19.524,110.904,19.501z"/>
	<path fill-rule="evenodd" clip-rule="evenodd" fill="#767676" d="M105.347,5.503c0.691-0.061,1.383-0.131,2.075-0.175
		c0.207-0.013,0.483-0.066,0.563,0.221c0.081,0.291-0.189,0.368-0.372,0.471c-0.744,0.417-1.494,0.824-2.242,1.235
		c-0.124-0.104-0.158-0.24-0.143-0.395c0.034-0.146,0.118-0.256,0.238-0.34c0.236-0.159,0.534-0.207,0.791-0.436
		c-0.691-0.176-1.348,0.449-1.998,0.023C104.565,5.804,104.948,5.64,105.347,5.503z"/>
	<path fill-rule="evenodd" clip-rule="evenodd" fill="#D6D6D6" d="M50.723,16.405c1.024-1.867,2.511-1.059,3.92-0.674
		c0.306,0.084,0.601,0.207,0.901,0.312c-0.509,0.415-1.005,0.091-1.514-0.013c-0.858-0.175-1.781-0.878-2.495,0.325
		C51.413,16.56,51.003,16.459,50.723,16.405z"/>
	<path fill-rule="evenodd" clip-rule="evenodd" fill="#D9D9D9" d="M56.511,12.994c0.005-0.423,0.308-0.438,0.591-0.381
		c0.54,0.107,1.104,0.31,1.097,0.956c-0.006,0.634,0.421,1.523-0.7,1.733c-0.354-0.266-0.319-0.669-0.288-1.021
		C57.263,13.673,57.004,13.281,56.511,12.994z"/>
	<path fill-rule="evenodd" clip-rule="evenodd" fill="#4B4B4B" d="M55.933,15.86c-0.42-0.13-0.854-0.231-1.151-0.599
		c1.542-0.254,1.684-0.405,1.755-1.871c0.396-0.194,0.517,0.095,0.56,0.371c0.101,0.641,0.211,1.296-0.231,1.876
		C56.601,15.907,56.262,15.867,55.933,15.86z"/>
	<path fill-rule="evenodd" clip-rule="evenodd" fill="#D9D9D9" d="M41.954,17.203c-0.01-0.255-0.007-0.511-0.031-0.764
		c-0.056-0.595-0.296-0.901-0.924-0.56c-0.044-0.362-0.051-0.71,0.369-0.874c0.43-0.169,0.646,0.202,0.884,0.407
		C43.122,16.165,42.996,16.844,41.954,17.203z"/>
	<path fill-rule="evenodd" clip-rule="evenodd" fill="#B6B6B6" d="M81.03,11.643c-0.038,1.009-0.515,1.444-1.431,1.107
		c-0.658-0.242-1.362-0.519-1.833-1.117c0.453,0.015,0.905,0.029,1.358,0.043c-0.024,0.614,0.49,0.396,0.768,0.445
		c0.312,0.055,0.395-0.228,0.358-0.507c-0.025-0.186-0.004-0.37,0.002-0.555c0.005-0.125,0.011-0.249,0.016-0.373
		C80.992,10.631,81.018,11.131,81.03,11.643z"/>
	<path fill-rule="evenodd" clip-rule="evenodd" fill="#797979" d="M76.442,18.591c-0.627-0.027-1.106,0.398-1.675,0.566
		c-1.354,0.399-2.606-0.093-3.9-0.227l-0.057-0.071l0.044-0.079c1.71,0.097,3.416,0.217,5.084-0.377
		c0.309-0.11,0.754-0.184,1.084,0.121C76.848,18.708,76.652,18.716,76.442,18.591z"/>
	<path fill-rule="evenodd" clip-rule="evenodd" fill="#353535" d="M76.442,18.591c0.193-0.022,0.387-0.045,0.581-0.066
		c0.715,0.153,1.416,0.121,2.095-0.172c0.459,0.882-0.333,0.818-0.726,0.822c-0.559,0.006-1.115-0.11-1.673,0.064
		c-0.195,0.062-0.472,0.166-0.578-0.105C76.047,18.893,76.345,18.777,76.442,18.591z"/>
	<path fill-rule="evenodd" clip-rule="evenodd" fill="#939393" d="M178.537,10.111c0.189,0.053,0.392,0.091,0.399,0.351
		c0.199,0.537-0.188,0.604-0.535,0.589c-0.492-0.022-0.914,0.177-1.358,0.306c-0.237-0.501-0.745-0.703-1.142-1.028
		c-0.01-0.066-0.02-0.133-0.03-0.2C176.758,9.727,177.647,9.918,178.537,10.111z"/>
	<path fill-rule="evenodd" clip-rule="evenodd" fill="#3D3D3D" d="M70.854,18.78c-0.007,0.051-0.002,0.101,0.013,0.15
		c-0.123,0.623-0.633,0.274-0.961,0.382c-0.938-0.203-1.922-0.281-2.673-0.991C68.44,18.474,69.647,18.627,70.854,18.78z"/>
	<path fill-rule="evenodd" clip-rule="evenodd" fill="#2D2D2D" d="M105.536,6.645c-0.063,0.069-0.124,0.138-0.187,0.207
		c-0.342,0.396-0.773,0.703-1.088,1.13c-0.186,0.252-0.429,0.489-0.747,0.13c-0.105-0.312-0.095-0.613,0.078-0.9
		c-0.059-0.382,0.307-0.493,0.47-0.733c0.314-0.25,0.699-0.316,1.076-0.339C105.449,6.12,105.727,6.223,105.536,6.645z"/>
	<path fill-rule="evenodd" clip-rule="evenodd" fill="#ADADAD" d="M79.319,15.302c0.067-0.71,0.616-0.39,0.94-0.378
		c0.381,0.014,0.831,0.044,1.092,0.407c0.112,0.157,0.056,0.379-0.112,0.505c-0.408,0.305-0.587,0.909-1.21,0.935
		C79.979,16.191,80.224,15.469,79.319,15.302z"/>
	<path fill-rule="evenodd" clip-rule="evenodd" fill="#5A5A5A" d="M50.378,11.862c0-1.664,0-1.664,1.754-1.502
		c-0.219,0.727-1.398,0.544-1.379,1.465C50.628,11.837,50.503,11.849,50.378,11.862z"/>
	<path fill-rule="evenodd" clip-rule="evenodd" fill="#9B9B9B" d="M56.865,15.638c0.016-0.568,0.035-1.137,0.046-1.704
		c0.005-0.267-0.024-0.518-0.375-0.543c-0.008-0.132-0.017-0.264-0.025-0.396c0.73-0.055,1.002,0.309,0.963,1.008
		c-0.023,0.432,0.014,0.866,0.024,1.3C57.287,15.413,57.076,15.525,56.865,15.638z"/>
	<path fill-rule="evenodd" clip-rule="evenodd" fill="#696969" d="M166.429,11.229c0.082-0.41-0.049-0.673-0.495-0.721
		c-0.001-0.117-0.003-0.233-0.004-0.351c0.284,0.001,0.584-0.055,0.849,0.017c0.338,0.092,0.899-0.07,0.957,0.399
		c0.063,0.508-0.48,0.571-0.858,0.703C166.728,11.261,166.578,11.245,166.429,11.229z"/>
	<path fill-rule="evenodd" clip-rule="evenodd" fill="#E1E1E1" d="M81.03,11.643c-0.211-0.353-0.307-0.798-0.762-0.956
		c-0.382,0.024-0.621-0.107-0.584-0.537c0.016-0.182-0.065-0.44,0.154-0.502c0.304-0.087,0.573,0.099,0.72,0.346
		c0.318,0.531,0.799,0.983,0.854,1.65C81.284,11.643,81.157,11.643,81.03,11.643z"/>
	<path fill-rule="evenodd" clip-rule="evenodd" fill="#797979" d="M80.251,11.06c0.222,0.405,0.571,0.899,0.116,1.245
		c-0.422,0.321-0.964,0.117-1.38-0.241c-0.291-0.25,0.137-0.242,0.137-0.388C79.5,11.471,79.876,11.266,80.251,11.06z"/>
	<path fill-rule="evenodd" clip-rule="evenodd" fill="#494949" d="M79.319,15.302c1.229,0.094,1.229,0.094,0.709,1.469
		c-0.109,0.027-0.217,0.055-0.326,0.081c-0.327,0.11-0.494-0.022-0.488-0.352c0.005-0.345-0.073-0.697,0.068-1.034
		C79.296,15.412,79.308,15.357,79.319,15.302z"/>
	<path fill-rule="evenodd" clip-rule="evenodd" fill="#9D9D9D" d="M176.83,11.271c0.56-0.154,1.069-0.494,1.692-0.407
		c0.266,0.037,0.377-0.164,0.414-0.402c0.516,0.234,0.459,0.577-0.012,0.663c-0.821,0.15-1.661,0.16-2.042,1.101
		c-0.01,0.024-0.177-0.014-0.271-0.023c-0.251-0.32-0.125-0.598,0.097-0.865C176.749,11.314,176.79,11.292,176.83,11.271z"/>
	<path fill-rule="evenodd" clip-rule="evenodd" fill="#676767" d="M182.787,18.704c-0.211,0.031-0.423,0.063-0.673,0.099
		c0.648,0.571,1.49,0.38,2.172,0.691c0.063,0.104,0.047,0.193-0.052,0.266c-0.809,0.144-1.514-0.236-2.251-0.449l0,0
		c-0.436-0.359-1.211-0.271-1.347-1.023C181.354,18.426,182.07,18.565,182.787,18.704z"/>
	<path fill-rule="evenodd" clip-rule="evenodd" fill="#444444" d="M105.536,6.645c-0.401-0.851-0.989-0.048-1.474-0.166
		c0.065-0.125,0.131-0.249,0.196-0.373c0.643-0.125,1.282-0.26,1.928-0.366c0.198-0.032,0.485-0.13,0.583,0.129
		c0.104,0.277-0.181,0.356-0.368,0.449C106.125,6.455,105.875,6.671,105.536,6.645z"/>
	<path fill-rule="evenodd" clip-rule="evenodd" fill="#595959" d="M196.174,14.697c-1.035,0.394-1.01,1.267-0.973,2.146
		c-0.572-0.003-0.4-0.44-0.409-0.741c-0.014-0.4,0.024-0.803,0.04-1.205c0.186-0.176,0.306-0.42,0.553-0.531
		C195.685,14.389,195.938,14.521,196.174,14.697z"/>
	<path fill-rule="evenodd" clip-rule="evenodd" fill="#4A4A4A" d="M175.901,10.329c0.208,0.046,0.417,0.134,0.624,0.129
		c0.911-0.02,0.549,0.414,0.305,0.813l-0.025-0.016c-0.183,0.167-0.335,0.348-0.425,0.593c-0.081,0.219-0.244,0.368-0.497,0.171
		C175.89,11.455,175.896,10.892,175.901,10.329z"/>
	<path fill-rule="evenodd" clip-rule="evenodd" fill="#4A4A4A" d="M60.535,18.936c0.01-0.122-0.028-0.282,0.036-0.359
		c0.646-0.775,0.074-0.805-0.501-0.838c0.064-0.207,0.153-0.388,0.417-0.374c0.328-0.159,0.678-0.536,1.019-0.139
		c0.406,0.472-0.053,0.874-0.238,1.287C61.033,18.672,60.892,18.99,60.535,18.936z"/>
	<path fill-rule="evenodd" clip-rule="evenodd" fill="#414141" d="M50.751,13.965c0.929,0.63,0.929,0.63-0.242,1.453
		c-0.222-0.491-0.07-0.997-0.137-1.471C50.499,13.953,50.625,13.959,50.751,13.965z"/>
	<path fill-rule="evenodd" clip-rule="evenodd" fill="#464646" d="M103.652,8.189c0.678-0.303,0.817-1.29,1.697-1.338
		c0.007,0.134,0.014,0.269,0.021,0.402c-0.011,0.053-0.021,0.104-0.034,0.156c-0.509,0.457-1.081,0.858-1.246,1.591
		c-0.049,0.214-0.206,0.309-0.413,0.13c-0.021-0.115-0.041-0.23-0.063-0.346C103.484,8.578,103.456,8.376,103.652,8.189z"/>
	<path fill-rule="evenodd" clip-rule="evenodd" fill="#878787" d="M103.677,9.131c0.528-0.102,0.275-0.654,0.531-0.92
		c0.327-0.339,0.593-0.757,1.128-0.801c-0.464,0.813-1.182,1.494-1.302,2.486C104.09,9.56,103.574,9.489,103.677,9.131z"/>
	<path fill-rule="evenodd" clip-rule="evenodd" fill="#9D9D9D" d="M180.637,18.287c0.312,0.521,0.997,0.552,1.347,1.023
		c-1.2-0.143-2.055-0.981-3.059-1.518C179.554,17.759,180.083,18.065,180.637,18.287z"/>
	<path fill-rule="evenodd" clip-rule="evenodd" fill="#272727" d="M98.839,18.384c0.066,0.18,0.55,0.243,0.146,0.555
		c-0.524,0.404-1.263,0.127-1.478-0.561C97.951,18.38,98.395,18.382,98.839,18.384z"/>
	<path fill-rule="evenodd" clip-rule="evenodd" fill="#818181" d="M176.989,16.443c-0.057,0.507-0.463,0.374-0.771,0.422
		c-0.71-0.314-0.306-0.827-0.308-1.268c0.089-0.067,0.177-0.135,0.265-0.202C176.447,15.744,176.718,16.094,176.989,16.443z"/>
	<path fill-rule="evenodd" clip-rule="evenodd" fill="#787878" d="M61.267,18.513c0.011-0.094,0.012-0.189,0.034-0.28
		c0.256-1.044,0.256-1.043-0.815-0.868c-0.028-0.322,0.267-0.38,0.441-0.536c0.311,0.066,0.762-0.2,0.906,0.25
		C62.022,17.671,61.822,18.179,61.267,18.513z"/>
	<path fill-rule="evenodd" clip-rule="evenodd" fill="#515151" d="M155.776,10.699c0.363-0.062,0.697-0.347,1.104-0.138
		c-0.076,0.191-0.15,0.385-0.229,0.577c-0.083,0.203-0.171,0.403-0.26,0.609c-0.352-0.007-0.254-0.541-0.619-0.497
		C155.773,11.066,155.774,10.882,155.776,10.699z"/>
	<path fill-rule="evenodd" clip-rule="evenodd" fill="#CECECE" d="M178.537,10.111c-0.889,0.006-1.777,0.012-2.666,0.018
		c0.187-0.738,0.775-0.315,1.172-0.373C177.562,9.68,178.106,9.714,178.537,10.111z"/>
	<path fill-rule="evenodd" clip-rule="evenodd" fill="#868686" d="M69.333,13.555c-0.128,0.631,0.333,1.363-0.329,1.901
		c0.018-0.329-0.487-0.39-0.39-0.759c0.328-0.039,0.347-0.278,0.349-0.532C68.966,13.89,68.95,13.601,69.333,13.555z"/>
	<path fill-rule="evenodd" clip-rule="evenodd" fill="#C9C9C9" d="M89.843,17.781c0.44-0.709,0.755-1.541,1.717-1.731
		C91.137,16.774,90.577,17.363,89.843,17.781z"/>
	<path fill-rule="evenodd" clip-rule="evenodd" fill="#3F3F3F" d="M67.585,14.146c-0.059,0.018-0.155,0.066-0.173,0.046
		c-0.381-0.43-0.273-1.726,0.173-2.175C67.585,12.727,67.585,13.437,67.585,14.146z"/>
	<path fill-rule="evenodd" clip-rule="evenodd" fill="#A88D8D" d="M107.673,19.513c-0.016-0.132-0.031-0.264-0.047-0.396
		c0.015-0.579,0.029-1.158,0.043-1.736C108.211,17.961,108.213,18.961,107.673,19.513z"/>
	<path fill-rule="evenodd" clip-rule="evenodd" fill="#ADADAD" d="M79.283,15.466c0.213,0.439-0.341,1.112,0.42,1.386
		c-0.616,0.427-0.544,0.861-0.015,1.301c-0.186,0.008-0.372,0.016-0.558,0.024C79.224,17.275,78.966,16.354,79.283,15.466z"/>
	<path fill-rule="evenodd" clip-rule="evenodd" fill="#9D9D9D" d="M103.652,8.189c-0.013,0.198-0.025,0.397-0.038,0.596
		c-0.589-0.517-0.595-1.041-0.021-1.573C103.612,7.538,103.632,7.863,103.652,8.189z"/>
	<path fill-rule="evenodd" clip-rule="evenodd" fill="#6F6F6F" d="M175.883,12.019c0.515-0.004,0.246-0.955,0.922-0.764
		c-0.063,0.316-0.128,0.632-0.192,0.947C176.366,12.155,176.043,12.412,175.883,12.019z"/>
	<path fill-rule="evenodd" clip-rule="evenodd" fill="#DEDEDE" d="M110.918,18.552c-0.001,0.06-0.003,0.12-0.007,0.181
		c-0.578,0.546-0.872,0.357-0.961-0.369C110.272,18.426,110.596,18.489,110.918,18.552z"/>
	<path fill-rule="evenodd" clip-rule="evenodd" fill="#868686" d="M25.244,9.704c0.001,0.398,0.002,0.797,0.003,1.195
		C24.678,10.503,24.652,10.104,25.244,9.704z"/>
	<path fill-rule="evenodd" clip-rule="evenodd" fill="#5B5B5B" d="M42.286,11.225c0.059,0.017,0.118,0.033,0.176,0.051
		c0.146,0.043,0.217,0.213,0.127,0.265c-0.327,0.185-0.685,0.168-1.032,0.019c0.067-0.092,0.133-0.185,0.2-0.278
		C41.933,11.262,42.11,11.244,42.286,11.225z"/>
	<path fill-rule="evenodd" clip-rule="evenodd" fill="#E1E1E1" d="M81.407,12.79c0.002-0.322,0.005-0.644,0.007-0.966
		C81.993,12.15,82.03,12.473,81.407,12.79z"/>
	<path fill-rule="evenodd" clip-rule="evenodd" fill="#2C2C2C" d="M195.385,14.365c-0.026,0.341-0.209,0.52-0.553,0.531
		c-0.003-0.256-0.188-0.561,0.101-0.745C195.121,14.03,195.253,14.246,195.385,14.365z"/>
	<path fill-rule="evenodd" clip-rule="evenodd" fill="#262626" d="M30.657,18.327c0.021,0.214,0.308,0.537-0.145,0.578
		c-0.682,0.063-1.368,0.196-2.055,0.01c-0.194-0.053-0.407-0.126-0.404-0.33c0.004-0.268,0.271-0.205,0.44-0.211
		c0.723-0.024,1.446-0.031,2.17-0.045L30.657,18.327z"/>
	<polygon fill-rule="evenodd" clip-rule="evenodd" fill="#DEDEDE" points="108.703,22.613 108.725,22.667 108.674,22.665 
		108.634,22.61 	"/>
	<path fill-rule="evenodd" clip-rule="evenodd" fill="#ABABAB" d="M207.282,10.311c0.01-0.118,0.02-0.236,0.029-0.353
		c0.286-0.002,0.588-0.061,0.855,0.008c0.375,0.097,0.88,0.046,1,0.579c0.111,0.492-0.263,0.673-0.605,0.849
		c-0.412,0.212-0.312,0.592-0.313,0.927c-0.008,2.106-0.003,4.212-0.006,6.318c-0.002,1.395-0.673,1.816-2.016,1.276
		c-0.353-0.142-0.707-0.278-1.061-0.418c-0.139-0.117-0.278-0.235-0.417-0.353c0.145-0.014,0.29-0.027,0.435-0.041
		c0.409,0.168,0.811,0.359,1.229,0.5c0.971,0.326,1.392,0.037,1.398-0.979c0.014-2.162,0.007-4.323,0.008-6.485
		c0.001-0.413-0.039-0.841,0.396-1.098c0.31-0.333,0.254-0.555-0.201-0.642C207.772,10.354,207.511,10.471,207.282,10.311z"/>
	<path fill-rule="evenodd" clip-rule="evenodd" fill="#696969" d="M165.868,17.757c0.12-0.322-0.175-0.819,0.4-0.95
		C166.199,17.15,166.534,17.664,165.868,17.757z"/>
	<path fill-rule="evenodd" clip-rule="evenodd" fill="#4D4D4D" d="M57.833,18.524c-0.206,0.273-0.56,0.576,0.174,0.591
		c0.851,0.017,1.695-0.008,2.531-0.181c-0.129,0.127-0.257,0.254-0.386,0.382c-1.595-0.006-3.191-0.011-4.786-0.017
		c0.206-0.738,0.864-0.461,1.338-0.61C57.078,18.572,57.451,18.536,57.833,18.524z"/>
	<path fill-rule="evenodd" clip-rule="evenodd" fill="#464646" d="M103.247,25.614c-0.426,0.131-0.847,0.282-1.279,0.383
		c-0.199,0.047-0.476,0.104-0.581-0.172c-0.098-0.256,0.081-0.425,0.283-0.539c0.389-0.219,0.787-0.421,1.181-0.63
		c0.034,0.304-0.421,0.858,0.392,0.764c0.047,0.042,0.063,0.085,0.05,0.128C103.277,25.592,103.263,25.614,103.247,25.614z"/>
	<path fill-rule="evenodd" clip-rule="evenodd" fill="#484848" d="M103.247,25.614c-0.002-0.065-0.004-0.13-0.005-0.194
		c0.942-0.426,1.836-0.98,2.89-1.122C105.29,25,104.274,25.32,103.247,25.614z"/>
	<path fill-rule="evenodd" clip-rule="evenodd" fill="#797979" d="M207.282,10.311c0.313,0,0.625-0.006,0.937,0.003
		c0.209,0.006,0.358,0.101,0.378,0.33c0.023,0.274-0.104,0.41-0.381,0.398c0.034-0.769-0.54-0.499-0.93-0.544
		C207.267,10.436,207.265,10.374,207.282,10.311z"/>
	<path fill-rule="evenodd" clip-rule="evenodd" fill="#9D9D9D" d="M181.983,19.311c0.801-0.08,1.492,0.508,2.302,0.377
		c1.112-0.184,2.252,0.339,3.373-0.164c0.08-0.273-0.394-0.282-0.33-0.568c0.529-0.101,1.016,0.023,1.463,0.3
		c0.248,0.153,0.706,0.16,0.611,0.596c-0.071,0.329-0.47,0.344-0.72,0.358c-2.17,0.124-4.316-0.024-6.406-0.674
		C182.166,19.501,182.08,19.388,181.983,19.311z"/>
	<path fill-rule="evenodd" clip-rule="evenodd" fill="#565656" d="M187.328,18.955c0.113,0.051,0.223,0.122,0.341,0.149
		c0.283,0.066,0.619,0.117,0.593,0.484c-0.031,0.432-0.424,0.294-0.674,0.298c-1.105,0.018-2.213,0.052-3.303-0.199
		c0.001-0.064,0.001-0.129,0.001-0.193c0.688,0.032,1.373-0.027,2.063,0.125c0.513,0.113,0.705-0.166,0.42-0.659
		C186.956,18.958,187.143,18.957,187.328,18.955z"/>
	<path display="none" fill-rule="evenodd" clip-rule="evenodd" fill="#EFFAFB" d="M21.172,11.093
		c0.157,0.036,0.404,0.077,0.643,0.149c0.291,0.088,0.521,0.253,0.474,0.604c-0.042,0.311-0.291,0.377-0.551,0.419
		c-0.247,0.04-0.52,0.18-0.732,0.115c-0.468-0.145-1.301-0.006-1.259-0.658C19.781,11.19,20.539,11.141,21.172,11.093z"/>
</g>
</svg>
