<?xml version="1.0" encoding="UTF-8" standalone="no"?>
<svg
   xmlns:dc="http://purl.org/dc/elements/1.1/"
   xmlns:cc="http://creativecommons.org/ns#"
   xmlns:rdf="http://www.w3.org/1999/02/22-rdf-syntax-ns#"
   xmlns:svg="http://www.w3.org/2000/svg"
   xmlns="http://www.w3.org/2000/svg"
   xmlns:sodipodi="http://sodipodi.sourceforge.net/DTD/sodipodi-0.dtd"
   xmlns:inkscape="http://www.inkscape.org/namespaces/inkscape"
   width="19.2784in"
   height="7.47037in"
   viewBox="0 0 1280 496"
   version="1.1"
   id="svg3"
   sodipodi:docname="msu1_test1.svg"
   inkscape:version="0.92.2 (5c3e80d, 2017-08-06)">
  <metadata
     id="metadata9">
    <rdf:RDF>
      <cc:Work
         rdf:about="">
        <dc:format>image/svg+xml</dc:format>
        <dc:type
           rdf:resource="http://purl.org/dc/dcmitype/StillImage" />
        <dc:title></dc:title>
      </cc:Work>
    </rdf:RDF>
  </metadata>
  <defs
     id="defs7" />
  <sodipodi:namedview
     pagecolor="#ff00ff"
     bordercolor="#6666ff"
     borderopacity="1"
     objecttolerance="10"
     gridtolerance="10"
     guidetolerance="10"
     inkscape:pageopacity="0"
     inkscape:pageshadow="2"
     inkscape:window-width="1920"
     inkscape:window-height="1027"
     id="namedview5"
     showgrid="false"
     inkscape:snap-page="true"
     inkscape:showpageshadow="false"
     borderlayer="true"
     inkscape:zoom="0.43861619"
     inkscape:cx="1240.7719"
     inkscape:cy="931.60486"
     inkscape:window-x="1912"
     inkscape:window-y="-8"
     inkscape:window-maximized="1"
     inkscape:current-layer="svg3" />
  <rect
     style="fill:#000000;stroke:none;stroke-width:0.69162124;stroke-opacity:1"
     id="rect825"
     width="1280.0017"
     height="496"
     x="-0.00087286026"
     y="0" />
  <path
     id="MSU-1"
     fill="none"
     stroke="black"
     stroke-width="1"
     d="M 148.00,296.00            C 148.00,296.00 376.00,68.00 376.00,68.00              376.00,68.00 404.00,68.00 404.00,68.00              404.00,68.00 404.00,224.00 404.00,224.00              404.00,224.00 560.00,68.00 560.00,68.00              560.00,68.00 588.00,68.00 588.00,68.00              588.00,68.00 588.00,296.00 588.00,296.00              588.00,296.00 548.00,296.00 548.00,296.00              548.00,296.00 548.00,136.00 548.00,136.00              548.00,136.00 388.00,296.00 388.00,296.00              388.00,296.00 360.00,296.00 360.00,296.00              360.00,296.00 360.00,136.00 360.00,136.00              360.00,136.00 200.00,296.00 200.00,296.00              200.00,296.00 148.00,296.00 148.00,296.00 Z            M 1132.00,68.00            C 1132.00,68.00 1108.00,68.00 1108.00,68.00              1108.00,68.00 1044.00,132.00 1044.00,132.00              1044.00,132.00 1044.00,156.00 1044.00,156.00              1044.00,156.00 1092.00,156.00 1092.00,156.00              1092.00,156.00 1092.00,296.00 1092.00,296.00              1092.00,296.00 1132.00,296.00 1132.00,296.00              1132.00,296.00 1132.00,68.00 1132.00,68.00 Z            M 804.00,68.00            C 804.00,68.00 656.00,68.00 656.00,68.00              631.00,68.00 612.00,99.00 612.00,124.00              612.00,124.00 612.00,148.00 612.00,148.00              612.00,173.00 631.00,204.00 656.00,204.00              656.00,204.00 740.00,204.00 740.00,204.00              760.00,204.00 764.00,218.00 764.00,228.00              764.00,238.00 760.00,252.00 740.00,252.00              740.00,252.00 612.00,252.00 612.00,252.00              612.00,252.00 612.00,296.00 612.00,296.00              612.00,296.00 760.00,296.00 760.00,296.00              785.00,296.00 804.00,265.00 804.00,240.00              804.00,240.00 804.00,216.00 804.00,216.00              804.00,191.00 785.00,160.00 760.00,160.00              760.00,160.00 676.00,160.00 676.00,160.00              656.00,160.00 652.00,146.00 652.00,136.00              652.00,126.00 656.00,112.00 676.00,112.00              676.00,112.00 804.00,112.00 804.00,112.00              804.00,112.00 804.00,68.00 804.00,68.00 Z            M 868.00,223.00            C 868.00,248.00 883.00,256.00 898.00,256.00              898.00,256.00 950.00,256.00 950.00,256.00              965.00,256.00 980.00,248.00 980.00,223.00              980.00,223.00 980.00,68.00 980.00,68.00              980.00,68.00 1024.00,68.00 1024.00,68.00              1024.00,68.00 1024.00,240.00 1024.00,240.00              1024.00,270.00 1011.00,296.00 976.00,296.00              976.00,296.00 872.00,296.00 872.00,296.00              837.00,296.00 824.00,270.00 824.00,240.00              824.00,240.00 824.00,68.00 824.00,68.00              824.00,68.00 868.00,68.00 868.00,68.00              868.00,68.00 868.00,223.00 868.00,223.00 Z            M 1134.00,316.00            C 1134.00,316.00 1134.00,344.00 1134.00,344.00              1134.00,344.00 140.00,344.00 140.00,344.00              140.00,344.00 140.00,316.00 140.00,316.00              140.00,316.00 1134.00,316.00 1134.00,316.00 Z            M 827.00,421.00            C 827.00,431.00 819.00,440.00 809.00,440.00              809.00,440.00 790.00,440.00 790.00,440.00              780.00,440.00 772.00,431.00 772.00,421.00              772.00,421.00 772.00,382.00 772.00,382.00              772.00,372.00 780.00,363.00 790.00,363.00              790.00,363.00 809.00,363.00 809.00,363.00              819.00,363.00 827.00,372.00 827.00,382.00              827.00,382.00 826.83,389.88 827.00,392.00              827.00,392.00 805.00,392.00 805.00,392.00              805.00,382.00 805.00,379.00 800.50,379.00              796.00,379.00 796.00,382.00 796.00,392.00              796.00,392.00 796.00,410.00 796.00,410.00              796.00,420.00 796.00,423.00 800.53,423.00              805.00,423.00 805.00,420.00 805.00,410.00              805.00,410.00 827.00,410.00 827.00,410.00              827.00,414.31 827.00,421.00 827.00,421.00 Z            M 173.00,363.00            C 173.00,363.00 182.48,402.00 182.48,402.00              182.48,402.00 192.00,363.00 192.00,363.00              192.00,363.00 222.00,363.00 222.00,363.00              222.00,363.00 222.00,439.00 222.00,439.00              222.00,439.00 200.00,439.00 200.00,439.00              200.00,439.00 200.00,393.00 200.00,393.00              200.00,393.00 187.00,439.00 187.00,439.00              187.00,439.00 178.00,439.00 178.00,439.00              178.00,439.00 165.00,393.00 165.00,393.00              165.00,393.00 165.00,439.00 165.00,439.00              165.00,439.00 143.00,439.00 143.00,439.00              143.00,439.00 143.00,363.00 143.00,363.00              143.00,363.00 173.00,363.00 173.00,363.00 Z            M 274.00,363.00            C 274.00,363.00 274.00,380.00 274.00,380.00              274.00,380.00 253.00,380.00 253.00,380.00              253.00,380.00 253.00,392.00 253.00,392.00              253.00,392.00 271.00,392.00 271.00,392.00              271.00,392.00 271.00,409.00 271.00,409.00              271.00,409.00 253.00,409.00 253.00,409.00              253.00,409.00 253.00,422.00 253.00,422.00              253.00,422.00 274.00,422.00 274.00,422.00              274.00,422.00 274.00,439.00 274.00,439.00              274.00,439.00 229.00,439.00 229.00,439.00              229.00,439.00 229.00,363.00 229.00,363.00              229.00,363.00 274.00,363.00 274.00,363.00 Z            M 280.00,439.00            C 280.00,439.00 280.00,363.00 280.00,363.00              285.01,363.00 309.00,363.00 309.00,363.00              335.00,363.00 335.00,381.00 335.00,381.00              335.00,381.00 335.00,421.00 335.00,421.00              335.00,421.00 335.00,439.00 315.00,439.00              315.00,439.00 280.00,439.00 280.00,439.00 Z            M 366.00,363.00            C 366.00,363.00 366.00,439.00 366.00,439.00              366.00,439.00 342.00,439.00 342.00,439.00              342.00,439.00 342.00,363.00 342.00,363.00              342.00,363.00 366.00,363.00 366.00,363.00 Z            M 386.00,363.00            C 386.00,363.00 419.00,363.00 419.00,363.00              419.00,363.00 434.00,439.00 434.00,439.00              434.00,439.00 410.00,439.00 410.00,439.00              410.00,439.00 408.00,425.00 408.00,425.00              408.00,425.00 397.00,425.00 397.00,425.00              397.00,425.00 395.00,439.00 395.00,439.00              395.00,439.00 371.00,439.00 371.00,439.00              371.00,439.00 386.00,363.00 386.00,363.00 Z            M 485.00,409.00            C 485.00,409.00 485.00,422.00 485.00,422.00              485.00,422.00 506.00,422.00 506.00,422.00              506.00,422.00 506.00,439.00 506.00,439.00              506.00,439.00 461.00,439.00 461.00,439.00              461.00,439.00 461.00,363.00 461.00,363.00              461.00,363.00 506.00,363.00 506.00,363.00              506.00,363.00 506.00,380.00 506.00,380.00              506.00,380.00 485.00,380.00 485.00,380.00              485.00,380.00 485.00,392.00 485.00,392.00              485.00,392.00 503.00,392.00 503.00,392.00              503.00,392.00 503.00,409.00 503.00,409.00              503.00,409.00 485.00,409.00 485.00,409.00 Z            M 535.00,363.00            C 535.00,363.00 548.00,401.00 548.00,401.00              548.00,401.00 548.00,363.00 548.00,363.00              548.00,363.00 570.00,363.00 570.00,363.00              570.00,363.00 570.00,439.00 570.00,439.00              570.00,439.00 548.00,439.00 548.00,439.00              548.00,439.00 533.00,398.00 533.00,398.00              533.00,398.00 533.00,439.00 533.00,439.00              533.00,439.00 511.00,439.00 511.00,439.00              511.00,439.00 511.00,363.00 511.00,363.00              511.00,363.00 535.00,363.00 535.00,363.00 Z            M 601.00,439.00            C 601.00,439.00 577.00,439.00 577.00,439.00              577.00,439.00 577.00,363.00 577.00,363.00              577.00,363.00 601.00,363.00 601.00,363.00              601.00,363.00 601.00,392.00 601.00,392.00              601.00,392.00 611.00,392.00 611.00,392.00              611.00,392.00 611.00,363.00 611.00,363.00              611.00,363.00 635.00,363.00 635.00,363.00              635.00,363.00 635.00,439.00 635.00,439.00              635.00,439.00 611.00,439.00 611.00,439.00              611.00,439.00 611.00,409.00 611.00,409.00              611.00,409.00 601.00,409.00 601.00,409.00              601.00,409.00 601.00,439.00 601.00,439.00 Z            M 655.00,363.00            C 655.00,363.00 688.00,363.00 688.00,363.00              688.00,363.00 703.00,439.00 703.00,439.00              703.00,439.00 679.00,439.00 679.00,439.00              679.00,439.00 677.00,425.00 677.00,425.00              677.00,425.00 666.00,425.00 666.00,425.00              666.00,425.00 664.00,439.00 664.00,439.00              664.00,439.00 640.00,439.00 640.00,439.00              640.00,439.00 655.00,363.00 655.00,363.00 Z            M 729.00,398.00            C 729.00,398.00 729.00,439.00 729.00,439.00              729.00,439.00 707.00,439.00 707.00,439.00              707.00,439.00 707.00,363.00 707.00,363.00              707.00,363.00 731.00,363.00 731.00,363.00              731.00,363.00 744.00,401.00 744.00,401.00              744.00,401.00 744.00,363.00 744.00,363.00              744.00,363.00 766.00,363.00 766.00,363.00              766.00,363.00 766.00,439.00 766.00,439.00              766.00,439.00 744.00,439.00 744.00,439.00              744.00,439.00 729.00,398.00 729.00,398.00 Z            M 857.00,409.00            C 857.00,409.00 857.00,422.00 857.00,422.00              857.00,422.00 878.00,422.00 878.00,422.00              878.00,422.00 878.00,439.00 878.00,439.00              878.00,439.00 833.00,439.00 833.00,439.00              833.00,439.00 833.00,363.00 833.00,363.00              833.00,363.00 878.00,363.00 878.00,363.00              878.00,363.00 878.00,380.00 878.00,380.00              878.00,380.00 857.00,380.00 857.00,380.00              857.00,380.00 857.00,392.00 857.00,392.00              857.00,392.00 875.00,392.00 875.00,392.00              875.00,392.00 875.00,409.00 875.00,409.00              875.00,409.00 857.00,409.00 857.00,409.00 Z            M 912.00,363.00            C 912.00,363.00 922.53,402.00 922.53,402.00              922.53,402.00 933.00,363.00 933.00,363.00              933.00,363.00 962.00,363.00 962.00,363.00              962.00,363.00 962.00,439.00 962.00,439.00              962.00,439.00 940.00,439.00 940.00,439.00              940.00,439.00 940.00,393.00 940.00,393.00              940.00,393.00 927.00,439.00 927.00,439.00              927.00,439.00 918.00,439.00 918.00,439.00              918.00,439.00 905.00,394.00 905.00,394.00              905.00,394.00 905.00,439.00 905.00,439.00              905.00,439.00 883.00,439.00 883.00,439.00              883.00,439.00 883.00,363.00 883.00,363.00              883.00,363.00 912.00,363.00 912.00,363.00 Z            M 1014.00,363.00            C 1014.00,363.00 1014.00,380.00 1014.00,380.00              1014.00,380.00 993.00,380.00 993.00,380.00              993.00,380.00 993.00,392.00 993.00,392.00              993.00,392.00 1011.00,392.00 1011.00,392.00              1011.00,392.00 1011.00,409.00 1011.00,409.00              1011.00,409.00 993.00,409.00 993.00,409.00              993.00,409.00 993.00,422.00 993.00,422.00              993.00,422.00 1014.00,422.00 1014.00,422.00              1014.00,422.00 1014.00,439.00 1014.00,439.00              1014.00,439.00 969.00,439.00 969.00,439.00              969.00,439.00 969.00,363.00 969.00,363.00              969.00,363.00 1014.00,363.00 1014.00,363.00 Z            M 1043.00,363.00            C 1043.00,363.00 1056.00,401.00 1056.00,401.00              1056.00,401.00 1056.00,363.00 1056.00,363.00              1056.00,363.00 1078.00,363.00 1078.00,363.00              1078.00,363.00 1078.00,439.00 1078.00,439.00              1078.00,439.00 1056.00,439.00 1056.00,439.00              1056.00,439.00 1041.00,398.00 1041.00,398.00              1041.00,398.00 1041.00,439.00 1041.00,439.00              1041.00,439.00 1019.00,439.00 1019.00,439.00              1019.00,439.00 1019.00,363.00 1019.00,363.00              1019.00,363.00 1043.00,363.00 1043.00,363.00 Z            M 1133.00,363.00            C 1133.00,363.00 1133.00,380.00 1133.00,380.00              1133.00,380.00 1120.00,380.00 1120.00,380.00              1120.00,380.00 1120.00,439.00 1120.00,439.00              1120.00,439.00 1096.00,439.00 1096.00,439.00              1096.00,439.00 1096.00,380.00 1096.00,380.00              1096.00,380.00 1083.00,380.00 1083.00,380.00              1083.00,380.00 1083.00,363.00 1083.00,363.00              1083.00,363.00 1133.00,363.00 1133.00,363.00 Z            M 313.00,392.00            C 313.04,381.98 311.00,380.00 303.00,380.00              303.00,380.00 303.00,422.00 303.00,422.00              311.00,422.00 313.00,420.00 313.00,410.00              313.00,410.00 313.00,392.00 313.00,392.00 Z            M 399.00,408.00            C 399.00,408.00 406.00,408.00 406.00,408.00              406.00,408.00 402.47,379.00 402.47,379.00              402.47,379.00 399.00,408.00 399.00,408.00 Z            M 668.00,408.00            C 668.00,408.00 675.00,408.00 675.00,408.00              675.00,408.00 671.51,379.00 671.51,379.00              671.51,379.00 668.00,408.00 668.00,408.00 Z"
     style="fill:#ffffff;stroke:#ffffff" />
  <path
     style="fill:#ff0000;stroke:#ff0000;stroke-width:1.61332715;stroke-opacity:1"
     d="M 140,330 V 316 H 636.99999 1134 v 14 14 H 636.99999 140 Z"
     id="path827"
     inkscape:connector-curvature="0" />
</svg>
