<?xml version="1.0" encoding="utf-8"?>
<!-- Generator: Adobe Illustrator 16.0.2, SVG Export Plug-In . SVG Version: 6.00 Build 0)  -->
<!DOCTYPE svg PUBLIC "-//W3C//DTD SVG 1.1 Tiny//EN" "http://www.w3.org/Graphics/SVG/1.1/DTD/svg11-tiny.dtd">
<svg version="1.1" baseProfile="tiny"
	 id="svg2" xmlns:dc="http://purl.org/dc/elements/1.1/" xmlns:cc="http://creativecommons.org/ns#" xmlns:rdf="http://www.w3.org/1999/02/22-rdf-syntax-ns#" xmlns:svg="http://www.w3.org/2000/svg" xmlns:sodipodi="http://sodipodi.sourceforge.net/DTD/sodipodi-0.dtd" xmlns:inkscape="http://www.inkscape.org/namespaces/inkscape" sodipodi:docname="snk.svg" inkscape:version="0.91 r13725"
	 xmlns="http://www.w3.org/2000/svg" xmlns:xlink="http://www.w3.org/1999/xlink" x="0px" y="0px" width="576.336px"
	 height="132.031px" viewBox="0 0 576.336 132.031" xml:space="preserve">
<g>
	<path display="none" fill-rule="evenodd" fill="#FEFEFE" d="M287.855-1.036c57.951,0,115.901,0.015,173.854-0.052
		c2.354-0.002,2.704,0.449,2.702,2.131c-0.071,43.608-0.071,87.215,0.001,130.822c0.003,1.697-0.378,2.124-2.711,2.123
		c-115.798-0.057-231.595-0.057-347.391-0.001c-2.433,0.001-2.864-0.477-2.862-2.249c0.073-43.607,0.072-87.215,0-130.822
		c-0.002-1.619,0.352-2.002,2.554-2C171.953-1.022,229.905-1.036,287.855-1.036z"/>
	<path fill-rule="evenodd" fill="#0D4C9D" d="M233.844,83.139c0-5.708,0.004-10.944-0.007-16.18
		c-0.001-0.397,0.085-0.979-0.206-1.164c-3.194-2.042-1.276-4.799-1.787-7.205c-0.266-1.254,0.706-1.449,2.067-1.443
		c7.244,0.032,14.489-0.03,21.732,0.046c6.383,0.068,11.814,1.567,14.711,6.766c1.158-0.944,2.037-1.679,2.938-2.395
		c8.124-6.453,24.199-7.234,32.404-1.22c2.804,2.056,3.984,2.134,7.085,0.219c10.401-6.424,28.792-6.11,37.023,3.323
		c0.152,0.175,0.443,0.28,1.044,0.646c0-2.074,0.08-3.886-0.028-5.691c-0.073-1.213,0.353-1.736,2.072-1.716
		c5.563,0.064,11.13,0.048,16.695,0.003c1.346-0.011,2.159,0.291,2.567,1.317c0.323,0.813,0.848,1.578,1.295,2.386
		c0.356-0.175,0.629-0.242,0.636-0.324c0.294-3.049,2.66-3.585,6.193-3.415c4.706,0.227,9.446,0.11,14.169,0.033
		c1.78-0.029,2.532,0.405,2.313,1.789c-0.36,2.286,0.955,4.768-1.662,6.811c-0.514,0.4-0.161,1.557-0.011,2.343
		c0.827,4.302,1.712,8.599,2.598,12.894c0.096,0.473,0.13,1.118,0.526,1.361c3.8,2.328,1.457,5.52,2.044,8.286
		c0.208,0.975-0.689,1.18-1.785,1.177c-5.983-0.02-11.969-0.046-17.954-0.002c-1.739,0.013-1.713-0.758-1.769-1.717
		c-0.278-4.794-0.299-4.794-6.59-4.784c-5.832,0.008-5.927,0.009-5.854,4.319c0.027,1.645-0.515,2.26-2.782,2.195
		c-4.614-0.128-9.248-0.167-13.855,0.006c-2.834,0.105-4.15-0.48-3.638-2.765c0.063-0.274-0.109-0.579-0.242-1.192
		c-12.931,7.307-25.012,5.918-36.721-1.887c-0.686,1.543-0.253,2.972-0.31,4.349c-0.041,0.957-0.292,1.516-1.748,1.479
		c-6.078-0.152-12.206,0.399-18.231-0.45c-9.833-1.387-16.824-5.53-20.313-12.875c-0.248-0.521-0.526-1.031-0.884-1.729
		c-4.643,2.632-9.526,4.581-14.961,5.652c-0.821,0.161-1.961,0.899-0.979,1.269c3.316,1.247,1.772,3.433,2.183,5.246
		c0.528,2.333-0.635,2.94-3.699,2.929c-24.779-0.103-49.559-0.044-74.339-0.066c-8.573-0.01-16.223-1.964-21.889-7.107
		c-5.942-5.396-6.618-11.571-2.988-17.902c3.791-6.612,10.892-9.813,20.096-10.299c8.399-0.443,15.453,1.674,20.787,6.849
		c1.093,1.061,1.263,1.775-0.146,2.827c-3.008,2.246-5.898,4.597-8.64,7.034c-1.376,1.225-2.395,1.189-3.837,0.191
		c-0.926-0.641-2.044-1.127-3.112-1.637c-1.374-0.654-2.462-1.148-1.547-2.777c0.774-1.378-1.042-2.473-2.989-1.931
		c-0.95,0.264-1.868,0.76-2.591,1.313c-2.43,1.856-2.785,5.321-0.918,8.396c1.599,2.634,4.195,4.171,8.109,4.178
		c1.301,0.003,2.712-0.123,3.47-0.915c2.78-2.905,6.714-1.345,10.142-1.651c1.193-0.108,1.086,0.773,1.09,1.414
		c0.007,1.17,0.002,2.34,0.002,3.85c1.385-0.924,1.472-1.945,1.894-2.788c3.614-7.215,7.236-14.431,10.66-21.699
		c0.755-1.604,1.776-2.077,3.872-1.993c3.246,0.13,6.514,0.135,9.759-0.002c2.059-0.087,2.914,0.558,3.601,1.965
		c3.352,6.86,6.83,13.685,10.292,20.513C231.485,80.746,231.846,82.031,233.844,83.139z"/>
	<path fill-rule="evenodd" fill="#C10809" d="M164.459,6.72c1.624-5.57,1.929-4.482,8.521-4.675
		c3.247-0.096,6.506-0.012,9.756,0.071c2.288,0.059,3.503,0.9,3.836,2.806c0.747,4.267,1.805,8.503,2.965,12.734
		c0-4.097,0.053-8.196-0.023-12.292c-0.039-2.12,0.954-3.328,3.919-3.313c5.774,0.028,11.549-0.023,17.323,0.034
		c2.175,0.021,3.899,1.033,5.838,2.15c0.087-1.395,0.833-1.879,2.456-1.995c4.089-0.291,8.153-0.334,12.235-0.01
		c1.996,0.158,2.877,0.985,3.159,2.491c0.551,2.929,1.284,5.839,1.99,8.974c1.352-3.06,1.49-6.059,2.216-8.968
		c0.443-1.774,1.648-2.609,3.755-2.613c15.83-0.026,31.66,0.022,47.491,0.007c3.807-0.004,3.268,2.105,3.275,3.859
		c0.049,9.755,0.136,19.513-0.051,29.267c-0.045,2.357,0.785,2.91,3.8,2.911c6.707,0.001,6.134-1.148,6.355,4.931
		c0.084,2.331-0.188,4.67-0.152,7.004c0.019,1.256-0.638,1.593-2.197,1.696c-5.873,0.39-11.751,0.134-17.623,0.182
		c-8.699,0.069-17.398,0.011-26.096,0.011c-7.08,0-7.097-0.02-7.102-5.523c-0.003-3.709-0.036-7.417-0.061-11.126
		c-0.001-0.158-0.064-0.316-0.158-0.75c-1.206,5.1-2.411,9.933-3.464,14.785c-0.35,1.608-1.291,2.477-3.444,2.507
		c-1.572,0.021-3.144,0.085-4.716,0.087c-7.33,0.012-14.663-0.092-21.987,0.054c-3.793,0.075-6.594-0.511-7.404-3.756
		c-0.161-0.643-0.819-1.213-1.397-2.028c-0.394,5.525,0.655,5.739-7.508,5.742c-5.352,0.002-10.705,0.003-16.057-0.003
		c-2.985-0.003-5.778-0.149-5.75-3.321c0.008-1.048-1.161-1.131-2.305-1.155c-1.294-0.026-2.494,0.131-2.492,1.282
		c0.002,2.854-2.43,3.191-5.259,3.195c-6.301,0.006-12.602,0.027-18.902-0.013c-2.588-0.017-5.193-0.196-7.758-0.251
		c-7.745-0.167-15.472,0.692-23.208,0.094c-1.628-0.125-2.505-0.385-2.409-1.789c0.065-0.952-0.271-1.917-0.272-2.877
		c-0.019-13.465-0.138-26.931,0.057-40.394c0.072-4.992-0.546-4.4,5.997-4.688c3.559-0.157,7.139-0.036,10.709-0.014
		c2.628,0.017,4.224,0.754,4.586,3.043c0.292,1.836,0.607,3.783,2.347,5.891c0.699-2.327,1.457-4.209,1.786-6.135
		c0.303-1.77,1.428-2.594,3.631-2.683c4.821-0.195,9.641-0.199,14.464-0.012c1.91,0.074,3.152,0.639,3.481,2.15
		c0.284,3.327,1.132,6.651,0.363,9.026C163.173,11.741,163.101,9.133,164.459,6.72z"/>
	<path fill-rule="evenodd" fill="#018FBD" d="M273.506,129.451c-0.021-2.492,0.076-4.991-0.106-7.477
		c-0.12-1.608,0.602-2.011,2.641-1.999c12.361,0.07,24.724,0.035,37.085,0.034c0.839,0,1.677-0.009,2.514-0.019
		c1.094-0.012,1.811-0.343,1.824-1.271c0.013-0.888-0.63-1.339-1.705-1.423c-0.935-0.071-1.881-0.086-2.822-0.086
		c-9.113-0.005-18.228-0.036-27.342,0.016c-3.821,0.021-6.933-0.953-9.35-3.252c-1.098-1.043-1.761-2.143-1.597-3.529
		c0.102-0.875,0.286-1.858-0.1-2.635c-2.088-4.19,0.114-7.307,3.976-10.072c1.578-1.681,3.692-2.19,6.327-1.885
		c1.963,0.229,3.967,0.294,5.915-0.209c2.226-0.572,4.317,0.369,6.522,0.354c10.137-0.066,20.273-0.076,30.412-0.241
		c4.749-0.077,5.233,0.274,5.305,3.917c0.127,6.466,0.127,6.466-8.193,6.467c-10.183,0.002-20.367-0.009-30.549,0.012
		c-1.287,0.003-2.682-0.199-4.008,0.693c1.288,0.874,2.68,0.69,3.959,0.694c8.609,0.025,17.217-0.017,25.827,0.021
		c7.893,0.035,12.524,3.455,12.926,9.48c0.084,1.288,0.091,2.58-0.006,3.867c-0.361,4.768-3.659,7.655-9.813,8.625l0.021-0.021
		c-2.222,1.313-4.841,0.933-7.275,0.819c-12.328-0.569-24.663-0.099-36.991-0.273C277.097,130.034,275.127,130.557,273.506,129.451z
		"/>
	<path fill-rule="evenodd" fill="#028FBF" d="M393.63,129.518c-2.71-0.003-5.44-0.174-8.123,0.027
		c-4.432,0.334-8.153-0.407-11.006-3.205c-0.681-0.667-1.761-1.094-2.657-1.631c-3.045-1.795-6.121-3.537-8.902-5.604
		c-3.496-2.598-7.057-5.187-11.341-7.026c-0.937,3.411-0.132,6.845-0.436,10.246c-0.218,2.446,0.705,4.968-0.763,7.339
		c-4.736,1.096-9.551,0.181-14.323,0.313c-1.313,0.037-1.939-0.838-2.222-1.766c-0.24-0.791-0.222-1.599-0.222-2.403
		c-0.008-8.612-0.027-17.225,0.007-25.837c0.015-3.902,1.397-4.911,6.509-4.396c2.721,0.273,5.331,0.445,8.068,0.048
		c2.452-0.356,4.487,0.648,6.13,1.985c6.189,5.039,13.192,9.43,19.453,14.411c0.655,0.521,1.295,1.06,2.017,1.523
		c0.597,0.382,1.094,1.168,2.052,0.769c0.715-0.3,0.479-1.015,0.482-1.56c0.032-4.587-0.021-9.175,0.049-13.763
		c0.017-1.073-0.331-2.31,1.275-3.02c3.982-0.001,7.965,0.08,11.938-0.032c2.213-0.062,3.035,0.696,3.129,2.231
		c0.035,0.562,0.063,1.124,0.063,1.687c0.005,8.682,0.019,17.365-0.015,26.046C394.789,127.162,395.067,128.514,393.63,129.518z"/>
	<path fill-rule="evenodd" fill="#028FBE" d="M415.339,108.345c5.921-3.586,11.884-7.132,17.733-10.787
		c1.573-0.983,3.143-1.402,5.145-1.369c4.897,0.079,9.797,0.024,15.633,0.024c-6.155,3.977-11.639,7.523-17.125,11.064
		c-2.008,1.296-3.964,2.645-6.055,3.852c-1.584,0.913-1.258,1.481,0.074,2.373c7.04,4.699,14.006,9.465,20.99,14.212
		c0.615,0.416,1.408,0.718,1.783,1.766c-5.818,0-11.508,0.017-17.199-0.017c-1.023-0.008-1.564-0.756-2.262-1.221
		c-7.271-4.846-14.53-9.7-22.098-14.758c-0.719,2.497-0.297,4.715-0.363,6.904c-0.069,2.415-0.116,4.837,0.017,7.248
		c0.082,1.526-0.722,1.939-2.577,1.907c-4.193-0.07-8.39-0.018-12.588-0.016c-1.269-0.858-1.109-2.032-1.113-3.142
		c-0.028-9.004-0.049-18.006,0.004-27.009c0.02-3.236,0.307-3.405,4.424-3.408c2.828-0.002,5.653-0.004,8.48,0
		c3.485,0.005,3.486,0.007,3.49,2.794c0.004,2.651-0.053,5.306,0.031,7.957c0.029,0.907-0.683,2.117,0.623,2.661
		C413.585,109.883,414.232,108.529,415.339,108.345z"/>
	<path fill-rule="evenodd" fill="#F5FCFC" d="M379.373,96.228c-0.573,5.872-0.12,11.752-0.248,17.628
		c-0.016,0.696,0.442,1.68-0.395,2.021c-1.176,0.479-1.754-0.606-2.449-1.113c-7.919-5.764-15.811-11.55-23.682-17.353
		c-1.036-0.763-2.105-1.225-3.604-1.204c-3.988,0.06-7.979,0.091-11.966,0.007c-1.883-0.037-2.294,0.591-2.286,1.872
		c0.06,9.833,0.091,19.666,0.043,29.499c-0.008,1.444,0.499,1.99,2.477,1.942c4.3-0.101,8.606-0.029,12.912-0.028
		c0.173-0.12,0.37-0.155,0.596-0.105c0.065,0.068,0.13,0.136,0.196,0.205c-1.493,1.459-3.804,1.449-5.675,1.249
		c-2.196-0.234-4.383-0.402-6.531-0.255c-5.309,0.366-10.324-1.505-15.613-1.058c8.57-3.165,11.712-9.8,7.731-16.543
		c-1.937-3.28-5.47-4.771-10.081-4.783c-9.45-0.027-18.899-0.021-28.35-0.028c-0.735,0-1.474,0.018-2.203-0.029
		c-1.11-0.07-1.746-0.542-1.67-1.423c0.062-0.729,0.581-1.203,1.579-1.248c0.84-0.039,1.681-0.041,2.519-0.041
		c12.076-0.005,24.152-0.059,36.227,0.033c2.513,0.02,3.688-0.372,3.368-2.483c-0.324-2.141,1.141-4.922-0.586-6.299
		c-1.753-1.396-5.382-0.418-8.182-0.433c-11.969-0.056-23.939,0.016-35.91-0.057c-3.224-0.019-6.247,0.319-9.067,1.538
		c0.164-0.839-0.484-1.501-1.069-2.506c3.708,1.312,5.863-2.025,9.23-1.358c0.416,1.004-1.581,0.748-1.311,1.756
		c1.798,0.081,3.507,0.235,5.306-0.591c1.244-0.573,2.672-0.451,4.352,0.135c3.143,1.098,6.693,0.789,10.048,0.115
		c0.67-0.134,1.24-0.648,2.021-0.374c4.227,1.487,8.556,0.772,12.894,0.434c3.421-0.269,6.869-0.19,10.271,0.188
		c1.927,0.215,3.654,0.325,5.354-0.665c1.53-0.893,3.372-1.28,5.348-1.087c0.602,0.059,1.416-0.076,1.514,0.568
		c0.398,2.601,2.839,1.419,4,0.966c2.766-1.08,4.904,0.076,7.383,0.463c2.577,0.402,3.489,2.024,5.224,3.013
		c1.034,0.59,2.998,0.795,1.679,2.442c-0.293,0.366,0.492,0.57,1.079,0.506c1.484-0.162,2.552,0.471,3.593,1.142
		c0.894,1.384,2.668,2.207,3.736,3.48c2.171,1.118,4.75,1.915,4.978,4.407c0.043,0.473,0.967,1.201,1.826,1.144
		c1.246-0.083,0.721-0.981,0.779-1.542c0.476-4.564,0.874-9.123,0.369-13.713c-0.195-1.781,1.276-1.644,2.804-0.96
		C379.922,95.985,379.516,96.023,379.373,96.228z"/>
	<path fill-rule="evenodd" fill="#090302" d="M335.769,41.685c-1.824,2.779-3.743,5.524-5.426,8.353
		c-0.774,1.301-1.875,1.507-3.588,1.731c-6.094,0.797-9.686-0.899-11.689-5.448c-1.362-3.091-3.755-5.911-5.627-8.874
		c-1.753-2.777-1.001-3.317,2.783-3.731c5.483-0.599,8.653,0.942,10.187,4.92c0.307,0.792,0.635,1.711,1.808,2.265
		c0.145-0.336,0.253-0.628,0.395-0.912c3.18-6.402,5.56-7.354,14.526-5.678c1.288,0.242,2.076-0.554,3.255-0.542
		c5.769,0.06,11.539,0.034,17.308,0.016c1.044-0.003,2.171,0.172,2.115,1.025c-0.126,1.934,1.635,4.242-1.545,5.658
		c-0.861,0.384-0.16,0.554-0.02,0.871c1.009,2.271,2.501,3.426,6.145,2.995c3.467-0.409,5.207,0.885,5.312,2.947
		c0.076,1.482,0.571,3.232-1.944,3.922c-2.699,0.74-5.628,1.154-8.049-0.254c-1.404-0.817-2.086-0.827-3.298-0.008
		c-0.854,0.576-2.023,0.772-3.23,0.767c-5.455-0.023-10.91-0.062-16.364,0.014c-1.937,0.026-2.844-0.597-2.604-1.972
		c0.293-1.677-1.168-3.657,1.781-4.999C338.619,44.468,336.357,42.935,335.769,41.685z"/>
	<path fill-rule="evenodd" fill="#0A0403" d="M222.619,102.701c0.364-0.844,0.499-1.231,0.695-1.602
		c3.211-6.055,5.822-7.073,14.273-5.381c1.131,0.227,1.743-0.409,2.638-0.412c6.086-0.021,12.171-0.045,18.257-0.016
		c1.145,0.006,2.167,0.524,2.022,1.488c-0.268,1.769,1.398,3.955-1.728,5.166c-0.899,0.35-0.008,0.577,0.107,0.871
		c0.926,2.388,2.602,3.296,6.164,2.957c3.959-0.378,5.305,1.155,5.289,4.242c-0.009,1.699-1.135,2.745-2.983,2.924
		c-2.588,0.249-5.437,0.945-7.704-0.88c-0.418-0.337-0.955-0.78-1.591-0.292c-2.503,1.924-5.678,1.312-8.651,1.356
		c-3.988,0.06-7.98-0.042-11.966,0.041c-1.886,0.039-2.911-0.514-2.678-1.925c0.278-1.686-1.273-3.825,1.843-4.888
		c-0.624-1.077-1.247-2.154-2.074-3.583c-2.073,3.188-3.991,6.025-5.761,8.915c-0.676,1.104-1.556,1.467-3.141,1.486
		c-8.259,0.102-8.266,0.142-11.909-5.429c-1.973-3.017-3.962-6.028-5.851-9.077c-1.586-2.558-0.896-3.395,2.634-3.417
		c7.286-0.05,7.286-0.049,10.453,4.889C221.41,100.842,221.87,101.545,222.619,102.701z"/>
	<path fill-rule="evenodd" fill="#D7F8FD" d="M379.373,96.228c0.187-0.176,0.372-0.352,0.557-0.527
		c9.718,0.003,19.438,0.053,29.155-0.025c2.3-0.018,3.174,0.479,3.063,2.31c-0.175,2.803,0.142,5.626-0.103,8.42
		c-0.191,2.201,0.496,2.988,3.294,1.94c-0.891,0.899-1.972,1.606-3.825,2.209c0-4.099-0.114-7.992,0.051-11.878
		c0.077-1.835-0.501-2.598-3.09-2.461c-3.338,0.177-6.703,0.075-10.058,0.043c-1.333-0.013-2.173,0.153-2.16,1.418
		c0.095,10.619,0.135,21.235,0.19,31.853c-0.939-0.003-1.878-0.007-2.817-0.011c0.56-6.274,0.129-12.557,0.233-18.835
		c0.068-4.027-0.141-8.062,0.07-12.083c0.105-2.006-0.849-2.454-3.231-2.375C386.934,96.348,383.15,96.238,379.373,96.228z"/>
	<path fill-rule="evenodd" fill="#F5FCFC" d="M352.068,111.223c6.88,4.246,13.406,8.799,19.775,13.486
		c-0.981,0.072-1.972,0.044-2.46-0.729c-0.668-1.059-1.76-1.186-3.128-1.155c-2.387,0.055-3.956-0.632-4.262-2.716
		c-0.137-0.918,0.048-2.578-2.742-1.595c-1.736,0.614-3.005-0.84-3.764-1.972c-0.482-0.717-0.979-1.378-1.988-1.218
		c-1.102,0.176-0.585,1.067-0.66,1.654c-0.411,3.244-0.782,6.49-0.638,9.755c0.049,1.076-0.104,2.092-1.235,2.864l-0.023-0.011
		c-0.682-5.888-0.16-11.787-0.272-17.682C350.659,111.246,351.074,110.813,352.068,111.223z"/>
	<path fill-rule="evenodd" fill="#F5FCFC" d="M273.506,129.451c16.554,0.021,33.109,0.041,49.663,0.063
		c-0.402,0.654-0.804,1.308-1.207,1.962c-2.314,0.444-4.628,0.436-6.944,0.005c-1.319-0.752-2.83-0.937-4.431-0.934
		c-11.729,0.025-23.458-0.005-35.185,0.105C273.96,130.665,273.453,130.501,273.506,129.451z"/>
	<path fill-rule="evenodd" fill="#D3D1D0" d="M315.018,131.48c2.316-0.001,4.629-0.003,6.944-0.005
		c0.406,0.045,0.812,0.089,1.218,0.134c-0.003,0.075-0.006,0.15-0.009,0.226c-15.068,0-30.137,0-45.206,0
		c-0.001-0.118-0.003-0.236-0.005-0.354C290.313,131.48,302.666,131.48,315.018,131.48z"/>
	<path fill-rule="evenodd" fill="#FBD9D6" d="M164.459,6.72c-0.036,2.763-0.706,5.445-1.844,8.08c0-3.503,0-7.006,0-10.509
		c1.139,1.004,0.204,2.26,0.716,3.406C163.725,7.355,164.092,7.038,164.459,6.72z"/>
	<path fill-rule="evenodd" fill="#D0CFCF" d="M187.779,54.7c3.933,0,7.865,0,11.798,0c0.003,0.071,0.007,0.141,0.011,0.211
		c-3.894,0-7.788,0-11.682,0C187.863,54.841,187.82,54.771,187.779,54.7z"/>
	<path fill-rule="evenodd" fill="#D4D3D2" d="M403.745,83.74c0,2.511,0,5.021,0,7.529c-0.103,0.003-0.204,0.006-0.307,0.009
		c0-2.513,0-5.023,0-7.535C403.541,83.742,403.643,83.741,403.745,83.74z"/>
	<path fill-rule="evenodd" fill="#D3D1D1" d="M435.441,131.623c3.287,0,6.573,0,9.857,0c0.007,0.07,0.011,0.139,0.016,0.207
		c-3.253,0-6.505,0-9.758,0C435.518,131.762,435.479,131.693,435.441,131.623z"/>
	<path fill-rule="evenodd" fill="#B4B0B3" d="M369.174,106.364c-1.489-1.005-3.347-1.778-3.736-3.48
		C366.785,103.979,368.992,104.531,369.174,106.364z"/>
	<path fill-rule="evenodd" fill="#D8D8D6" d="M146.034,72.062c0,1.712,0,3.424,0,5.137c-0.094,0.004-0.189,0.008-0.284,0.013
		c0-1.69,0-3.381,0-5.072C145.845,72.112,145.939,72.088,146.034,72.062z"/>
	<path display="none" fill-rule="evenodd" fill="#C9C6C8" d="M263.847,96.688c0,1.295,0,2.589,0,3.883
		c-0.106,0.001-0.214,0.003-0.321,0.004c0-1.273,0-2.547,0-3.819C263.633,96.733,263.74,96.712,263.847,96.688z"/>
	<path fill-rule="evenodd" fill="#FCCA09" d="M391.422,62.64c-0.893,0.943-0.614,1.971-0.409,3.01
		c1.031,5.231,2.038,10.468,3.053,15.701c0.032,1.531-0.129,3.085,0.954,4.483c0.134,0.067,0.231,0.157,0.292,0.271
		c1.057,1.558,0.696,2.413-1.848,2.362c-2.613-0.051-5.229,0.003-7.843-0.018c-2.063-0.02-2.675-0.691-1.622-2.115
		c1.823-1.323,0.628-2.786,0.333-4.207c-1.271-3.325-1.156-6.898-2.977-10.442c-2.781,2.699-2.313,6.044-4.539,8.533
		c-0.799,2.676-3.607,1.792-5.844,1.969c-2.32,0.183-2.646-1.083-3.189-2.349c-1.319-3.083-2.758-6.138-4.472-9.185
		c-1.665,4.76-2.58,9.554-3.051,14.402c-0.021,0.23,0.076,0.486,0.204,0.701c1.641,2.747,1.645,2.753-2.474,2.767
		c-1.889,0.007-3.777,0.008-5.663-0.05c-1.869-0.057-2.375-1.105-1.221-1.897c2.259-1.549,2.134-3.625,2.576-5.519
		c1.262-5.381,2.05-10.832,3.44-16.19c0.465-1.796-2.297-2.276-1.726-3.822c0.831-0.848,2.06-0.679,3.146-0.618
		c3.356,0.186,6.793-0.559,10.077,0.479c1.517,3.303,3.031,6.605,4.686,10.214c1.963-2.133,2.072-4.485,3.478-6.408
		c0.873-1.262,1.328-2.64,1.888-3.995c0.29-0.158,0.607-0.249,0.959-0.277c3.435-0.072,6.864-0.03,10.294-0.025
		C392.27,60.42,392.688,61.197,391.422,62.64z"/>
	<path fill-rule="evenodd" fill="#FBCA0A" d="M329.039,89.122c-13.243,0.637-23.207-8.684-20.294-18.187
		c1.824-5.947,7.137-9.404,14.593-10.772c10.092-1.851,20.377,0.732,24.946,8.423c4.28,7.201-0.762,16.504-10.368,19.391
		C335.011,88.851,332.082,89.134,329.039,89.122z"/>
	<path fill-rule="evenodd" fill="#FACA0B" d="M218.442,86.279c1.965-3.075-1.333-7.446-5.657-7.493
		c-0.733-0.007-1.465-0.01-2.197-0.003c-6.253,0.061-6.257,0.073-7.877,4.855c-0.323,0.951-0.506,1.702,0.58,2.612
		c1.474,1.232,0.933,2.229-1.415,2.256c-2.51,0.028-5.022-0.007-7.533-0.042c-1.847-0.025-1.972-1.246-1.191-1.801
		c4.199-2.975,4.625-7.243,6.599-10.951c2.597-4.885,4.738-9.912,7.075-14.876c0.296-0.195,0.636-0.32,1.019-0.375
		c2.993,0.137,6.062-0.59,8.976,0.458c3.318,6.537,6.603,13.085,9.972,19.605c1.019,1.973,1.499,4.196,3.942,5.587
		c1.345,1.555,0.823,2.338-1.629,2.343c-2.789,0.005-5.578-0.014-8.366,0.007C218.718,88.477,217.808,87.877,218.442,86.279z"/>
	<path fill-rule="evenodd" fill="#FCCA09" d="M237.427,86.016c0.676-0.677,0.763-1.459,0.761-2.278
		c-0.013-6.011-0.013-12.023-0.004-18.034c0.001-1.063-0.081-2.088-1.2-2.867c-0.72-1.227-0.744-2.354,1.446-2.375
		c6.386-0.063,12.777-0.201,19.163,0.075c0.317,0.014,0.58,0.177,0.862,0.281c4.215,0.315,7.706,2.345,8.659,5.036
		c1.199,3.389-0.552,7.657-4.065,9.518c-3.318,1.757-6.875,3.159-10.832,3.925c-5.125,0.988-6.283,3.091-3.842,6.785
		c0.765,1.5,0.191,2.337-1.998,2.364c-2.509,0.029-5.022,0.077-7.526-0.011C236.381,88.348,236.198,87.969,237.427,86.016z"/>
	<path fill-rule="evenodd" fill="#FBCA0A" d="M284.857,65.709c-4.347,3.873-4.391,8.126-1.738,12.543
		c2.625,4.369,7.291,6.076,13.396,5.858c2.334-0.084,4.181-0.86,5.824-2.034c0.546-0.391,1.088-0.829,1.903-0.573
		c0.887,0.275,0.641,0.947,0.65,1.47c0.023,1.364-0.039,2.73-0.065,4.095c-0.325,1.361-1.642,1.409-3.055,1.396
		c-4.021-0.035-8.044,0.048-12.065-0.046c-0.387-0.042-0.739-0.147-1.059-0.319c-10.778-1.5-18.254-8.797-16.786-16.342
		c1.21-6.215,7.884-10.655,15.698-11.78c6.57-0.946,12.276,0.621,17.248,3.921c0.917,0.609,1.496,1.26,0.232,2.154
		c-1.524,1.079-2.784,2.379-4.311,3.457c-1.112,0.785-2.299,0.935-2.635-0.616c-1.05-4.861-1.744-5.286-8.292-5.057
		C288.028,64.264,286.451,64.999,284.857,65.709z"/>
	<path fill-rule="evenodd" fill="#FBCA0A" d="M170.108,88.019c-13.376-1.586-21.341-12.087-14.976-20.94
		c5.8-8.068,22.486-9.892,30.843-3.288c1.038,0.821,1.455,1.45,0.164,2.371c-1.447,1.03-2.704,2.218-4.104,3.289
		c-0.509,0.391-1.156,0.694-1.981,0.368c-0.64-0.254-0.949-0.561-0.772-1.144c0.653-2.136-0.509-3.741-2.994-4.48
		c-2.664-0.793-5.535-0.928-8.129,0.362c-5.994,2.98-7.398,9.268-3.284,14.524c4.112,5.252,12.444,6.642,18.576,3.099
		c1.877-0.744,2.748-0.301,2.713,1.316c-0.122,5.729,1.014,4.948-6.147,4.934C176.718,88.422,173.355,88.912,170.108,88.019z"/>
	<path fill-rule="evenodd" fill="#244A6C" d="M376.816,80.219c1.332-3.405,2.665-6.811,3.998-10.216
		c2.447,3.977,3.057,8.04,3.519,12.125c-2.179-2.168-1.146-4.964-2.421-7.309c-0.292-0.537,0.327-1.527-0.869-1.561
		c-1.03-0.03-0.915,0.883-1.188,1.473C378.991,76.606,379.075,78.8,376.816,80.219z"/>
	<path fill-rule="evenodd" fill="#A1B089" d="M170.108,88.019c3.662-0.017,7.324-0.036,10.985-0.053
		c5.023-0.023,4.947-0.021,4.772-4.07c-0.06-1.378-0.672-1.92-2.414-1.717c0.249-0.734,0.862-1.045,1.832-0.909
		c1.096,0.152,1.128,0.834,1.117,1.462c-0.031,1.89-0.118,3.779-0.184,5.668c-5.309,0.461-10.615,0.558-15.917-0.055
		C170.213,88.243,170.149,88.136,170.108,88.019z"/>
	<path fill-rule="evenodd" fill="#B8BE80" d="M258.455,60.817c-6.384,0.031-12.77,0.126-19.152,0.055
		c-2.052-0.023-2.622,0.559-2.32,1.963c-1.303-0.716-0.843-1.61-0.424-2.5c7.17-0.188,14.34-0.443,21.502,0.125
		C258.227,60.557,258.358,60.676,258.455,60.817z"/>
	<path fill-rule="evenodd" fill="#B5BB76" d="M237.427,86.016c-0.306,1.168-0.543,2.166,1.861,1.975c2.156-0.17,4.363-0.133,6.528,0
		c1.978,0.121,2.596-0.572,2.557-1.91c1.512,0.552,1.002,1.469,0.725,2.345c-4.233,0.503-8.474,0.35-12.714,0.078
		C235.231,87.303,235.124,86.36,237.427,86.016z"/>
	<path fill-rule="evenodd" fill="#5A622B" d="M258.061,60.46c-7.168-0.041-14.338-0.082-21.504-0.125
		c0.925-0.824,2.165-0.414,3.239-0.417c6.068-0.016,12.137,0.041,18.207,0.078c0.079,0,0.229,0.084,0.222,0.111
		C258.194,60.229,258.12,60.343,258.061,60.46z"/>
	<path fill-rule="evenodd" fill="#B8BD7B" d="M218.442,86.279c0.147,1.154,0.651,1.831,2.488,1.725
		c2.583-0.152,5.206-0.175,7.785-0.013c2.16,0.14,2.418-0.576,2.019-1.88c1.814,0.411,1.069,1.429,0.93,2.303
		c-4.539,0.53-9.087,0.33-13.637,0.112C217.491,87.704,217.126,86.899,218.442,86.279z"/>
	<path fill-rule="evenodd" fill="#BFC275" d="M383.999,86.335c-0.224,1.226,0.264,1.775,2.069,1.667
		c2.358-0.143,4.767-0.216,7.105-0.001c2.292,0.208,2.129-0.806,2.135-1.897c1.275,0.567,1.215,1.438,0.917,2.364
		c-4.338,0.382-8.677,0.364-13.016,0.013C382.906,87.641,382.431,86.766,383.999,86.335z"/>
	<path fill-rule="evenodd" fill="#4F5A35" d="M288.648,88.099c0.053-0.091,0.145-0.131,0.274-0.12
		c3.941,0.567,7.92,0.083,11.875,0.257c1.343,0.058,2.717-0.225,4.029,0.194c-1.521,1.117-3.384,0.44-5.066,0.499
		c-3.352,0.117-6.715,0.027-10.073-0.013C289.1,88.908,287.922,89.165,288.648,88.099z"/>
	<path fill-rule="evenodd" fill="#BEC077" d="M391.422,62.64c0.327-1.186,0.125-1.839-1.877-1.763
		c-3.62,0.139-7.255,0.035-10.886,0.032c-0.086-0.363,0.103-0.698,0.557-0.691c4.402,0.062,8.819-0.354,13.204,0.222
		C392.651,61.324,392.917,62.217,391.422,62.64z"/>
	<path fill-rule="evenodd" fill="#AFB68A" d="M304.826,88.43c-5.298-0.187-10.641,0.572-15.9-0.451
		c4.299-0.004,8.601-0.04,12.901,0.007c1.229,0.016,2.259-0.111,3-0.919C304.827,87.522,304.827,87.977,304.826,88.43z"/>
	<path fill-rule="evenodd" fill="#435335" d="M170.299,88.345c5.307,0.019,10.614,0.035,15.919,0.055
		c-0.552,0.904-1.633,0.537-2.482,0.546c-3.656,0.04-7.314,0.036-10.97-0.011C171.914,88.923,170.828,89.25,170.299,88.345z"/>
	<path fill-rule="evenodd" fill="#546133" d="M392.42,60.439c-3.845-0.01-7.69-0.035-11.535-0.02
		c-0.773,0.003-1.703-0.253-2.226,0.489l0.031-0.019c-0.17,0.166-0.395,0.233-0.664,0.217c0.21-0.346,0.407-0.991,0.632-0.997
		C383.252,59.994,387.879,59.328,392.42,60.439z"/>
	<path fill-rule="evenodd" fill="#5D6227" d="M218.026,88.526c4.546-0.037,9.093-0.075,13.638-0.112
		C227.13,89.357,222.582,89.195,218.026,88.526z"/>
	<path fill-rule="evenodd" fill="#59632F" d="M236.383,88.503c4.24-0.026,8.48-0.053,12.716-0.079
		C244.869,89.384,240.629,89.212,236.383,88.503z"/>
	<path fill-rule="evenodd" fill="#606624" d="M383.21,88.48c4.339-0.006,8.678-0.01,13.017-0.014
		C391.888,89.264,387.549,89.266,383.21,88.48z"/>
	<path fill-rule="evenodd" fill="#AEBD8B" d="M368.621,60.908c-4.406,0.045-8.814,0.091-13.223,0.137
		c0.014-0.222,0.026-0.446,0.04-0.669c4.371-0.329,8.74-0.366,13.109,0.027C368.571,60.572,368.597,60.74,368.621,60.908z"/>
	<path fill-rule="evenodd" fill="#4F5F2C" d="M368.548,60.403c-4.37-0.009-8.741-0.017-13.11-0.027
		C359.811,59.609,364.181,59.595,368.548,60.403z"/>
	<path fill-rule="evenodd" fill="#566126" d="M206.949,60.896c0,0-0.125-0.058-0.124-0.059c0.163-0.266,0.314-0.757,0.488-0.762
		c3.12-0.089,6.271-0.619,9.337,0.29C213.471,61.133,210.13,60.156,206.949,60.896z"/>
	<path fill-rule="evenodd" fill="#B2BC7D" d="M206.949,60.896c3.147-1.098,6.481-0.201,9.701-0.531
		c0.057,0.184,0.114,0.37,0.171,0.555C213.531,60.912,210.24,60.904,206.949,60.896z"/>
	<path fill-rule="evenodd" fill="#426258" d="M284.857,65.709c1.283-1.194,2.761-2.084,4.947-1.872
		C288.367,64.792,287.036,65.91,284.857,65.709z"/>
	<path fill-rule="evenodd" fill="#BFC275" d="M395.02,85.834c-1.909-1.298-1.193-2.926-0.955-4.487
		C394.383,82.845,394.702,84.34,395.02,85.834z"/>
	<path fill-rule="evenodd" fill="#BEC077" d="M378.026,61.107c0.221-0.072,0.441-0.145,0.664-0.217
		c0.007,1.464-0.517,2.771-1.906,3.824C377.198,63.511,377.612,62.31,378.026,61.107z"/>
	<path fill-rule="evenodd" fill="#FDFDFD" d="M222.441,23.141c-1.347,2.897-3.061,5.658-5.665,8.017
		c-1.045,0.947-0.604,1.731-0.159,2.66c2.203,4.611,4.286,9.257,6.577,13.842c0.746,1.491,0.24,1.73-1.626,1.785
		c-8.502,0.248-8.491,0.281-11.37-5.797c-1.217-2.571-2.476-5.132-3.736-7.692c-0.292-0.595-0.566-1.319-1.692-1.112
		c-1.026,0.188-0.66,0.908-0.664,1.41c-0.035,3.626-0.132,7.254,0.026,10.876c0.075,1.72-0.387,2.539-2.887,2.321
		c-2.691-0.235-6.192,0.834-7.918-0.399c-1.729-1.235-0.485-3.939-0.498-5.99c-0.074-12.005,0.019-24.01-0.089-36.016
		c-0.018-1.919,0.444-2.742,3.214-2.584c3.443,0.196,6.958,0.276,10.377-0.026c5.508-0.488,8.825,1.862,11.894,4.756
		c0.521,0.491,0.994,1.013,1.488,1.521c0.387,0.11,0.689,0.463,0.98,0.487c0.474,0.039,0.154-0.359,0.144-0.531
		c-0.043-0.69,0.162-1.397-0.198-2.069c-0.601-4.078-0.601-4.078,4.79-4.106c5.614-0.029,5.605-0.028,6.468,4.141
		c1.175,5.674,2.365,11.346,3.549,17.02c0.943,0.522,0.232,1.505,1.005,2.066c1.36-0.812,0.284-2.166,1.117-3.109
		c1.324-5.941,2.715-11.875,3.928-17.83c0.35-1.718,1.056-2.378,3.542-2.337c8.805,0.147,17.619,0.125,26.425,0.011
		c2.617-0.034,3.94,0.323,3.518,2.608c-0.378,2.05,1.063,4.661-0.558,6.075c-1.552,1.353-4.947,0.361-7.526,0.433
		c-1.454,0.041-2.183,0.342-2.007,1.523c0.059,0.398,0.012,0.806,0.042,1.208c0.15,1.998-1.104,4.497,0.422,5.867
		c1.585,1.426,4.918,0.418,7.476,0.479c1.676,0.04,2.283,0.507,2.125,1.72c-0.031,0.24,0.013,0.484-0.004,0.724
		c-0.145,2.078,1.087,4.676-0.493,6.092c-1.524,1.364-4.945,0.416-7.523,0.426c-1.746,0.006-2.235,0.539-2.052,1.728
		c0.038,0.239,0.028,0.482,0.045,0.723c0.156,2.075-1.071,4.683,0.499,6.08c1.511,1.34,4.948,0.276,7.529,0.434
		c0.958,0.06,2.026-0.047,1.944,1.047c-0.195,2.622,0.663,5.28-0.451,7.871c-5.967,0.042-11.938-0.075-17.901,0.057
		c-2.354,0.053-3.015-0.484-2.999-2.298c0.103-11.735,0.053-23.471,0.051-35.207c0-0.723,0.099-1.455-0.078-2.164
		c-0.068-0.275,0.001-0.943-0.824-0.638c-0.33,0.122-0.413,0.541-0.6,0.828c-2.831,12.283-5.731,24.556-8.42,36.856
		c-0.439,2.006-1.293,2.785-3.957,2.539c-1.967-0.183-4.018-0.212-5.971,0.005c-3.051,0.338-3.875-0.744-4.326-2.846
		c-1.621-7.547-3.487-15.063-5.26-22.591c-0.073-1.012-1.518-1.823-0.509-3.269C222.763,21.67,223.343,22.615,222.441,23.141z"/>
	<path fill-rule="evenodd" fill="#FDFDFD" d="M144.934,39.583c-0.838,2.656-1.847,5.29-2.453,7.977
		c-0.392,1.733-1.578,1.948-3.483,1.917c-1.794-0.028-3.138-0.013-3.604-1.809c-1.25-4.816-2.777-9.59-4.2-14.379
		c-0.085-0.286-0.231-0.561-0.393-0.943c-1.043,0.438-0.648,1.053-0.65,1.533c-0.016,4.594-0.054,9.188,0.042,13.781
		c0.03,1.37-0.554,1.764-2.333,1.801c-9.167,0.195-9.166,0.233-9.167-6.672c-0.001-12.009,0.041-24.017-0.05-36.026
		c-0.013-1.745,0.452-2.465,2.937-2.317c3.13,0.188,6.298,0.132,9.441,0.031c1.857-0.06,2.467,0.438,2.803,1.846
		c1.224,5.146,2.68,10.26,4.063,15.384c0.209,0.775,0.497,1.539,0.78,2.402c1.124-0.52,0.991-1.273,1.163-1.917
		c1.385-5.205,2.833-10.4,4.096-15.623c0.374-1.545,1.107-2.197,3.251-2.104c3.034,0.132,6.097,0.144,9.125-0.027
		c2.428-0.137,2.99,0.535,2.977,2.313c-0.091,12.007-0.044,24.016-0.041,36.025c0,1.08,0,2.158,0.69,3.272
		c1.259-6.176,2.508-12.353,3.779-18.527c1.44-6.996,2.958-13.981,4.305-20.988c0.306-1.59,1.051-2.181,3.185-2.088
		c3.244,0.141,6.507,0.096,9.759,0.035c1.693-0.033,2.31,0.423,2.577,1.756c2.787,13.919,5.664,27.83,8.567,41.735
		c0.231,1.108-0.24,1.48-1.582,1.462c-1.469-0.019-2.962-0.145-4.403,0.01c-3.065,0.326-5.113-0.208-5.171-2.942
		c-0.024-1.118-0.873-1.52-2.277-1.457c-1.255,0.057-2.538,0.124-3.774-0.005c-2.882-0.299-4.669,0.344-4.688,2.809
		c-0.011,1.44-1.178,1.609-2.748,1.597c-5.772-0.049-11.547-0.074-17.318,0.017c-1.926,0.031-2.566-0.393-2.526-1.898
		c0.088-3.297-0.059-6.598-0.11-9.898c-1.391-0.903-0.533-2.053-0.694-3.136C146.827,36.369,145.556,37.9,144.934,39.583z"/>
	<path fill-rule="evenodd" fill="#FDFCFC" d="M279.272,26.939c-0.001-6.762,0.066-13.524-0.049-20.286
		c-0.029-1.666,0.543-2.195,2.781-2.199c7.974-0.012,7.979-0.077,7.982,6.11c0.005,9.258,0.064,18.516-0.046,27.773
		c-0.021,1.786,0.573,2.334,2.968,2.303c7.148-0.092,7.151-0.008,7.15,5.463c0,3.338,0,3.335-4.299,3.335
		c-4.508-0.001-9.021-0.084-13.524,0.045c-2.293,0.065-3.068-0.382-3.024-2.259C279.369,40.465,279.272,33.702,279.272,26.939z"/>
	<path fill-rule="evenodd" fill="#893938" d="M252.097,10.072c-0.288-1.319,0.476-2.494,0.68-3.893
		c1.376,0.528,0.892,1.32,0.893,1.927c0.03,12.898,0.1,25.797-0.035,38.694c-0.022,2.169,0.771,2.705,3.516,2.637
		c5.762-0.143,11.537,0.018,17.301,0.055c-6.549,0.656-13.122,0.14-19.678,0.255c-1.774,0.032-1.524-1.089-1.534-1.928
		c-0.039-3.293-0.018-6.588-0.019-9.882c-0.004-8.677,0.021-17.354-0.079-26.031C253.135,11.347,254.461,9.97,252.097,10.072z"/>
	<path fill-rule="evenodd" fill="#F9F0ED" d="M271.937,20.211c-1.4-0.221-3.708,0.813-3.635-1.826
		c0.052-1.901,0.698-2.646,3.139-2.324c0.202,0.027,0.418-0.007,0.625,0.009c1.754,0.145,4.062-0.89,4.028,2.009
		C276.059,20.819,274.004,20.171,271.937,20.211z"/>
	<path fill-rule="evenodd" fill="#F6E4E2" d="M275.821,34.271c0.017,0.079,0.05,0.159,0.047,0.239
		c-0.041,1.172,0.857,2.947-0.451,3.363c-1.791,0.569-4.308,0.609-6.126,0.084c-2.004-0.577-0.591-2.388-0.784-3.649
		C270.942,33.867,273.381,33.919,275.821,34.271z"/>
	<path fill-rule="evenodd" fill="#FBEDEB" d="M223.12,40.086c-0.83-1.642-1.583-3.311-2.509-4.92
		c-1.086-1.888-1.112-3.554,1.586-5.12c1.073,3.194,1.824,6.31,2.157,9.493c0.279,0.359,0.344,0.79-0.117,1.001
		C223.734,40.771,223.345,40.461,223.12,40.086z"/>
	<path fill-rule="evenodd" fill="#A71D27" d="M144.934,39.583c0.612-2.39,1.225-4.779,1.837-7.169
		c1.315,1.754,0.939,3.507,0.733,5.253C145.792,37.629,146.016,39.122,144.934,39.583z"/>
	<path fill-rule="evenodd" fill="#FAC5C1" d="M223.12,40.086c0.887,0.449,1.129,0.042,1.234-0.547
		c0.821,1.533,1.249,3.118,0.752,4.895C224.444,42.984,223.783,41.535,223.12,40.086z"/>
	<path fill-rule="evenodd" fill="#B13D43" d="M237.567,24.612c0.19,1.387-0.212,2.694-0.921,4.172
		c-1.326-0.952-0.96-2.116-1.201-3.13c0.727,0.036,0.76,0.646,1.169,1.021C237.02,25.908,236.548,25.06,237.567,24.612z"/>
	<path fill-rule="evenodd" fill="#B56163" d="M220.638,8.6c0.769,1.292,1.056,2.648,1.017,4.155c-1.3-0.417-1.62-1.23-1.943-2.042
		C220.826,10.216,220.234,9.28,220.638,8.6z"/>
	<path fill-rule="evenodd" fill="#992F31" d="M222.441,23.141c-0.085-0.94,0.138-1.824,1.019-3.274
		c0.302,1.795,0.502,2.983,0.703,4.17C223.563,23.766,223.319,23.094,222.441,23.141z"/>
	<path fill-rule="evenodd" fill="#7B2A20" d="M275.821,34.271c-2.437,0.013-4.875,0.026-7.313,0.038
		C270.939,33.486,273.377,33.52,275.821,34.271z"/>
	<path fill-rule="evenodd" fill="#C6F5FB" d="M352.068,111.223c-1.678,0.355-1.053,1.426-1.063,2.211
		c-0.063,5.385-0.051,10.77-0.063,16.153c-0.257-0.028-0.514-0.059-0.769-0.088c0.075-5.918,0.139-11.837,0.255-17.757
		c0.008-0.458-0.49-1.234,0.678-1.316C351.658,110.387,351.973,110.793,352.068,111.223z"/>
	<path fill-rule="evenodd" fill="#C4A640" d="M358.476,38.974c-3.14,0.036-6.287-0.013-9.416,0.151
		c-1.39,0.072-3.957-0.727-3.922,0.748c0.03,1.303,2.638,0.531,4.089,0.652c1.554,0.128,3.142-0.015,4.71,0.027
		c3.398,0.089,5.647,1.705,6.071,4.303c0.461,2.824-1.065,4.541-4.702,5.294c-4.076-0.348-8.162-0.101-12.243-0.142
		c-4.73-0.048-4.731-0.012-4.063-3.517c4.033-0.029,8.068-0.035,12.102-0.105c1.084-0.019,3.036,0.366,1.691-1.431
		c-3.371-0.735-6.861,0.109-10.247-0.463c-2.902-0.198-4.013-1.763-4.373-3.656c-0.501-2.636,0.853-4.333,3.988-5.449
		c4.761,0.247,9.529,0.023,14.292,0.129c0.958,0.021,2.39-0.456,2.762,0.498C359.589,36.967,360.118,38.203,358.476,38.974z"/>
	<path fill-rule="evenodd" fill="#C4A53D" d="M336.347,36.668c-2.027,4.587-5.358,8.699-8.133,13.01
		c-0.925,1.436-7.856,1.035-8.825-0.442c-2.732-4.16-5.369-8.357-8.044-12.539c0.274-1.796,2.096-1.06,3.36-1.192
		c1.263-0.132,2.457,0.074,3.525,0.632c1.851,2.659,3.701,5.318,5.684,8.17c2.438-2.573,3.139-5.72,5.526-8.161
		C332.181,35.018,335.138,35.241,336.347,36.668z"/>
	<path fill-rule="evenodd" fill="#C2A542" d="M364.838,45.692c3.06,0.037,5.267,0.186,5.237,2.417
		c-0.026,2.063-2.156,2.237-4.194,2.319c-2.194,0.089-4.164-0.447-4.25-2.293C361.543,46.241,363.554,45.746,364.838,45.692z"/>
	<path fill-rule="evenodd" fill="#D2BB70" d="M358.476,38.974c1.34-2.868,1.044-3.148-2.712-3.259
		c-4.534-0.133-9.098,0.436-13.603-0.329c5.496-0.608,11.024-0.093,16.53-0.276c0.883-0.029,1.586,0.221,1.243,0.93
		C359.467,37.02,361.331,38.713,358.476,38.974z"/>
	<path fill-rule="evenodd" fill="#D8BB5B" d="M339,46.49c-0.109,0.523,1.606-0.025,0.868,0.892c-1.48,1.839-1.194,2.334,1.474,2.367
		c3.654,0.047,7.313-0.003,10.969,0.026c1.009,0.008,2.107-0.261,2.995,0.374c-5.22,0.517-10.461,0.152-15.69,0.197
		C337.817,50.362,337.541,48.473,339,46.49z"/>
	<path fill-rule="evenodd" fill="#CFB769" d="M318.23,36.138c-2.309,0.087-4.842-1.458-6.886,0.559
		c-0.471-0.687-1.823-1.804,0.615-1.516C314.049,35.429,316.674,33.89,318.23,36.138z"/>
	<path fill-rule="evenodd" fill="#CCB569" d="M336.347,36.668c-2.103-1.728-4.549-0.778-6.906-0.521
		c0.868-0.819,6.621-1.586,7.425-0.907C337.497,35.773,336.684,36.22,336.347,36.668z"/>
	<path fill-rule="evenodd" fill="#AA9F77" d="M342.546,44.491c3.414,0.182,6.905-0.643,10.249,0.463
		C349.387,44.697,345.898,45.479,342.546,44.491z"/>
	<path fill-rule="evenodd" fill="#C4A63E" d="M237.609,107.942c3.965-0.034,7.931-0.059,11.896-0.111
		c0.882-0.011,2.28,0.202,2.232-0.752c-0.045-0.891-1.428-0.689-2.335-0.697c-2.088-0.016-4.179,0.037-6.265-0.021
		c-3.593-0.1-6.016-1.629-6.43-3.974c-0.502-2.845,0.962-4.661,4.587-5.688c4.567,0.518,9.161,0.098,13.738,0.241
		c1.366,0.043,3.042-0.398,2.993,1.507c-0.045,1.758-1.59,1.348-2.846,1.367c-2.347,0.036-4.694,0.01-7.042,0.017
		c2.693,0.01,5.386-0.005,8.078,0.019c0.575,0.005,1.313-0.13,1.424,0.583c-4.015,0.027-8.033,0.03-12.048,0.104
		c-1.068,0.021-3.031-0.346-1.677,1.438c2.487,0.664,5.051,0.105,7.57,0.277c1.124,0.078,2.277-0.125,3.373,0.215
		c3.194,0.864,4.028,2.907,3.764,5.124c-0.245,2.067-1.657,3.72-4.74,4c-4.241-0.343-8.496-0.101-12.743-0.146
		C236.723,111.399,236.657,111.369,237.609,107.942z"/>
	<path fill-rule="evenodd" fill="#C4A63D" d="M218.54,111.298c-3.001-4.504-6.005-9.007-9-13.513
		c-0.264-0.396-0.779-0.807,0.073-1.199c1.93-0.886,6.917,0.284,7.968,1.881c1.591,2.418,3.19,4.833,4.977,7.537
		c1.721-2.794,3.21-5.256,4.751-7.697c0.934-1.481,6.103-2.583,7.874-1.703c0.97,0.482,0.18,0.968-0.071,1.419
		c-2.423,4.361-5.153,8.607-8.26,12.706C224.21,112.025,221.333,111.3,218.54,111.298z"/>
	<path fill-rule="evenodd" fill="#C2A644" d="M264.352,111.897c-2.263,0.027-4.204-0.547-4.154-2.438
		c0.051-1.937,2.163-2.33,4.324-2.293c2.109,0.037,4.211,0.239,4.074,2.396C268.469,111.591,266.408,111.801,264.352,111.897z"/>
	<path fill-rule="evenodd" fill="#D8BD59" d="M257.639,100.433c-3.645-0.931-7.44-0.001-11.136-0.832
		c2.903,0,5.807,0.008,8.709-0.004c1.127-0.005,2.438,0.173,2.446-1.205c0.008-1.374-1.289-1.217-2.425-1.219
		c-3.664-0.008-7.327,0.016-10.99-0.013c-1.004-0.008-2.122,0.271-2.948-0.461c5.191-0.047,10.383-0.14,15.573-0.116
		C258.902,96.592,259.27,98.552,257.639,100.433z"/>
	<path fill-rule="evenodd" fill="#CFBC72" d="M237.609,107.942c-0.175,3.279-0.172,3.196,4.005,3.289
		c4.089,0.092,8.216-0.49,12.266,0.359c-5.272,0.493-10.565,0.147-15.847,0.187C236.37,111.791,236.152,109.644,237.609,107.942z"/>
	<path fill-rule="evenodd" fill="#B19E78" d="M254.857,102.467c-3.586,0.004-7.172,0.009-10.758,0.007
		c-0.082,0-0.227-0.065-0.231-0.108c-0.013-0.129,0.027-0.261,0.045-0.391C247.55,102.286,251.281,101.371,254.857,102.467z"/>
	<path fill-rule="evenodd" fill="#D0B66E" d="M218.54,111.298c2.759-0.293,5.601,0.136,8.313-0.568
		c-0.088,0.48-0.257,1.065-0.975,1.027C223.432,111.627,220.882,112.385,218.54,111.298z"/>
	<path fill-rule="evenodd" fill="#0D4DA0" d="M324.49,64.836c5.855-2.796,13.904,1.278,14.939,6.098
		c0.629,2.926,0.634,5.699-0.602,8.53c-2.44,5.59-11.508,6.441-16.313,3.68c-2.31-1.328-3.396-3.221-3.813-5.326
		c-0.698-3.525-0.873-7.022,1.841-10.195C321.91,66.735,322.947,65.576,324.49,64.836z"/>
	<path fill-rule="evenodd" fill="#345562" d="M324.49,64.836c-0.968,1.218-1.997,2.385-3.946,2.787
		C321.197,66.141,322.488,65.192,324.49,64.836z"/>
	<path fill-rule="evenodd" fill="#154C90" d="M211.536,68.415c0.458,0.983,0.919,1.965,1.371,2.949
		c1.443,3.143,1.439,3.059-2.975,3.123c-2.285,0.032-3.113-0.375-2.147-2.151c0.683-1.256,1.157-2.579,1.724-3.873
		C210.175,68.213,210.846,68.081,211.536,68.415z"/>
	<path fill-rule="evenodd" fill="#5C5D24" d="M211.536,68.415c-0.669,0.198-1.343,0.281-2.029,0.051
		c0.044-0.628,0.073-1.489,0.969-1.505C211.317,66.946,211.548,67.758,211.536,68.415z"/>
	<path fill-rule="evenodd" fill="#114C9B" d="M254.585,64.713c3.446,1.389,4.339,3.262,2.706,5.823
		c-1.518,2.381-4.171,3.827-7.153,4.979c-2.075,0.564-2.714-0.45-2.788-1.68c-0.146-2.474-0.114-4.954-0.017-7.43
		c0.055-1.404,1.024-2.221,2.994-2.123C251.759,64.355,253.256,64.04,254.585,64.713z"/>
	<path fill-rule="evenodd" fill="#766D1C" d="M254.585,64.713c-6.841,0.115-6.841,0.115-6.854,5.509
		c-0.002,1.118-0.018,2.235,0.005,3.353c0.023,1.2,0.666,1.979,2.402,1.941c-0.539,0.713-1.399,1.091-2.37,0.798
		c-0.958-0.288-0.717-1.111-0.658-1.718c0.33-3.415-0.805-6.885,0.665-10.254c2.232-0.473,4.463-0.498,6.692,0.016
		C254.528,64.473,254.567,64.59,254.585,64.713z"/>
	<path fill-rule="evenodd" fill="#CFC46E" d="M254.468,64.357c-2.232-0.005-4.464-0.011-6.693-0.016
		C250.01,63.418,252.241,63.39,254.468,64.357z"/>
	<path fill-rule="evenodd" fill="#C30C11" d="M211.618,19.257c0.013,3.515-1.766,5.837-5.123,6.774
		c-1.599,0.445-2.509,0.427-2.45-1.241c0.125-3.526,0.105-7.058,0.002-10.585c-0.046-1.555,0.808-1.744,2.465-1.375
		C209.906,13.584,211.606,15.692,211.618,19.257z"/>
	<path fill-rule="evenodd" fill="#C20C0D" d="M177.027,26.055c0.636,3.015,1.289,6.027,1.895,9.045
		c0.119,0.587,0.638,1.513-0.465,1.651c-1.625,0.203-3.358,0.176-4.99-0.022c-1.123-0.136-0.669-1.057-0.552-1.635
		c0.74-3.652,1.537-7.297,2.315-10.945C177.822,23.677,176.049,25.63,177.027,26.055z"/>
	<path fill-rule="evenodd" fill="#B05A5A" d="M177.027,26.055c-1.104-0.355-0.058-1.904-1.797-1.906
		c-0.119-0.619-0.368-1.264,0.878-1.853C176.872,23.524,177.152,24.748,177.027,26.055z"/>
	<path fill-rule="evenodd" fill="#FDA19B" d="M207.29,16.41c1.801,1.889,1.569,3.798,0.095,5.72
		C206.643,20.23,206.838,18.321,207.29,16.41z"/>
	<path fill-rule="evenodd" fill="#862218" d="M207.29,16.41c0.032,1.906,0.063,3.813,0.095,5.72
		C206.161,20.235,206.31,18.326,207.29,16.41z"/>
</g>
</svg>
