<?xml version="1.0" standalone="no"?>
<!DOCTYPE svg PUBLIC "-//W3C//DTD SVG 20010904//EN"
 "http://www.w3.org/TR/2001/REC-SVG-20010904/DTD/svg10.dtd">
<svg version="1.0" xmlns="http://www.w3.org/2000/svg"
 width="349.000000pt" height="44.000000pt" viewBox="0 0 349.000000 44.000000"
 preserveAspectRatio="xMidYMid meet">

<g transform="translate(0.000000,44.000000) scale(0.100000,-0.100000)"
fill="#000000" stroke="none">
<path d="M0 220 l0 -220 1745 0 1745 0 0 220 0 220 -1745 0 -1745 0 0 -220z
m480 68 l0 -143 143 143 c98 98 149 142 165 142 l22 0 0 -210 0 -210 -35 0
-35 0 0 147 0 148 -148 -148 c-102 -102 -154 -147 -170 -147 -22 0 -22 1 -22
147 l0 148 -148 -148 c-147 -147 -149 -148 -189 -145 l-40 3 200 208 c168 174
205 207 229 207 l28 0 0 -142z m730 102 l0 -40 -128 0 c-135 0 -152 -5 -152
-47 0 -33 29 -43 130 -43 83 0 93 -2 115 -24 47 -47 45 -148 -5 -198 l-28 -28
-141 0 -141 0 0 45 0 44 133 3 132 3 3 29 c2 16 -2 32 -10 37 -7 5 -55 9 -106
9 -90 0 -95 1 -123 29 -26 27 -29 36 -29 96 0 60 3 69 29 96 l29 29 146 0 146
0 0 -40z m110 -108 c0 -188 2 -192 104 -192 43 0 77 5 84 12 8 8 12 60 12 170
l0 158 46 0 46 0 -4 -177 c-2 -113 -8 -186 -15 -199 -21 -37 -62 -46 -187 -42
-166 4 -160 -4 -164 233 l-3 185 40 0 41 0 0 -148z m1423 120 c9 -10 18 -29
19 -43 l3 -24 -385 0 -385 0 -3 28 c-7 60 -25 57 371 57 338 0 365 -1 380 -18z
m697 -9 c45 -58 44 -58 -280 -58 l-295 0 -3 43 -3 42 280 0 280 0 21 -27z
m-1310 -138 l0 -45 -70 0 -70 0 0 38 c0 21 3 42 7 45 3 4 35 7 70 7 l63 0 0
-45z m320 0 l0 -45 -70 0 -70 0 0 45 0 45 70 0 70 0 0 -45z m318 -2 l3 -43
-70 0 -71 0 0 45 0 46 68 -3 67 -3 3 -42z m232 2 l0 -45 -70 0 -70 0 0 38 c0
21 3 42 7 45 3 4 35 7 70 7 l63 0 0 -45z m458 -2 l3 -43 -70 0 -71 0 0 38 c0
21 3 42 7 46 4 4 34 6 68 4 l60 -3 3 -42z m-1538 -38 l0 -55 -125 0 -125 0 0
55 0 55 125 0 125 0 0 -55z m204 -51 c3 -9 6 -42 6 -75 l0 -59 -65 0 -65 0 0
75 0 75 59 0 c44 0 60 -4 65 -16z m312 5 c3 -6 9 -40 12 -75 l5 -64 -73 0 -72
0 7 68 c4 37 9 70 12 75 7 11 101 8 109 -4z m317 4 c3 -5 8 -38 12 -75 l7 -68
-71 0 -71 0 0 75 0 75 59 0 c33 0 62 -3 64 -7z m247 -68 l0 -75 -67 0 -68 0 3
62 c4 89 3 88 72 88 l60 0 0 -75z m448 19 c-8 -90 -15 -94 -235 -94 l-183 0 0
35 0 35 128 0 c141 0 172 10 172 56 0 23 3 24 61 24 l61 0 -4 -56z"/>
</g>
</svg>
