<?xml version="1.0" encoding="utf-8"?>
<!-- Generator: Adobe Illustrator 16.0.2, SVG Export Plug-In . SVG Version: 6.00 Build 0)  -->
<!DOCTYPE svg PUBLIC "-//W3C//DTD SVG 1.1//EN" "http://www.w3.org/Graphics/SVG/1.1/DTD/svg11.dtd">
<svg version="1.1" id="Ebene_1" xmlns="http://www.w3.org/2000/svg" xmlns:xlink="http://www.w3.org/1999/xlink" x="0px" y="0px"
	 width="566.929px" height="98.438px" viewBox="0 0 566.929 98.438" enable-background="new 0 0 566.929 98.438"
	 xml:space="preserve">
<g>
	<path fill="#434244" d="M414.523,14.228l19.465-1.36c1.168,0,2.725,0.97,3.115,1.945l4.279,9.149l-0.584-8.174
		c0-1.751,1.559-3.312,3.113-3.505l12.648-0.779c1.561-0.193,3.316,1.366,3.506,3.117l0.197,3.309
		c0.387-0.582,0.971-0.97,1.361-1.361c3.307-2.726,7.395-4.283,11.678-3.895h0.193l16.934,0.972
		c6.42,0.584,10.508,2.92,12.842,7.204c2.336,3.696,2.918,8.758,2.531,14.984v0.193c0,0.778,0,1.558-0.191,1.947v1.556
		c-0.195,4.672-1.361,5.256-7.203,4.864c-0.582,0-1.168,0-1.559-0.192c-1.551,0-2.918-0.194-4.086-0.194
		c-5.252-0.391-5.838-1.555-5.449-5.642v-0.585v-1.17v-0.39v-0.779c-0.389-0.777-0.975-1.944-2.334-1.944l-5.447-0.392
		c-0.977,0-2.141,0.392-2.918,1.169c-0.777,0.776-1.365,1.751-1.365,3.115h-0.191l-1.367,23.551v1.17
		c0,0.191,0.197,0.582,0.393,0.97c0.391,1.559,1.557,2.728,2.727,2.919l3.896,0.195c0.969,0,1.75-0.391,2.332-0.975
		c0.777-0.582,1.168-1.752,1.168-2.918V61.33c-3.697-0.39-4.277-0.971-3.889-4.866V55.69v-1.17l0.391-4.28v-0.39
		c0.189-2.142,0.189-3.114,1.551-4.281c1.367-0.972,2.146-0.972,3.896-0.777h0.777l12.07,0.777c0.102,0.112,0.242,0.182,0.391,0.194
		c2.334,0,3.5,0.194,4.67,1.555c0.969,1.363,0.969,2.335,0.777,4.28v0.973l-1.947,29.199v1.17c0,1.75,0,2.724-1.168,4.087
		c-1.359,1.36-2.723,1.36-5.258,1.169h-0.189l-6.617-0.585h-0.588c-1.75,0-2.529-0.192-3.699-1.362
		c-0.334-0.479-0.598-1.001-0.777-1.559c-1.324,0.946-2.863,1.55-4.477,1.754c-2.143,0.392-4.279,0.392-7.006,0.194l-4.283-0.391
		c-0.971,0-2.139-0.193-3.113-0.391c-0.975-0.391-2.139-0.585-3.117-0.974c-0.471-0.227-0.926-0.487-1.357-0.777
		c0,0.193-0.197,0.193-0.393,0.193l-19.074,1.17c-0.971,0-2.721-0.974-3.117-1.949l-2.723-5.838l0.193,5.063
		c0.195,1.556-1.361,3.114-2.918,3.309l-14.6,0.974c-1.559,0-3.309-1.557-3.309-3.117l-0.391-5.257
		c-5.258,6.035-12.262,9.73-20.244,9.929h-0.387h-0.195c-2.322,0.008-4.627-0.388-6.814-1.166c-1.75-0.392-3.498-1.17-5.061-1.947
		c-0.586,0.777-1.754,1.363-3.307,1.557c-0.777,0-1.559,0.193-2.924,0.193h-0.971l-6.225,0.194c-5.256,0.193-5.453,0-7.396-4.087
		c0-0.197-0.195-0.392-0.586-0.975l-6.813-13.04l0.586,11.679v1.752c0.191,1.358,0,2.332-0.586,3.307
		c-0.773,1.17-1.752,1.752-3.5,1.945h-2.336l-7.396,0.196c-0.391,0.191,0.582,0-1.17,0.191h-0.969
		c-0.977-0.191-1.758-0.191-2.336-0.585c-1.361-0.776-1.949-1.554-2.141-2.918c-0.195-0.585-0.195-1.364-0.195-2.333
		c0-0.392,0-0.972-0.191-1.557c-0.391-12.067-0.975-24.134-1.359-36.011l-0.783-21.216c0-0.391-0.193-1.169-0.193-1.754
		c-0.582-5.644-0.582-6.227,6.426-6.426l7.396-0.191h2.727c1.359,0.191,2.332,0.583,3.111,1.559c0.777,0.97,0.975,1.751,1.17,2.917
		v2.529l0.389,9.731l4.479-11.095c0.197-0.778,0.393-1.169,0.393-1.558c1.359-3.505,1.557-4.477,6.617-4.672l8.369-0.39
		c3.699,0,5.447,1.167,5.645,4.087c4.277-3.115,9.344-4.866,14.791-4.866h0.391c2.529,0,4.865,0.194,7.004,0.973
		c2.268,0.585,4.432,1.504,6.426,2.727c1.752,0.97,3.309,2.333,4.867,3.699l-0.197-3.502
		C411.404,15.977,412.771,14.228,414.523,14.228L414.523,14.228z M71.567,27.074c-0.391-5.254-0.582-8.174,0.584-10.313
		c1.363-2.336,3.699-2.921,8.565-3.117l11.873-0.391c2.142,0,4.284,0.194,6.426,0.781c2.142,0.388,4.087,1.359,6.032,2.333
		c4.281,2.532,8.368,6.619,11.289,11.875c0.778-1.363,1.557-2.53,2.532-3.502c5.448-6.813,12.845-11.098,21.213-11.098h0.584
		c2.336,0,4.671,0.194,7.008,0.974c2.139,0.584,4.281,1.554,6.423,2.726c0.973,0.582,1.945,1.36,2.917,2.14V18.51
		c-0.194-1.554,1.363-3.309,2.917-3.309l19.66-1.363c0.973,0,2.727,0.973,3.114,1.948l4.091,8.953l-0.391-8.175
		c-0.194-1.557,1.363-3.116,2.92-3.311l12.846-0.778c1.557-0.194,3.308,1.362,3.308,2.919l0.973,15.183l0.973-9.926
		c0-0.584,0.194-1.363,0.194-1.947c0.194-5.645,0.388-6.229,7.396-5.645l7.396,0.778h1.363c0.39,0.197,0.778,0.197,1.167,0.197
		c1.363,0.388,2.335,0.97,2.92,1.942c0.585,0.976,0.777,1.947,0.585,3.117v1.169c-0.194,0.392-0.194,0.779-0.194,1.363l-1.167,9.73
		l6.033-10.704c0.387-0.585,0.584-0.973,0.778-1.362c1.753-3.502,2.142-4.281,7.2-3.894l1.948,0.191
		c0.777-0.582,1.944-0.776,3.503-0.97h1.559l29.392-1.559h1.747c1.17-0.19,2.143,0,3.117,0.778l0.194,0.197l4.864-0.197h0.586
		c2.529-0.193,3.699-0.193,5.06,0.973c1.358,0.974,1.558,1.948,2.142,3.894c0,0.391,0.194,0.778,0.194,1.169
		c0.97,3.308,2.14,6.813,3.308,10.704c0.193,0.585,0.393,1.17,0.393,1.558c1.168-2.724,2.139-5.063,2.916-7.396
		c0.584-1.559,1.361-3.114,1.949-4.673c0.391-0.777,0.391-0.972,0.391-0.972c1.752-4.672,1.752-4.672,7.396-4.281l6.424,0.585
		c4.473,0.392,5.838,1.558,5.641,4.479c0,1.169-0.582,1.948-1.168,3.115c-0.193,0.39-0.584,0.972-0.971,1.753
		c-2.141,4.672-3.119,6.811-4.088,9.148c-3.117,6.812-6.227,13.622-9.146,19.462c-0.393,0.974-0.779,1.754-0.779,2.336
		c-0.195,0.584-0.195,1.361-0.391,2.336l-0.586,22.576v0.975c0,2.138,0,3.308-1.752,4.476c-1.17,0.779-2.139,0.779-4.277,0.779
		l-7.399-0.392c-3.5,0-4.866-0.584-5.451-2.141c-0.778,0.777-2.14,1.168-3.696,1.168h-2.142l-26.861,1.363h-0.391
		c-2.529,0.193-4.086,0.193-5.255-0.193c-0.585,1.36-1.946,1.944-4.088,1.944c-0.778,0-1.558,0-2.918-0.192h-0.973l-6.229-0.586
		c-5.256-0.389-5.256-0.774-6.813-4.861c0-0.194,0-0.391-0.194-0.973l-4.865-13.822l-1.366,11.677v0.973
		c-0.193,0.393-0.193,0.586-0.193,0.78c0,1.361-0.391,2.332-0.973,3.113c-0.973,1.168-2.139,1.558-3.699,1.558
		c-0.388,0-0.973,0-1.751-0.195c-1.754-0.193,2.529,0.195-0.778,0l-7.395-0.584c-0.392,0,0.584,0-0.974-0.193h-0.585l-18.489,1.171
		c-0.973,0-2.533-0.974-3.118-1.949l-2.723-5.84l0.391,4.864c0,1.754-1.558,3.312-3.115,3.505L164.206,88
		c-1.554,0-3.308-1.558-3.501-3.116l-0.194-4.478c-5.062,5.063-11.482,7.979-18.489,8.174h-0.585c-2.336,0-4.672-0.388-7.008-1.166
		c-2.263-0.586-4.429-1.506-6.423-2.728c-4.089-2.334-7.591-5.838-10.508-10.122c-0.779,1.363-1.558,2.533-2.53,3.7
		c-4.866,5.838-11.289,8.758-17.129,9.148h-0.584l-12.846,0.388c-4.478,0.194-7.007-1.167-8.368-2.918
		c-1.361-1.752-1.363-3.894-1.558-5.45c-0.582-10.897-1.169-20.046-1.75-29.972C72.305,42.002,71.917,34.539,71.567,27.074
		L71.567,27.074z M92.395,39.529v1.948l0.582,9.537l0.778,12.65l3.118-0.193h0.387c0.584-0.389,1.364-0.973,1.945-2.141
		c0-0.194,0.194-0.586,0.194-0.777c0.193-0.39,0.388-0.584,0.388-0.971c0.584-1.756,0.781-4.089,0.781-7.01c0-0.192,0,0,0,0V52.38
		l-0.194-0.194v-0.19c0-0.974,0-1.754-0.194-2.529c0-0.781-0.197-1.366-0.391-2.146c-0.582-3.502-1.751-6.031-3.114-7.2
		l-0.194-0.194h-0.194c-0.194-0.194-0.391-0.194-0.584-0.39h-0.194h-3.114V39.529L92.395,39.529z M143.974,44.397L140.469,33.5
		l-3.309,10.896c-0.193,0.392-0.973,0.974-1.363,0.974h-11.289l9.149,6.811c0.388,0.194,0.581,1.168,0.388,1.559l-3.505,10.898
		l9.149-6.616c0.389-0.395,1.364-0.395,1.754,0l8.949,6.616l-3.501-10.898c0-0.394,0.196-1.363,0.584-1.559l9.149-6.811h-11.289
		C144.752,45.37,144.171,44.785,143.974,44.397z M243.631,41.088l-5.647,9.149c-0.58,1.168,0.194,0-0.39,0.585
		c-0.194,0.391-0.194,0.391,0,0.774l8.955,22.777c-0.973-9.731-1.754-19.271-2.53-29.003
		C243.826,44.006,243.826,42.452,243.631,41.088L243.631,41.088z M280.026,34.472h-2.142l-14.599,0.776l0.584,6.035h0.194
		l5.645-0.391c2.726,0,5.45-0.193,8.176-0.391h0.778c1.558,0,2.53,0.193,3.502,1.169c0.974,0.973,1.169,1.751,1.363,3.115v1.362
		l0.585,6.033v1.944c0,1.363-0.585,2.529-1.362,3.311c-0.974,0.777-1.945,0.972-3.114,0.972h-2.337l-11.872,0.778l0.391,4.863v0.777
		c3.893,0,7.98-0.39,12.066-0.582c1.36-0.195,2.918-0.195,4.478-0.195l0.194-0.192c1.363,0,2.141,0,3.113,0.393
		c1.559,0.776,2.14,1.75,2.336,3.501v0.392l0.389-10.514c0-1.359,0-2.139-0.193-2.916c-0.176-1.019-0.504-2.002-0.973-2.922
		L280.026,34.472L280.026,34.472z M396.812,44.397L393.308,33.5l-3.5,10.896c-0.195,0.392-0.777,0.974-1.365,0.974h-11.291
		l9.15,6.811c0.395,0.194,0.779,1.168,0.582,1.559l-3.5,10.898l9.146-6.616c0.393-0.395,1.17-0.395,1.559,0l9.146,6.616l-3.5-10.898
		c-0.197-0.394,0.191-1.363,0.582-1.559l9.15-6.811h-11.291C397.591,45.37,396.812,44.785,396.812,44.397L396.812,44.397z"/>
	<path fill="#F4EB92" d="M485.955,85.27h0.584l6.615,0.584c2.729,0.193,4.088,0.193,5.453-1.169c1.17-1.171,1.17-2.334,1.17-4.086
		v-1.171l1.941-29.195V49.26c0.195-1.948,0.195-2.918-0.777-4.282c-1.164-1.362-2.334-1.557-4.67-1.557h-0.391l-12.07-0.97h-0.777
		c-1.752-0.193-2.529-0.193-3.891,0.775c-1.365,1.169-1.557,2.143-1.557,4.281v0.39l-0.393,4.282v1.169c0,0.585,0,0.585-0.189,0.778
		c-0.197,3.896,0.389,4.479,4.086,4.865v0.974c0,1.166-0.391,2.333-1.17,3.115c-0.588,0.582-1.365,0.776-2.334,0.776l-3.896-0.194
		c-1.164,0-2.334-1.361-2.721-2.92c-0.197-0.388-0.391-0.581-0.391-0.97v-1.168l1.359-23.553c0.195-1.36,0.779-2.333,1.559-3.115
		c0.777-0.781,1.947-1.167,2.918-1.167l5.451,0.389c1.359,0.192,1.941,1.169,2.334,2.142v2.727
		c-0.393,4.088,0.195,5.257,5.455,5.645c1.166,0,2.525,0.194,4.084,0.194c0.391,0.193,0.971,0.193,1.559,0.193
		c5.838,0.392,6.807-0.193,7.199-4.865v-1.557c0.195-0.391,0.195-1.167,0.195-1.945c0.393-6.229-0.195-11.482-2.535-15.185
		c-2.332-4.281-6.42-6.619-12.844-7.204l-16.936-0.97h-0.191c-4.283-0.391-8.369,1.167-11.678,3.893
		c-3.113,2.728-5.258,6.814-5.645,11.68V26.1l-2.723,42.819c-0.391,6.618,3.893,11.289,9.344,13.624
		c1.006,0.416,2.049,0.738,3.111,0.969c0.977,0.195,2.139,0.394,3.117,0.394l4.277,0.391c2.727,0.193,4.867,0.193,7.012-0.193
		c1.551-0.194,2.916-0.775,4.477-1.753c0.191,0.586,0.393,0.975,0.773,1.557C483.423,85.076,484.201,85.27,485.955,85.27z"/>
	<path fill="#CD303C" d="M456.171,26.298c0.391-8.174,6.814-13.239,14.02-12.849c4.67,0.391,12.262,0.778,16.93,1.17
		c10.512,0.777,13.039,7.592,12.266,18.88c-0.195,5.062,0.582,5.641-3.895,5.256c-1.947,0-3.699-0.194-5.646-0.391
		c-3.117-0.194-2.529-0.778-2.332-3.894c0.191-2.142-1.176-6.229-5.453-6.425c-1.947-0.194-3.697-0.391-5.447-0.391
		c-3.699-0.391-7.594,2.918-7.791,7.204c-0.418,7.856-0.938,15.706-1.553,23.549c-0.197,4.088,2.721,8.174,6.229,8.368
		c1.555,0.193,2.334,0.193,3.895,0.392c4.277,0.192,6.617-3.31,6.809-7.005c0.197-1.362,0.197-2.725,0.391-4.087
		c-0.582,0-1.17-0.197-1.559-0.197c-3.309-0.19-2.721-0.19-2.527-3.502c0-1.361,0.195-2.916,0.195-4.281
		c0.189-2.918,0-2.53,2.918-2.333c4.088,0.194,7.982,0.585,11.875,0.778c3.697,0.193,3.115,0,2.916,3.502l-1.752,29.197
		c-0.197,3.504,0.391,3.504-3.309,3.311c-2.139-0.195-4.285-0.195-6.623-0.391c-2.529-0.195-2.139,0-1.941-2.533v-2.918h-1.559
		c-0.391,0.393-0.975,0.974-1.359,1.364c-3.896,3.503-6.621,3.308-11.68,2.917c-1.363,0-2.727-0.193-4.283-0.193
		c-6.227-0.391-12.844-4.672-12.453-11.676C454.421,54.323,455.203,40.892,456.171,26.298L456.171,26.298z"/>
	<path fill="#F4EB92" d="M284.31,49.459l-12.07-28.417v-0.194c-0.193-0.584-0.584-1.169-0.778-1.754
		c-0.581-1.169-0.973-1.947-1.166-2.92c0-3.502,1.557-4.087,6.423-4.281l7.787-0.391h0.58c2.338-0.194,3.504-0.194,4.865,0.974
		c1.366,0.973,1.559,1.947,2.146,3.893c0,0.394,0.189,0.778,0.189,1.172c0.971,3.308,2.141,6.81,3.311,10.703
		c0.197,0.585,0.39,1.169,0.39,1.558c1.169-2.727,2.14-5.062,2.919-7.398c0.586-1.555,1.168-3.114,1.947-4.669
		c0.391-0.777,0.391-0.973,0.391-0.973c1.752-4.674,1.752-4.674,7.396-4.284l6.426,0.584c4.477,0.392,5.838,1.559,5.643,4.481
		c0,1.167-0.586,1.944-1.168,3.114c-0.197,0.39-0.588,0.973-0.975,1.751c-2.141,4.671-3.111,6.813-4.088,9.148
		c-3.111,6.813-6.227,13.624-9.146,19.465c-0.391,0.974-0.777,1.752-0.777,2.334c-0.191,0.584-0.191,1.363-0.393,2.336
		l-0.582,22.578v0.972c0,2.141,0,3.311-1.756,4.477c-1.164,0.779-2.141,0.779-4.279,0.779l-7.395-0.391
		c-4.868,0-5.645-1.167-5.451-4.673v-1.166c0.194-0.392,0.194-0.781,0.194-1.363l0.583-21.604c0-1.361,0-2.141-0.193-2.919
		C285.085,51.6,284.895,50.625,284.31,49.459L284.31,49.459z"/>
	<path fill="#CD303C" d="M287.035,48.287c-3.701-9.535-7.787-19.072-11.875-28.612c-1.554-4.089-3.11-4.477,1.756-4.671
		c2.528,0,5.062-0.194,7.785-0.392c4.084,0,3.502-0.192,4.477,3.894c1.365,4.478,2.922,9.149,4.674,14.793
		c0.582,2.53,1.359,3.699,1.947,3.502c0.773-0.194,1.553-1.557,2.529-3.894c2.141-5.45,3.5-9.149,5.447-14.015
		c1.365-3.312,0.975-3.503,4.477-3.115c2.336,0.191,4.48,0.191,6.617,0.389c4.285,0.393,2.537,1.366,0.779,4.868
		c-4.277,9.533-8.951,19.462-13.232,28.61c-0.977,2.337-1.361,3.503-1.361,6.034l-0.586,22.384c-0.191,3.309,0.391,3.309-2.92,3.114
		c-2.334,0-4.864-0.195-7.396-0.195c-3.114-0.192-2.338-0.776-2.338-4.086l0.584-21.604
		C288.589,52.375,288.394,51.014,287.035,48.287L287.035,48.287z"/>
	<path fill="#F4EB92" d="M244.601,12.281h0.391l29.391-1.558h1.557c1.363-0.19,2.336,0,3.306,0.778
		c1.169,0.779,1.558,1.754,1.558,3.312c0.194,0.584,0.194,0.776,0.194,0.974v0.972l0.777,7.98v1.75
		c0.39,4.478-0.194,5.257-4.477,5.645h-2.53l-14.597,0.778l0.583,6.031h0.196l5.642-0.387c2.726,0,5.453-0.194,8.176-0.391h0.779
		c1.557,0,2.528,0.193,3.505,1.166c0.972,0.973,1.169,1.754,1.362,3.118v1.359l0.585,6.034v1.943c0,1.362-0.585,2.531-1.557,3.311
		c-0.779,0.775-1.752,0.973-2.918,0.973h-2.336c0,0.193,0.194,0,0,0.193l-11.876,0.586l0.392,4.866v0.774
		c3.893,0,7.979-0.388,12.066-0.584c1.363,0,2.92-0.19,4.475-0.19h0.197c1.363-0.195,2.143-0.195,3.114,0.19
		c1.754,0.777,2.335,1.754,2.529,3.698c0.193,0.584,0.193,0.775,0.193,1.166v0.777c0.194,2.728,0.391,2.92,0.391,3.119
		c0.195,2.527,0.392,4.861,0.586,7.004v0.193c0,4.281-2.336,5.063-5.45,5.254h-1.948l-26.859,1.362h-0.389
		c-6.034,0.391-7.201,0.391-7.787-6.616c-0.971-11.677-1.944-23.164-2.919-34.84c-0.583-7.789-1.363-15.571-1.945-23.552
		c-0.585-5.644-0.392-6.617,4.477-7.204C244.019,12.281,244.408,12.281,244.601,12.281L244.601,12.281z"/>
	<path fill="#CD303C" d="M245.186,15.395c-3.114,0.192-3.309,0.192-3.114,3.894c1.75,19.465,3.309,38.928,5.06,58.393
		c0.197,4.087,0.975,3.895,4.672,3.698c8.952-0.583,17.905-0.972,26.859-1.556c1.751,0,4.28,0.584,4.28-1.946
		c-0.192-3.312-0.581-6.618-0.778-9.928c-0.193-0.974-0.193-1.559-0.193-1.947c-0.194-1.17-0.584-1.36-2.335-1.17
		c-6.032,0.392-12.068,0.782-18.099,0.976c-1.753,0-1.946-0.393-1.946-2.336c0-0.389-0.194-0.973-0.194-1.557
		c-0.192-1.751-0.192-3.502-0.391-5.06c0-0.975-0.194-1.559-0.194-1.948c0-0.778,0-0.973,0.779-1.168c0.193,0,0.779,0,1.555-0.191
		l12.848-0.588h2.336c0.973,0,1.363-0.194,1.363-1.363v-1.555l-0.585-5.841v-1.555c0-0.973-0.192-1.363-1.556-1.169h-0.583
		c-4.671,0.193-9.343,0.391-13.82,0.584c-1.36,0.194-2.139,0.194-2.724,0.194c-0.585-0.194-0.779-0.585-0.779-2.336
		c0-0.194-0.194-0.39-0.194-0.584c-0.193-2.333-0.391-4.476-0.581-6.811c0-1.751-0.194-2.333,0.193-2.529
		c0.392-0.194,0.973-0.194,2.143-0.194c5.063-0.391,10.315-0.585,15.571-0.779c0.974-0.192,1.753-0.192,2.336-0.192
		c1.751,0,1.751-0.585,1.363-3.699c-0.194-2.728-0.39-5.45-0.582-7.982c-0.194-0.973-0.194-1.558-0.194-2.14
		c-0.193-0.97-0.391-1.169-1.557-1.169c-0.391,0-0.977,0-1.557,0.197C264.65,14.423,254.92,15.007,245.186,15.395L245.186,15.395z"
		/>
	<path fill="#F4EB92" d="M211.903,10.721l7.202,0.778h1.557c0.391,0.196,0.778,0.196,1.169,0.196
		c1.364,0.389,2.336,0.971,2.92,1.945c0.583,0.974,0.779,1.945,0.583,3.117c0,0.389,0,0.779-0.194,1.167v1.363l-1.166,9.731
		l6.031-10.706c0.388-0.582,0.584-0.971,0.782-1.36c1.751-3.505,2.139-4.284,7.197-3.896l8.178,0.778
		c4.669,0.39,6.035,2.333,4.864,6.425c-0.583,1.948-1.946,4.278-3.892,7.396l-12.262,20.24c-0.781,1.169,0.195,0-0.39,0.584
		c-0.194,0.393-0.194,0.393,0,0.779l11.094,28.613c0.778,1.945,1.167,3.309,1.167,4.478c-0.194,2.727-1.558,3.895-4.476,3.895
		c-0.777,0-1.557,0-2.92-0.193h-0.973l-6.229-0.584c-5.256-0.391-5.256-0.779-6.813-4.867c0-0.192,0-0.39-0.194-0.973l-5.06-13.817
		l-1.169,11.674v0.975c-0.194,0.586-0.194,0.776-0.194,0.776c0,1.364-0.391,2.336-0.976,3.116c-0.973,1.167-2.139,1.557-3.699,1.557
		c-0.39,0-0.973,0-1.75-0.195c-1.751-0.193,2.529,0.393-0.778,0l-7.399-0.584c-0.391,0,0.582,0-0.972-0.19h-0.973
		c-0.974-0.193-1.754-0.392-2.337-0.974c-1.166-0.778-1.75-1.557-1.75-2.917c-0.198-0.778,0-1.363,0-2.337
		c0.193-0.584,0.193-0.971,0.193-1.558c1.363-12.065,2.53-23.938,3.894-36.009l2.139-20.825c0-0.582,0-1.359,0.193-1.946
		C204.703,10.721,204.896,10.138,211.903,10.721L211.903,10.721z"/>
	<path fill="#CD303C" d="M211.514,14.034c2.531,0.19,5.06,0.388,7.396,0.582c0.973,0.193,1.751,0.193,2.335,0.391
		c0.778,0.194,0.973,0.391,0.973,1.36c-0.194,0.588-0.194,1.557-0.388,2.532c-0.358,4.421-0.813,8.834-1.363,13.236
		c-0.582,5.256-0.388,9.928,3.309,3.308c2.529-4.478,6.423-10.899,9.149-15.568c1.751-3.114,1.363-3.896,4.865-3.505l8.175,0.588
		c3.698,0.391,2.141,3.114-1.558,9.148c-4.671,7.591-7.786,12.844-12.265,20.241c-1.166,1.945-1.557,1.945-0.585,4.087
		c3.699,9.537,7.399,19.073,11.096,28.417c1.168,3.31,1.365,4.088-0.389,4.278c-0.779,0-1.945-0.19-3.502-0.388
		c-2.529-0.194-4.284-0.393-6.426-0.393c-3.503-0.39-3.114-0.584-4.281-3.894c-2.142-6.228-4.477-12.65-6.616-18.879
		c-1.557-4.672-3.308-4.478-3.893,0.585c-0.582,5.253-1.167,11.677-1.752,16.933c-0.193,0.777-0.193,1.361-0.193,1.754
		c-0.194,1.554-0.391,1.945-1.557,1.75h-2.334c-2.335-0.39-4.866-0.584-7.204-0.776c-0.778,0-1.36,0-1.944-0.195
		c-0.973,0-1.363-0.392-1.363-0.974c0-0.58,0.193-1.553,0.391-3.112c1.948-19.075,3.893-37.955,5.841-57.029
		C208.01,14.034,207.038,13.644,211.514,14.034L211.514,14.034z"/>
	<path fill="#F4EB92" d="M156.819,12.867l19.66-1.366c0.972,0,2.727,0.974,3.114,1.948l4.087,8.952l-0.391-8.174
		c-0.193-1.557,1.363-3.113,2.921-3.308l12.845-0.778c1.558-0.193,3.31,1.36,3.31,2.917l3.892,66.372
		c0,1.754-1.362,3.313-3.113,3.506l-19.077,1.167c-0.97,0-2.724-0.974-3.116-1.945l-2.727-5.842l0.392,4.865
		c0,1.755-1.561,3.31-3.115,3.503l-14.403,0.973c-1.557,0-3.308-1.558-3.502-3.113l-3.699-66.375
		C153.708,14.616,155.262,12.867,156.819,12.867L156.819,12.867z"/>
	<path fill="#CD303C" d="M159.542,15.786c4.672-0.197,9.15-0.585,13.822-0.779c3.505-0.194,3.309-0.391,4.672,2.917
		c2.723,5.645,4.477,9.149,7.007,14.987c2.53,5.45,2.53,3.309,2.336-1.558L186.6,17.147c-0.194-3.309-0.389-2.918,2.918-3.111
		l6.422-0.587c4.281-0.195,3.309,0.39,3.505,4.674c1.167,18.489,2.14,37.174,3.31,55.858c0.194,5.063,1.554,5.644-3.7,6.033
		c-3.504,0.193-7.007,0.39-10.314,0.585c-5.258,0.391-4.673,0.391-7.009-4.479c-1.79-3.812-3.542-7.639-5.256-11.482
		c-2.529-5.45-2.336-1.755-1.945,4.864c0.195,4.088,0.391,3.115,0.584,7.203c0.195,4.278,1.167,4.672-3.308,4.864
		c-2.53,0.193-5.253,0.392-7.786,0.584c-3.892,0.193-3.114,0.193-3.308-3.697l-3.502-59.365
		C157.016,16.171,156.431,15.977,159.542,15.786L159.542,15.786z"/>
	<path fill="#F4EB92" d="M137.357,11.305h0.193c2.336,0,4.669,0.395,7.005,0.972c2.142,0.588,4.284,1.559,6.423,2.728
		c10.122,6.229,17.323,18.881,17.714,33.672v0.781c0,9.924-3.309,19.07-8.564,25.688c-5.448,6.62-13.04,10.899-21.411,11.098h-0.389
		c-2.382-0.009-4.748-0.404-7.004-1.17c-2.264-0.587-4.428-1.505-6.422-2.726c-10.316-6.033-17.52-18.879-17.711-33.672v-0.585
		c0-10.12,3.308-19.072,8.562-25.691c5.453-6.813,12.845-11.097,21.219-11.097L137.357,11.305L137.357,11.305z M140.859,42.061
		l-3.502-10.899l-3.311,10.899c-0.194,0.392-0.973,0.974-1.363,0.974h-11.288l9.146,6.81c0.391,0.195,0.584,1.17,0.391,1.555
		L127.429,62.3l9.146-6.617c0.391-0.392,1.363-0.392,1.751,0l8.955,6.617l-3.505-10.901c0-0.387,0.194-1.358,0.585-1.555l9.149-6.81
		h-11.289C141.638,43.034,141.056,42.452,140.859,42.061L140.859,42.061z M411.404,11.89l19.467-1.361
		c1.168,0,2.725,0.971,3.117,1.946l4.281,9.151l-0.588-8.177c0-1.75,1.561-3.309,3.117-3.502l12.652-0.779
		c1.557-0.194,3.309,1.363,3.5,3.115l3.699,66.182c0.195,1.752-1.361,3.308-2.918,3.5l-19.074,1.167
		c-1.17,0.198-2.723-0.969-3.113-1.751l-2.725-6.033l0.195,5.062c0.191,1.557-1.365,3.114-2.918,3.309l-14.604,0.974
		c-1.553,0-3.309-1.559-3.309-3.113l-3.891-66.372C408.296,13.644,409.656,11.89,411.404,11.89L411.404,11.89z"/>
	<path fill="#CD303C" d="M413.939,15.007c4.67-0.391,9.344-0.584,14.014-0.97c3.504-0.197,3.117-0.395,4.674,2.918
		c2.529,5.838,4.277,9.343,7.004,14.983c2.531,5.45,2.336,3.309,2.141-1.555l-0.582-14.211c-0.195-3.306-0.59-2.917,2.721-3.114
		c2.146-0.191,4.479-0.391,6.623-0.391c4.275-0.392,3.109,0.391,3.5,4.479c0.975,18.687,2.139,37.177,3.115,55.863
		c0.393,5.256,1.559,5.641-3.697,6.033c-3.311,0.19-6.814,0.389-10.314,0.581c-5.256,0.392-4.674,0.392-6.813-4.28
		c-1.756-3.893-3.504-7.786-5.453-11.482c-2.531-5.643-2.139-1.946-1.752,4.673c0.189,4.088,0.189,3.309,0.393,7.2
		c0.195,4.478,1.359,4.673-3.309,5.063c-2.531,0-5.061,0.193-7.592,0.391c-3.893,0.193-3.311,0.193-3.5-3.698
		c-1.17-19.854-2.336-39.51-3.314-59.362C411.603,15.201,411.015,15.201,413.939,15.007z"/>
	<path fill="#F4EB92" d="M390.197,11.305c2.369,0.012,4.725,0.339,7.004,0.972c2.264,0.588,4.428,1.507,6.42,2.728
		c10.318,6.229,17.523,18.881,17.715,33.672v0.781c0,9.924-3.309,19.07-8.563,25.688c-5.26,6.62-12.852,10.899-21.217,11.098h-0.391
		h-0.197c-2.32,0.008-4.625-0.39-6.811-1.17c-2.264-0.587-4.428-1.505-6.422-2.726c-10.32-6.033-17.52-18.879-17.717-33.672v-0.585
		c0-10.12,3.117-19.072,8.564-25.691c5.256-6.813,12.848-11.097,21.223-11.097L390.197,11.305L390.197,11.305z M393.697,42.061
		l-3.5-10.899l-3.506,10.899c-0.195,0.392-0.777,0.974-1.359,0.974h-11.291l9.146,6.81c0.391,0.195,0.779,1.17,0.588,1.555
		L380.267,62.3l8.953-6.617c0.588-0.392,1.359-0.392,1.752,0l9.152,6.617l-3.506-10.901c-0.191-0.387,0.197-1.358,0.586-1.555
		l9.146-6.81H395.06C394.474,43.034,393.697,42.452,393.697,42.061z"/>
	<path fill="#CD303C" d="M137.55,15.007h-0.193c-0.197,0-0.197,0-0.39,0.194c-7.008,0-13.625,3.699-18.296,9.538
		c-4.672,6.034-7.592,14.205-7.592,23.354v0.585c0.196,13.433,6.619,24.916,15.765,30.365c1.751,0.971,3.696,1.945,5.448,2.53
		c1.948,0.39,3.896,0.776,6.035,0.776h0.389c7.204-0.192,13.623-3.894,18.294-9.729c4.866-5.843,7.786-14.209,7.786-23.162v-0.781
		c-0.194-13.237-6.616-24.913-15.959-30.363c-1.726-0.974-3.554-1.758-5.45-2.336C141.443,15.395,139.499,15.201,137.55,15.007
		L137.55,15.007z M138.717,25.907l4.479,14.205h14.599c1.364,0,1.945,1.755,0.778,2.533l-11.679,8.755l4.48,14.405
		c0.388,1.167-1.169,2.334-2.142,1.555l-11.874-8.758l-11.678,8.758c-0.973,0.779-2.724-0.391-2.333-1.555l4.668-14.405
		l-11.872-8.755c-0.973-0.778-0.391-2.533,0.778-2.533h14.599l4.475-14.205C136.382,24.74,138.329,24.74,138.717,25.907
		L138.717,25.907z M390.197,15.007c-0.195,0-0.195,0-0.391,0.194c-7.205,0-13.627,3.699-18.303,9.538
		c-4.865,6.034-7.785,14.205-7.785,23.354v0.585c0.197,13.433,6.814,24.916,15.959,30.365c1.758,0.971,3.506,1.945,5.455,2.53
		c1.945,0.39,3.895,0.776,6.033,0.776h0.391c7.199-0.192,13.623-3.894,18.297-9.729c4.668-5.843,7.588-14.209,7.588-23.162v-0.781
		c-0.193-13.237-6.617-24.913-15.766-30.363c-1.729-0.973-3.557-1.757-5.453-2.336C394.283,15.395,392.335,15.201,390.197,15.007
		L390.197,15.007z M391.556,25.907l4.479,14.205h14.6c1.164,0,1.752,1.755,0.773,2.533l-11.873,8.755l4.674,14.405
		c0.393,1.167-1.168,2.334-2.334,1.555l-11.674-8.757l-11.879,8.758c-0.971,0.779-2.529-0.391-2.141-1.555l4.479-14.405
		l-11.68-8.755c-1.17-0.778-0.582-2.532,0.779-2.532h14.594l4.479-14.206C389.218,24.74,391.166,24.74,391.556,25.907z"/>
	<path fill="#F4EB92" d="M68.456,24.74c-0.391-5.257-0.585-8.175,0.584-10.316c1.363-2.336,3.699-2.921,8.564-3.117l11.873-0.388
		c2.143,0,4.281,0.193,6.423,0.779c2.142,0.388,4.087,1.36,6.035,2.335c9.537,5.446,16.544,17.905,17.52,34.838v1.362
		c0.582,11.484-2.727,19.855-7.592,25.691c-4.866,5.842-11.289,8.758-17.129,9.148h-0.582l-12.848,0.391
		c-4.478,0.193-7.004-1.169-8.368-2.918c-1.363-1.754-1.363-3.896-1.558-5.449c-0.584-10.897-1.167-20.049-1.753-29.975
		C69.191,39.662,68.802,32.201,68.456,24.74L68.456,24.74z M89.28,37.389v1.751l0.585,9.538l0.778,12.652h3.114v-0.194v0.194
		l0.197-0.194h0.194c0.582-0.392,1.36-0.97,1.945-2.14c0-0.193,0.194-0.584,0.194-0.777c0.194-0.393,0.388-0.585,0.388-0.974
		c0.584-1.752,0.779-4.087,0.779-7.005v-0.193c0,0-0.195,0-0.195-0.194v-0.193c0-0.973,0-1.753-0.194-2.336
		c0-0.971-0.193-1.555-0.391-2.333c-0.582-3.503-1.751-6.035-3.114-7.202h-0.194v-0.193h-0.194
		c-0.194-0.194-0.388-0.194-0.585-0.391h-0.194h-0.39L89.28,37.389L89.28,37.389z"/>
	<path fill="#CD303C" d="M72.542,16.367c-0.778,1.172-0.584,3.698-0.391,8.174c0.584,8.371,0.973,15.571,1.363,22.386
		c0.584,9.929,1.169,19.071,1.751,29.974c0,0.974,0.194,2.531,0.779,3.311c0.779,0.972,2.142,1.557,5.253,1.363l12.849-0.393h0.391
		c4.865-0.192,10.315-2.725,14.403-7.789c4.28-5.059,7.201-12.65,6.81-22.963c0-0.391-0.193-0.78-0.193-1.364
		c-0.778-15.569-7.201-26.856-15.572-31.724c-1.558-0.778-3.309-1.557-5.06-1.948c-1.75-0.391-3.505-0.584-5.256-0.584
		l-12.067,0.392C74.487,15.395,72.93,15.589,72.542,16.367L72.542,16.367z M85.388,37.002c0-0.779,0-1.363,0.194-1.754
		c0.187-0.771,0.788-1.369,1.558-1.555c0.39-0.193,0.972-0.193,1.556-0.193l3.112-0.194c0.585,0,1.169,0,1.557,0.194h0.388
		l0.197,0.193h0.194c0.391,0.193,0.972,0.392,1.36,0.778l0.194,0.191c0.193,0,0.193,0.196,0.39,0.196
		c1.946,1.751,3.502,4.863,4.478,9.341c0.193,0.777,0.193,1.558,0.391,2.531c0.194,0.971,0.194,1.946,0.194,2.728v0.582
		c0,0,0-0.193,0,0c0.194,3.309-0.194,6.229-0.779,8.367c-0.194,0.393-0.194,0.778-0.391,1.17L99.4,60.744
		c-0.973,1.948-2.142,3.116-3.505,3.896c-0.193,0-0.582,0.19-0.779,0.19c-0.39,0.195-0.582,0.195-0.972,0.195H93.95l-3.505,0.192
		c-0.778,0.194-1.363,0-1.945-0.192c-0.582-0.39-0.973-0.778-1.169-1.362c-0.194-0.391-0.388-0.972-0.388-1.361
		c-0.194-0.392-0.194-0.583-0.194-0.777L85.97,48.873l-0.585-9.345L85.388,37.002L85.388,37.002z"/>
	<path fill="#F4EB92" d="M334.718,13.253l7.396-0.194h2.727c1.361,0.194,2.336,0.584,3.117,1.558c0.779,0.97,0.971,1.752,1.17,2.92
		v2.529l0.391,9.731l4.473-11.098c0.197-0.778,0.197-1.167,0.391-1.558c1.365-3.502,1.559-4.478,6.623-4.672l8.365-0.194
		c4.674-0.193,6.033,1.758,5.643,5.845c-0.391,1.944-1.359,4.475-2.725,7.786l-9.344,21.602c-0.582,1.169,0-0.194-0.191,0.584
		c-0.197,0.391-0.197,0.391,0,0.778l14.986,27.055c1.17,1.947,1.75,3.117,1.941,4.281c0.197,2.918-0.969,4.087-3.889,4.478
		c-0.779,0.193-1.559,0.193-2.92,0.193h-0.977l-6.225,0.193c-5.256,0.193-5.447,0-7.395-4.088c0-0.192-0.197-0.389-0.584-0.971
		l-6.813-13.04l0.582,11.677v1.75c0.197,1.365,0,2.336-0.582,3.31c-0.779,1.169-1.752,1.754-3.506,1.947h-2.33l-7.4,0.391
		c-0.391,0,0.588-0.193-1.164,0h-0.977c-0.969-0.193-1.75-0.193-2.334-0.584c-1.361-0.778-1.941-1.557-2.141-2.917
		c-0.191-0.585-0.191-1.364-0.191-2.336c-0.197-0.392-0.197-0.975-0.197-1.559c-0.389-12.065-0.969-24.134-1.357-36.006
		l-0.779-21.216c0-0.391-0.191-1.169-0.191-1.754C327.714,14.034,327.714,13.448,334.718,13.253L334.718,13.253z"/>
	<path fill="#CD303C" d="M334.916,16.564c2.531-0.196,5.061-0.196,7.396-0.394h2.338c0.969,0.194,1.162,0.587,1.162,1.56v2.53
		c0.195,4.671,0.391,9.538,0.588,14.399c0.189,3.699,2.529,5.645,4.67-0.19l5.842-14.6c1.361-3.309,0.779-4.086,4.279-4.283
		c2.727,0,5.445,0,8.369-0.192c3.699,0,2.332,2.917-0.391,9.146c-3.506,8.177-5.844,13.824-9.152,21.606
		c-0.971,2.14-1.17,2.14,0,4.282c4.865,8.951,9.932,17.906,14.988,26.859c1.752,3.113,1.947,3.893,0.195,4.28h-3.504
		c-2.336,0.195-4.283,0.195-6.229,0.392c-3.697,0-3.307-0.194-4.863-3.312c-3.117-6.032-6.232-12.067-9.346-18.1
		c-1.363-2.727-3.895-2.92-3.697,1.945c0.191,5.448,0.393,10.706,0.582,16.153c0,0.777,0.195,1.363,0.195,1.948
		c0,1.362-0.195,1.752-1.365,1.752c-0.391,0.194-1.17,0.194-2.139,0.194c-2.529,0-4.867,0.194-7.395,0.194h-1.949
		c-0.969,0-1.361-0.194-1.361-0.778c-0.193-0.584-0.193-1.559-0.193-3.312c-0.779-19.071-1.555-38.148-2.34-57.221
		C331.412,16.955,330.443,16.564,334.916,16.564L334.916,16.564z"/>
</g>
</svg>
