<?xml version="1.0" encoding="utf-8"?>
<!-- Generator: Adobe Illustrator 16.0.2, SVG Export Plug-In . SVG Version: 6.00 Build 0)  -->
<!DOCTYPE svg PUBLIC "-//W3C//DTD SVG 1.1//EN" "http://www.w3.org/Graphics/SVG/1.1/DTD/svg11.dtd">
<svg version="1.1" id="Ebene_1" xmlns="http://www.w3.org/2000/svg" xmlns:xlink="http://www.w3.org/1999/xlink" x="0px" y="0px"
	 width="566.929px" height="98.438px" viewBox="0 0 566.929 98.438" enable-background="new 0 0 566.929 98.438"
	 xml:space="preserve">
<g>
	<path fill="#04041D" d="M455.017,43.458c-0.54,1.062-14.552-16.504-39.341,2.239c0,0-0.809-6.012-7.682-8.017l2.427-5.54h10.914
		l8.217-18.979c0,0-26.541-0.708-26.944,0c-0.348,0.605-0.988,2.505-1.165,3.039c-4.657-3.587-12.676-4.373-20.234-1.499
		c-9.626,3.664-14.835,11.86-11.628,18.31c0.911,1.834,2.42,3.317,4.314,4.435h-10.358l7.409-17.211l-1.212-0.354l5.793-6.484
		h-21.824c0,0-2.83,0.353-5.254,1.178l0.537-1.061H333.22l-1.884,4.243l-2.695-4.126l-47.557-0.235l-10.915,23.929h-3.906
		l9.836-23.694h-75.835l-6.936,12.898h6.046l-4.853,11.269h-29.168L144.2,86.72h21.287l7.95-17.094h13.606l-7.141,17.094h22.096
		c0,0,6.198-13.439,6.062-13.086c-0.133,0.354,3.908,13.441,19.132,13.086h36.242l7.409-17.094h2.56l-7.006,17.101h22.208
		l15.381-31.955h3.907c0,0-12.428,30.955-13.041,31.933c0.546-0.558,22.203,0.031,22.203,0.031l14.145-31.964h5.12l-13.337,31.964
		h59.412l2.023-4.496l0.538,4.496h21.961v-1.192c0,0,15.762,5.421,29.369-3.066c0,0,15.227-10.256,9.835-19.452
		C446.125,63.025,455.555,42.398,455.017,43.458z M211.104,37.696h-0.607c0,0,4.864-11.041,4.967-11.174c0.102-0.133,0.71,0,0.71,0
		L211.104,37.696z M220.59,44.06l2.173-5.127h9.246C232.008,38.934,223.824,41.585,220.59,44.06z M280.713,52.238h-2.476l5.81-13.26
		h1.466c0,0,0.654-1.547,0.705-1.68c0.052-0.133,0.607,1.724,0.607,1.724L280.713,52.238z M299.253,28.235l-0.655-1.68l1.97-1.68
		L299.253,28.235z M321.938,37.291l1.668-3.177l2.173,3.177C325.779,37.291,322.14,37.342,321.938,37.291z M338.359,37.313
		l1.212-2.049c0,0,1.921,1.889,3.538,2.049H338.359z M408.064,63.967c1.346-0.944,3.839-3.948,3.839-3.948h0.2
		c2.088,4.186,9.23,9.726,9.23,9.726C412.171,69.392,408.064,63.967,408.064,63.967z"/>
	<path fill="#06072D" d="M144.815,51.917c0,0.708-11.631,33.154-27.288,46.329c0,0,48.305-7.427,62.249-60.298l4.447-11.317h30.718
		l15.561-21.043h-41.43c0,0-8.082,11.789-32.468,19.804l-3.975,9.019l-4.312-0.059c0,0-4.648,7.486-30.246,17.566L144.815,51.917
		L144.815,51.917z"/>
	
		<linearGradient id="SVGID_1_" gradientUnits="userSpaceOnUse" x1="118.0269" y1="-27.7898" x2="186.3931" y2="90.6239" gradientTransform="matrix(1 0 0 -1 8.3398 74.478)">
		<stop  offset="0.0052" style="stop-color:#28419A"/>
		<stop  offset="0.1704" style="stop-color:#263D95"/>
		<stop  offset="0.3693" style="stop-color:#203386"/>
		<stop  offset="0.5848" style="stop-color:#17216E"/>
		<stop  offset="0.7958" style="stop-color:#0B0B4F"/>
	</linearGradient>
	<path fill="url(#SVGID_1_)" d="M141.176,48.735c0,0.708-11.631,33.155-27.288,46.33c0,0,48.305-7.428,62.25-60.299l4.446-11.317
		h30.718l15.561-21.042h-41.43c0,0-8.082,11.789-32.468,19.805l-3.974,9.018l-4.312-0.06c0,0-4.648,7.486-30.247,17.565H141.176
		L141.176,48.735z"/>
	<path fill="#0B0B4F" d="M450.984,39.929c-0.541,1.061-14.552-16.505-39.343,2.24c0,0-0.807-6.013-7.68-8.017l2.426-5.541H417.3
		l8.219-18.979c0,0-26.541-0.708-26.947,0c-0.345,0.605-0.985,2.504-1.162,3.038c-4.658-3.587-12.678-4.374-20.234-1.498
		c-9.627,3.663-14.835,11.86-11.63,18.31c0.913,1.834,2.422,3.317,4.315,4.433h-10.359l7.411-17.209l-1.212-0.354l5.793-6.483
		h-21.824c0,0-2.83,0.353-5.256,1.178l0.537-1.061h-15.764l-1.884,4.244l-2.695-4.126L277.05,9.869l-10.913,23.93h-3.906
		l9.835-23.695H196.23l-6.937,12.899h6.046l-4.852,11.268h-29.169l-21.153,48.922h21.288l7.949-17.095h13.608l-7.142,17.095h22.097
		c0,0,6.196-13.438,6.063-13.086c-0.135,0.354,3.906,13.44,19.131,13.086h36.242l7.411-17.095h2.56l-7.006,17.101h22.208
		l15.382-31.953h3.905c0,0-12.428,30.954-13.043,31.932c0.55-0.559,22.205,0.029,22.205,0.029l14.145-31.961h5.122l-13.34,31.961
		h59.414l2.021-4.494l0.539,4.494h21.96v-1.191c0,0,15.763,5.421,29.37-3.066c0,0,15.227-10.255,9.835-19.45
		C442.091,59.497,451.521,38.868,450.984,39.929z M207.072,34.168h-0.608c0,0,4.867-11.042,4.968-11.177c0.101-0.132,0.71,0,0.71,0
		L207.072,34.168z M216.556,40.532l2.173-5.129h9.246C227.975,35.405,219.79,38.057,216.556,40.532z M276.678,48.711h-2.476
		l5.812-13.262h1.464c0,0,0.657-1.546,0.708-1.68c0.05-0.132,0.606,1.724,0.606,1.724L276.678,48.711z M295.22,24.707l-0.655-1.681
		l1.97-1.68L295.22,24.707z M317.907,33.762l1.665-3.175l2.174,3.175C321.746,33.762,318.107,33.813,317.907,33.762z
		 M334.325,33.785l1.213-2.048c0,0,1.919,1.887,3.537,2.048H334.325z M404.031,60.44c1.346-0.944,3.837-3.948,3.837-3.948h0.204
		c2.086,4.185,9.229,9.726,9.229,9.726C408.138,65.864,404.031,60.44,404.031,60.44z"/>
	<g>
		<g>
			
				<linearGradient id="SVGID_2_" gradientUnits="userSpaceOnUse" x1="198.4121" y1="61.6311" x2="198.4121" y2="43.1897" gradientTransform="matrix(1 0 0 -1 8.3398 74.478)">
				<stop  offset="0.0105" style="stop-color:#FD1A16"/>
				<stop  offset="0.9895" style="stop-color:#FEA621"/>
			</linearGradient>
			<polygon fill="url(#SVGID_2_)" points="196.137,17.758 198.413,12.848 217.366,12.848 215.166,17.758 209.479,17.758 
				203.568,31.289 196.516,31.289 202.429,17.824 			"/>
			
				<linearGradient id="SVGID_3_" gradientUnits="userSpaceOnUse" x1="220.5137" y1="61.6301" x2="220.5137" y2="43.1897" gradientTransform="matrix(1 0 0 -1 8.3398 74.478)">
				<stop  offset="0.0105" style="stop-color:#FD1A16"/>
				<stop  offset="0.9895" style="stop-color:#FEA621"/>
			</linearGradient>
			<path fill="url(#SVGID_3_)" d="M213.346,31.289l7.884-18.44h6.824l-2.501,6.699h8.568c0,0,2.88-6.699,3.108-6.699
				c0.227-0.001,7.353,0,7.125,0c-0.228,0-7.96,18.44-7.96,18.44h-7.126l2.88-6.833h-8.871l-3.031,6.833H213.346z"/>
			
				<linearGradient id="SVGID_4_" gradientUnits="userSpaceOnUse" x1="245.1895" y1="61.6311" x2="245.1895" y2="43.1897" gradientTransform="matrix(1 0 0 -1 8.3398 74.478)">
				<stop  offset="0.0105" style="stop-color:#FD1A16"/>
				<stop  offset="0.9895" style="stop-color:#FEA621"/>
			</linearGradient>
			<polygon fill="url(#SVGID_4_)" points="247.995,12.848 266.948,12.848 264.521,17.756 252.999,17.756 252.165,19.614 
				263.763,19.614 261.641,24.39 250.041,24.39 249.207,26.446 260.807,26.446 258.836,31.289 240.11,31.289 			"/>
			
				<linearGradient id="SVGID_5_" gradientUnits="userSpaceOnUse" x1="278.1299" y1="61.6311" x2="278.1299" y2="43.1897" gradientTransform="matrix(1 0 0 -1 8.3398 74.478)">
				<stop  offset="0.0105" style="stop-color:#FD1A16"/>
				<stop  offset="0.9895" style="stop-color:#FEA621"/>
			</linearGradient>
			<polygon fill="url(#SVGID_5_)" points="279.913,12.848 286.887,12.848 283.854,20.277 284.684,20.277 294.24,12.848 
				300.987,12.848 290.07,21.338 293.785,31.289 286.659,31.289 283.02,22.069 279.001,31.289 271.953,31.289 			"/>
			
				<linearGradient id="SVGID_6_" gradientUnits="userSpaceOnUse" x1="296.2104" y1="61.6311" x2="296.2104" y2="43.1897" gradientTransform="matrix(1 0 0 -1 8.3398 74.478)">
				<stop  offset="0.0105" style="stop-color:#FD1A16"/>
				<stop  offset="0.9895" style="stop-color:#FEA621"/>
			</linearGradient>
			<polygon fill="url(#SVGID_6_)" points="305.006,12.848 312.055,12.848 304.323,31.289 297.048,31.289 			"/>
			
				<linearGradient id="SVGID_7_" gradientUnits="userSpaceOnUse" x1="315.2407" y1="61.6614" x2="315.2407" y2="43.1897" gradientTransform="matrix(1 0 0 -1 8.3398 74.478)">
				<stop  offset="0.0105" style="stop-color:#FD1A16"/>
				<stop  offset="0.9895" style="stop-color:#FEA621"/>
			</linearGradient>
			<path fill="url(#SVGID_7_)" d="M307.963,31.289l8.112-18.44h6.22l5.986,9.221c0,0,3.868-9.286,3.941-9.221
				c0.076,0.065,7.09-0.098,6.976,0c-0.113,0.099-7.884,18.44-7.884,18.44h-5.534l-6.521-9.818l-4.319,9.818H307.963z"/>
			
				<linearGradient id="SVGID_8_" gradientUnits="userSpaceOnUse" x1="341.811" y1="61.762" x2="341.811" y2="43.1106" gradientTransform="matrix(1 0 0 -1 8.3398 74.478)">
				<stop  offset="0.0105" style="stop-color:#FD1A16"/>
				<stop  offset="0.9895" style="stop-color:#FEA621"/>
			</linearGradient>
			<path fill="url(#SVGID_8_)" d="M363.519,12.816l-4.795,4.684h-6.904c0,0-4.797-0.515-7.439,4.284c0,0-2.594,4.969,6.658,4.412
				l0.978-1.928h-3.622c0,0,4.894-5.055,4.845-4.926c-0.05,0.128,8.029,0,8.029,0l-4.994,11.947c-3.932,0-8.055,0.327-11.93-0.346
				c-1.45-0.251-2.856-0.741-4.068-1.485c-1.557-0.956-2.892-2.308-3.33-3.952c-0.854-3.21,1.456-6.639,3.967-8.806
				c1.239-1.072,2.723-1.939,4.249-2.669c0,0,3.476-1.744,11.748-1.214C356.91,12.816,363.961,12.843,363.519,12.816z"/>
			
				<linearGradient id="SVGID_9_" gradientUnits="userSpaceOnUse" x1="374.3423" y1="62.3811" x2="374.3423" y2="42.8367" gradientTransform="matrix(1 0 0 -1 8.3398 74.478)">
				<stop  offset="0.0105" style="stop-color:#FD1A16"/>
				<stop  offset="0.9895" style="stop-color:#FEA621"/>
			</linearGradient>
			<path fill="url(#SVGID_9_)" d="M395.427,15.446c-2.674-4.067-10.551-4.488-17.592-0.939c-7.036,3.547-10.575,9.72-7.896,13.786
				c2.676,4.067,10.554,4.49,17.595,0.941C394.571,25.685,398.105,19.512,395.427,15.446z M384.95,24.724
				c-2.549,1.617-5.662,1.662-6.951,0.102c-1.293-1.558-0.272-4.131,2.275-5.747c2.55-1.616,5.662-1.662,6.952-0.103
				C388.517,20.534,387.498,23.109,384.95,24.724z"/>
			
				<linearGradient id="SVGID_10_" gradientUnits="userSpaceOnUse" x1="398.5229" y1="61.7639" x2="398.5229" y2="43.4041" gradientTransform="matrix(1 0 0 -1 8.3398 74.478)">
				<stop  offset="0.0105" style="stop-color:#FD1A16"/>
				<stop  offset="0.9895" style="stop-color:#FEA621"/>
			</linearGradient>
			<polygon fill="url(#SVGID_10_)" points="401.692,12.715 420.109,12.715 418.03,17.4 406.792,17.4 406.083,19.258 417.039,19.258 
				414.866,24.094 403.674,24.094 400.889,31.074 393.618,31.074 			"/>
		</g>
		<g>
			<path fill="#FFFFFF" d="M215.542,17.886l2.199-4.909c0.049-0.109,0.034-0.232-0.041-0.328c-0.077-0.097-0.201-0.155-0.334-0.155
				h-18.953c-0.165,0-0.313,0.087-0.375,0.221l-2.274,4.908c-0.05,0.108-0.038,0.232,0.038,0.329
				c0.074,0.097,0.199,0.157,0.332,0.159l5.71,0.06l-5.704,12.991c-0.047,0.109-0.032,0.231,0.042,0.327
				c0.077,0.096,0.201,0.153,0.334,0.153h7.051c0.167,0,0.316-0.091,0.377-0.227l5.813-13.304h5.408
				C215.332,18.111,215.482,18.022,215.542,17.886z"/>
			<path fill="#FFFFFF" d="M244.763,12.848c0-0.148,0-0.235-0.409-0.284v-0.07c-0.054,0-0.103,0-0.168,0.053
				c-0.649-0.053-2.029-0.053-4.959-0.053h-2c-0.344,0.001-0.503,0.001-3.387,6.699h-7.73l2.33-6.235
				c0.039-0.109,0.019-0.227-0.058-0.317c-0.077-0.091-0.198-0.146-0.328-0.146h-6.824c-0.169,0-0.319,0.092-0.379,0.23
				l-7.884,18.44c-0.045,0.108-0.028,0.23,0.047,0.326c0.075,0.095,0.199,0.151,0.332,0.151h6.9c0.167,0,0.316-0.09,0.376-0.226
				l2.931-6.607h8.015l-2.679,6.358c-0.045,0.108-0.027,0.229,0.047,0.325c0.077,0.094,0.2,0.151,0.332,0.151h7.126
				c0.169,0,0.321-0.092,0.379-0.232c2.927-6.978,7.398-17.512,7.884-18.325C244.724,13.021,244.763,12.936,244.763,12.848z"/>
			<path fill="#FFFFFF" d="M266.948,12.494h-18.953c-0.169,0-0.32,0.092-0.377,0.23l-7.886,18.44
				c-0.045,0.108-0.028,0.23,0.047,0.326c0.075,0.095,0.199,0.151,0.332,0.151h18.726c0.17,0,0.324-0.093,0.38-0.235l1.972-4.842
				c0.044-0.108,0.025-0.228-0.05-0.323c-0.076-0.093-0.198-0.149-0.331-0.149H249.78l0.547-1.349h11.314
				c0.167,0,0.316-0.09,0.376-0.225l2.123-4.776c0.047-0.109,0.031-0.231-0.043-0.328c-0.075-0.097-0.2-0.154-0.333-0.154h-11.004
				l0.516-1.151h11.248c0.162,0,0.307-0.083,0.372-0.214l2.426-4.907c0.053-0.109,0.041-0.235-0.033-0.334
				C267.211,12.555,267.083,12.494,266.948,12.494z"/>
			<path fill="#FFFFFF" d="M290.537,21.448l10.715-8.334c0.129-0.099,0.172-0.254,0.113-0.392c-0.06-0.137-0.211-0.228-0.38-0.228
				h-6.747c-0.098,0-0.194,0.032-0.269,0.089l-9.441,7.339h-0.103l2.839-6.955c0.045-0.109,0.023-0.229-0.052-0.324
				c-0.074-0.093-0.198-0.149-0.33-0.149h-6.972c-0.169,0-0.319,0.092-0.379,0.229l-7.959,18.44
				c-0.046,0.109-0.029,0.23,0.046,0.327c0.074,0.095,0.198,0.152,0.332,0.152H279c0.167,0,0.317-0.091,0.377-0.228l3.622-8.309
				l3.277,8.299c0.055,0.143,0.21,0.238,0.381,0.238h7.126c0.13,0,0.252-0.054,0.328-0.146c0.076-0.091,0.097-0.21,0.057-0.318
				L290.537,21.448z"/>
			<path fill="#FFFFFF" d="M312.387,12.646c-0.074-0.094-0.198-0.151-0.332-0.151h-7.049c-0.167,0-0.32,0.092-0.377,0.229
				l-7.959,18.44c-0.047,0.109-0.031,0.23,0.046,0.327c0.074,0.095,0.198,0.152,0.332,0.152h7.274c0.171,0,0.324-0.092,0.381-0.232
				l7.733-18.44C312.48,12.861,312.464,12.74,312.387,12.646z"/>
			<path fill="#FFFFFF" d="M339.575,12.71c-0.116-0.248-0.233-0.248-1.354-0.248c-0.771,0-1.883,0.013-2.941,0.026
				c-1.382,0.017-2.703,0.035-2.961,0.016c-0.029-0.007-0.063-0.01-0.096-0.01c-0.376,0-0.385,0-4.022,8.735l-5.553-8.556
				c-0.076-0.111-0.209-0.18-0.353-0.18h-6.22c-0.168,0-0.316,0.09-0.378,0.227l-8.111,18.442c-0.048,0.109-0.029,0.231,0.045,0.327
				s0.201,0.153,0.332,0.153h6.977c0.166,0,0.318-0.09,0.377-0.226l4.02-9.129l6.095,9.18c0.072,0.109,0.206,0.176,0.35,0.176h5.536
				c0.17,0,0.318-0.091,0.38-0.231c2.09-4.938,7.558-17.818,7.856-18.39C339.612,12.927,339.621,12.812,339.575,12.71z"/>
			<path fill="#FFFFFF" d="M363.548,12.462c-0.035-0.002-0.07,0-0.105,0.006c-0.192,0.003-0.736,0.005-1.435,0.005
				c-0.002,0-0.004,0-0.006,0c-1.944,0-5.055-0.021-5.061-0.011c-1.05-0.066-2.074-0.101-3.055-0.101
				c-6.14,0-8.814,1.306-8.914,1.358c-1.782,0.85-3.204,1.742-4.342,2.727c-2.561,2.208-4.975,5.768-4.079,9.137
				c0.413,1.555,1.655,3.032,3.494,4.163c1.201,0.74,2.664,1.273,4.221,1.544c1.722,0.298,3.605,0.431,6.111,0.431
				c0.996,0,1.994-0.02,2.99-0.04c0.974-0.02,1.948-0.04,2.907-0.04c0.171,0,0.322-0.092,0.381-0.232l4.992-11.947
				c0.047-0.11,0.027-0.233-0.051-0.327c-0.077-0.095-0.214-0.152-0.336-0.149c-0.035,0.001-3.612,0.058-5.961,0.058
				c-1.356,0-1.771-0.02-1.9-0.031c-0.05-0.019-0.105-0.029-0.161-0.029c-0.256,0-0.261,0-5.153,5.052
				c-0.104,0.105-0.125,0.252-0.059,0.378c0.067,0.125,0.211,0.205,0.366,0.205h3l-0.627,1.235c-0.391,0.02-0.759,0.029-1.106,0.029
				c-2.498,0-4.121-0.481-4.825-1.431c-0.809-1.098-0.097-2.511-0.092-2.518c2.037-3.699,5.34-4.099,6.664-4.099
				c0.22,0,0.352,0.012,0.41,0.015h6.904c0.113,0,0.224-0.042,0.3-0.117l4.751-4.638c0.103-0.066,0.171-0.166,0.171-0.276
				C363.948,12.635,363.761,12.476,363.548,12.462z"/>
			<path fill="#FFFFFF" d="M395.779,15.27c-1.474-2.241-4.526-3.526-8.375-3.526c-3.158,0-6.628,0.873-9.772,2.456
				c-3.47,1.751-6.224,4.183-7.749,6.848c-1.553,2.713-1.659,5.349-0.292,7.422c1.474,2.242,4.528,3.526,8.377,3.527h0.003
				c3.157,0,6.625-0.872,9.77-2.456C394.958,25.9,398.563,19.498,395.779,15.27z M384.713,24.437
				c-1.194,0.758-2.544,1.176-3.797,1.176c-1.14,0-2.062-0.353-2.592-0.995c-0.544-0.657-0.632-1.555-0.245-2.528
				c0.402-1.018,1.267-1.985,2.432-2.725c1.197-0.758,2.547-1.175,3.8-1.175c1.14,0,2.06,0.352,2.59,0.993
				C388.06,20.582,387.078,22.939,384.713,24.437z"/>
			<path fill="#FFFFFF" d="M420.441,12.515c-0.075-0.096-0.198-0.153-0.332-0.153h-18.417c-0.166,0-0.318,0.091-0.377,0.226
				l-8.075,18.359c-0.046,0.109-0.028,0.231,0.044,0.328c0.076,0.096,0.2,0.153,0.334,0.153h7.273c0.17,0,0.323-0.095,0.381-0.237
				l2.691-6.745h10.904c0.164,0,0.316-0.089,0.375-0.224l2.173-4.835c0.049-0.108,0.033-0.231-0.041-0.328
				c-0.077-0.097-0.201-0.155-0.334-0.155h-10.396l0.442-1.152h10.944c0.168,0,0.316-0.09,0.378-0.226l2.076-4.684
				C420.534,12.735,420.516,12.611,420.441,12.515z"/>
		</g>
		<g>
			
				<linearGradient id="SVGID_11_" gradientUnits="userSpaceOnUse" x1="198.4121" y1="61.6311" x2="198.4121" y2="43.1897" gradientTransform="matrix(1 0 0 -1 8.3398 74.478)">
				<stop  offset="0.0105" style="stop-color:#FD1A16"/>
				<stop  offset="0.9895" style="stop-color:#FEA621"/>
			</linearGradient>
			<polygon fill="url(#SVGID_11_)" points="196.137,17.758 198.413,12.848 217.366,12.848 215.166,17.758 209.479,17.758 
				203.568,31.289 196.516,31.289 202.429,17.824 			"/>
			
				<linearGradient id="SVGID_12_" gradientUnits="userSpaceOnUse" x1="220.5137" y1="61.6301" x2="220.5137" y2="43.1897" gradientTransform="matrix(1 0 0 -1 8.3398 74.478)">
				<stop  offset="0.0105" style="stop-color:#FD1A16"/>
				<stop  offset="0.9895" style="stop-color:#FEA621"/>
			</linearGradient>
			<path fill="url(#SVGID_12_)" d="M213.346,31.289l7.884-18.44h6.824l-2.501,6.699h8.568c0,0,2.88-6.699,3.108-6.699
				c0.227-0.001,7.353,0,7.125,0c-0.228,0-7.96,18.44-7.96,18.44h-7.126l2.88-6.833h-8.871l-3.031,6.833H213.346z"/>
			
				<linearGradient id="SVGID_13_" gradientUnits="userSpaceOnUse" x1="245.1895" y1="61.6311" x2="245.1895" y2="43.1897" gradientTransform="matrix(1 0 0 -1 8.3398 74.478)">
				<stop  offset="0.0105" style="stop-color:#FD1A16"/>
				<stop  offset="0.9895" style="stop-color:#FEA621"/>
			</linearGradient>
			<polygon fill="url(#SVGID_13_)" points="247.995,12.848 266.948,12.848 264.521,17.756 252.999,17.756 252.165,19.614 
				263.763,19.614 261.641,24.39 250.041,24.39 249.207,26.446 260.807,26.446 258.836,31.289 240.11,31.289 			"/>
			
				<linearGradient id="SVGID_14_" gradientUnits="userSpaceOnUse" x1="278.1299" y1="61.6311" x2="278.1299" y2="43.1897" gradientTransform="matrix(1 0 0 -1 8.3398 74.478)">
				<stop  offset="0.0105" style="stop-color:#FD1A16"/>
				<stop  offset="0.9895" style="stop-color:#FEA621"/>
			</linearGradient>
			<polygon fill="url(#SVGID_14_)" points="279.913,12.848 286.887,12.848 283.854,20.277 284.684,20.277 294.24,12.848 
				300.987,12.848 290.07,21.338 293.785,31.289 286.659,31.289 283.02,22.069 279.001,31.289 271.953,31.289 			"/>
			
				<linearGradient id="SVGID_15_" gradientUnits="userSpaceOnUse" x1="296.2104" y1="61.6311" x2="296.2104" y2="43.1897" gradientTransform="matrix(1 0 0 -1 8.3398 74.478)">
				<stop  offset="0.0105" style="stop-color:#FD1A16"/>
				<stop  offset="0.9895" style="stop-color:#FEA621"/>
			</linearGradient>
			<polygon fill="url(#SVGID_15_)" points="305.006,12.848 312.055,12.848 304.323,31.289 297.048,31.289 			"/>
			
				<linearGradient id="SVGID_16_" gradientUnits="userSpaceOnUse" x1="315.2407" y1="61.6614" x2="315.2407" y2="43.1897" gradientTransform="matrix(1 0 0 -1 8.3398 74.478)">
				<stop  offset="0.0105" style="stop-color:#FD1A16"/>
				<stop  offset="0.9895" style="stop-color:#FEA621"/>
			</linearGradient>
			<path fill="url(#SVGID_16_)" d="M307.963,31.289l8.112-18.44h6.22l5.986,9.221c0,0,3.868-9.286,3.941-9.221
				c0.076,0.065,7.09-0.098,6.976,0c-0.113,0.099-7.884,18.44-7.884,18.44h-5.534l-6.521-9.818l-4.319,9.818H307.963z"/>
			
				<linearGradient id="SVGID_17_" gradientUnits="userSpaceOnUse" x1="341.811" y1="61.762" x2="341.811" y2="43.1106" gradientTransform="matrix(1 0 0 -1 8.3398 74.478)">
				<stop  offset="0.0105" style="stop-color:#FD1A16"/>
				<stop  offset="0.9895" style="stop-color:#FEA621"/>
			</linearGradient>
			<path fill="url(#SVGID_17_)" d="M363.519,12.816l-4.795,4.684h-6.904c0,0-4.797-0.515-7.439,4.284c0,0-2.594,4.969,6.658,4.412
				l0.978-1.928h-3.622c0,0,4.894-5.055,4.845-4.926c-0.05,0.128,8.029,0,8.029,0l-4.994,11.947c-3.932,0-8.055,0.327-11.93-0.346
				c-1.45-0.251-2.856-0.741-4.068-1.485c-1.557-0.956-2.892-2.308-3.33-3.952c-0.854-3.21,1.456-6.639,3.967-8.806
				c1.239-1.072,2.723-1.939,4.249-2.669c0,0,3.476-1.744,11.748-1.214C356.91,12.816,363.961,12.843,363.519,12.816z"/>
			
				<linearGradient id="SVGID_18_" gradientUnits="userSpaceOnUse" x1="374.3423" y1="62.3811" x2="374.3423" y2="42.8367" gradientTransform="matrix(1 0 0 -1 8.3398 74.478)">
				<stop  offset="0.0105" style="stop-color:#FD1A16"/>
				<stop  offset="0.9895" style="stop-color:#FEA621"/>
			</linearGradient>
			<path fill="url(#SVGID_18_)" d="M395.427,15.446c-2.674-4.067-10.551-4.488-17.592-0.939c-7.036,3.547-10.575,9.72-7.896,13.786
				c2.676,4.067,10.554,4.49,17.595,0.941C394.571,25.685,398.105,19.512,395.427,15.446z M384.95,24.724
				c-2.549,1.617-5.662,1.662-6.951,0.102c-1.293-1.558-0.272-4.131,2.275-5.747c2.55-1.616,5.662-1.662,6.952-0.103
				C388.517,20.534,387.498,23.109,384.95,24.724z"/>
			
				<linearGradient id="SVGID_19_" gradientUnits="userSpaceOnUse" x1="398.5229" y1="61.7639" x2="398.5229" y2="43.4041" gradientTransform="matrix(1 0 0 -1 8.3398 74.478)">
				<stop  offset="0.0105" style="stop-color:#FD1A16"/>
				<stop  offset="0.9895" style="stop-color:#FEA621"/>
			</linearGradient>
			<polygon fill="url(#SVGID_19_)" points="401.692,12.715 420.109,12.715 418.03,17.4 406.792,17.4 406.083,19.258 417.039,19.258 
				414.866,24.094 403.674,24.094 400.889,31.074 393.618,31.074 			"/>
		</g>
	</g>
	<g>
		<path fill="#FFFFFF" d="M184.437,62.746l4.244-10.168c0.09-0.216,0.055-0.458-0.097-0.646c-0.151-0.19-0.398-0.304-0.662-0.304
			h-15.484l1.482-3.272h15.921c0.343,0,0.649-0.188,0.762-0.47l3.941-9.814c0.086-0.218,0.048-0.457-0.103-0.644
			c-0.152-0.187-0.399-0.299-0.66-0.299h-29.506c-0.336,0-0.638,0.184-0.757,0.458l-18.087,41.82
			c-0.093,0.217-0.061,0.46,0.091,0.651s0.4,0.305,0.666,0.305h13.137c0.336,0,0.638-0.182,0.757-0.457l7.18-16.694h16.416
			C184.016,63.211,184.318,63.025,184.437,62.746z"/>
		<path fill="#FFFFFF" d="M214.456,37.436c-0.151-0.192-0.4-0.308-0.667-0.308h-13.035c-0.331,0-0.631,0.179-0.752,0.45
			l-18.794,41.819c-0.099,0.218-0.066,0.463,0.084,0.657c0.15,0.192,0.4,0.308,0.668,0.308h13.338c0.334,0,0.632-0.179,0.754-0.451
			l18.491-41.819C214.639,37.873,214.605,37.629,214.456,37.436z"/>
		<path fill="#FFFFFF" d="M249.619,54.943c-0.149-0.191-0.397-0.307-0.662-0.309l-15.359-0.088c-0.002,0-0.003,0-0.004,0
			c-0.244,0-0.476,0.098-0.629,0.262l-9.498,10.257c-0.196,0.211-0.235,0.503-0.102,0.75c0.135,0.245,0.419,0.402,0.729,0.402h5.841
			l-1.33,2.675c-1.857,0.053-3.39-0.511-4.572-1.605c-1.485-1.376-2.28-3.604-2.126-5.956c0.133-2.02,1.471-4.625,2.579-6.243
			c2.391-3.499,6.652-5.136,9.807-5.894c1.845-0.443,3.849-0.709,5.957-0.789c1.014-0.04,2.028-0.032,3.042-0.007
			c0.096,0.003,0.323,0.028,0.607,0.058c0.625,0.063,1.477,0.151,2.045,0.151c0.418,0,0.841-0.042,1.111-0.336l9.195-9.992
			c0.195-0.211,0.234-0.501,0.1-0.748c-0.135-0.246-0.418-0.403-0.73-0.403l-16.907,0c-4.506,0.16-8.811,0.926-12.114,2.158
			c-5.376,2.001-10.164,5.364-13.139,9.222c-2.591,3.362-5.395,7.355-5.883,12.22c-0.195,1.933-0.329,4.013,0.007,6.124
			c0.705,4.443,2.324,7.742,4.811,9.803c2.064,1.711,5.596,3.708,8.75,3.708h17.239c0.335,0,0.635-0.182,0.754-0.456l10.568-24.313
			C249.802,55.377,249.769,55.131,249.619,54.943z"/>
		<path fill="#FFFFFF" d="M300.847,37.434c-0.15-0.191-0.399-0.307-0.666-0.307h-12.933c-0.329,0-0.623,0.173-0.747,0.438
			l-6.665,14.151h-10.195l6.133-13.622c0.099-0.22,0.065-0.465-0.084-0.658c-0.15-0.193-0.4-0.31-0.668-0.31h-13.137
			c-0.332,0-0.63,0.179-0.751,0.45l-18.795,41.819c-0.098,0.218-0.066,0.463,0.084,0.657c0.149,0.192,0.4,0.308,0.668,0.308h13.54
			c0.334,0,0.633-0.179,0.755-0.451l7.476-16.873l9.817,0.076l-6.782,16.299c-0.091,0.219-0.054,0.461,0.096,0.648
			c0.152,0.189,0.399,0.301,0.664,0.301h13.338c0.334,0,0.637-0.181,0.754-0.456l18.188-41.819
			C301.034,37.871,300.999,37.626,300.847,37.434z"/>
		<path fill="#FFFFFF" d="M333.527,48.181c0.331,0,0.629-0.179,0.751-0.447l4.346-9.638c0.098-0.22,0.066-0.465-0.082-0.658
			c-0.154-0.194-0.401-0.311-0.67-0.311H304.93c-0.334,0-0.633,0.181-0.755,0.454l-4.243,9.638
			c-0.096,0.215-0.063,0.459,0.088,0.653c0.151,0.192,0.401,0.308,0.666,0.308h8.835l-13.432,31.226
			c-0.094,0.217-0.059,0.459,0.092,0.651c0.149,0.19,0.399,0.304,0.664,0.304h13.236c0.334,0,0.634-0.179,0.754-0.452l13.948-31.729
			H333.527L333.527,48.181z"/>
		<path fill="#FFFFFF" d="M362.983,69.011c-0.151-0.186-0.396-0.298-0.656-0.298h-18.433l2.655-5.64h17.39
			c0.341,0,0.647-0.188,0.762-0.469l4.08-9.961c0.089-0.217,0.051-0.458-0.102-0.646c-0.15-0.188-0.397-0.299-0.659-0.299h-16.479
			l1.572-3.65h17.658c0.338,0,0.638-0.181,0.756-0.458l4.083-9.504c0.092-0.216,0.057-0.46-0.094-0.65
			c-0.151-0.19-0.399-0.306-0.664-0.306h-31.405c-0.336,0-0.639,0.184-0.756,0.458l-18.025,41.822c-0.094,0.216-0.06,0.46,0.09,0.65
			c0.152,0.191,0.401,0.305,0.666,0.305h32.921c0.346,0,0.655-0.191,0.765-0.479l3.986-10.233
			C363.174,69.433,363.134,69.196,362.983,69.011z"/>
		<path fill="#FFFFFF" d="M408.9,46.577c0.409-3.271-0.182-5.794-1.754-7.5c-1.596-1.732-3.624-1.937-3.713-1.943
			c-0.025-0.004-0.055-0.005-0.084-0.005h-22.331c-0.336,0-0.638,0.184-0.756,0.459l-17.987,41.819
			c-0.094,0.217-0.059,0.459,0.094,0.651c0.15,0.19,0.398,0.304,0.664,0.304h13.137c0.333,0,0.633-0.178,0.753-0.449l6.367-14.335
			l1.674,14.15c0.044,0.36,0.392,0.634,0.806,0.634h13.036c0.224,0,0.438-0.081,0.59-0.225c0.154-0.144,0.231-0.337,0.215-0.533
			l-1.485-17.933C407.967,54.642,408.872,46.896,408.9,46.577z M392.08,45.41h2.515c0.089,0.058,0.272,0.232,0.617,0.731
			c0.443,0.642,0.571,1.34,0.393,2.132c-0.46,2.048-1.656,3.931-3.275,5.165c-0.707,0.541-1.463,0.916-2.22,1.107
			c-0.224,0.041-1.289,0.101-2.165,0.139C388.952,52.427,391.369,47.007,392.08,45.41z"/>
		<path fill="#FFFFFF" d="M443.926,38.34l-0.173-0.069c-3.185-1.33-6.483-2.005-9.8-2.005c-2.324,0-4.609,0.34-6.792,1.008
			c-1.621,0.496-3.097,1.072-4.387,1.714c-3.097,1.54-5.311,3.079-6.967,4.845c-0.87,0.925-1.648,1.924-2.251,2.889
			c-1.359,2.173-3.015,5.445-1.694,8.764c1.058,2.662,3.761,5.348,7.256,7.191c2.648,1.311,5.348,3.349,5.027,4.115
			c-0.016,0.022-1.416,2.456-6.003,2.456l0,0c-3.24,0-7.23-1.194-11.861-3.555c-0.202-0.102-0.447-0.126-0.67-0.057
			c-0.223,0.066-0.399,0.216-0.485,0.404c0,0-4.813,10.527-4.851,10.611c-0.086,0.189-0.07,0.458,0.036,0.638
			c0.544,0.943,7.053,2.638,7.119,2.651c2.35,0.531,4.788,0.8,7.246,0.8c3.333,0,6.56-0.487,9.584-1.444
			c4.36-1.38,8.15-3.589,10.955-6.389c0.814-0.814,1.568-1.725,2.242-2.707c2.804-4.089,3.339-7.801,1.54-10.729
			c-1.483-2.421-4.165-3.836-6.758-5.205c-0.651-0.345-1.291-0.681-1.9-1.029c-0.267-0.155-0.593-0.324-0.946-0.509
			c-1.307-0.678-3.283-1.702-3.548-2.764c-0.054-0.218-0.081-0.563,0.316-1.064c0.323-0.41,1.014-0.856,1.675-1.085
			c0.782-0.27,1.664-0.427,2.423-0.436l0.098-0.001c1.172,0,2.525,0.191,4.136,0.584c0.493,0.205,4.491,1.943,6.666,5.012
			c0.164,0.229,0.468,0.358,0.772,0.33c0.311-0.027,0.572-0.209,0.676-0.463c4.776-11.667,4.854-11.849,4.854-11.849
			C447.826,40.091,446.612,39.417,443.926,38.34z"/>
	</g>
	<g>
		
			<linearGradient id="SVGID_20_" gradientUnits="userSpaceOnUse" x1="161.6465" y1="36.6414" x2="161.6465" y2="-5.178" gradientTransform="matrix(1 0 0 -1 8.3398 74.478)">
			<stop  offset="0" style="stop-color:#FF4000"/>
			<stop  offset="0.1217" style="stop-color:#FC6B07"/>
			<stop  offset="0.2628" style="stop-color:#F9960D"/>
			<stop  offset="0.4063" style="stop-color:#F6BA12"/>
			<stop  offset="0.5502" style="stop-color:#F4D617"/>
			<stop  offset="0.6948" style="stop-color:#F3E91A"/>
			<stop  offset="0.8406" style="stop-color:#F2F51B"/>
			<stop  offset="0.9895" style="stop-color:#F2F91C"/>
		</linearGradient>
		<polygon fill="url(#SVGID_20_)" points="164.276,37.837 193.782,37.837 189.84,47.649 173.37,47.649 171.248,52.335 
			187.921,52.335 183.676,62.503 166.7,62.503 159.324,79.656 146.189,79.656 		"/>
		
			<linearGradient id="SVGID_21_" gradientUnits="userSpaceOnUse" x1="189.5342" y1="36.6414" x2="189.5342" y2="-5.178" gradientTransform="matrix(1 0 0 -1 8.3398 74.478)">
			<stop  offset="0" style="stop-color:#FF4000"/>
			<stop  offset="0.1217" style="stop-color:#FC6B07"/>
			<stop  offset="0.2628" style="stop-color:#F9960D"/>
			<stop  offset="0.4063" style="stop-color:#F6BA12"/>
			<stop  offset="0.5502" style="stop-color:#F4D617"/>
			<stop  offset="0.6948" style="stop-color:#F3E91A"/>
			<stop  offset="0.8406" style="stop-color:#F2F51B"/>
			<stop  offset="0.9895" style="stop-color:#F2F91C"/>
		</linearGradient>
		<polygon fill="url(#SVGID_21_)" points="200.753,37.837 213.789,37.837 195.297,79.656 181.959,79.656 		"/>
		
			<linearGradient id="SVGID_22_" gradientUnits="userSpaceOnUse" x1="223.5654" y1="36.6414" x2="223.5654" y2="-5.1799" gradientTransform="matrix(1 0 0 -1 8.3398 74.478)">
			<stop  offset="0" style="stop-color:#FF4000"/>
			<stop  offset="0.1217" style="stop-color:#FC6B07"/>
			<stop  offset="0.2628" style="stop-color:#F9960D"/>
			<stop  offset="0.4063" style="stop-color:#F6BA12"/>
			<stop  offset="0.5502" style="stop-color:#F4D617"/>
			<stop  offset="0.6948" style="stop-color:#F3E91A"/>
			<stop  offset="0.8406" style="stop-color:#F2F51B"/>
			<stop  offset="0.9895" style="stop-color:#F2F91C"/>
		</linearGradient>
		<path fill="url(#SVGID_22_)" d="M255.622,37.837c0,0-9.19,9.983-9.196,9.991c-0.199,0.216-2.707-0.124-3.109-0.137
			c-1.032-0.025-2.067-0.032-3.1,0.007c-2.073,0.079-4.136,0.333-6.138,0.813c-4.125,0.993-8.043,2.931-10.289,6.215
			c-1.222,1.784-2.554,4.465-2.691,6.565c-0.286,4.388,2.45,8.667,8.047,8.286l2.022-4.066h-7.074l9.498-10.257l15.359,0.09
			l-10.567,24.313c0,0-17.226,0-17.24,0c-2.855,0-6.214-1.874-8.193-3.514c-2.852-2.365-4.04-6.076-4.566-9.389
			c-0.316-1.987-0.202-3.97-0.002-5.963c0.455-4.529,2.938-8.237,5.749-11.886c3.018-3.916,7.831-7.123,12.784-8.967
			c3.603-1.342,7.932-1.962,11.831-2.101h16.875V37.837z"/>
		
			<linearGradient id="SVGID_23_" gradientUnits="userSpaceOnUse" x1="263.2959" y1="36.6414" x2="263.2959" y2="-5.178" gradientTransform="matrix(1 0 0 -1 8.3398 74.478)">
			<stop  offset="0" style="stop-color:#FF4000"/>
			<stop  offset="0.1217" style="stop-color:#FC6B07"/>
			<stop  offset="0.2628" style="stop-color:#F9960D"/>
			<stop  offset="0.4063" style="stop-color:#F6BA12"/>
			<stop  offset="0.5502" style="stop-color:#F4D617"/>
			<stop  offset="0.6948" style="stop-color:#F3E91A"/>
			<stop  offset="0.8406" style="stop-color:#F2F51B"/>
			<stop  offset="0.9895" style="stop-color:#F2F91C"/>
		</linearGradient>
		<polygon fill="url(#SVGID_23_)" points="261.887,37.837 275.021,37.837 268.455,52.423 280.378,52.423 287.249,37.837 
			300.181,37.837 281.995,79.656 268.657,79.656 275.83,62.414 264.311,62.326 256.631,79.656 243.091,79.656 		"/>
		
			<linearGradient id="SVGID_24_" gradientUnits="userSpaceOnUse" x1="309.019" y1="36.6414" x2="309.019" y2="-5.178" gradientTransform="matrix(1 0 0 -1 8.3398 74.478)">
			<stop  offset="0" style="stop-color:#FF4000"/>
			<stop  offset="0.1217" style="stop-color:#FC6B07"/>
			<stop  offset="0.2628" style="stop-color:#F9960D"/>
			<stop  offset="0.4063" style="stop-color:#F6BA12"/>
			<stop  offset="0.5502" style="stop-color:#F4D617"/>
			<stop  offset="0.6948" style="stop-color:#F3E91A"/>
			<stop  offset="0.8406" style="stop-color:#F2F51B"/>
			<stop  offset="0.9895" style="stop-color:#F2F91C"/>
		</linearGradient>
		<polygon fill="url(#SVGID_24_)" points="300.686,47.473 310.691,47.473 296.847,79.656 310.083,79.656 324.231,47.473 
			333.527,47.473 337.872,37.837 304.932,37.837 		"/>
		
			<linearGradient id="SVGID_25_" gradientUnits="userSpaceOnUse" x1="341.7925" y1="36.6414" x2="341.7925" y2="-5.178" gradientTransform="matrix(1 0 0 -1 8.3398 74.478)">
			<stop  offset="0" style="stop-color:#FF4000"/>
			<stop  offset="0.1217" style="stop-color:#FC6B07"/>
			<stop  offset="0.2628" style="stop-color:#F9960D"/>
			<stop  offset="0.4063" style="stop-color:#F6BA12"/>
			<stop  offset="0.5502" style="stop-color:#F4D617"/>
			<stop  offset="0.6948" style="stop-color:#F3E91A"/>
			<stop  offset="0.8406" style="stop-color:#F2F51B"/>
			<stop  offset="0.9895" style="stop-color:#F2F91C"/>
		</linearGradient>
		<polygon fill="url(#SVGID_25_)" points="343.445,37.837 374.847,37.837 370.769,47.341 352.553,47.341 350.373,52.406 
			368.018,52.406 363.938,62.366 346.007,62.366 342.688,69.422 362.325,69.422 358.34,79.656 325.419,79.656 		"/>
		
			<linearGradient id="SVGID_26_" gradientUnits="userSpaceOnUse" x1="377.2847" y1="36.6414" x2="377.2847" y2="-5.178" gradientTransform="matrix(1 0 0 -1 8.3398 74.478)">
			<stop  offset="0" style="stop-color:#FF4000"/>
			<stop  offset="0.1217" style="stop-color:#FC6B07"/>
			<stop  offset="0.2628" style="stop-color:#F9960D"/>
			<stop  offset="0.4063" style="stop-color:#F6BA12"/>
			<stop  offset="0.5502" style="stop-color:#F4D617"/>
			<stop  offset="0.6948" style="stop-color:#F3E91A"/>
			<stop  offset="0.8406" style="stop-color:#F2F51B"/>
			<stop  offset="0.9895" style="stop-color:#F2F91C"/>
		</linearGradient>
		<path fill="url(#SVGID_26_)" d="M403.349,37.837h-22.331l-17.985,41.819h13.137l7.578-17.064l2.021,17.064h13.036l-1.518-18.302
			c10.002-6.983,10.812-14.852,10.812-14.852C409.109,38.367,403.349,37.837,403.349,37.837z M396.4,48.412
			c-0.478,2.1-1.687,4.146-3.542,5.561c-0.745,0.569-1.596,1.016-2.549,1.259c-0.359,0.092-3.574,0.217-3.565,0.198l4.782-10.727
			c0,0,3.157,0,3.168,0c0.479,0,1.015,0.791,1.21,1.074C396.471,46.598,396.61,47.478,396.4,48.412z"/>
		
			<linearGradient id="SVGID_27_" gradientUnits="userSpaceOnUse" x1="415.5229" y1="37.5046" x2="415.5229" y2="-5.5535" gradientTransform="matrix(1 0 0 -1 8.3398 74.478)">
			<stop  offset="0" style="stop-color:#FF4000"/>
			<stop  offset="0.1217" style="stop-color:#FC6B07"/>
			<stop  offset="0.2628" style="stop-color:#F9960D"/>
			<stop  offset="0.4063" style="stop-color:#F6BA12"/>
			<stop  offset="0.5502" style="stop-color:#F4D617"/>
			<stop  offset="0.6948" style="stop-color:#F3E91A"/>
			<stop  offset="0.8406" style="stop-color:#F2F51B"/>
			<stop  offset="0.9895" style="stop-color:#F2F91C"/>
		</linearGradient>
		<path fill="url(#SVGID_27_)" d="M441.847,52.601c0,0,4.85-11.844,4.852-11.847c0.2-0.496-2.896-1.68-3.293-1.844
			c-5.037-2.105-10.666-2.595-15.979-0.969c-1.445,0.443-2.917,0.998-4.254,1.661c-2.498,1.243-4.905,2.722-6.742,4.679
			c-0.804,0.856-1.558,1.807-2.163,2.779c-1.573,2.515-2.768,5.357-1.643,8.192c1.126,2.833,4.011,5.29,6.891,6.809
			c0,0,6.197,3.066,5.356,5.039c0,0-3.841,6.928-18.997-0.793c0,0-4.85,10.606-4.852,10.607c-0.192,0.428,6.284,2.27,6.607,2.343
			c5.336,1.201,11.167,1.018,16.354-0.627c4.037-1.275,7.785-3.355,10.622-6.188c0.81-0.806,1.528-1.685,2.157-2.603
			c2.039-2.976,3.543-6.739,1.522-10.032c-1.742-2.844-5.434-4.284-8.389-5.98c-1.8-1.03-6.387-2.82-4.401-5.328
			c0.456-0.574,1.308-1.086,2.046-1.341c0.827-0.284,1.814-0.476,2.707-0.484c1.493-0.016,3.095,0.273,4.524,0.623
			C434.775,47.295,439.372,49.11,441.847,52.601z"/>
	</g>
</g>
</svg>
