<svg xmlns="http://www.w3.org/2000/svg" version="1.0" width="531px" height="201px" viewBox="0 0 400.000000 152.000000" preserveAspectRatio="xMidYMid meet"  xmlns:xlink="http://www.w3.org/1999/xlink"><defs id="svgEditorDefs"><linearGradient gradientUnits="objectBoundingBox" id="lrgd2-e1" spreadMethod="pad" x1="0%" x2="100%" y1="0%" y2="0%"><stop offset="0%" stop-color="lightblue"/><stop offset="100%" stop-color="#ef5b2b"/></linearGradient><linearGradient gradientUnits="objectBoundingBox" id="lgrd2-peachpuff-sienna-v" spreadMethod="pad" x1="76.6%" x2="0%" y1="11.4%" y2="100%"><stop offset="0%" style="stop-color:peachpuff;  stop-opacity:0.84;"/><stop offset="100%" style="stop-color:sienna;  stop-opacity:1"/></linearGradient><linearGradient gradientUnits="objectBoundingBox" id="lgrd2-fire" spreadMethod="pad" x1="86%" x2="50.8%" y1="0%" y2="45.8%"><stop offset="0%" style="stop-color:rgb(255,255,0);stop-opacity:1"/><stop offset="100%" style="stop-color:rgb(255,0,0);stop-opacity:1"/></linearGradient><linearGradient gradientUnits="objectBoundingBox" id="lgrd2-b" spreadMethod="pad" x1="0" x2="100%" y1="0" y2="0"><stop offset="0%" stop-color="#BBC42A"/><stop offset="100%" stop-color="#ED6E46"/></linearGradient><linearGradient gradientUnits="objectBoundingBox" id="lgrd2-peachpuff-sienna-h" spreadMethod="pad" x1="0%" x2="100%" y1="0%" y2="0%"><stop offset="0%" style="stop-color:peachpuff;  stop-opacity:1;"/><stop offset="100%" style="stop-color:sienna;  stop-opacity:1"/></linearGradient><linearGradient gradientUnits="objectBoundingBox" id="lrgd2-e1-50-reflect" spreadMethod="reflect" x1="0%" x2="50%" y1="0%" y2="0%"><stop offset="0%" stop-color="lightblue"/><stop offset="100%" stop-color="#ef5b2b"/></linearGradient><radialGradient cy="60%" fx="45%" fy="45%" gradientUnits="objectBoundingBox" id="rgrd11-b" r="2"><stop offset="0%" stop-color="#48afc1"/><stop offset="10%" stop-color="#b4c63b"/><stop offset="20%" stop-color="#ef5b2b"/><stop offset="30%" stop-color="#503969"/><stop offset="40%" stop-color="#ab6294"/><stop offset="50%" stop-color="#1cb98f"/><stop offset="60%" stop-color="#48afc1"/><stop offset="70%" stop-color="#b4c63b"/><stop offset="80%" stop-color="#ef5b2b"/><stop offset="90%" stop-color="#503969"/><stop offset="100%" stop-color="#ab6294"/></radialGradient><linearGradient gradientUnits="objectBoundingBox" id="lgrd2-black-white" spreadMethod="pad" x1="14.4%" x2="100%" y1="83.4%" y2="0%"><stop offset="0%" stop-color="black"/><stop offset="100%" stop-color="white"/></linearGradient><radialGradient cx="60%" cy="60%" fx="75%" fy="75%" gradientUnits="objectBoundingBox" id="rgrd6-a" r="45%"><stop offset="0%" stop-color="#a595d8"/><stop offset="20%" stop-color="#a595d8"/><stop offset="40%" stop-color="#8979ba"/><stop offset="60%" stop-color="#7363a5"/><stop offset="80%" stop-color="#605091"/><stop offset="100%" stop-color="#3e3168"/></radialGradient><radialGradient cx="74.1%" cy="16%" fx="100%" fy="0%" id="rgrd2-white-blue" r="50%"><stop offset="0%" style="stop-color:white;stop-opacity:0"/><stop offset="100%" style="stop-color:blue;stop-opacity:1"/></radialGradient></defs><rect id="svgEditorBackground" x="0" y="0" width="400" height="152" style="fill: none; stroke: none;"/>
<metadata>
Created by potrace 1.13, written by Peter Selinger 2001-2015
</metadata>

<path d="M367,1212c-97,-97,-177,-185,-177,-194c0,-9,50,-69,111,-132l111,-116l-117,-122c-131,-137,-144,-154,-147,-189c-1,-25,76,-244,94,-267c8,-9,148,-12,637,-12l628,0l23,-25l23,-25l347,0l347,0l23,25l23,25l408,0l408,0l178,117c188,123,205,136,196,159c-3,9,45,63,137,151c78,76,146,146,152,156c9,17,-7,36,-111,141l-121,121l110,110c69,68,110,117,110,130c0,12,-23,44,-53,73l-53,52l-1554,0l-1555,0l-178,-178ZM3697,1328c29,-29,53,-57,53,-63c0,-6,-49,-60,-110,-120c-61,-60,-110,-112,-110,-116c0,-3,55,-61,122,-128l123,-121l-155,-155c-100,-100,-155,-162,-155,-176c0,-16,-42,-49,-180,-139l-180,-119l-406,-1l-406,0l-23,-25l-23,-25l-343,0l-343,0l-23,25l-23,25l-634,2l-633,3l-44,119c-24,66,-44,132,-44,147c0,20,31,59,135,169l135,144l-115,116c-63,64,-115,121,-115,126c0,5,80,89,177,186l178,178l1545,0l1544,0l53,-52Z" transform="matrix(0.1 0 0 -0.1 0 152)" fill="navy"/><path d="M567,1172c-148,-148,-147,-141,-14,-271c61,-60,97,-102,97,-116c0,-13,-37,-57,-100,-120c-55,-55,-100,-103,-100,-107c0,-5,61,-8,135,-8l135,0l2,353l3,352l83,3l82,3l0,-121l0,-120l88,0l87,0l-3,120l-4,120l91,0l91,0l0,-355l0,-356l73,3l72,3l0,365l0,365l-350,3l-350,2l-118,-118Z" transform="matrix(0.1 0 0 -0.1 0 152)" fill="navy"/><path d="M2015,1210l80,-80l3,-291l4,-290l-87,3l-86,3l1,277c0,186,-3,279,-10,283c-6,4,-29,4,-50,0l-40,-7l0,-279l0,-279l-90,0l-90,0l0,285c0,310,4,291,-59,279l-31,-6l0,-279l0,-279l-30,0c-41,0,-40,-27,3,-68l34,-33l335,2l336,1l51,52l52,53l57,-5l57,-4l-101,103l-102,104l-6,94c-4,52,-4,166,0,253l7,158l83,0l84,0l0,-227l0,-227l41,-42l41,-41l44,40l44,40l0,229l0,228l85,0l85,0l0,-251l0,-250l-102,-105l-102,-105l163,3l162,3l-1,353l0,352l97,0l98,0l110,-110c60,-60,117,-110,125,-110c15,0,250,228,250,243c0,4,-366,7,-812,7l-813,0l80,-80Z" transform="matrix(0.1 0 0 -0.1 0 152)" fill="navy"/><path d="M2980,1120c6,-11,9,-43,8,-72l-3,-53l105,-3l105,-3l-75,76c-67,67,-78,75,-113,75c-35,0,-37,-2,-27,-20Z" transform="matrix(0.1 0 0 -0.1 0 152)" fill="maroon"/><path d="M358,877l102,-103l-136,-144l-137,-145l631,-3l630,-2l32,-50l32,-50l394,0l394,0l36,50l36,50l537,0l536,0l150,150l150,150l-101,100l-101,100l-76,0c-43,0,-77,-3,-77,-6c0,-4,41,-45,90,-91c50,-47,90,-90,90,-97c0,-6,-56,-67,-125,-136l-125,-125l-483,-3l-482,-3l-45,-44l-46,-45l-360,0l-360,0l-44,45l-44,45l-528,0c-290,0,-528,3,-528,7c0,4,54,62,120,128l119,120l-99,103l-99,102l-93,0l-93,0l103,-103Z" transform="matrix(0.1 0 0 -0.1 0 152)" fill="navy"/><path d="M749,968c-2,-7,-3,-104,-1,-215l3,-203l54,0l55,0l0,160l0,160l115,0l115,0l0,-160l0,-160l60,0l60,0l0,215l0,215l-229,0c-175,0,-230,-3,-232,-12Z" transform="matrix(0.1 0 0 -0.1 0 152)" fill="navy"/><path d="M1410,775l0,-205l60,0l59,0l3,189c2,103,2,195,0,205c-3,13,-16,16,-63,16l-59,0l0,-205Z" transform="matrix(0.1 0 0 -0.1 0 152)" fill="maroon"/><path d="M1680,780l0,-200l60,0l59,0l3,188c2,103,1,193,-1,200c-2,8,-23,12,-62,12l-59,0l0,-200Z" transform="matrix(0.1 0 0 -0.1 0 152)" fill="maroon"/><path d="M1950,780l0,-200l60,0l59,0l3,188c2,103,1,193,-1,200c-2,8,-23,12,-62,12l-59,0l0,-200Z" transform="matrix(0.1 0 0 -0.1 0 152)" fill="maroon"/><path d="M2270,873l0,-108l93,-96c52,-53,106,-105,121,-114l28,-19l114,116l115,115l-3,104l-3,104l-60,0l-60,0l-1,-83l-2,-83l-51,-54c-29,-30,-55,-55,-59,-55c-4,0,-31,24,-60,53l-52,53l0,87l0,87l-60,0l-60,0l0,-107Z" transform="matrix(0.1 0 0 -0.1 0 152)" fill="maroon"/><path d="M2908,961c-2,-8,-2,-97,0,-197l3,-184l62,0l62,0l-3,145l-3,145l188,1c103,1,194,1,201,0c22,-3,13,14,-33,59l-46,45l-214,0c-176,0,-215,-3,-217,-14Z" transform="matrix(0.1 0 0 -0.1 0 152)" fill="navy"/><path d="M942,843l-53,-4l3,-142l3,-142l83,0l83,0l0,145l0,145l-33,1c-18,0,-57,-1,-86,-3Z" transform="matrix(0.1 0 0 -0.1 0 152)" fill="maroon"/><path d="M3060,700l0,-150l128,0l128,0l120,115l119,114l-35,36l-34,35l-213,0l-213,0l0,-150Z" transform="matrix(0.1 0 0 -0.1 0 152)" fill="maroon"/><path d="M183,436c3,-7,23,-61,44,-120l38,-106l632,0l632,0l19,-25l20,-25l336,0l336,0l16,25l16,25l411,0l410,0l171,111c94,62,175,116,181,120c5,5,-231,9,-527,9l-536,0l-37,-50l-37,-50l-398,0l-398,0l-42,50l-42,50l-625,0c-529,0,-624,-2,-620,-14Z" transform="matrix(0.1 0 0 -0.1 0 152)" fill="maroon"/></svg>