<?xml version="1.0" encoding="utf-8"?>
<!-- Generator: Adobe Illustrator 16.0.2, SVG Export Plug-In . SVG Version: 6.00 Build 0)  -->
<!DOCTYPE svg PUBLIC "-//W3C//DTD SVG 1.1//EN" "http://www.w3.org/Graphics/SVG/1.1/DTD/svg11.dtd">
<svg version="1.1" id="Ebene_1" xmlns="http://www.w3.org/2000/svg" xmlns:xlink="http://www.w3.org/1999/xlink" x="0px" y="0px"
	 width="566.929px" height="98.438px" viewBox="0 0 566.929 98.438" enable-background="new 0 0 566.929 98.438"
	 xml:space="preserve">
<g>
	<g>
		<path stroke="#000000" d="M147.841,84.382c0,0,10.609-1.048,42.577-14.388c31.968-13.342,36.928-21.917,35.827-27.92
			c-1.103-6.004-5.374-6.861-9.646-7.337c-4.271-0.477-12.401,0.763-18.74,2.667c-6.338,1.905-8.818,2.572-9.507,0.477
			c-0.688-2.097,2.205-6.193,15.02-10.005c12.815-3.812,22.598-4.383,22.598-4.383l1.928-0.095l-0.896-0.381l1.31-0.238
			l-0.482-0.477l0.688-0.381l-2.342-0.048c0,0,1.31-0.857,2.207-0.857s-0.758-0.667-0.758-0.667l0.894-0.382l-1.86-0.238
			c0,0,2.068-2.287,6.477-2.715c0,0-3.168-0.572-7.097-0.572l0.208-0.571h-1.035l0.206-0.81h-2.066l1.86-0.762l-0.759-0.334
			l0.896-0.476c0,0-1.378-0.19-1.171-0.238c0.206-0.048,2.205-0.477,2.205-0.477l-2.342-0.667l0.344-0.763
			c0,0-10.195,0.286-21.838,3.145c-11.643,2.858-21.358,8.051-26.319,12.911c-4.959,4.86-14.053,14.389-3.031,20.964
			c0,0,7.027,2.859,14.605,0.096c7.578-2.763,18.05-4.764,19.566-2.383c1.515,2.383-9.094,8.576-13.641,10.673
			c-4.548,2.098-32.105,13.245-48.365,15.341c0,0-0.137,0.479,1.929,0.952c2.067,0.479,5.926,1.048,5.926,1.048l-2.342,1.812
			l2.205-0.096l-3.721,1.714l4.409,0.096l-2.342,2.002l5.098-0.479l7.579-3.524C164.102,75.615,148.668,84.287,147.841,84.382z"/>
		<path stroke="#000000" d="M230.974,53.159l5.695-14.738c0,0-3.305,0.127-5.145,0.635c-1.836,0.509-3.399-0.189-2.572-1.079
			s3.216-2.605,1.835-2.478c-1.376,0.127-1.376,0.127-1.376,0.127s1.837-1.779,1.837-2.351c0-0.572-1.01-0.572-1.654-0.19
			c-0.643,0.381-2.113,0.381-2.021-0.19c0.091-0.572-1.193-1.715,11.392-5.273c12.583-3.557,18.647-4.447,17.178-2.605
			c-1.47,1.843-2.297,1.907-2.297,1.907s1.378-0.444,1.471,0.191c0.09,0.635-1.011,1.143-1.011,1.143s-1.194,0.826,0.552,1.842
			c1.747,1.017,1.378,1.524,1.378,1.524s-7.072,1.907-7.716,3.24c-0.643,1.335-9.002,16.391-9.002,16.391l-0.183,2.097l-2.756,0.699
			l-1.103-1.079l-0.091,0.7l-0.735-0.255l-0.458,0.318l-3.584,0.062L230.974,53.159z"/>
		<path stroke="#000000" d="M256.143,25.779l1.744-0.826l-1.011-0.127c0,0,8.543-2.921,12.77-3.812
			c4.225-0.89,10.93-0.445,11.665,1.905c0.735,2.351,0.736,5.845-3.306,8.513c-4.042,2.667-3.308,2.032-3.308,2.032
			s1.011,9.084,3.675,12.325l-2.205-0.063l-1.193,0.635l-2.85-0.635l-1.651,0.953c0,0-4.687-11.436-4.594-12.642
			c0.091-1.208,5.972-4.193,5.972-5.719c0,0-2.94-0.316-3.858,0.255c-0.918,0.572-7.808,19.057-9,20.646l-1.653-0.191l-1.195,0.319
			h-0.734l-2.297,1.143l-0.735-0.318l-1.561-0.063l0.092-1.207l-1.285-0.19l9.092-16.453l-2.39-0.254c0,0,2.298-1.588,1.288-1.715
			s-1.288-0.572-1.288-0.572l1.38-1.207c0,0,0.917-0.635,0.366-1.335l-2.665-0.699L256.143,25.779z"/>
		<path stroke="#000000" d="M289.213,18.41c0,0,13.228-1.525,14.515-1.017c1.284,0.509-0.551,1.144-0.919,1.398
			s0.275,1.208,0.275,1.208l-0.92,1.27l0.275,0.381l-1.562,0.699l-8.635,2.287l-0.551,1.906l7.349-1.08c0,0-0.091,0.827-0.919,1.208
			c-0.827,0.382,0.737,0.699,0.644,0.952c-0.092,0.254-1.928,1.843-2.021,2.668c-0.092,0.826-0.554,1.271-2.112,1.46
			c-1.561,0.19-5.972,1.207-5.972,1.207l-0.274,2.096c0,0,7.899-1.906,8.727-1.842c0.828,0.064,0.274,0.508,0.091,0.763
			s-1.836,1.906-1.836,2.479s-0.275,0.698-0.552,0.952c-0.275,0.254-0.737,0.889-0.643,1.461c0.091,0.571,0.55,1.081,0,1.207
			c-0.554,0.128-0.644,1.271-0.644,1.271s-8.177,0.89-9.828,1.525c-1.654,0.634-5.235,0.38-5.235,0.38s2.663-13.149,3.491-16.007
			c0.826-2.859,2.112-6.036,2.112-6.036S284.068,19.172,289.213,18.41z"/>
		<path stroke="#000000" d="M305.38,17.33c0,0-10.565,22.933-8.728,23.568c1.837,0.636,17.085-3.303,17.085-3.303l0.187-1.017
			l2.48-0.953l-0.277-1.525l-0.828-0.635l1.194-0.699l-1.194-0.254l1.105-1.398c0,0-7.352,1.779-8.912,1.525
			c-1.56-0.254-0.092-1.969,1.011-2.541c1.102-0.572,6.613-1.778,7.441-2.287c0.825-0.508,0.274-0.952,0.274-0.952l1.838-0.763
			l-0.091-1.398l-0.829-0.572l1.653-1.652l-7.351,0.572c0,0-0.642-0.572,0.094-1.334c0.735-0.763,3.306-0.953,4.591-1.08
			c1.287-0.127,4.411-0.891,4.502-1.843c0.092-0.953,1.284-0.953,1.284-0.953l-0.366-1.08l0.643-1.08V14.47
			c0,0-0.459-0.508-3.674,0.063C315.3,15.107,305.839,16.505,305.38,17.33z"/>
		<path stroke="#000000" d="M324.485,14.725c0,0,7.899-3.43,21.771-1.906c0,0,0.831,0.635,0,0.953
			c-0.826,0.318-2.112,0.445-1.377,0.953c0.737,0.508,1.013,1.08,0.094,1.525c-0.921,0.446-3.307,1.144-2.11,1.398
			c1.19,0.253,3.396,1.397,1.928,1.397c-1.472,0-5.516,0.19-5.516,0.19l-11.848,20.9l-1.745,0.064l-0.737,0.825l-2.021,0.317v-2.159
			c0,0-3.033,1.144-3.489,1.144c-0.461,0-1.747-0.255-1.747-0.255l10.933-19.057c0,0,0.827-0.826-0.553-0.763
			c-1.377,0.063-6.065,0.634-6.522,0.127c-0.456-0.508,1.011-2.033,2.297-2.987c1.283-0.952,0.735-1.08,0.735-1.652
			C324.577,15.171,324.485,14.725,324.485,14.725z"/>
		<path stroke="#000000" d="M191.245,74.568c0,0,6.063-2.097,6.614-3.812c0.55-1.715,0.965-2.764,5.098-4.385
			c4.133-1.617,80.054-24.106,97.968-22.963c0,0-5.927,1.525-7.304,2.668c-1.378,1.144-6.338,2.954-9.37,3.239
			c0,0,8.544-2.096,7.993-0.666c-0.552,1.429-3.995,1.429-3.167,2.287c0.825,0.856,1.377,1.144,0.825,1.714
			c-0.552,0.572-35.825,9.339-35.825,9.339s-6.477,1.525-8.13,3.812c-1.655,2.288-0.965,3.335,0.965,2.191
			c1.929-1.143,10.886-4.001,9.646-2.478c-1.24,1.524-4.684,2.667-4.684,2.667s4.823-0.571,3.995,0.191
			c-0.827,0.763-1.653,1.334-1.653,1.334s0.965,1.62,0.275,1.62s-1.104,0.763-1.104,0.763s0.552,1.047-0.55,1.431
			c-1.103,0.38-8.543,2.952-9.508,3.143c-0.963,0.19-1.791-0.286-4.272,4.098c-2.48,4.383-6.063,11.435-6.063,13.054
			c0,1.621-0.551,2.194-0.551,2.194l-1.653,0.094l-2.618,1.335l-1.376-2.097l-0.966,1.047l-1.514-1.047v-1.716h-2.342l0.276-1.81
			c0,0-0.276-1.715,0.965-3.336c1.238-1.619,3.582-5.717,2.755-6.479c-0.828-0.764-7.717,4.003-14.883,3.907
			c0,0,8.13-3.621,9.37-4.574c0,0-5.098,0.764-5.926,0.764c0,0,3.446-2.097,4.41-3.048c0.964-0.952,1.377-2.004,3.307-2.572
			c1.928-0.573,5.786-2.384,6.476-4.1c0.688-1.714,0.963-2.953,0.963-2.953s-27.695,9.337-32.932,12.102
			c-5.236,2.764-5.098,0.286-2.894-0.951c2.206-1.24,2.066-2.289,2.066-2.765c0-0.477-0.413-0.381-0.413-0.381l1.654-0.857
			c0,0-9.646,3.24-12.402,3.335c0,0-1.24-0.478,1.379-1.239c2.618-0.762,6.614-3.048,6.614-3.048s-4.41,0.764-4.134,0.287
			C188.902,75.424,191.245,74.568,191.245,74.568z"/>
		<path stroke="#000000" d="M247.049,91.433c0,0,5.374-20.771,15.845-28.203c0,0,1.241-0.478,2.068-0.097
			c0.827,0.382,3.995-3.906,5.098-3.716c1.103,0.19-0.966,2.859-0.688,3.239c0.275,0.382,1.791-1.428,1.928-0.763
			c0.138,0.668-0.275,1.239,0,1.524c0.276,0.286,0.551,0.478,0.138,0.763c-0.413,0.286-1.377,2.573-2.756,3.908
			c-1.376,1.333-8.542,10.099-10.885,17.913c-2.343,7.813-3.032,9.337-3.859,9.623c-0.828,0.285-1.792-1.047-1.792-1.047h-1.24
			v-2.572l-1.514,1.524c0,0,0.276-5.051,1.653-6.575C251.044,86.955,247.737,92.673,247.049,91.433z"/>
		<path stroke="#000000" d="M297.479,65.419c0,0-1.928-0.096-2.616,0.667c-0.689,0.764-0.828,1.145-1.793,1.145
			c-0.962,0-12.261,1.522-14.329,5.051c-2.068,3.525-4.134,6.192-1.377,7.051c2.755,0.857,8.405,0.857,6.338-0.858l-2.618-0.38
			l2.893-1.049l-1.377-1.143l1.377-0.383l-3.445-0.285c0,0-0.275-0.857,5.373-2.858c5.649-2.002,14.469-3.335,13.503-2.479
			c-0.963,0.857-2.343,0.857-1.653,1.907c0.69,1.047,0.964,1.429,0.553,1.809c-0.414,0.383-0.688,1.05-0.414,1.526
			c0.276,0.477,0.826,1.047,0,1.047c-0.827,0-1.102,0.096-0.827,0.573c0.279,0.478,0.276,1.143-0.55,1.143s-4.135,0.668-4.96,1.907
			c-0.827,1.237-6.889,13.815-6.889,13.815s-1.379-0.857-1.379-1.143c0,0-0.138,0.477-0.825,0.477c-0.689,0-1.514-1.238-1.514-1.238
			s-2.618,0.477-3.308,0.286l1.378-2.668c0,0-10.61-0.478-14.331-4.668c-3.723-4.192,3.031-13.149,6.337-16.486
			c3.309-3.334,9.095-6.669,19.43-8.479c10.332-1.811,9.232-0.857,8.404,0c-0.825,0.856,0,1.333,0.689,1.333
			c0.688,0-0.552,0.477-1.378,0.857c-0.825,0.381-0.413,1.905-1.792,2.097c-1.376,0.189-4.408,1.047-4.408,1.047
			S298.718,64.181,297.479,65.419z"/>
		<path stroke="#000000" d="M306.298,56.749c0,0-2.205,3.239-4.41,10.385c-2.204,7.147-6.2,16.962-5.374,16.485
			c0.827-0.479,2.342-2.193,2.342-2.193s-1.24,2.29-0.138,2.29s2.756-0.859,2.756-0.859s-1.928,3.622-1.928,4.099
			c0,0.479-0.966,1.144,0.274,1.334c1.239,0.19,0.827-0.286,1.929-1.525c1.102-1.237,2.066-0.571,2.066-1.619
			c0-1.046,5.788-12.387,5.788-12.387l3.31-0.285c0,0-3.862,8.575-3.17,8.86c0.686,0.287,2.478-0.666,2.478-0.666
			s-1.377,3.431-0.277,2.952c1.103-0.478,1.379-2.097,1.379-2.097s0.554,1.144,0.964,1.43c0.415,0.286,2.479-1.238,3.171-2.384
			c0.69-1.143,9.919-24.013,9.919-24.013s0.69-1.716,1.104-2.288c0.412-0.571-1.376-0.667-1.376-0.667s0.272-1.811-0.692-1.333
			c-0.962,0.477-1.652,1.142-1.652,1.142s-0.829,0-1.378,0.479c-0.553,0.476-0.826,0.763-0.826,0.763s-2.479-0.096-2.759,0.668
			c-0.273,0.764-3.443,7.146-3.719,7.717c-0.276,0.573-3.445,1.716-4.271,1.811c-0.826,0.097,0.826-4.955,1.654-6.478
			c0.827-1.526,2.616-3.623,1.653-3.432c-0.963,0.19-1.378,0.475-1.928,0.762c-0.555,0.288,0-0.094-0.968-0.287
			c-0.963-0.188-0.826,0.287-1.24,0.575c-0.412,0.287-1.24,1.046-1.65,0.857c-0.414-0.19-0.414-0.19-0.69,0.095
			C308.365,57.225,306.298,56.749,306.298,56.749z"/>
		<path stroke="#000000" d="M306.71,53.032c0,0,8.954-1.429,13.503-2.762c4.547-1.333,13.779-4.383,12.954-2.097
			c-0.83,2.287-14.056,35.543-14.056,37.258s2.204-0.096,2.757,0.285c0.55,0.383-1.792,4.668-0.553,4.764
			c1.237,0.095,2.754-3.621,2.754-3.621s-1.789,7.052-1.102,7.242c0.692,0.19,3.445-6.288,3.583-7.338
			c0.138-1.047,10.887-29.538,13.09-34.305c2.204-4.764,3.442-7.813,5.236-8.194c1.79-0.382,16.811-3.24,17.087-3.716
			c0.271-0.478-1.793-0.765-1.793-0.765s12.264-2.097,12.813-2.285c0.552-0.191,0.138-1.049,1.792-1.715
			c1.655-0.668,3.032-1.24,2.481-1.525c-0.552-0.286-7.855,0.571-9.783,0.952c-1.931,0.382-45.747,5.909-61.177,12.77
			c0,0,1.512,0.763,1.651,1.047c0.14,0.287-4.271,2.479-3.169,2.668c1.103,0.191,2.34-1.046,2.479-0.477
			C307.4,51.793,306.161,52.841,306.71,53.032z"/>
		<path stroke="#000000" d="M342.812,54.557c0,0-3.723,9.529-6.477,13.818c-2.755,4.287-5.648,6.574-4.271,6.479
			c1.376-0.097,20.393-3.717,20.667-4.099c0.278-0.382-0.271-1.239,0.14-1.715c0.414-0.477,0.965-1.429,0.274-1.619
			c-0.688-0.191-1.655-0.572-0.964-1.239c0.689-0.668,3.443-2.477,1.515-2.097c-1.93,0.381-7.441,1.809-8.27,1.906
			c-0.825,0.095,1.104-2.668,1.931-2.859c0.827-0.189,10.196-1.523,10.747-1.904c0.551-0.383,0-2.289,0.551-2.479
			c0.552-0.19,2.342-0.762-2.34-0.762l2.067-1.048c0,0-1.929-0.477-5.652,0.285c-3.721,0.763-2.065-0.096-2.065-0.096l0.69-1.716
			c0,0,10.335-2,10.883-2.477c0.557-0.478-0.134-0.667,0.557-0.764c0.688-0.094,1.238-0.762,0.134-0.95
			c-1.098-0.191,3.172-0.858,2.208-1.334c-0.966-0.479-5.788-0.479-5.788-0.479s2.482-0.572,2.067-1.047
			c-0.415-0.477-4.684,0.19-12.126,1.335c-7.44,1.143-9.507,1.905-8.542,2.383c0.965,0.477,1.102,0.477,0.414,0.952
			C340.47,53.509,338.401,54.271,342.812,54.557z"/>
		<path stroke="#000000" d="M358.656,42.837c0,0,6.2,0.857,5.65,0.857c-0.553,0-1.515,0.381-1.103,1.047
			c0.412,0.668,0,1.621-0.412,1.621c-0.416,0-0.556,0.857,2.343,0.57c2.894-0.286-1.795,0.382-1.38,0.858
			c0.414,0.477,2.617,0.285,2.617,0.285s-3.443,0.858-0.412,1.048c3.03,0.191,3.72,0.286,3.72,0.286l-11.573,21.251l-7.438,2.857
			c0,0,0.551,0.382,0.963,0.667c0.413,0.285-1.24,0.669-1.929,1.334c-0.689,0.668-0.827,0.952-1.24,1.239
			c-0.411,0.284-0.136,0.763-0.689,1.715c-0.553,0.951-3.721,1.334-2.895,1.619c0.829,0.285,7.715-2.001,7.853-1.239
			c0.141,0.764-9.366,10.674-9.092,11.245c0.275,0.57,4.271,0.382,5.236,0.094c0.965-0.286,1.654-0.857,2.342-0.286
			c0.689,0.574,1.654,1.048,2.48,0.763c0.828-0.284,2.205-0.57,2.205-0.57s0.552-1.24,1.377-0.668
			c0.826,0.571,3.031,1.236,3.308,0.951c0.274-0.286,7.578-15.341,7.578-15.341s4.409-0.952,6.611-1.717
			c2.205-0.762,1.791-1.143,5.236,1.43c3.445,2.573,17.776,18.486,47.536,19.058l0.415-2.857l1.653-0.192L429.755,88l3.722-0.571
			l-3.171-1.62l4.134-0.097l-1.103-2.19l1.931-1.143l-1.658-1.048l1.384-0.953c0,0-27.15,0.286-41.338-12.767
			c0,0,17.359-6.002,20.941-15.247c3.582-9.243-2.067-14.961-9.371-17.438c-7.301-2.479-27.558,2.097-35.271,4.287
			C362.238,41.406,358.656,42.837,358.656,42.837z"/>
		<path fill="#FFFFFF" d="M400.269,50.508l-1.755,2.716c0,0-3.445,3.406-6.132,4.859c-2.688,1.453-9.369,4.788-9.369,4.788
			l-0.206-3.598l3.41-6.907l2.65-2.24l6.201-0.716L400.269,50.508z"/>
		<path fill="none" stroke="#000000" d="M384.287,46.267l-10.474,19.819c0,0,29.072-8.671,26.454-18.771
			c0,0-0.965-3.336-6.474-2.858C388.283,44.933,384.287,46.267,384.287,46.267z"/>
		<path d="M383.324,62.514c0,0,2.411-8.6,5.854-10.242c3.446-1.644,10.061-2.121,10.403-1.047l0.172,0.142l0.653-2.883
			c0,0,0.104-1.024-0.723-2.097c-0.828-1.072-2.514-2.263-6.89-1.858c-4.375,0.406-8.508,1.739-8.508,1.739l-5.065,9.481
			l-5.27,10.242L383.324,62.514z"/>
	</g>
	<g>
		
			<linearGradient id="SVGID_1_" gradientUnits="userSpaceOnUse" x1="165.7041" y1="-645.7063" x2="165.7041" y2="-690.1755" gradientTransform="matrix(1 0 0 -1 25.0195 -634.4106)">
			<stop  offset="0.0562" style="stop-color:#FF0000"/>
			<stop  offset="0.0657" style="stop-color:#FF0500"/>
			<stop  offset="0.163" style="stop-color:#FF3000"/>
			<stop  offset="0.2571" style="stop-color:#FF5200"/>
			<stop  offset="0.3459" style="stop-color:#FF6B00"/>
			<stop  offset="0.4273" style="stop-color:#FF7A00"/>
			<stop  offset="0.4944" style="stop-color:#FF7F00"/>
			<stop  offset="0.5482" style="stop-color:#FF9200"/>
			<stop  offset="0.6549" style="stop-color:#FFB300"/>
			<stop  offset="0.7135" style="stop-color:#FFBF00"/>
		</linearGradient>
		<path fill="url(#SVGID_1_)" stroke="#000000" d="M149.321,75.424c0,0,10.609-1.046,42.578-14.388
			c31.967-13.341,36.927-21.916,35.825-27.92c-1.101-6.003-5.374-6.861-9.646-7.337c-4.271-0.477-12.402,0.762-18.739,2.669
			c-6.337,1.906-8.818,2.572-9.508,0.476c-0.688-2.096,2.206-6.193,15.018-10.005c12.815-3.811,22.597-4.383,22.597-4.383
			l1.928-0.096l-0.895-0.382l1.31-0.238l-0.482-0.477l0.688-0.381l-2.342-0.048c0,0,1.309-0.858,2.205-0.858
			c0.897,0-0.758-0.666-0.758-0.666l0.895-0.381l-1.86-0.238c0,0,2.067-2.287,6.476-2.716c0,0-3.167-0.572-7.097-0.572l0.208-0.571
			h-1.034l0.208-0.811h-2.068l1.86-0.763l-0.756-0.333l0.894-0.476c0,0-1.376-0.191-1.17-0.238c0.208-0.048,2.205-0.477,2.205-0.477
			l-2.343-0.667l0.346-0.762c0,0-10.197,0.287-21.841,3.145c-11.642,2.858-21.357,8.052-26.316,12.912
			c-4.961,4.86-14.056,14.389-3.032,20.964c0,0,7.028,2.858,14.605,0.094c7.579-2.763,18.051-4.763,19.565-2.382
			c1.514,2.382-9.094,8.576-13.64,10.673c-4.548,2.096-32.105,13.246-48.365,15.341c0,0-0.138,0.479,1.929,0.953
			c2.066,0.476,5.925,1.048,5.925,1.048l-2.343,1.811l2.206-0.097l-3.72,1.716l4.409,0.095l-2.344,2.003l5.098-0.479l7.578-3.524
			C165.581,66.658,150.149,75.329,149.321,75.424z"/>
		
			<linearGradient id="SVGID_2_" gradientUnits="userSpaceOnUse" x1="218.4292" y1="-649.5383" x2="218.4292" y2="-679.5037" gradientTransform="matrix(1 0 0 -1 25.0195 -634.4106)">
			<stop  offset="0.0562" style="stop-color:#FF0000"/>
			<stop  offset="0.0657" style="stop-color:#FF0500"/>
			<stop  offset="0.163" style="stop-color:#FF3000"/>
			<stop  offset="0.2571" style="stop-color:#FF5200"/>
			<stop  offset="0.3459" style="stop-color:#FF6B00"/>
			<stop  offset="0.4273" style="stop-color:#FF7A00"/>
			<stop  offset="0.4944" style="stop-color:#FF7F00"/>
			<stop  offset="0.5482" style="stop-color:#FF9200"/>
			<stop  offset="0.6549" style="stop-color:#FFB300"/>
			<stop  offset="0.7135" style="stop-color:#FFBF00"/>
		</linearGradient>
		<path fill="url(#SVGID_2_)" stroke="#000000" d="M232.455,44.202l5.696-14.737c0,0-3.308,0.127-5.145,0.635
			c-1.837,0.508-3.399-0.191-2.57-1.08c0.826-0.89,3.213-2.604,1.836-2.478c-1.377,0.127-1.377,0.127-1.377,0.127
			s1.837-1.779,1.837-2.351s-1.01-0.572-1.653-0.19c-0.643,0.382-2.113,0.382-2.021-0.191c0.091-0.57-1.193-1.715,11.391-5.271
			s18.647-4.446,17.176-2.604c-1.469,1.843-2.296,1.906-2.296,1.906s1.379-0.444,1.471,0.19c0.09,0.635-1.01,1.144-1.01,1.144
			s-1.195,0.826,0.551,1.842c1.746,1.015,1.377,1.524,1.377,1.524s-7.073,1.906-7.715,3.241c-0.644,1.334-9.001,16.389-9.001,16.389
			l-0.185,2.096l-2.756,0.699l-1.102-1.079l-0.092,0.698l-0.735-0.253l-0.458,0.316l-3.584,0.063L232.455,44.202z"/>
		
			<linearGradient id="SVGID_3_" gradientUnits="userSpaceOnUse" x1="242.1162" y1="-646.0432" x2="242.1162" y2="-675.9451" gradientTransform="matrix(1 0 0 -1 25.0195 -634.4106)">
			<stop  offset="0.0562" style="stop-color:#FF0000"/>
			<stop  offset="0.0657" style="stop-color:#FF0500"/>
			<stop  offset="0.163" style="stop-color:#FF3000"/>
			<stop  offset="0.2571" style="stop-color:#FF5200"/>
			<stop  offset="0.3459" style="stop-color:#FF6B00"/>
			<stop  offset="0.4273" style="stop-color:#FF7A00"/>
			<stop  offset="0.4944" style="stop-color:#FF7F00"/>
			<stop  offset="0.5482" style="stop-color:#FF9200"/>
			<stop  offset="0.6549" style="stop-color:#FFB300"/>
			<stop  offset="0.7135" style="stop-color:#FFBF00"/>
		</linearGradient>
		<path fill="url(#SVGID_3_)" stroke="#000000" d="M257.624,16.823l1.747-0.826l-1.011-0.127c0,0,8.544-2.922,12.768-3.812
			c4.226-0.889,10.93-0.444,11.666,1.906c0.735,2.351,0.735,5.844-3.308,8.513c-4.04,2.668-3.307,2.033-3.307,2.033
			s1.011,9.085,3.674,12.325l-2.205-0.064l-1.193,0.636l-2.846-0.636l-1.653,0.953c0,0-4.684-11.436-4.594-12.641
			c0.092-1.207,5.973-4.193,5.973-5.717c0,0-2.941-0.317-3.859,0.254c-0.918,0.571-7.808,19.058-9.001,20.646l-1.654-0.19
			l-1.194,0.317h-0.735l-2.296,1.143l-0.735-0.316l-1.561-0.064l0.09-1.207l-1.286-0.19l9.095-16.452l-2.389-0.255
			c0,0,2.297-1.588,1.284-1.715c-1.011-0.128-1.284-0.572-1.284-0.572l1.376-1.208c0,0,0.919-0.635,0.369-1.334l-2.665-0.699
			L257.624,16.823z"/>
		
			<linearGradient id="SVGID_4_" gradientUnits="userSpaceOnUse" x1="267.7832" y1="-642.7439" x2="267.7832" y2="-668.7542" gradientTransform="matrix(1 0 0 -1 25.0195 -634.4106)">
			<stop  offset="0.0562" style="stop-color:#FF0000"/>
			<stop  offset="0.0657" style="stop-color:#FF0500"/>
			<stop  offset="0.163" style="stop-color:#FF3000"/>
			<stop  offset="0.2571" style="stop-color:#FF5200"/>
			<stop  offset="0.3459" style="stop-color:#FF6B00"/>
			<stop  offset="0.4273" style="stop-color:#FF7A00"/>
			<stop  offset="0.4944" style="stop-color:#FF7F00"/>
			<stop  offset="0.5482" style="stop-color:#FF9200"/>
			<stop  offset="0.6549" style="stop-color:#FFB300"/>
			<stop  offset="0.7135" style="stop-color:#FFBF00"/>
		</linearGradient>
		<path fill="url(#SVGID_4_)" stroke="#000000" d="M290.693,9.453c0,0,13.228-1.524,14.516-1.016
			c1.285,0.508-0.552,1.143-0.92,1.397c-0.366,0.255,0.275,1.207,0.275,1.207l-0.918,1.27l0.273,0.382l-1.561,0.699l-8.635,2.287
			l-0.551,1.906l7.348-1.08c0,0-0.093,0.827-0.917,1.208c-0.829,0.381,0.735,0.699,0.641,0.953c-0.09,0.254-1.927,1.843-2.02,2.668
			s-0.552,1.271-2.112,1.46c-1.561,0.19-5.971,1.207-5.971,1.207l-0.277,2.097c0,0,7.901-1.907,8.729-1.843
			c0.828,0.064,0.274,0.509,0.093,0.763c-0.186,0.254-1.839,1.906-1.839,2.478s-0.273,0.699-0.551,0.954
			c-0.276,0.254-0.737,0.888-0.644,1.46c0.091,0.573,0.551,1.08,0,1.208c-0.551,0.127-0.644,1.27-0.644,1.27
			s-8.175,0.89-9.827,1.525c-1.654,0.636-5.236,0.382-5.236,0.382s2.665-13.15,3.492-16.01c0.826-2.857,2.111-6.034,2.111-6.034
			S285.549,10.216,290.693,9.453z"/>
		
			<linearGradient id="SVGID_5_" gradientUnits="userSpaceOnUse" x1="285.7759" y1="-639.717" x2="285.7759" y2="-666.4221" gradientTransform="matrix(1 0 0 -1 25.0195 -634.4106)">
			<stop  offset="0.0562" style="stop-color:#FF0000"/>
			<stop  offset="0.0657" style="stop-color:#FF0500"/>
			<stop  offset="0.163" style="stop-color:#FF3000"/>
			<stop  offset="0.2571" style="stop-color:#FF5200"/>
			<stop  offset="0.3459" style="stop-color:#FF6B00"/>
			<stop  offset="0.4273" style="stop-color:#FF7A00"/>
			<stop  offset="0.4944" style="stop-color:#FF7F00"/>
			<stop  offset="0.5482" style="stop-color:#FF9200"/>
			<stop  offset="0.6549" style="stop-color:#FFB300"/>
			<stop  offset="0.7135" style="stop-color:#FFBF00"/>
		</linearGradient>
		<path fill="url(#SVGID_5_)" stroke="#000000" d="M306.862,8.374c0,0-10.565,22.932-8.728,23.568
			c1.837,0.636,17.085-3.304,17.085-3.304l0.187-1.017l2.478-0.952l-0.274-1.525l-0.828-0.636l1.195-0.7l-1.195-0.253l1.103-1.398
			c0,0-7.349,1.778-8.909,1.525c-1.562-0.254-0.09-1.968,1.012-2.541c1.102-0.571,6.612-1.778,7.44-2.287
			c0.827-0.509,0.274-0.952,0.274-0.952l1.838-0.763l-0.092-1.398l-0.824-0.571l1.649-1.652l-7.347,0.572
			c0,0-0.646-0.572,0.09-1.334c0.736-0.762,3.309-0.953,4.591-1.079c1.286-0.128,4.409-0.89,4.5-1.843
			c0.094-0.953,1.286-0.953,1.286-0.953l-0.365-1.079l0.646-1.08V5.514c0,0-0.46-0.508-3.675,0.063
			C316.781,6.151,307.321,7.548,306.862,8.374z"/>
		
			<linearGradient id="SVGID_6_" gradientUnits="userSpaceOnUse" x1="308.6138" y1="-637.8831" x2="308.6138" y2="-666.7971" gradientTransform="matrix(1 0 0 -1 25.0195 -634.4106)">
			<stop  offset="0.0562" style="stop-color:#FF0000"/>
			<stop  offset="0.0657" style="stop-color:#FF0500"/>
			<stop  offset="0.163" style="stop-color:#FF3000"/>
			<stop  offset="0.2571" style="stop-color:#FF5200"/>
			<stop  offset="0.3459" style="stop-color:#FF6B00"/>
			<stop  offset="0.4273" style="stop-color:#FF7A00"/>
			<stop  offset="0.4944" style="stop-color:#FF7F00"/>
			<stop  offset="0.5482" style="stop-color:#FF9200"/>
			<stop  offset="0.6549" style="stop-color:#FFB300"/>
			<stop  offset="0.7135" style="stop-color:#FFBF00"/>
		</linearGradient>
		<path fill="url(#SVGID_6_)" stroke="#000000" d="M325.966,5.768c0,0,7.899-3.43,21.77-1.905c0,0,0.826,0.635,0,0.953
			c-0.827,0.316-2.113,0.444-1.379,0.952c0.737,0.509,1.015,1.081,0.097,1.525c-0.924,0.446-3.31,1.145-2.114,1.398
			c1.193,0.253,3.397,1.398,1.93,1.398c-1.47,0-5.515,0.19-5.515,0.19l-11.849,20.9l-1.745,0.064l-0.737,0.826l-2.021,0.318v-2.16
			c0,0-3.032,1.143-3.491,1.143c-0.46,0-1.746-0.254-1.746-0.254l10.931-19.058c0,0,0.829-0.825-0.552-0.762
			c-1.376,0.063-6.063,0.635-6.521,0.126c-0.459-0.508,1.012-2.032,2.295-2.985c1.285-0.953,0.737-1.08,0.737-1.652
			C326.059,6.213,325.966,5.768,325.966,5.768z"/>
		
			<linearGradient id="SVGID_7_" gradientUnits="userSpaceOnUse" x1="218.8735" y1="-683.2683" x2="221.8218" y2="-720.8586" gradientTransform="matrix(1 0 0 -1 25.0195 -634.4106)">
			<stop  offset="0.0562" style="stop-color:#FF0000"/>
			<stop  offset="0.0657" style="stop-color:#FF0500"/>
			<stop  offset="0.163" style="stop-color:#FF3000"/>
			<stop  offset="0.2571" style="stop-color:#FF5200"/>
			<stop  offset="0.3459" style="stop-color:#FF6B00"/>
			<stop  offset="0.4273" style="stop-color:#FF7A00"/>
			<stop  offset="0.4944" style="stop-color:#FF7F00"/>
			<stop  offset="0.5482" style="stop-color:#FF9200"/>
			<stop  offset="0.6549" style="stop-color:#FFB300"/>
			<stop  offset="0.7135" style="stop-color:#FFBF00"/>
		</linearGradient>
		<path fill="url(#SVGID_7_)" stroke="#000000" d="M192.725,65.611c0,0,6.063-2.096,6.615-3.812
			c0.552-1.716,0.965-2.764,5.098-4.383c4.135-1.619,80.055-24.108,97.966-22.965c0,0-5.925,1.524-7.3,2.668
			c-1.378,1.144-6.339,2.954-9.371,3.24c0,0,8.543-2.096,7.993-0.668c-0.553,1.431-3.997,1.431-3.169,2.288
			c0.827,0.857,1.377,1.144,0.827,1.715c-0.553,0.571-35.827,9.338-35.827,9.338s-6.476,1.523-8.128,3.81
			c-1.655,2.289-0.965,3.338,0.964,2.193c1.929-1.143,10.886-4.002,9.646-2.477c-1.241,1.524-4.686,2.667-4.686,2.667
			s4.822-0.573,3.995,0.19c-0.828,0.764-1.653,1.333-1.653,1.333s0.964,1.62,0.274,1.62c-0.688,0-1.102,0.764-1.102,0.764
			s0.551,1.047-0.551,1.428c-1.102,0.382-8.543,2.954-9.508,3.145c-0.964,0.19-1.792-0.284-4.27,4.1
			c-2.481,4.383-6.063,11.435-6.063,13.054c0,1.62-0.551,2.192-0.551,2.192l-1.655,0.095l-2.618,1.334l-1.375-2.097l-0.965,1.049
			l-1.514-1.049v-1.714h-2.342l0.275-1.812c0,0-0.275-1.714,0.965-3.335c1.24-1.62,3.582-5.719,2.754-6.479
			c-0.826-0.763-7.714,4.002-14.879,3.908c0,0,8.131-3.622,9.37-4.573c0,0-5.1,0.761-5.926,0.761c0,0,3.445-2.096,4.409-3.048
			c0.965-0.951,1.378-2.001,3.308-2.572c1.928-0.573,5.786-2.382,6.477-4.099c0.688-1.716,0.963-2.952,0.963-2.952
			s-27.695,9.336-32.932,12.101c-5.236,2.763-5.098,0.285-2.894-0.952c2.206-1.237,2.068-2.286,2.068-2.762
			c0-0.479-0.415-0.383-0.415-0.383l1.655-0.858c0,0-9.646,3.239-12.399,3.336c0,0-1.241-0.478,1.376-1.238
			c2.619-0.764,6.614-3.05,6.614-3.05s-4.41,0.763-4.132,0.286C190.383,66.47,192.725,65.611,192.725,65.611z"/>
		
			<linearGradient id="SVGID_8_" gradientUnits="userSpaceOnUse" x1="234.4526" y1="-685.8025" x2="237.1796" y2="-720.5717" gradientTransform="matrix(1 0 0 -1 25.0195 -634.4106)">
			<stop  offset="0.0562" style="stop-color:#FF0000"/>
			<stop  offset="0.0657" style="stop-color:#FF0500"/>
			<stop  offset="0.163" style="stop-color:#FF3000"/>
			<stop  offset="0.2571" style="stop-color:#FF5200"/>
			<stop  offset="0.3459" style="stop-color:#FF6B00"/>
			<stop  offset="0.4273" style="stop-color:#FF7A00"/>
			<stop  offset="0.4944" style="stop-color:#FF7F00"/>
			<stop  offset="0.5482" style="stop-color:#FF9200"/>
			<stop  offset="0.6549" style="stop-color:#FFB300"/>
			<stop  offset="0.7135" style="stop-color:#FFBF00"/>
		</linearGradient>
		<path fill="url(#SVGID_8_)" stroke="#000000" d="M248.531,82.477c0,0,5.374-20.774,15.846-28.206c0,0,1.24-0.477,2.067-0.095
			c0.826,0.383,3.995-3.906,5.098-3.717c1.103,0.191-0.966,2.858-0.689,3.24c0.274,0.381,1.792-1.429,1.93-0.764
			c0.138,0.668-0.276,1.239,0,1.525c0.275,0.286,0.55,0.478,0.138,0.764c-0.414,0.285-1.378,2.572-2.755,3.906
			c-1.378,1.335-8.542,10.101-10.886,17.912c-2.342,7.814-3.031,9.339-3.859,9.626c-0.827,0.285-1.791-1.049-1.791-1.049h-1.241
			v-2.573l-1.515,1.525c0,0,0.276-5.05,1.655-6.574C252.526,77.998,249.218,83.716,248.531,82.477z"/>
		
			<linearGradient id="SVGID_9_" gradientUnits="userSpaceOnUse" x1="257.2344" y1="-685.4685" x2="259.8782" y2="-719.178" gradientTransform="matrix(1 0 0 -1 25.0195 -634.4106)">
			<stop  offset="0.0562" style="stop-color:#FF0000"/>
			<stop  offset="0.0657" style="stop-color:#FF0500"/>
			<stop  offset="0.163" style="stop-color:#FF3000"/>
			<stop  offset="0.2571" style="stop-color:#FF5200"/>
			<stop  offset="0.3459" style="stop-color:#FF6B00"/>
			<stop  offset="0.4273" style="stop-color:#FF7A00"/>
			<stop  offset="0.4944" style="stop-color:#FF7F00"/>
			<stop  offset="0.5482" style="stop-color:#FF9200"/>
			<stop  offset="0.6549" style="stop-color:#FFB300"/>
			<stop  offset="0.7135" style="stop-color:#FFBF00"/>
		</linearGradient>
		<path fill="url(#SVGID_9_)" stroke="#000000" d="M298.959,56.462c0,0-1.929-0.095-2.617,0.668
			c-0.688,0.765-0.827,1.143-1.79,1.143c-0.967,0-12.264,1.526-14.33,5.052c-2.065,3.525-4.134,6.192-1.38,7.051
			c2.757,0.858,8.406,0.858,6.339-0.856l-2.617-0.383l2.892-1.047l-1.378-1.144l1.378-0.383l-3.443-0.284
			c0,0-0.275-0.856,5.373-2.858c5.648-2.001,14.466-3.335,13.503-2.479c-0.966,0.857-2.344,0.857-1.655,1.907
			c0.689,1.048,0.967,1.428,0.554,1.811c-0.413,0.381-0.69,1.047-0.413,1.523c0.274,0.477,0.826,1.048,0,1.048
			c-0.827,0-1.104,0.095-0.827,0.572c0.274,0.478,0.274,1.144-0.554,1.144c-0.825,0-4.134,0.667-4.96,1.905
			c-0.827,1.24-6.889,13.818-6.889,13.818s-1.377-0.857-1.377-1.143c0,0-0.139,0.478-0.827,0.478c-0.689,0-1.516-1.239-1.516-1.239
			s-2.618,0.479-3.308,0.285l1.376-2.667c0,0-10.609-0.477-14.33-4.67c-3.72-4.192,3.031-13.148,6.337-16.484
			c3.308-3.334,9.095-6.67,19.429-8.48c10.333-1.81,9.231-0.858,8.405,0c-0.829,0.857,0,1.334,0.689,1.334
			c0.69,0-0.555,0.477-1.378,0.857c-0.827,0.384-0.414,1.907-1.791,2.097c-1.378,0.192-4.409,1.05-4.409,1.05
			S300.199,55.225,298.959,56.462z"/>
		
			<linearGradient id="SVGID_10_" gradientUnits="userSpaceOnUse" x1="287.7271" y1="-678.8508" x2="290.3831" y2="-712.7161" gradientTransform="matrix(1 0 0 -1 25.0195 -634.4106)">
			<stop  offset="0.0562" style="stop-color:#FF0000"/>
			<stop  offset="0.0657" style="stop-color:#FF0500"/>
			<stop  offset="0.163" style="stop-color:#FF3000"/>
			<stop  offset="0.2571" style="stop-color:#FF5200"/>
			<stop  offset="0.3459" style="stop-color:#FF6B00"/>
			<stop  offset="0.4273" style="stop-color:#FF7A00"/>
			<stop  offset="0.4944" style="stop-color:#FF7F00"/>
			<stop  offset="0.5482" style="stop-color:#FF9200"/>
			<stop  offset="0.6549" style="stop-color:#FFB300"/>
			<stop  offset="0.7135" style="stop-color:#FFBF00"/>
		</linearGradient>
		<path fill="url(#SVGID_10_)" stroke="#000000" d="M307.78,47.791c0,0-2.206,3.24-4.409,10.389
			c-2.205,7.146-6.198,16.961-5.375,16.484c0.826-0.479,2.342-2.193,2.342-2.193s-1.24,2.286-0.139,2.286
			c1.104,0,2.757-0.856,2.757-0.856s-1.928,3.62-1.928,4.098s-0.964,1.144,0.274,1.334c1.242,0.191,0.828-0.284,1.93-1.524
			c1.101-1.239,2.067-0.571,2.067-1.619s5.786-12.389,5.786-12.389l3.306-0.285c0,0-3.858,8.576-3.169,8.862
			c0.69,0.285,2.479-0.667,2.479-0.667s-1.375,3.431-0.272,2.952c1.102-0.477,1.375-2.096,1.375-2.096s0.555,1.143,0.966,1.427
			c0.414,0.287,2.479-1.236,3.169-2.382c0.691-1.144,9.921-24.012,9.921-24.012s0.688-1.715,1.103-2.288
			c0.413-0.571-1.378-0.667-1.378-0.667s0.275-1.81-0.688-1.334c-0.968,0.477-1.654,1.144-1.654,1.144s-0.831,0-1.377,0.477
			c-0.555,0.477-0.828,0.762-0.828,0.762s-2.479-0.096-2.757,0.667c-0.275,0.763-3.443,7.146-3.721,7.719
			c-0.275,0.571-3.444,1.716-4.27,1.81c-0.829,0.097,0.825-4.954,1.653-6.479c0.826-1.525,2.616-3.62,1.653-3.431
			c-0.965,0.19-1.378,0.478-1.928,0.763c-0.554,0.287,0-0.094-0.968-0.285c-0.963-0.19-0.825,0.285-1.24,0.572
			c-0.412,0.285-1.24,1.047-1.652,0.857c-0.413-0.19-0.413-0.19-0.69,0.095C309.845,48.268,307.78,47.791,307.78,47.791z"/>
		
			<linearGradient id="SVGID_11_" gradientUnits="userSpaceOnUse" x1="316.9858" y1="-662.4441" x2="321.3309" y2="-717.8433" gradientTransform="matrix(1 0 0 -1 25.0195 -634.4106)">
			<stop  offset="0.0562" style="stop-color:#FF0000"/>
			<stop  offset="0.0657" style="stop-color:#FF0500"/>
			<stop  offset="0.163" style="stop-color:#FF3000"/>
			<stop  offset="0.2571" style="stop-color:#FF5200"/>
			<stop  offset="0.3459" style="stop-color:#FF6B00"/>
			<stop  offset="0.4273" style="stop-color:#FF7A00"/>
			<stop  offset="0.4944" style="stop-color:#FF7F00"/>
			<stop  offset="0.5482" style="stop-color:#FF9200"/>
			<stop  offset="0.6549" style="stop-color:#FFB300"/>
			<stop  offset="0.7135" style="stop-color:#FFBF00"/>
		</linearGradient>
		<path fill="url(#SVGID_11_)" stroke="#000000" d="M308.194,44.074c0,0,8.952-1.429,13.501-2.763
			c4.547-1.334,13.778-4.383,12.955-2.097c-0.831,2.287-14.057,35.542-14.057,37.26c0,1.713,2.206-0.096,2.759,0.285
			c0.551,0.38-1.793,4.668-0.553,4.764c1.238,0.096,2.756-3.621,2.756-3.621s-1.793,7.051-1.103,7.241
			c0.689,0.191,3.444-6.29,3.583-7.337c0.138-1.047,10.884-29.539,13.087-34.305c2.205-4.764,3.446-7.813,5.237-8.193
			c1.791-0.382,16.81-3.24,17.085-3.717s-1.791-0.763-1.791-0.763s12.264-2.096,12.813-2.287c0.553-0.19,0.14-1.048,1.793-1.715
			c1.651-0.667,3.03-1.239,2.48-1.525c-0.551-0.287-7.854,0.572-9.784,0.953c-1.928,0.381-45.743,5.908-61.176,12.769
			c0,0,1.513,0.762,1.651,1.048s-4.269,2.477-3.167,2.667c1.101,0.19,2.341-1.048,2.477-0.477
			C308.882,42.837,307.641,43.885,308.194,44.074z"/>
		
			<linearGradient id="SVGID_12_" gradientUnits="userSpaceOnUse" x1="323.9233" y1="-674.656" x2="325.8287" y2="-698.9491" gradientTransform="matrix(1 0 0 -1 25.0195 -634.4106)">
			<stop  offset="0.0562" style="stop-color:#FF0000"/>
			<stop  offset="0.0657" style="stop-color:#FF0500"/>
			<stop  offset="0.163" style="stop-color:#FF3000"/>
			<stop  offset="0.2571" style="stop-color:#FF5200"/>
			<stop  offset="0.3459" style="stop-color:#FF6B00"/>
			<stop  offset="0.4273" style="stop-color:#FF7A00"/>
			<stop  offset="0.4944" style="stop-color:#FF7F00"/>
			<stop  offset="0.5482" style="stop-color:#FF9200"/>
			<stop  offset="0.6549" style="stop-color:#FFB300"/>
			<stop  offset="0.7135" style="stop-color:#FFBF00"/>
		</linearGradient>
		<path fill="url(#SVGID_12_)" stroke="#000000" d="M344.292,45.6c0,0-3.721,9.528-6.475,13.816
			c-2.759,4.288-5.649,6.575-4.27,6.479c1.374-0.094,20.393-3.716,20.666-4.097c0.275-0.383-0.273-1.239,0.14-1.716
			c0.411-0.477,0.964-1.43,0.274-1.619c-0.689-0.19-1.656-0.572-0.966-1.238c0.691-0.667,3.443-2.478,1.515-2.097
			c-1.929,0.382-7.44,1.81-8.267,1.906c-0.829,0.095,1.1-2.669,1.927-2.858c0.826-0.189,10.198-1.525,10.748-1.906
			c0.552-0.381,0-2.288,0.552-2.479c0.554-0.19,2.34-0.764-2.34-0.764l2.065-1.048c0,0-1.93-0.477-5.648,0.286
			c-3.721,0.762-2.067-0.096-2.067-0.096l0.688-1.715c0,0,10.335-2.001,10.888-2.479c0.551-0.477-0.139-0.667,0.551-0.763
			c0.688-0.094,1.238-0.763,0.136-0.953c-1.101-0.189,3.172-0.857,2.204-1.334c-0.963-0.477-5.785-0.477-5.785-0.477
			s2.48-0.571,2.065-1.048c-0.414-0.476-4.686,0.19-12.123,1.335c-7.442,1.143-9.507,1.905-8.544,2.383
			c0.964,0.476,1.102,0.476,0.413,0.952C341.951,44.552,339.885,45.314,344.292,45.6z"/>
		
			<linearGradient id="SVGID_13_" gradientUnits="userSpaceOnUse" x1="361.9058" y1="-660.6125" x2="366.7352" y2="-722.1881" gradientTransform="matrix(1 0 0 -1 25.0195 -634.4106)">
			<stop  offset="0.0562" style="stop-color:#FF0000"/>
			<stop  offset="0.0657" style="stop-color:#FF0500"/>
			<stop  offset="0.163" style="stop-color:#FF3000"/>
			<stop  offset="0.2571" style="stop-color:#FF5200"/>
			<stop  offset="0.3459" style="stop-color:#FF6B00"/>
			<stop  offset="0.4273" style="stop-color:#FF7A00"/>
			<stop  offset="0.4944" style="stop-color:#FF7F00"/>
			<stop  offset="0.5482" style="stop-color:#FF9200"/>
			<stop  offset="0.6549" style="stop-color:#FFB300"/>
			<stop  offset="0.7135" style="stop-color:#FFBF00"/>
		</linearGradient>
		<path fill="url(#SVGID_13_)" stroke="#000000" d="M360.137,33.879c0,0,6.202,0.858,5.649,0.858c-0.551,0-1.513,0.381-1.101,1.047
			c0.411,0.667,0,1.62-0.414,1.62c-0.413,0-0.552,0.857,2.341,0.572c2.896-0.286-1.791,0.381-1.376,0.857
			c0.414,0.477,2.616,0.286,2.616,0.286s-3.445,0.857-0.412,1.047c3.03,0.19,3.72,0.286,3.72,0.286l-11.572,21.248l-7.441,2.857
			c0,0,0.554,0.384,0.966,0.669c0.412,0.286-1.24,0.667-1.93,1.334c-0.689,0.668-0.827,0.952-1.239,1.238
			c-0.413,0.286-0.139,0.764-0.689,1.715c-0.556,0.951-3.722,1.333-2.896,1.62c0.827,0.285,7.717-2.002,7.853-1.239
			c0.139,0.764-9.368,10.674-9.093,11.245s4.273,0.38,5.237,0.094c0.966-0.285,1.652-0.857,2.342-0.285
			c0.688,0.571,1.655,1.047,2.479,0.763c0.827-0.287,2.205-0.571,2.205-0.571s0.551-1.24,1.379-0.671
			c0.826,0.573,3.029,1.241,3.307,0.953c0.271-0.284,7.576-15.342,7.576-15.342s4.41-0.952,6.614-1.714
			c2.203-0.764,1.791-1.144,5.237,1.43c3.442,2.572,17.774,18.485,47.533,19.058l0.414-2.858l1.652-0.19l0.139-2.762l3.723-0.574
			l-3.169-1.621l4.133-0.095l-1.103-2.19l1.93-1.145l-1.655-1.046l1.377-0.953c0,0-27.144,0.287-41.336-12.768
			c0,0,17.362-6.003,20.942-15.246c3.583-9.243-2.065-14.959-9.37-17.438c-7.302-2.477-27.558,2.097-35.271,4.288
			C363.72,32.45,360.137,33.879,360.137,33.879z"/>
		<path fill="#FFFFFF" d="M401.75,41.549l-1.756,2.716c0,0-3.443,3.406-6.13,4.858c-2.688,1.454-9.369,4.789-9.369,4.789
			l-0.206-3.599l3.411-6.908l2.649-2.239l6.2-0.715L401.75,41.549z"/>
		<path fill="none" stroke="#000000" d="M385.766,37.31l-10.474,19.819c0,0,29.076-8.67,26.456-18.771c0,0-0.965-3.335-6.474-2.857
			C389.763,35.975,385.766,37.31,385.766,37.31z"/>
		<path d="M384.803,53.557c0,0,2.413-8.601,5.854-10.244c3.448-1.644,10.061-2.119,10.403-1.048l0.173,0.144l0.652-2.883
			c0,0,0.106-1.025-0.723-2.096c-0.827-1.073-2.513-2.264-6.89-1.859c-4.376,0.405-8.508,1.739-8.508,1.739l-5.063,9.481
			l-5.269,10.243L384.803,53.557z"/>
	</g>
</g>
</svg>
