<?xml version="1.0" standalone="no"?>
<!DOCTYPE svg PUBLIC "-//W3C//DTD SVG 20010904//EN"
 "http://www.w3.org/TR/2001/REC-SVG-20010904/DTD/svg10.dtd">
<svg version="1.0" xmlns="http://www.w3.org/2000/svg"
 width="1000.000000pt" height="727.000000pt" viewBox="0 0 1000.000000 727.000000"
 preserveAspectRatio="xMidYMid meet">
<metadata>
Created by potrace 1.16, written by Peter Selinger 2001-2019
</metadata>
<g transform="translate(0.000000,727.000000) scale(0.100000,-0.100000)"
fill="#000000" stroke="none">
<path d="M4090 6290 c-145 -17 -320 -94 -444 -196 -120 -97 -228 -262 -278
-424 l-23 -75 -3 -955 -3 -955 25 -98 c89 -351 380 -606 736 -647 57 -7 246
-10 475 -8 l380 3 0 1680 0 1680 -400 1 c-220 1 -429 -2 -465 -6z m600 -1676
l0 -1416 -297 4 c-275 4 -303 6 -366 27 -78 25 -164 73 -224 126 -58 49 -136
169 -164 252 l-24 68 0 940 0 940 23 67 c63 182 219 330 402 382 81 22 91 23
383 25 l267 1 0 -1416z"/>
<path d="M4090 5591 c-137 -42 -223 -158 -224 -301 -1 -66 3 -84 32 -142 18
-37 47 -79 65 -94 98 -83 241 -104 349 -51 72 35 141 111 164 179 23 69 16
187 -15 247 -33 63 -103 126 -167 150 -56 21 -154 27 -204 12z"/>
<path d="M5305 6288 c-3 -7 -4 -764 -3 -1683 l3 -1670 335 1 c375 1 415 6 569
79 238 113 407 320 474 582 l22 88 0 935 c0 933 0 935 -22 1012 -48 170 -102
271 -201 379 -121 131 -263 216 -433 260 -75 20 -117 22 -411 26 -268 4 -329
2 -333 -9z m802 -1533 c60 -27 133 -95 161 -152 30 -58 43 -142 32 -209 -19
-117 -77 -196 -182 -248 -64 -32 -79 -36 -152 -36 -69 0 -90 4 -141 29 -78 37
-131 90 -167 168 -27 58 -30 71 -26 151 4 103 29 163 94 229 100 100 249 127
381 68z"/>
<path d="M7184 2406 c-181 -84 -158 -353 36 -410 180 -53 340 131 263 305 -51
114 -181 160 -299 105z m151 -80 c45 -19 75 -69 75 -125 0 -37 -6 -49 -39 -82
-32 -33 -45 -39 -80 -39 -109 0 -172 98 -123 189 20 37 73 71 110 71 12 0 38
-6 57 -14z"/>
<path d="M2540 2211 l0 -211 40 0 40 0 0 135 c0 74 3 135 8 134 4 0 52 -61
106 -135 l99 -135 39 3 c21 2 38 6 38 11 0 4 0 97 0 207 l0 200 -40 0 -39 0
-3 -135 -3 -135 -100 133 c-99 130 -101 132 -142 135 l-43 3 0 -210z"/>
<path d="M3235 2397 c-4 -13 -5 -107 -3 -208 l3 -184 48 -3 47 -3 0 210 0 211
-45 0 c-38 0 -45 -3 -50 -23z"/>
<path d="M3644 2407 c-2 -7 -3 -100 -2 -207 l3 -195 42 -3 42 -3 3 137 3 138
100 -137 100 -137 43 0 42 0 0 210 0 210 -40 0 -40 0 0 -130 c0 -71 -4 -130
-9 -130 -5 0 -53 59 -106 130 -96 128 -98 130 -136 130 -23 0 -42 -5 -45 -13z"/>
<path d="M4320 2375 l0 -44 68 -3 67 -3 3 -162 2 -163 45 0 45 0 0 165 0 165
65 0 65 0 0 45 0 45 -180 0 -180 0 0 -45z"/>
<path d="M4990 2210 l0 -210 160 0 160 0 0 40 0 40 -120 0 -120 0 0 45 0 45
109 0 c61 0 112 3 114 8 3 4 2 22 0 40 l-5 32 -109 0 -109 0 0 45 0 45 120 0
120 0 0 40 0 40 -160 0 -160 0 0 -210z"/>
<path d="M5660 2210 l0 -210 45 0 44 0 3 135 3 136 99 -136 99 -135 44 0 43 0
0 211 0 210 -42 -3 -43 -3 -5 -131 -5 -131 -100 133 -99 134 -43 0 -43 0 0
-210z"/>
<path d="M6397 2413 c-4 -3 -7 -98 -7 -210 l0 -203 113 0 c102 0 118 3 166 26
74 37 111 96 111 175 0 72 -10 97 -56 148 -47 52 -107 71 -229 71 -50 0 -95
-3 -98 -7z m244 -106 c68 -46 71 -138 8 -192 -26 -21 -40 -25 -100 -25 l-69 0
0 120 0 120 64 0 c49 0 70 -5 97 -23z"/>
<path d="M6153 1800 c-65 -13 -152 -60 -203 -110 -250 -244 -118 -660 228
-721 77 -14 172 1 251 38 56 27 166 124 160 141 -2 5 -31 32 -64 60 l-60 51
-23 -29 c-13 -17 -45 -42 -70 -58 -40 -23 -58 -27 -122 -27 -153 0 -249 94
-250 245 0 57 5 73 33 120 85 143 294 163 400 39 l33 -38 61 52 c34 29 62 56
62 60 1 4 -20 30 -45 58 -94 100 -248 147 -391 119z"/>
<path d="M2730 1776 c-148 -41 -232 -136 -217 -248 14 -107 93 -155 335 -204
184 -37 215 -52 220 -104 6 -58 -40 -87 -165 -105 -58 -9 -185 12 -262 42 -71
28 -64 31 -107 -50 -13 -26 -22 -52 -19 -57 8 -14 101 -46 189 -65 60 -13 106
-16 190 -13 226 11 337 91 337 247 1 139 -71 192 -337 246 -181 37 -225 61
-211 117 10 38 67 62 162 66 74 3 146 -9 251 -43 19 -6 24 1 48 60 15 37 25
69 23 71 -2 3 -48 16 -102 29 -110 28 -256 33 -335 11z"/>
<path d="M3334 1763 c3 -10 17 -61 31 -113 24 -85 168 -598 181 -643 5 -16 17
-17 101 -15 l96 3 71 252 c39 139 73 253 76 253 3 0 37 -114 75 -253 l71 -252
96 -3 97 -3 11 43 c7 24 56 199 111 389 54 191 99 350 99 353 0 3 -38 6 -84 6
l-84 0 -30 -112 c-17 -62 -50 -185 -73 -273 -23 -88 -45 -163 -49 -168 -3 -4
-32 84 -64 195 -33 112 -70 238 -83 281 l-24 78 -71 -3 -71 -3 -80 -277 c-45
-153 -84 -274 -87 -270 -4 4 -32 106 -64 227 -32 121 -64 244 -72 273 l-15 52
-85 0 c-77 0 -85 -2 -80 -17z"/>
<path d="M4650 1385 l0 -395 90 0 90 0 0 395 0 395 -90 0 -90 0 0 -395z"/>
<path d="M5020 1700 l0 -79 128 -3 127 -3 3 -313 2 -313 83 3 82 3 3 313 2
312 120 0 120 0 0 80 0 80 -335 0 -335 0 0 -80z"/>
<path d="M6775 1767 c-3 -6 -4 -183 -3 -392 l3 -380 83 -3 82 -3 0 161 0 160
185 0 185 0 0 -160 0 -160 80 0 80 0 0 395 0 395 -80 0 -80 0 0 -155 0 -155
-185 0 -185 0 0 155 0 155 -80 0 c-55 0 -82 -4 -85 -13z"/>
</g>
</svg>
