<?xml version="1.0" encoding="utf-8"?>
<!-- Generator: Adobe Illustrator 16.0.2, SVG Export Plug-In . SVG Version: 6.00 Build 0)  -->
<!DOCTYPE svg PUBLIC "-//W3C//DTD SVG 1.1//EN" "http://www.w3.org/Graphics/SVG/1.1/DTD/svg11.dtd">
<svg version="1.1" id="Ebene_1" xmlns="http://www.w3.org/2000/svg" xmlns:xlink="http://www.w3.org/1999/xlink" x="0px" y="0px"
	 width="566.929px" height="98.438px" viewBox="0 0 566.929 98.438" enable-background="new 0 0 566.929 98.438"
	 xml:space="preserve">
<g>
	<g>
		<g>
			<linearGradient id="SVGID_1_" gradientUnits="userSpaceOnUse" x1="305.7847" y1="74.1213" x2="300.8143" y2="88.4727">
				<stop  offset="0" style="stop-color:#F64646"/>
				<stop  offset="1" style="stop-color:#FF0000"/>
			</linearGradient>
			<polygon fill="url(#SVGID_1_)" points="311.826,73.419 309.091,71.393 308.897,71.393 304.226,71.393 300.23,73.419 			"/>
			<polygon fill="#851909" points="402.333,78.25 407.249,77.988 398.927,73.257 398.93,73.24 393.163,73.844 			"/>
			<polygon fill="#6B0A09" points="109.053,94.587 104.403,94.222 106.781,96.744 			"/>
			<g>
				<g>
					<polygon fill="#220A09" points="373.883,78.263 367.206,80.508 406.057,80.51 407.249,77.988 402.333,78.25 					"/>
					<polygon fill="#220A09" points="453.681,78.25 416.623,78.25 416.599,78.264 416.59,78.263 412.184,80.323 412.184,80.317 
						412.162,80.325 411.057,77.842 412.242,80.51 456.929,80.51 458.269,77.929 					"/>
					<linearGradient id="SVGID_2_" gradientUnits="userSpaceOnUse" x1="413.7827" y1="-2.9333" x2="413.7827" y2="78.3928">
						<stop  offset="0" style="stop-color:#E0441F"/>
						<stop  offset="0.5337" style="stop-color:#FF0000"/>
						<stop  offset="0.9888" style="stop-color:#890C08"/>
					</linearGradient>
					<path fill="url(#SVGID_2_)" d="M425.179,73.643l-0.022-0.007l0,0l-8.534,4.614h37.059l-9.511-5.046v-0.002l0,0l-12.941-31.3
						l-3.941-9.535l-2.175-5.252l-0.116-0.296l-4.175-10.092h-7.762h-15.711l9.422,4.983l-0.016,0l-2.479,5.74l-12.568,29.074
						l-4.956,11.467l-2.123,4.901l-10.746,5.37l28.45-0.013l-9.171-4.406l-0.021-0.008l3.289-8.071l3.368-8.262h15.849h4.035
						l0.01,0.018h0.021L425.179,73.643z M418.098,53.021H402.47h-1.403l9.444-20.033l0.277,0.697l5.309,13.308l2.233,5.609
						l0.167,0.419H418.098z"/>
					<linearGradient id="SVGID_3_" gradientUnits="userSpaceOnUse" x1="413.4282" y1="77.9153" x2="414.6245" y2="79.6431">
						<stop  offset="0" style="stop-color:#FF0000"/>
						<stop  offset="1" style="stop-color:#890C08"/>
					</linearGradient>
					<polygon fill="url(#SVGID_3_)" points="411.082,77.844 412.184,80.317 416.574,78.259 					"/>
					<polygon fill="#140E0F" points="425.113,27.116 427.288,32.368 431.229,41.903 444.17,73.202 445.996,70.576 445.996,70.576 
						434.366,41.139 431.212,33.16 429.489,28.802 429.056,27.707 426.253,20.615 425.113,17.731 423.824,14.463 422.159,15.719 
						421.302,16.367 420.822,16.727 424.997,26.82 					"/>
					<linearGradient id="SVGID_4_" gradientUnits="userSpaceOnUse" x1="392.0044" y1="15.5823" x2="430.864" y2="15.5823">
						<stop  offset="0" style="stop-color:#FFFFFF"/>
						<stop  offset="1" style="stop-color:#FF0000"/>
					</linearGradient>
					<polygon fill="url(#SVGID_4_)" points="397.349,16.727 413.06,16.727 420.822,16.727 421.297,16.364 422.153,15.713 
						423.824,14.437 420.42,14.437 419.245,14.437 411.392,14.437 399.435,14.437 394.414,14.437 396.306,15.922 397.335,16.727 
						397.349,16.727 					"/>
					<linearGradient id="SVGID_5_" gradientUnits="userSpaceOnUse" x1="392.9399" y1="15.1682" x2="404.9587" y2="22.3251">
						<stop  offset="0" style="stop-color:#FFFFFF"/>
						<stop  offset="1" style="stop-color:#FF0000"/>
					</linearGradient>
					<polygon fill="url(#SVGID_5_)" points="394.291,16.78 397.33,16.727 396.306,15.922 394.412,14.437 392.984,16.803 
						392.999,16.803 392.999,16.802 					"/>
					<linearGradient id="SVGID_6_" gradientUnits="userSpaceOnUse" x1="386.019" y1="20.4846" x2="414.6881" y2="18.0353">
						<stop  offset="0" style="stop-color:#FF0000"/>
						<stop  offset="1" style="stop-color:#890C08"/>
					</linearGradient>
					<polygon fill="url(#SVGID_6_)" points="406.739,21.715 406.755,21.711 406.755,21.711 397.335,16.727 397.335,16.727 
						397.33,16.727 397.335,16.727 394.289,16.78 392.999,16.803 393.52,17.095 402.503,22.162 406.739,21.711 					"/>
					<linearGradient id="SVGID_7_" gradientUnits="userSpaceOnUse" x1="403.4634" y1="14.2039" x2="383.9178" y2="79.324">
						<stop  offset="0" style="stop-color:#FFFFFF"/>
						<stop  offset="1" style="stop-color:#FF0000"/>
					</linearGradient>
					<path fill="url(#SVGID_7_)" d="M390.776,49c0,0-0.092,3.575-1.622,8.262c-1.144,3.508-3.097,7.637-6.423,11.361
						c-0.443,0.499-0.907,0.993-1.407,1.476l-0.517,1.165l3.813,1.623l2.115-4.894l4.957-11.465l12.566-29.082l2.48-5.732
						l-4.231,0.449l-0.004-0.001l-0.028,0.002l-2.103,4.766l-9.564,21.662c-0.003,0.016,0,0.031-0.003,0.043
						C390.793,48.759,390.785,48.877,390.776,49z"/>
					<linearGradient id="SVGID_8_" gradientUnits="userSpaceOnUse" x1="382.9839" y1="66.9299" x2="370.9599" y2="83.0041">
						<stop  offset="0" style="stop-color:#FFFFFF"/>
						<stop  offset="1" style="stop-color:#FF0000"/>
					</linearGradient>
					<path fill="url(#SVGID_8_)" d="M384.629,72.893l-0.01-0.006v0.006l-3.816-1.625l-2.622,1.472
						c-1.754,1.274-3.75,2.425-6.026,3.387l-3.71,2.083l-0.01,0.008l5.448,0.046L384.629,72.893z"/>
					<polygon fill="#220A09" points="393.142,73.836 393.163,73.844 398.93,73.24 401.87,64.115 403.442,59.221 412.355,59.221 
						416.278,59.221 416.917,61.261 419.498,57.503 415.644,57.503 399.799,57.503 396.431,65.765 					"/>
					<polygon fill="#F0290E" points="425.154,73.626 419.693,57.521 419.525,57.521 416.944,61.28 420.583,72.957 425.139,73.634 
											"/>
					<linearGradient id="SVGID_9_" gradientUnits="userSpaceOnUse" x1="402.9683" y1="67.0725" x2="430.8923" y2="83.0398">
						<stop  offset="0" style="stop-color:#FFFFFF"/>
						<stop  offset="1" style="stop-color:#FF0000"/>
					</linearGradient>
					<polygon fill="url(#SVGID_9_)" points="425.139,73.634 420.583,72.96 420.583,72.957 420.561,72.953 420.561,72.953 
						411.082,77.827 416.603,78.248 					"/>
					<linearGradient id="SVGID_10_" gradientUnits="userSpaceOnUse" x1="463.8452" y1="65.7522" x2="448.0283" y2="77.2321">
						<stop  offset="0" style="stop-color:#FF0000"/>
						<stop  offset="1" style="stop-color:#890C08"/>
					</linearGradient>
					<polygon fill="url(#SVGID_10_)" points="453.676,78.248 458.269,77.929 445.996,70.576 444.17,73.204 					"/>
					<path fill="#220A09" d="M408.035,50.861l-1.264,0.004l3.767-8.181l0.224,0.504v-0.017l-0.02-0.042l0.047-9.438l-0.277-0.704
						l-9.444,20.033l6.231-1.856C407.552,51.063,407.792,50.962,408.035,50.861z"/>
					<linearGradient id="SVGID_11_" gradientUnits="userSpaceOnUse" x1="399.2544" y1="38.2512" x2="422.708" y2="56.1928">
						<stop  offset="0" style="stop-color:#FFFFFF"/>
						<stop  offset="1" style="stop-color:#FF0000"/>
					</linearGradient>
					<path fill="url(#SVGID_11_)" d="M416.097,46.993l-5.309-13.302l-0.027,9.479l2.291,5.421l0.953,2.25l-5.66,0.022h-0.041
						l-1.006,0.3l-6.231,1.856h1.403h15.628c0.077-0.139,0.152-0.277,0.232-0.419L416.097,46.993z"/>
					<polygon fill="#890C08" points="368.435,78.217 367.206,80.508 373.883,78.263 					"/>
				</g>
				<g>
					<linearGradient id="SVGID_12_" gradientUnits="userSpaceOnUse" x1="324.2046" y1="17.303" x2="307.8708" y2="9.7508">
						<stop  offset="0" style="stop-color:#FFFFFF"/>
						<stop  offset="1" style="stop-color:#FF0000"/>
					</linearGradient>
					<polygon fill="url(#SVGID_12_)" points="323.857,16.267 323.246,15.724 322.151,14.753 321.844,14.483 321.873,14.483 
						321.844,14.459 320.415,15.812 319.851,16.346 319.356,16.814 319.592,16.814 324.472,16.814 					"/>
					<polygon fill="#EA1E27" points="325.136,49.13 324.275,49.13 320.484,49.13 320.478,49.137 321.893,50.031 323.266,50.903 
						323.739,50.689 324.808,50.198 325.902,49.701 327.157,49.13 					"/>
					<linearGradient id="SVGID_13_" gradientUnits="userSpaceOnUse" x1="320.5835" y1="49.6184" x2="308.795" y2="80.5625">
						<stop  offset="0" style="stop-color:#F64646"/>
						<stop  offset="1" style="stop-color:#FF0000"/>
					</linearGradient>
					<polygon fill="url(#SVGID_13_)" points="321.879,50.001 320.465,49.137 319.884,50.248 318.824,52.271 315.768,58.276 
						315.485,58.828 314.619,60.535 313.216,63.291 310.751,68.136 309.091,71.393 309.107,71.393 311.826,73.411 315.005,67.15 
						316.741,63.736 318.167,60.92 321.172,55.004 322.278,52.828 323.298,50.887 					"/>
					<linearGradient id="SVGID_14_" gradientUnits="userSpaceOnUse" x1="958.9243" y1="2181.6321" x2="-287.2523" y2="-2193.5403">
						<stop  offset="0" style="stop-color:#000000"/>
						<stop  offset="1" style="stop-color:#220A09"/>
					</linearGradient>
					<path fill="url(#SVGID_14_)" d="M349.471,20.335c0,0.016,0,1.356,0,3.603c0,0.603,0,1.274,0,1.999c0,2.652,0,6.07,0,9.861
						c0,5.008,0,10.663,0,16.065c0,2.393,0,4.728,0,6.939c0,1.04,0,2.053,0,3.029c0,1.511,0,2.944,0,4.245c0,4.822,0,8.023,0,8.043
						l3.815-2.758c0-0.009,0-1.807,0-4.697c0-3.333,0-8.122,0-13.322c0-0.339,0-0.685,0-1.022c0-1.601,0-3.227,0-4.858
						c0-0.2,0-0.398,0-0.597c0-0.824,0-1.646,0-2.464c0-1.859,0-3.697,0-5.467c0-4.622,0-8.776,0-11.67c0-0.623,0-1.188,0-1.686
						c0-1.559,0-2.467,0-2.468L349.471,20.335z"/>
					<linearGradient id="SVGID_15_" gradientUnits="userSpaceOnUse" x1="360.6147" y1="72.9465" x2="360.6147" y2="24.0868">
						<stop  offset="0" style="stop-color:#FFFFFF"/>
						<stop  offset="0.6966" style="stop-color:#FF0000"/>
						<stop  offset="1" style="stop-color:#220A09"/>
					</linearGradient>
					<path fill="url(#SVGID_15_)" d="M371.759,45.794c0-0.623-0.01-1.245-0.026-1.864c-0.27-9.786-6.172-16.014-6.172-16.014
						c-2.754-3.164-5.847-5.011-8.578-6.087c-0.437-0.17-0.86-0.323-1.277-0.458c-2.938-0.956-5.276-1.038-6.003-1.038
						c-0.15,0-0.231,0.003-0.231,0.003l3.815,2.774c0.883,0.334,1.701,0.713,2.476,1.125c0.317,0.169,0.621,0.341,0.927,0.522
						c0.115,0.071,0.228,0.147,0.339,0.219c9.961,6.264,10.411,18.686,10.411,18.686c0.261,2.763,0.087,5.53-0.29,8.281
						c-0.299,2.213-0.781,4.409-1.359,6.601c-0.306,1.167-0.621,2.269-1.273,3.381c-0.64,1.101-1.349,2.228-2.277,3.238
						c-0.875,0.956-1.807,1.784-2.728,2.516c-0.583,0.459-1.161,0.886-1.715,1.255c-2.479,1.65-4.51,2.428-4.51,2.428l-3.815,2.758
						c0.246-0.027,0.502-0.063,0.758-0.095c2.467-0.333,5.104-1.007,7.249-1.792c2.425-0.886,4.463-2.132,6.158-3.588
						c3.604-3.089,5.688-7.133,6.692-10.769c1.045-3.761,1.411-7.648,1.431-11.493l-0.169-0.251L371.759,45.794z"/>
					<linearGradient id="SVGID_16_" gradientUnits="userSpaceOnUse" x1="395.0122" y1="21.8206" x2="313.353" y2="19.5089">
						<stop  offset="0" style="stop-color:#FF0000"/>
						<stop  offset="1" style="stop-color:#E0441F"/>
					</linearGradient>
					<polygon fill="url(#SVGID_16_)" points="328.827,19.046 327.625,18.434 324.501,16.837 324.479,16.819 319.618,16.819 
						319.385,16.819 321.873,18.243 322.894,18.83 326.885,21.116 330.154,22.99 332.708,21.899 333.638,21.5 					"/>
					<linearGradient id="SVGID_17_" gradientUnits="userSpaceOnUse" x1="331.8901" y1="11.2927" x2="331.8901" y2="966.237">
						<stop  offset="0" style="stop-color:#F64646"/>
						<stop  offset="1" style="stop-color:#FF0000"/>
					</linearGradient>
					<polygon fill="url(#SVGID_17_)" points="333.642,21.502 332.711,21.899 330.139,23 330.152,24.359 330.165,27.18 
						330.194,31.674 330.234,38.239 330.237,38.933 330.26,42.665 330.26,43.304 330.304,49.514 330.386,63.14 330.439,72.499 
						333.642,73.406 333.642,63.643 333.642,49.514 333.642,42.316 333.642,41.703 333.642,40.603 333.642,39.871 333.642,25.96 
						333.642,22.053 333.642,21.504 					"/>
					<linearGradient id="SVGID_18_" gradientUnits="userSpaceOnUse" x1="354.9517" y1="-1.2429" x2="354.9517" y2="54.9302">
						<stop  offset="0" style="stop-color:#FFFFFF"/>
						<stop  offset="0.1966" style="stop-color:#E0441F"/>
						<stop  offset="0.5337" style="stop-color:#FF0000"/>
						<stop  offset="0.9888" style="stop-color:#890C08"/>
					</linearGradient>
					<path fill="url(#SVGID_18_)" d="M381.576,30.356c-0.718-1.031-1.532-2.032-2.469-2.973c0,0-2.357-2.492-6.881-5.045
						c-3.716-2.096-8.893-4.229-15.434-5.062c-0.425-0.054-0.851-0.102-1.282-0.144c-0.663-0.064-1.331-0.122-2.017-0.158
						l-10.678-0.051l-1.094-0.004l-17.165-0.08l3.138,1.598l1.199,0.613l4.777,2.437l-0.033,0.014l0.004,0.002l0.012-0.006v0.561
						v3.91v13.912v0.734V41.7v0.612v7.203v14.128v9.768l-0.012-0.004v0.013l-10.376,4.316h11.35h1.839h13.717
						c0,0,9.047,0.118,17.899-3.236c1.882-0.852,5.186-2.571,8.406-5.281c2.127-1.786,4.222-4,5.851-6.694
						c0,0,0.967-1.506,1.983-3.939c1.058-2.521,2.169-6.047,2.306-9.94C386.617,48.644,387.245,38.486,381.576,30.356z
						 M371.759,46.383c-0.02,3.845-0.386,7.732-1.431,11.493c-1.005,3.636-3.088,7.68-6.692,10.769
						c-1.695,1.456-3.733,2.702-6.158,3.588c-2.145,0.785-4.782,1.459-7.249,1.792c-0.461,0.09-0.758,0.134-0.758,0.095
						c0-0.02,0-3.221,0-8.043c0-1.301,0-2.734,0-4.245c0-0.977,0-1.989,0-3.029c0-2.212,0-4.547,0-6.939c0-5.402,0-11.057,0-16.065
						c0-3.791,0-7.209,0-9.861c0-0.725,0-1.396,0-1.999c0-2.246,0-3.586,0-3.603c0-0.018,0.089-0.017,0.231-0.003
						c0.727,0,3.065,0.082,6.003,1.038c0.417,0.135,0.841,0.288,1.277,0.458c2.731,1.076,5.824,2.924,8.578,6.087
						c0,0,5.902,6.229,6.172,16.014c0.017,0.62,0.026,1.241,0.026,1.864C371.765,45.99,371.759,46.185,371.759,46.383z"/>
					<polygon fill="#F5F9E5" points="328.187,73.102 323.266,77.736 333.642,73.419 330.428,72.508 					"/>
					<polygon fill="#220A09" points="327.966,62.637 327.655,49.59 327.645,49.116 327.188,49.116 325.935,49.688 324.839,50.186 
						323.773,50.673 323.298,50.887 323.298,51.529 323.298,52.801 323.298,61.696 323.298,64.864 323.298,65.221 323.266,77.736 
						328.221,73.086 					"/>
					<linearGradient id="SVGID_19_" gradientUnits="userSpaceOnUse" x1="298.2417" y1="7.7551" x2="298.2417" y2="64.0573">
						<stop  offset="0" style="stop-color:#FFFFFF"/>
						<stop  offset="0.1966" style="stop-color:#E0441F"/>
						<stop  offset="0.5337" style="stop-color:#FF0000"/>
						<stop  offset="0.9888" style="stop-color:#890C08"/>
					</linearGradient>
					<polygon fill="url(#SVGID_19_)" points="322.309,52.789 321.198,54.985 318.178,60.924 316.753,63.737 315.021,67.144 
						311.836,73.419 311.826,73.419 300.23,73.419 300.23,70.567 300.23,62.574 300.23,61.548 300.23,60.984 300.23,60.747 
						300.23,59.414 300.23,58.771 300.23,56.068 300.23,54.16 300.23,53.254 300.23,49.902 300.23,49.262 300.23,48.718 
						300.23,48.08 300.23,40.922 300.23,21.478 300.23,20.921 307.352,17.621 308.048,17.3 309.548,16.605 309.535,16.605 
						309.538,16.604 307.204,16.605 306.094,16.605 285.053,16.62 284.417,16.62 273.202,16.628 283.351,20.921 283.364,25.132 
						283.42,42.981 283.475,58.781 283.511,69.424 283.523,72.837 273.146,77.968 323.266,77.736 323.313,65.251 323.324,64.883 
						323.337,61.699 323.298,52.823 323.313,51.545 323.313,50.836 					"/>
					<polygon fill="#220A09" points="312.367,16.542 311.432,16.561 309.548,16.605 308.048,17.3 307.352,17.621 300.23,20.921 
						300.23,21.478 300.23,40.922 300.23,48.08 300.23,48.718 300.23,49.262 300.23,49.902 300.23,53.254 300.23,54.16 
						300.23,56.068 300.23,58.771 300.23,59.414 300.23,60.747 300.23,60.984 300.23,61.548 300.23,62.574 300.23,70.567 
						300.23,73.419 304.226,71.393 304.217,69.645 304.203,62.643 304.198,61.531 304.193,60.961 304.193,60.351 304.193,60.17 
						304.193,59.622 304.186,57.623 304.182,57.061 304.172,53.073 304.168,52.257 304.168,51.696 304.162,49.056 304.158,48.51 
						304.153,47.627 304.153,47.038 304.15,45.337 304.146,44.76 304.143,42.716 304.143,42.066 304.135,40.676 304.079,21.533 
						305.432,20.896 308.381,19.504 309.132,19.15 310.68,18.42 311.655,17.961 314.779,16.486 					"/>
					<polygon fill="#96290A" points="313.7,15.326 313.254,14.844 312.876,14.437 309.552,16.604 309.548,16.605 311.432,16.561 
						312.367,16.542 314.779,16.486 					"/>
					<linearGradient id="SVGID_20_" gradientUnits="userSpaceOnUse" x1="280.457" y1="15.6501" x2="270.0067" y2="30.4297">
						<stop  offset="0.0955" style="stop-color:#FF0000"/>
						<stop  offset="1" style="stop-color:#220A09"/>
					</linearGradient>
					<polygon fill="url(#SVGID_20_)" points="276.981,21.06 278.667,21.731 279.364,21.885 283.351,20.921 273.146,16.628 
						276.981,21.202 					"/>
					<polygon fill="#F33A1A" points="279.364,21.885 279.292,21.904 279.292,21.98 279.36,22.007 279.36,23.595 279.36,24.713 
						279.36,26.414 279.36,43.65 279.36,59.77 279.36,68.277 279.36,71.681 279.292,71.718 279.292,71.774 283.523,72.837 
						283.511,69.424 283.475,58.781 283.42,42.981 283.364,25.132 283.351,20.921 279.446,21.904 					"/>
					<polygon fill="#F9F4F6" points="279.292,71.774 277.686,72.588 276.743,73.098 276.743,73.065 276.677,73.098 273.146,77.968 
						283.523,72.837 					"/>
					<g>
						<polygon fill="#220A09" points="260.98,20.259 258.177,20.259 256.905,20.259 252.668,20.259 251.396,20.259 250.506,20.259 
							249.243,20.259 247.848,20.259 246.578,20.259 244.179,20.259 242.911,20.259 241.956,20.259 242.851,20.761 243.927,21.364 
							245.446,22.216 245.446,22.233 246.271,22.239 247.576,22.247 248.91,22.258 250.202,22.266 251.416,22.274 252.69,22.284 
							256.739,22.314 258.01,22.323 258.084,22.323 258.083,22.321 						"/>
						<linearGradient id="SVGID_21_" gradientUnits="userSpaceOnUse" x1="243.7012" y1="-8.4631" x2="243.7012" y2="42.9047">
							<stop  offset="0" style="stop-color:#FF0000"/>
							<stop  offset="1" style="stop-color:#220A09"/>
						</linearGradient>
						<polygon fill="url(#SVGID_21_)" points="243.921,21.375 242.847,20.774 241.956,20.274 241.956,22.126 241.956,23.115 
							241.956,23.965 241.956,24.829 241.956,25.677 241.956,26.543 241.956,26.759 241.956,27.612 241.956,33.969 241.956,44.517 
							245.446,42.086 245.446,33.578 245.446,27.823 245.446,26.975 245.446,26.749 245.446,25.891 245.446,24.581 245.446,23.426 
							245.446,22.233 						"/>
						<polygon fill="#E41A0B" points="273.049,39.672 266.582,29.266 263.333,24.04 262.059,21.995 260.98,20.259 258.083,22.321 
							258.084,22.323 259.652,24.774 259.988,25.302 261.992,28.431 263.12,30.195 263.333,30.526 263.617,30.971 270.317,40.772 
							270.417,40.929 270.751,40.772 273.169,39.863 						"/>
						<polygon fill="#220A09" points="274.251,50.36 273.146,50.892 273.146,57.615 273.146,62.372 273.146,66.712 273.146,77.968 
							276.677,73.098 276.743,73.065 276.743,67.552 276.743,58.864 276.743,49.169 						"/>
						<polygon fill="#220A09" points="264.778,35.576 263.333,36.606 262.059,37.51 261.165,38.147 261.165,45.78 261.165,46.704 
							261.165,46.715 261.165,48.531 261.165,49.379 261.165,55.666 260.688,57.729 260.493,58.573 260.342,59.221 262.019,58.695 
							263.5,58.229 264.86,57.801 264.86,50.605 264.86,49.171 264.86,47.155 264.86,46.3 264.86,46.188 264.86,45.003 
							264.86,44.037 264.86,35.52 						"/>
						<linearGradient id="SVGID_22_" gradientUnits="userSpaceOnUse" x1="245.1885" y1="-27.0452" x2="245.1885" y2="55.6991">
							<stop  offset="0.1348" style="stop-color:#E0441F"/>
							<stop  offset="0.5337" style="stop-color:#FF0000"/>
							<stop  offset="0.9888" style="stop-color:#890C08"/>
						</linearGradient>
						<path fill="url(#SVGID_22_)" d="M271.246,54.522l-1.029,1.969l-0.051,0.094l-2.809,5.366l-0.438,0.841l-5.189,9.915
							l-0.379,0.729h-10.418h-8.976v-5.514V55.385v-0.808v-3.793V48.56h1.067h1.185h5.449h1.273h0.235h0.513h1.271l0.099,0.023
							h0.066l0.663-0.023l0.904,0.871l0.911,0.877l5.572,5.358v-6.288v-0.848v-1.816v-0.011V45.78v-7.633l-3.238,2.661l-1.245,1.022
							l-3.273,2.688h-0.498h-1.272h-0.708h-1.273h-7.677l-0.023,0.017v-0.017V33.969v-6.358v-0.853v-0.216v-0.866v-0.848v-0.864
							v-0.85v-0.989v-1.852v-0.016h0.956h1.268h2.398h1.27h1.395h1.263h0.89h1.272h4.236h1.272h2.803l1.079,1.735l1.273,2.043
							l3.254,5.229l6.474,10.402l-0.011,0.004l0.12,0.191l-0.01-13.021l-0.014-10.214l0,0l-9.813-0.005h-1.273l-3.81-0.001
							l-1.274-0.001l-4.343-0.002l-1.272-0.001l-1.825-0.001l-1.362-0.001l-3.317-0.001l-4.323-0.002l-7.028-0.003l-10.455-0.004
							h-2.684h-3.158l0.01,0.001l1.325,0.752l0.969,0.549l6.744,3.822v0.002v0.614v0.841v0.653v0.853v1.106v0.847v2.488v0.564v0.996
							v0.573v3.028V55.66v17.894l0,0.002l-0.111,0.063l-0.029,0.016l-2.049,1.116l-0.976,0.532l-4.853,2.646l7.635,0.006
							l1.585,0.002l8.008,0.002l2.981,0.005h1.361l13.747,0.01h3.237l16.354,0.015V66.712v-4.34v-4.757v-6.724l-0.164,0.315
							L271.246,54.522z M235.615,19.039c-0.002-0.006,0-0.014-0.004-0.019c0.006,0.014,0.006,0.012,0.006,0.012
							C235.617,19.034,235.615,19.037,235.615,19.039z"/>
						<polygon fill="#F33A1A" points="272.982,50.807 271.08,49.859 269.79,49.217 269.613,49.13 266.393,55.405 265.862,56.439 
							264.475,59.144 263.75,60.553 263.035,61.949 262.601,62.791 261.33,65.273 258.395,70.99 258.203,71.362 261.35,73.435 
							261.729,72.706 266.918,62.791 267.357,61.95 270.166,56.584 270.216,56.49 271.246,54.522 272.982,51.207 273.146,50.892 
													"/>
						<polygon fill="#F9F4F6" points="255.63,71.362 245.605,71.362 241.956,73.435 250.932,73.435 261.35,73.435 258.203,71.362 
													"/>
						<polygon fill="#67180A" points="255.592,50.308 254.681,49.431 253.777,48.56 253.051,48.56 253.027,52.741 254.322,53.884 
							255.592,55.014 258.655,57.729 259.609,58.573 260.112,59.018 260.176,59.076 260.342,59.221 260.493,58.573 260.688,57.729 
							261.165,55.666 						"/>
						<polygon fill="#F63624" points="264.778,35.503 263.9,35.301 263.333,35.182 262.667,35.043 262.059,34.917 260.897,34.675 
							260.907,34.828 261.165,38.147 262.059,37.51 263.333,36.606 264.86,35.52 						"/>
						<polygon fill="#F7A5B5" points="260.907,34.828 260.897,34.675 257.926,36.972 256.653,37.955 255.278,39.019 252.874,40.94 
							252.177,41.496 251.613,41.949 251.308,42.191 250.929,42.191 249.656,42.191 245.605,42.191 245.605,42.086 245.446,42.086 
							245.446,42.102 241.979,44.517 249.656,44.517 250.929,44.517 251.637,44.517 252.91,44.517 253.408,44.517 256.681,41.829 
							257.926,40.807 261.165,38.147 						"/>
						<polygon fill="#220A09" points="273.146,16.628 273.16,26.842 273.169,39.863 270.751,40.772 270.417,40.929 276.981,40.929 
							276.981,24.562 276.981,21.204 276.981,21.202 276.981,21.204 						"/>
						<polygon fill="#DF1708" points="219.511,17.908 218.541,17.36 217.208,16.604 217.208,16.604 216.605,16.468 216.529,16.449 
							215.293,16.18 214.641,16.038 214.659,16.02 214.65,16.02 213.724,16.933 213.348,17.302 213.184,17.468 213.828,17.823 
							214.323,18.098 215.469,18.728 216.842,19.488 217.979,20.115 222.148,22.418 222.545,22.637 222.545,22.667 223.829,22.343 
							226.255,21.731 226.255,21.729 						"/>
						<polygon fill="#F0290E" points="223.829,22.343 222.545,22.667 222.363,22.713 222.364,22.713 222.364,23.247 222.364,23.654 
							222.364,24.498 222.364,25.781 222.364,26.625 222.364,28.874 222.364,29.439 222.364,30.939 222.364,31.505 222.364,33.942 
							222.364,57.087 222.364,72.454 222.545,72.506 226.255,73.556 226.255,73.554 226.255,55.66 226.255,34.295 226.255,31.267 
							226.255,30.694 226.255,29.698 226.255,29.134 226.255,26.645 226.255,25.798 226.255,24.692 226.255,23.839 226.255,23.186 
							226.255,22.345 226.255,21.731 						"/>
						<g>
							<linearGradient id="SVGID_23_" gradientUnits="userSpaceOnUse" x1="248.8525" y1="5.0715" x2="248.8525" y2="58.5398">
								<stop  offset="0" style="stop-color:#FFFFFF"/>
								<stop  offset="0.6966" style="stop-color:#FF0000"/>
								<stop  offset="1" style="stop-color:#220A09"/>
							</linearGradient>
							<path fill="url(#SVGID_23_)" d="M390.388,40.25c-1.026-5.241-3.314-9.104-5.127-11.483c-1.413-1.855-2.533-2.809-2.533-2.809
								c-1.723-1.679-3.592-3.101-5.527-4.313c-7.556-4.735-16.072-6.175-20.555-6.614c-0.478-0.046-0.907-0.081-1.283-0.109
								c-1.181-0.083-1.869-0.083-1.869-0.083l-0.745-0.009l-3.677-0.041l-1.094-0.012l-2.16-0.024l-0.927-0.011l-2.055-0.022
								l-20.964-0.236l0.274,0.245l1.123,0.996l0.612,0.543l0.613,0.547c0,0-0.023,0-0.017,0.005h0.047l0.031,0.019l17.165,0.08
								l1.094,0.004l10.678,0.051c0.686,0.036,1.354,0.094,2.017,0.158c0.432,0.042,0.857,0.09,1.282,0.144
								c6.541,0.833,11.718,2.966,15.434,5.062c4.523,2.553,6.881,5.045,6.881,5.045c0.937,0.941,1.751,1.942,2.469,2.973
								c5.669,8.13,5.041,18.288,5.041,18.288c-0.137,3.894-1.248,7.42-2.306,9.94c-1.017,2.434-1.983,3.939-1.983,3.939
								c-1.629,2.694-3.724,4.908-5.851,6.694c-3.221,2.71-6.524,4.43-8.406,5.281c-8.853,3.354-17.899,3.236-17.899,3.236h-13.717
								h-1.839h-11.35l-50.12,0.232l-16.354-0.015h-3.237l-13.747-0.01h-1.361l-2.981-0.005l-8.008-0.002l-1.585-0.002l-7.635-0.006
								l-1.943,3.537l-7.214,13.131H109.053l-2.272,2.157h104.592l2.543-4.402l0.648-1.121l0.513-0.893l0.377-0.649l0.169-0.293
								l0.655-1.136l4.345-7.521l0.497-0.859h5.229h1.857h1.664h7.37h0.948h3.554h1.31h3.344h1.67h5.681h4.301h6.931h2.553h35.101
								h4.36h15.688h1.055h7.21h2.149h12.585c5.23-0.099,10.484-0.359,15.641-0.938c0.792-0.09,1.522-0.146,2.312-0.239
								c0.967-0.108,1.917-0.283,2.885-0.387c0.396-0.039,0.801-0.066,1.198-0.11c0.173-0.019,0.694-0.024,0.806-0.133l-0.074,0.138
								l3.71-2.083c2.276-0.962,4.272-2.112,6.026-3.387c0,0,2.622-1.472,2.61-1.476l0.517-1.165
								c0.496-0.482,0.962-0.975,1.406-1.475c3.323-3.722,5.276-7.849,6.42-11.354c1.531-4.691,1.623-8.27,1.623-8.27
								c0.014-0.123,0.019-0.241,0.027-0.365l0.023-0.043C391.071,45.513,390.875,42.726,390.388,40.25z"/>
							<g>
								<linearGradient id="SVGID_24_" gradientUnits="userSpaceOnUse" x1="234.8853" y1="54.7971" x2="190.1783" y2="103.252">
									<stop  offset="0" style="stop-color:#FFFFFF"/>
									<stop  offset="1" style="stop-color:#FF0000"/>
								</linearGradient>
								<polygon fill="url(#SVGID_24_)" points="222.545,72.506 222.364,72.454 222.364,72.454 222.097,72.606 221.121,73.157 
									218.919,74.402 206.186,81.605 202.01,83.966 196.328,87.182 197.769,89.044 197.78,89.044 209.575,82.627 223.088,75.281 
									224.064,74.75 226.115,73.634 226.144,73.618 226.255,73.556 								"/>
								<linearGradient id="SVGID_25_" gradientUnits="userSpaceOnUse" x1="201.8066" y1="88.1125" x2="168.0247" y2="88.1125">
									<stop  offset="0" style="stop-color:#FFFFFF"/>
									<stop  offset="1" style="stop-color:#F49ECA"/>
								</linearGradient>
								<polygon fill="url(#SVGID_25_)" points="196.326,87.182 182.555,87.182 163.259,87.182 142.401,87.182 142.399,87.182 
									142.361,87.218 136.955,89.044 197.769,89.044 196.328,87.182 								"/>
								<g>
									<linearGradient id="SVGID_26_" gradientUnits="userSpaceOnUse" x1="177.5454" y1="9.1746" x2="154.7305" y2="43.4498">
										<stop  offset="0" style="stop-color:#FF0000"/>
										<stop  offset="1" style="stop-color:#890C08"/>
									</linearGradient>
									<polygon fill="url(#SVGID_26_)" points="127.588,76.045 135.873,67.754 152.064,51.547 153.542,50.072 165.475,38.126 
										168.047,35.552 172.023,31.573 172.16,31.436 175.281,28.312 176.23,27.362 179.224,24.366 193.386,10.193 186.416,12.544 
										174.172,24.74 167.156,31.727 166.566,32.313 162.497,36.367 160.034,38.822 148.509,50.302 147.451,51.354 
										130.417,68.321 122.425,76.281 117.627,81.06 104.42,94.216 109.067,94.581 121.549,82.089 									"/>
									<g>
										<g>
											
												<linearGradient id="SVGID_27_" gradientUnits="userSpaceOnUse" x1="163.7739" y1="-159.2732" x2="163.7739" y2="949.986">
												<stop  offset="0.1236" style="stop-color:#FF0000"/>
												<stop  offset="1" style="stop-color:#220A09"/>
											</linearGradient>
											<polygon fill="url(#SVGID_27_)" points="223.457,3.121 223.197,3.12 221.866,3.115 212.961,3.081 212.274,3.08 
												210.233,3.072 209.085,3.068 206.703,3.06 205.413,3.054 116.319,2.724 101.812,27.792 101.874,27.764 101.851,27.753 
												107.983,25.059 119.476,5.372 119.493,5.372 119.516,5.335 205.158,5.335 206.437,5.335 212.021,5.335 213.116,5.335 
												220.879,5.335 221.008,5.335 220.942,5.398 217.038,9.284 216.461,9.856 205.516,20.749 204.216,22.043 200.72,25.521 
												199.89,26.348 196.833,29.389 188.351,37.828 186.285,39.886 175.185,50.93 172.205,53.895 152.77,73.236 
												147.706,78.276 142.218,83.738 136.885,89.044 142.399,87.182 142.568,87.012 142.397,87.012 146.297,83.179 
												150.419,79.127 154.705,74.915 175.431,54.539 178.766,51.261 190.399,39.822 192.846,37.419 200.499,29.896 
												203.952,26.501 204.237,26.22 204.351,26.109 205.619,24.863 207.819,22.698 208.698,21.835 210.341,20.22 
												210.878,19.692 212.563,18.035 213.116,17.491 213.141,17.505 213.31,17.34 213.724,16.923 214.587,16.051 
												214.61,16.056 214.779,15.891 216.087,14.475 216.107,14.455 217.214,13.382 219.523,11.138 220.074,10.602 
												223.332,7.436 223.829,6.952 224.451,6.349 225.17,5.65 225.736,5.1 											"/>
											<linearGradient id="SVGID_28_" gradientUnits="userSpaceOnUse" x1="141.1318" y1="3.9602" x2="108.4673" y2="29.2961">
												<stop  offset="0.1236" style="stop-color:#FF0000"/>
												<stop  offset="1" style="stop-color:#220A09"/>
											</linearGradient>
											<polygon fill="url(#SVGID_28_)" points="108.005,25.047 107.983,25.059 107.966,25.085 101.874,27.764 105.758,29.83 
												138.635,12.544 136.467,10.193 											"/>
											<linearGradient id="SVGID_29_" gradientUnits="userSpaceOnUse" x1="220.4082" y1="11.3689" x2="131.9789" y2="11.3689">
												<stop  offset="0.1236" style="stop-color:#FF0000"/>
												<stop  offset="1" style="stop-color:#220A09"/>
											</linearGradient>
											<polygon fill="url(#SVGID_29_)" points="193.357,10.193 136.467,10.193 138.635,12.544 186.414,12.544 186.416,12.544 
												186.432,12.529 											"/>
											<linearGradient id="SVGID_30_" gradientUnits="userSpaceOnUse" x1="205.7715" y1="-10.4666" x2="141.6325" y2="82.9932">
												<stop  offset="0" style="stop-color:#FFFFFF"/>
												<stop  offset="0.6966" style="stop-color:#FF0000"/>
												<stop  offset="0.9888" style="stop-color:#890C08"/>
											</linearGradient>
											<path fill="url(#SVGID_30_)" d="M197.78,89.044h-0.012h-60.813l-0.112,0.037l5.372-5.344l5.488-5.462l5.066-5.04
												l19.431-19.341l2.982-2.965l11.1-11.044l2.065-2.058l8.482-8.44l3.056-3.041l0.833-0.827l3.497-3.48l1.3-1.292
												l10.945-10.895l0.576-0.571l3.904-3.886c-0.009-0.009-0.016-0.018-0.025-0.026h-7.755h-1.094h-5.636h-1.278h-85.66
												l-11.488,19.675l28.462-14.854h56.89l0.044-0.016l-14.177,14.189l-2.993,2.996l-0.949,0.95l-3.121,3.124l-0.138,0.137
												l-3.976,3.979l-2.571,2.575l-11.936,11.945l-1.477,1.476l-16.191,16.207l-8.285,8.291l-6.038,6.044L109.07,94.581h-0.003
												l-0.015,0.016H209.08l7.214-13.131l1.943-3.537l-8.644,4.694L197.78,89.044z M174.594,34.948l8.236-6.704l2.269-1.848
												l2.61-2.124L203.9,11.09l-11.251,13.445l-1.42,1.698l-1.978,2.362l-6.776,8.099l-2.196,2.624l-1.088,0.349l-6.727,2.163
												l-0.022-4.5l-0.003-0.627L174.594,34.948z M168.437,45.943l0.927,4.546l0.174,0.847l-5.136,1.335l-4.342,1.128
												l-0.277-1.658l-0.346-2.075l-0.342-2.037L168.437,45.943z M126.151,87.087l2.949-3.559l6.063-7.308l6.603-7.966
												l6.454-7.78l7.894-3.043l0.161,5.664l-8.75,6.97l-8.229,6.553l-8.868,7.061L126.151,87.087z"/>
										</g>
										<linearGradient id="SVGID_31_" gradientUnits="userSpaceOnUse" x1="161.0991" y1="54.1526" x2="199.408" y2="11.3337">
											<stop  offset="0.0449" style="stop-color:#FF0000"/>
											<stop  offset="0.9888" style="stop-color:#890C08"/>
										</linearGradient>
										<polygon fill="url(#SVGID_31_)" points="176.972,38.349 177.386,37.93 180.196,35.086 186.779,28.421 188.909,26.264 
											190.745,24.406 203.9,11.09 187.709,24.272 185.1,26.396 182.831,28.244 174.594,34.948 172.438,36.702 173.778,37.19 
																					"/>
										<polygon fill="#D0150E" points="172.464,41.829 176.972,38.349 173.778,37.19 172.438,36.702 172.441,37.329 										
											"/>
										<linearGradient id="SVGID_32_" gradientUnits="userSpaceOnUse" x1="177.3228" y1="43.0603" x2="202.6796" y2="7.7458">
											<stop  offset="0.0449" style="stop-color:#FF0000"/>
											<stop  offset="0.9888" style="stop-color:#F64646"/>
										</linearGradient>
										<path fill="url(#SVGID_32_)" d="M188.909,26.264l-2.129,2.157l-6.583,6.665l-2.81,2.844l0.663,0.639
											c0.947,0.208,2.178,0.519,2.229,0.749l2.196-2.624l6.776-8.099l1.978-2.362l1.42-1.698L203.9,11.09l-13.155,13.316
											L188.909,26.264z"/>
										<path fill="#F64646" d="M178.049,38.569c-0.596-0.13-1.078-0.219-1.078-0.219l-4.508,3.48l6.727-2.163l1.088-0.349
											C180.228,39.088,178.996,38.776,178.049,38.569z"/>
										<polygon fill="#220A09" points="168.437,45.943 159.094,48.028 165.376,50.166 										"/>
										<polygon fill="#E91709" points="165.803,50.284 169.538,51.335 169.364,50.489 168.437,45.943 165.376,50.166 										
											"/>
										<linearGradient id="SVGID_33_" gradientUnits="userSpaceOnUse" x1="166.7832" y1="61.387" x2="161.5888" y2="38.3001">
											<stop  offset="0" style="stop-color:#FFFFFF"/>
											<stop  offset="1" style="stop-color:#FF0000"/>
										</linearGradient>
										<polygon fill="url(#SVGID_33_)" points="165.376,50.166 165.243,50.257 162.118,52.39 160.06,53.798 164.402,52.67 
											169.538,51.335 165.803,50.284 										"/>
										<polygon fill="#E81509" points="159.782,52.14 160.06,53.798 162.118,52.39 165.243,50.257 165.376,50.166 
											159.094,48.028 159.436,50.065 										"/>
										<polygon fill="#C6160C" points="156.274,63.096 156.113,57.432 153.455,61.866 										"/>
										<polygon fill="#220A09" points="156.113,57.432 148.219,60.475 153.455,61.866 										"/>
										<polygon fill="#5A0B0B" points="137.681,76.437 145.461,69.249 153.455,61.866 148.219,60.475 141.765,68.255 
											135.163,76.221 129.1,83.529 126.151,87.087 129.898,83.623 										"/>
										<polygon fill="#F64646" points="147.524,70.066 156.274,63.096 153.455,61.866 145.461,69.249 137.681,76.437 
											129.898,83.623 126.151,87.087 130.428,83.679 139.295,76.618 										"/>
									</g>
								</g>
							</g>
						</g>
						<linearGradient id="SVGID_34_" gradientUnits="userSpaceOnUse" x1="189.6528" y1="15.5325" x2="335.535" y2="15.5325">
							<stop  offset="0" style="stop-color:#FFFFFF"/>
							<stop  offset="0.5281" style="stop-color:#FF0000"/>
							<stop  offset="1" style="stop-color:#FFFFFF"/>
						</linearGradient>
						<polygon fill="url(#SVGID_34_)" points="288.65,14.447 287.552,14.447 285.603,14.448 284.939,14.448 280.69,14.45 
							279.201,14.45 273.025,14.452 272.187,14.452 263.333,14.456 262.059,14.456 257.942,14.458 256.65,14.459 252.359,14.46 
							251.015,14.46 247.199,14.463 240.9,14.466 227.705,14.47 219.401,14.474 216.087,14.475 216.218,14.475 214.779,15.891 
							214.659,16.02 215.305,16.169 216.529,16.449 216.605,16.468 217.224,16.601 220.373,16.601 223.049,16.604 233.504,16.608 
							240.532,16.612 244.855,16.614 248.173,16.615 249.535,16.616 251.36,16.617 252.632,16.618 256.975,16.62 258.25,16.621 
							262.059,16.622 263.333,16.622 273.146,16.628 273.146,16.627 273.146,16.628 273.146,16.604 273.202,16.628 284.417,16.62 
							285.053,16.62 306.094,16.605 307.204,16.605 309.538,16.604 312.876,14.437 						"/>
						<polygon fill="#220A09" points="253.027,52.741 253.051,48.56 252.949,48.56 251.677,48.56 251.165,48.56 250.929,48.56 
							249.656,48.56 244.208,48.56 243.022,48.56 241.956,48.56 241.956,50.784 241.956,54.577 241.956,55.385 241.956,67.921 
							241.956,73.435 245.605,71.362 245.605,65.952 245.605,56.1 245.605,55.532 245.605,51.021 246.427,51.021 247.297,51.021 
							249.656,51.021 250.929,51.021 251.073,51.021 251.708,51.584 252.991,52.722 254.322,53.895 254.322,53.884 						"/>
					</g>
				</g>
			</g>
		</g>
	</g>
</g>
<g>
	<path fill="#C10505" d="M318.265,7.486l-1.232,1.093v5.449l-0.938-0.687c0,0-0.868,0.672-2.423,0.672
		c-2.704,0-4.539-2.465-4.539-5.883c0-3.432,1.835-5.897,4.539-5.897c1.807,0,2.423,0.687,2.423,0.687l0.938-0.687v4.553
		c-0.504-1.541-1.765-3.418-2.998-3.418c-1.316,0-2.269,1.513-2.269,4.763c0,3.25,0.952,4.749,2.269,4.749
		c0.351,0,0.589-0.098,0.883-0.266V8.536l-1.274-1.051H318.265z M310.099,8.144l0.364,0.49l0.364-0.49l-0.364-0.504L310.099,8.144z
		 M310.281,6.477l0.225,0.504l0.35-0.434c0.141-1.064,0.406-2.129,1.009-2.857C310.996,4.264,310.491,5.343,310.281,6.477z
		 M311.793,12.584c-0.602-0.728-0.896-1.695-0.938-2.843l-0.35-0.448l-0.225,0.504C310.393,10.904,310.925,11.996,311.793,12.584z"
		/>
	<path fill="#C10505" d="M322.645,13.719l1.135-0.869l-0.616-2.619h-2.199l-0.742,2.633l0.91,0.854h-3.572l1.233-0.966l2.619-9.301
		l-1.232-0.938h3.684l2.605,10.24l1.232,0.966H322.645z M322.912,9.082l-0.715-3.124l-0.91,3.124H322.912z M323.303,6.547
		l0.463,0.448l0.182-0.603l-1.022-2.787L323.303,6.547z M324.144,8.634l0.238-0.574l-0.477-0.434l-0.238,0.602L324.144,8.634z
		 M324.747,9.699l-0.448-0.448l-0.196,0.616l1.036,2.788L324.747,9.699z"/>
	<path fill="#C10505" d="M337.726,12.753l1.232,0.966h-4.763l1.232-0.966V6.155l-2.591,7.872l-2.577-7.872v6.598l1.246,0.966h-4.16
		l1.232-0.966V3.451l-1.232-0.938h4.37l1.583,5.281l1.597-5.281h4.063l-1.232,0.938V12.753z M331.1,5.917l0.435,0.35l0.182-0.518
		l-1.008-2.297L331.1,5.917z M331.506,7.345l0.463,0.378l0.21-0.588l-0.49-0.406L331.506,7.345z M332.95,10.973l-0.406-2.479
		l-0.435-0.351l-0.182,0.532L332.95,10.973z"/>
	<path fill="#C10505" d="M343.113,3.676v3.768h0.784l1.358-1.667v4.524l-1.358-1.765h-0.784v4.034h2.03l1.892-3.474v4.623h-7.732
		l1.261-0.966V3.451l-1.261-0.938h7.732v4.623l-1.892-3.46H343.113z M342.188,8.102l-0.364-0.518l-0.351,0.518l0.351,0.504
		L342.188,8.102z M341.837,3.55h-0.027l-0.309,2.843l0.322,0.546l0.336-0.546L341.837,3.55z M342.16,9.797l-0.336-0.546
		l-0.322,0.546l0.322,2.969L342.16,9.797z"/>
	<path fill="#C10505" d="M355.701,10.749c0,2.27-1.863,3.278-3.769,3.278c-1.064,0-1.849-0.294-2.563-0.616l-1.051,0.616
		l-0.042-4.931c1.064,2.788,2.451,3.656,3.613,3.656c0.869,0,1.583-0.645,1.583-1.625c0-1.022-1.177-1.597-2.367-2.241
		c-1.331-0.714-2.703-1.541-2.703-3.544c0-2.101,1.583-3.11,3.529-3.11c1.051,0,1.751,0.308,2.27,0.616l0.91-0.602v4.174
		c-0.658-2.045-1.975-2.97-3.165-2.97c-0.869,0-1.443,0.574-1.443,1.289c0,0.953,1.009,1.443,2.199,2.059
		C354.104,7.556,355.701,8.592,355.701,10.749z M351.064,7.374l-0.266-0.588c-0.967-0.462-1.499-1.359-1.149-2.676
		c-0.658,1.247-0.462,2.521,0.771,3.32L351.064,7.374z M352.507,8.228l-0.238-0.602l-0.658,0.084l0.266,0.603L352.507,8.228z
		 M353.711,8.508l-0.658,0.056l0.28,0.588c1.009,0.532,1.373,1.751,0.91,3.04C355,11.099,354.917,9.321,353.711,8.508z"/>
	<path fill="#C10505" d="M363.497,3.676v3.95h0.966l1.135-1.695v4.482l-1.135-1.695h-0.966v4.034l1.246,0.966h-5.057l1.261-0.966
		V3.451l-1.261-0.938h7.732v4.623l-1.905-3.46H363.497z M362.572,8.102l-0.364-0.518l-0.351,0.518l0.351,0.504L362.572,8.102z
		 M361.885,6.393l0.322,0.546l0.351-0.546l-0.351-2.941L361.885,6.393z M362.558,9.797l-0.337-0.546l-0.336,0.546l0.336,2.969
		L362.558,9.797z"/>
	<path fill="#C10505" d="M377.206,8.13c0,3.417-1.808,5.883-4.524,5.883c-2.704,0-4.539-2.465-4.539-5.883
		c0-3.432,1.835-5.897,4.539-5.897C375.398,2.233,377.206,4.698,377.206,8.13z M369.109,8.144l0.364,0.49l0.364-0.49l-0.364-0.504
		L369.109,8.144z M369.291,6.477l0.225,0.504l0.35-0.434c0.141-1.064,0.406-2.129,1.009-2.857
		C370.005,4.264,369.5,5.343,369.291,6.477z M370.803,12.584c-0.602-0.728-0.896-1.695-0.938-2.843l-0.35-0.448l-0.225,0.504
		C369.403,10.904,369.935,11.996,370.803,12.584z M374.711,8.102c0-3.292-0.687-4.65-1.961-4.65c-1.288,0-1.975,1.359-1.975,4.65
		c0,3.306,0.687,4.665,1.975,4.665C374.025,12.766,374.711,11.408,374.711,8.102z M372.75,6.407l1.051,1.765l-1.051,1.695
		l-1.022-1.695L372.75,6.407z"/>
	<path fill="#C10505" d="M381.346,8.719v4.034l1.246,0.966h-5.057l1.261-0.966V3.451l-1.261-0.938h4.37
		c3.068,0,4.637,1.106,4.637,3.025c0,1.625-1.051,2.605-2.802,2.928l2.605,4.104l1.191,1.148h-3.236L381.346,8.719z M380.421,8.102
		l-0.364-0.518l-0.351,0.518l0.351,0.504L380.421,8.102z M380.057,3.451l-0.322,2.941l0.322,0.546l0.351-0.546L380.057,3.451z
		 M380.408,9.797l-0.337-0.546l-0.336,0.546l0.336,2.969L380.408,9.797z M381.556,3.676h-0.21v3.628h0.195
		c1.751,0,2.521-0.729,2.521-1.849C384.063,4.32,383.25,3.676,381.556,3.676z"/>
	<path fill="#C10505" d="M394.631,3.676v3.95h0.966l1.135-1.695v4.482l-1.135-1.695h-0.966v4.034l1.246,0.966h-5.057l1.261-0.966
		V3.451l-1.261-0.938h7.732v4.623l-1.905-3.46H394.631z M393.707,8.102l-0.364-0.518l-0.351,0.518l0.351,0.504L393.707,8.102z
		 M393.02,6.393l0.322,0.546l0.351-0.546l-0.351-2.941L393.02,6.393z M393.693,9.797l-0.337-0.546l-0.336,0.546l0.336,2.969
		L393.693,9.797z"/>
	<path fill="#C10505" d="M402.835,13.719l1.135-0.869l-0.616-2.619h-2.199l-0.742,2.633l0.91,0.854h-3.572l1.233-0.966l2.619-9.301
		l-1.232-0.938h3.684l2.605,10.24l1.232,0.966H402.835z M403.102,9.082l-0.715-3.124l-0.91,3.124H403.102z M403.494,6.547
		l0.463,0.448l0.182-0.603l-1.022-2.787L403.494,6.547z M404.334,8.634l0.238-0.574l-0.477-0.434l-0.238,0.602L404.334,8.634z
		 M404.937,9.699l-0.448-0.448l-0.196,0.616l1.036,2.788L404.937,9.699z"/>
	<path fill="#C10505" d="M416.993,2.513l-1.246,0.938v10.576l-5.281-7.55v6.275l1.247,0.966h-4.175l1.232-0.966V3.451l-1.232-0.938
		h3.166l3.39,4.931V3.451l-1.247-0.938H416.993z M411.712,6.211l-0.028-0.645l-1.976-2.199l1.429,2.591L411.712,6.211z
		 M412.693,6.968l-0.617-0.238l0.015,0.645l0.574,0.21L412.693,6.968z M415.045,10.973l-1.414-2.605l-0.574-0.266l0.027,0.645
		L415.045,10.973z"/>
	<path fill="#C10505" d="M425.097,10.749c0,2.27-1.863,3.278-3.769,3.278c-1.064,0-1.849-0.294-2.563-0.616l-1.051,0.616
		l-0.042-4.931c1.064,2.788,2.451,3.656,3.613,3.656c0.869,0,1.583-0.645,1.583-1.625c0-1.022-1.177-1.597-2.367-2.241
		c-1.331-0.714-2.703-1.541-2.703-3.544c0-2.101,1.583-3.11,3.529-3.11c1.051,0,1.751,0.308,2.27,0.616l0.91-0.602v4.174
		c-0.658-2.045-1.975-2.97-3.165-2.97c-0.869,0-1.443,0.574-1.443,1.289c0,0.953,1.009,1.443,2.199,2.059
		C423.5,7.556,425.097,8.592,425.097,10.749z M420.46,7.374l-0.266-0.588c-0.967-0.462-1.499-1.359-1.149-2.676
		c-0.658,1.247-0.462,2.521,0.771,3.32L420.46,7.374z M421.904,8.228l-0.238-0.602l-0.658,0.084l0.266,0.603L421.904,8.228z
		 M423.108,8.508l-0.658,0.056l0.28,0.588c1.009,0.532,1.373,1.751,0.91,3.04C424.397,11.099,424.313,9.321,423.108,8.508z"/>
</g>
</svg>
