<?xml version="1.0" standalone="no"?>
<!DOCTYPE svg PUBLIC "-//W3C//DTD SVG 20010904//EN"
 "http://www.w3.org/TR/2001/REC-SVG-20010904/DTD/svg10.dtd">
<svg version="1.0" xmlns="http://www.w3.org/2000/svg"
 width="331.000000pt" height="152.000000pt" viewBox="0 0 331.000000 152.000000"
 preserveAspectRatio="xMidYMid meet">
<metadata>
Created by potrace 1.16, written by Peter Selinger 2001-2019
</metadata>
<g transform="translate(0.000000,152.000000) scale(0.100000,-0.100000)"
fill="#000000" stroke="none">
<path d="M175 1450 c-15 -7 -10 -9 23 -9 35 -1 42 -4 42 -20 0 -15 8 -21 33
-24 l32 -4 -32 -1 -33 -2 0 -392 c0 -239 -4 -388 -9 -383 -5 6 -10 143 -11
310 -2 356 -7 435 -26 435 -10 0 -14 -13 -14 -40 0 -22 5 -40 10 -40 6 0 10
-18 10 -40 0 -22 -4 -40 -10 -40 -5 0 -10 -19 -10 -42 0 -59 -11 -118 -21
-118 -5 0 -9 89 -9 198 -1 135 -4 192 -11 180 -12 -21 -8 -1332 4 -1345 5 -4
685 -8 1512 -8 1221 0 1506 2 1517 13 19 19 19 1345 0 1364 -11 11 -294 13
-1495 15 -815 1 -1491 -2 -1502 -7z m289 -132 c3 -13 7 -49 9 -81 3 -50 8 -62
31 -81 23 -18 26 -24 15 -32 -41 -32 -101 -19 -118 25 -5 14 -30 47 -56 74
-35 36 -45 52 -40 68 8 25 46 40 84 33 16 -4 32 -1 35 5 12 19 35 12 40 -11z
m71 12 c4 -6 33 -24 65 -40 33 -17 69 -43 81 -60 42 -56 48 -2 7 69 -10 18
-17 35 -15 37 7 8 84 -21 105 -40 15 -14 22 -31 22 -58 0 -21 -4 -38 -10 -38
-5 0 -10 -12 -11 -27 0 -16 -4 -37 -8 -47 -7 -18 -8 -18 -24 5 -23 32 -21 11
4 -57 12 -31 25 -52 29 -47 4 4 10 38 12 76 5 78 21 103 62 93 14 -3 26 -13
26 -21 0 -20 19 -29 35 -15 20 17 35 4 35 -30 0 -33 -16 -74 -42 -108 -9 -13
-14 -30 -11 -38 7 -18 37 -18 52 0 7 8 22 17 35 20 21 5 24 13 28 63 4 58 32
133 49 133 6 0 5 -9 -1 -20 -6 -12 -9 -85 -8 -192 l3 -173 43 -3 42 -3 0 -160
0 -159 65 0 65 0 0 -31 c0 -22 9 -40 31 -60 l31 -29 -28 -41 c-15 -22 -52 -55
-83 -73 -31 -18 -62 -44 -69 -59 -17 -34 -27 -34 -62 3 -22 24 -70 108 -70
123 0 2 28 3 63 3 57 -1 62 1 65 21 4 24 -32 64 -78 88 -34 18 -109 25 -156
14 -177 -38 -216 -42 -249 -27 -14 6 -26 15 -26 20 -1 4 -2 13 -3 18 -1 13 -6
14 -71 5 -30 -3 -64 -4 -74 0 -23 7 -42 58 -37 100 2 17 4 45 5 63 1 47 20 37
52 -27 40 -79 96 -111 69 -39 -7 18 -16 53 -19 77 -5 41 -9 46 -41 54 -19 5
-39 13 -45 18 -14 14 -23 11 -30 -11 -15 -48 -65 -1 -88 83 -20 70 -30 240
-14 234 6 -2 20 -28 30 -58 23 -68 32 -77 57 -61 28 17 54 1 91 -56 l30 -47
-2 55 c-2 57 -19 93 -56 123 -32 25 -29 52 6 67 42 17 64 9 83 -30 l17 -35 0
30 c1 17 -15 68 -35 115 -56 133 -67 168 -60 195 7 26 20 32 31 15z m2259
-292 c-19 -64 -34 -88 -53 -88 -25 0 -27 -22 -5 -45 22 -22 37 -14 48 24 11
37 60 91 83 91 11 0 13 -4 6 -12 -5 -7 -11 -33 -12 -57 -3 -58 -15 -80 -57
-97 -42 -18 -40 -36 4 -39 18 -2 36 -5 39 -8 13 -14 -9 -36 -42 -43 -26 -5
-42 -15 -56 -38 -21 -34 -11 -58 15 -37 13 11 15 8 14 -24 -1 -23 -8 -39 -19
-45 -13 -8 -17 -6 -15 8 2 9 -2 20 -8 24 -6 4 -11 11 -12 15 -1 13 -17 48 -24
53 -10 8 -45 143 -43 165 1 11 -1 14 -3 7 -3 -6 -10 -9 -16 -6 -5 3 -2 14 8
25 10 11 20 39 24 62 5 40 7 42 38 39 26 -3 34 1 44 22 15 34 53 37 42 4z"/>
</g>
</svg>
